%TF.GenerationSoftware,KiCad,Pcbnew,8.0.5-1.fc40*%
%TF.CreationDate,2024-10-23T10:10:35-04:00*%
%TF.ProjectId,payload_board,7061796c-6f61-4645-9f62-6f6172642e6b,rev?*%
%TF.SameCoordinates,Original*%
%TF.FileFunction,Paste,Bot*%
%TF.FilePolarity,Positive*%
%FSLAX46Y46*%
G04 Gerber Fmt 4.6, Leading zero omitted, Abs format (unit mm)*
G04 Created by KiCad (PCBNEW 8.0.5-1.fc40) date 2024-10-23 10:10:35*
%MOMM*%
%LPD*%
G01*
G04 APERTURE LIST*
G04 Aperture macros list*
%AMRoundRect*
0 Rectangle with rounded corners*
0 $1 Rounding radius*
0 $2 $3 $4 $5 $6 $7 $8 $9 X,Y pos of 4 corners*
0 Add a 4 corners polygon primitive as box body*
4,1,4,$2,$3,$4,$5,$6,$7,$8,$9,$2,$3,0*
0 Add four circle primitives for the rounded corners*
1,1,$1+$1,$2,$3*
1,1,$1+$1,$4,$5*
1,1,$1+$1,$6,$7*
1,1,$1+$1,$8,$9*
0 Add four rect primitives between the rounded corners*
20,1,$1+$1,$2,$3,$4,$5,0*
20,1,$1+$1,$4,$5,$6,$7,0*
20,1,$1+$1,$6,$7,$8,$9,0*
20,1,$1+$1,$8,$9,$2,$3,0*%
G04 Aperture macros list end*
%ADD10RoundRect,0.237500X0.237500X-0.250000X0.237500X0.250000X-0.237500X0.250000X-0.237500X-0.250000X0*%
%ADD11RoundRect,0.112500X-0.112500X0.187500X-0.112500X-0.187500X0.112500X-0.187500X0.112500X0.187500X0*%
%ADD12R,0.600000X1.000000*%
%ADD13R,1.250000X1.800000*%
%ADD14RoundRect,0.250000X-0.400000X-0.625000X0.400000X-0.625000X0.400000X0.625000X-0.400000X0.625000X0*%
%ADD15RoundRect,0.150000X-0.512500X-0.150000X0.512500X-0.150000X0.512500X0.150000X-0.512500X0.150000X0*%
%ADD16RoundRect,0.237500X0.300000X0.237500X-0.300000X0.237500X-0.300000X-0.237500X0.300000X-0.237500X0*%
%ADD17RoundRect,0.237500X0.250000X0.237500X-0.250000X0.237500X-0.250000X-0.237500X0.250000X-0.237500X0*%
%ADD18RoundRect,0.237500X-0.300000X-0.237500X0.300000X-0.237500X0.300000X0.237500X-0.300000X0.237500X0*%
%ADD19RoundRect,0.237500X-0.237500X0.300000X-0.237500X-0.300000X0.237500X-0.300000X0.237500X0.300000X0*%
%ADD20RoundRect,0.155000X-0.212500X-0.155000X0.212500X-0.155000X0.212500X0.155000X-0.212500X0.155000X0*%
%ADD21RoundRect,0.112500X0.112500X-0.187500X0.112500X0.187500X-0.112500X0.187500X-0.112500X-0.187500X0*%
%ADD22R,0.900000X0.800000*%
%ADD23RoundRect,0.250000X0.412500X0.650000X-0.412500X0.650000X-0.412500X-0.650000X0.412500X-0.650000X0*%
%ADD24R,1.524000X1.701800*%
%ADD25R,0.254000X0.812800*%
%ADD26RoundRect,0.150000X0.512500X0.150000X-0.512500X0.150000X-0.512500X-0.150000X0.512500X-0.150000X0*%
%ADD27R,1.000000X0.600000*%
%ADD28R,1.800000X1.250000*%
%ADD29RoundRect,0.237500X-0.250000X-0.237500X0.250000X-0.237500X0.250000X0.237500X-0.250000X0.237500X0*%
%ADD30RoundRect,0.237500X-0.237500X0.250000X-0.237500X-0.250000X0.237500X-0.250000X0.237500X0.250000X0*%
%ADD31R,1.850000X0.900000*%
%ADD32R,1.850000X3.200000*%
%ADD33RoundRect,0.162500X-0.617500X-0.162500X0.617500X-0.162500X0.617500X0.162500X-0.617500X0.162500X0*%
%ADD34RoundRect,0.250001X0.462499X0.849999X-0.462499X0.849999X-0.462499X-0.849999X0.462499X-0.849999X0*%
%ADD35RoundRect,0.250000X-0.412500X-0.650000X0.412500X-0.650000X0.412500X0.650000X-0.412500X0.650000X0*%
G04 APERTURE END LIST*
D10*
%TO.C,R19*%
X52250000Y-85575000D03*
X52250000Y-83750000D03*
%TD*%
D11*
%TO.C,D7*%
X50500000Y-83650000D03*
X50500000Y-85750000D03*
%TD*%
D12*
%TO.C,J8*%
X35095000Y-64270000D03*
X33595000Y-64270000D03*
D13*
X37700000Y-69460000D03*
X30990000Y-69460000D03*
%TD*%
D14*
%TO.C,R13*%
X64075600Y-73169796D03*
X67175600Y-73169796D03*
%TD*%
D15*
%TO.C,U4*%
X94082500Y-86142000D03*
X94082500Y-85192000D03*
X94082500Y-84242000D03*
X96357500Y-84242000D03*
X96357500Y-86142000D03*
%TD*%
D16*
%TO.C,C18*%
X100862500Y-50500000D03*
X99137500Y-50500000D03*
%TD*%
D17*
%TO.C,R18*%
X56775001Y-70350000D03*
X54950001Y-70350000D03*
%TD*%
D18*
%TO.C,C20*%
X53475000Y-81000000D03*
X55200000Y-81000000D03*
%TD*%
D14*
%TO.C,R14*%
X93670000Y-82321800D03*
X96770000Y-82321800D03*
%TD*%
D19*
%TO.C,C23*%
X58750000Y-79137500D03*
X58750000Y-80862500D03*
%TD*%
D20*
%TO.C,C16*%
X64412500Y-67359201D03*
X65547500Y-67359201D03*
%TD*%
D21*
%TO.C,D9*%
X56250001Y-77150000D03*
X56250001Y-75050000D03*
%TD*%
D22*
%TO.C,Q1*%
X87954000Y-83246000D03*
X87954000Y-81346000D03*
X90354000Y-82296000D03*
%TD*%
D23*
%TO.C,C13*%
X60512500Y-56372500D03*
X57387500Y-56372500D03*
%TD*%
D24*
%TO.C,U6*%
X53997300Y-86413200D03*
X71802700Y-86413200D03*
D25*
X70150001Y-82400000D03*
X69650002Y-82400000D03*
X69150000Y-82400000D03*
X68650001Y-82400000D03*
X68150000Y-82400000D03*
X67650001Y-82400000D03*
X67150002Y-82400000D03*
X66650000Y-82400000D03*
X66150001Y-82400000D03*
X65650000Y-82400000D03*
X65150001Y-82400000D03*
X64650002Y-82400000D03*
X64150000Y-82400000D03*
X63650001Y-82400000D03*
X63150002Y-82400000D03*
X62650000Y-82400000D03*
X62150002Y-82400000D03*
X61650000Y-82400000D03*
X61150001Y-82400000D03*
X60650002Y-82400000D03*
X60150000Y-82400000D03*
X59650001Y-82400000D03*
X59150000Y-82400000D03*
X58650001Y-82400000D03*
X58150002Y-82400000D03*
X57650000Y-82400000D03*
X57150001Y-82400000D03*
X56650000Y-82400000D03*
X56150001Y-82400000D03*
X55650002Y-82400000D03*
%TD*%
D26*
%TO.C,U3*%
X66794000Y-69390196D03*
X66794000Y-70340196D03*
X66794000Y-71290196D03*
X64519000Y-71290196D03*
X64519000Y-69390196D03*
%TD*%
D19*
%TO.C,C21*%
X57250000Y-78500000D03*
X57250000Y-80225000D03*
%TD*%
D27*
%TO.C,J3*%
X105570000Y-86440000D03*
X105570000Y-87940000D03*
X105570000Y-89439999D03*
X105570000Y-90940001D03*
D28*
X110760000Y-83835001D03*
X110760000Y-93545000D03*
%TD*%
D29*
%TO.C,R17*%
X54950001Y-73550000D03*
X56775001Y-73550000D03*
%TD*%
D30*
%TO.C,R15*%
X66000000Y-78925000D03*
X66000000Y-80750000D03*
%TD*%
D31*
%TO.C,IC2*%
X53442500Y-63502500D03*
X53442500Y-61202500D03*
X53442500Y-58902500D03*
D32*
X59642500Y-61202500D03*
%TD*%
D19*
%TO.C,C24*%
X69000000Y-79137500D03*
X69000000Y-80862500D03*
%TD*%
D18*
%TO.C,C25*%
X55050001Y-71950000D03*
X56775001Y-71950000D03*
%TD*%
D16*
%TO.C,C19*%
X61612501Y-68550000D03*
X59887501Y-68550000D03*
%TD*%
D20*
%TO.C,C17*%
X95162500Y-87376000D03*
X96297500Y-87376000D03*
%TD*%
D12*
%TO.C,J6*%
X32140348Y-106880001D03*
X33640348Y-106880001D03*
X35140347Y-106880001D03*
X36640349Y-106880001D03*
X38140349Y-106880001D03*
X39640348Y-106880001D03*
D13*
X29535349Y-101690001D03*
X42245347Y-101690001D03*
%TD*%
D19*
%TO.C,C22*%
X67500000Y-79137500D03*
X67500000Y-80862500D03*
%TD*%
D17*
%TO.C,R16*%
X67912500Y-77400000D03*
X66087500Y-77400000D03*
%TD*%
D21*
%TO.C,D5*%
X48600000Y-85750000D03*
X48600000Y-83650000D03*
%TD*%
D33*
%TO.C,U5*%
X58950001Y-72150000D03*
X58950001Y-71200000D03*
X58950001Y-70250000D03*
X61650001Y-70250000D03*
X61650001Y-72150000D03*
%TD*%
D34*
%TO.C,L1*%
X61483001Y-74448000D03*
X59158001Y-74448000D03*
%TD*%
D35*
%TO.C,C12*%
X52297500Y-56392500D03*
X55422500Y-56392500D03*
%TD*%
M02*
