%TF.GenerationSoftware,KiCad,Pcbnew,8.0.5-1.fc40*%
%TF.CreationDate,2024-10-23T10:10:35-04:00*%
%TF.ProjectId,payload_board,7061796c-6f61-4645-9f62-6f6172642e6b,rev?*%
%TF.SameCoordinates,Original*%
%TF.FileFunction,Paste,Top*%
%TF.FilePolarity,Positive*%
%FSLAX46Y46*%
G04 Gerber Fmt 4.6, Leading zero omitted, Abs format (unit mm)*
G04 Created by KiCad (PCBNEW 8.0.5-1.fc40) date 2024-10-23 10:10:35*
%MOMM*%
%LPD*%
G01*
G04 APERTURE LIST*
G04 Aperture macros list*
%AMRoundRect*
0 Rectangle with rounded corners*
0 $1 Rounding radius*
0 $2 $3 $4 $5 $6 $7 $8 $9 X,Y pos of 4 corners*
0 Add a 4 corners polygon primitive as box body*
4,1,4,$2,$3,$4,$5,$6,$7,$8,$9,$2,$3,0*
0 Add four circle primitives for the rounded corners*
1,1,$1+$1,$2,$3*
1,1,$1+$1,$4,$5*
1,1,$1+$1,$6,$7*
1,1,$1+$1,$8,$9*
0 Add four rect primitives between the rounded corners*
20,1,$1+$1,$2,$3,$4,$5,0*
20,1,$1+$1,$4,$5,$6,$7,0*
20,1,$1+$1,$6,$7,$8,$9,0*
20,1,$1+$1,$8,$9,$2,$3,0*%
G04 Aperture macros list end*
%ADD10C,0.000000*%
%ADD11RoundRect,0.155000X0.212500X0.155000X-0.212500X0.155000X-0.212500X-0.155000X0.212500X-0.155000X0*%
%ADD12R,0.177800X1.002800*%
%ADD13R,0.188898X1.002800*%
%ADD14R,0.177800X0.752800*%
%ADD15R,0.752800X0.177800*%
%ADD16R,1.002800X0.177800*%
%ADD17R,1.002800X0.188900*%
%ADD18R,0.752800X0.188900*%
%ADD19R,0.188900X1.002800*%
%ADD20R,0.752800X0.177796*%
%ADD21RoundRect,0.155000X-0.212500X-0.155000X0.212500X-0.155000X0.212500X0.155000X-0.212500X0.155000X0*%
%ADD22RoundRect,0.155000X-0.155000X0.212500X-0.155000X-0.212500X0.155000X-0.212500X0.155000X0.212500X0*%
%ADD23RoundRect,0.160000X-0.197500X-0.160000X0.197500X-0.160000X0.197500X0.160000X-0.197500X0.160000X0*%
%ADD24RoundRect,0.160000X0.197500X0.160000X-0.197500X0.160000X-0.197500X-0.160000X0.197500X-0.160000X0*%
%ADD25RoundRect,0.160000X0.252791X-0.026517X-0.026517X0.252791X-0.252791X0.026517X0.026517X-0.252791X0*%
%ADD26RoundRect,0.155000X0.155000X-0.212500X0.155000X0.212500X-0.155000X0.212500X-0.155000X-0.212500X0*%
%ADD27RoundRect,0.243750X0.243750X0.456250X-0.243750X0.456250X-0.243750X-0.456250X0.243750X-0.456250X0*%
%ADD28R,0.600000X1.000000*%
%ADD29R,1.250000X1.800000*%
%ADD30RoundRect,0.160000X-0.252791X0.026517X0.026517X-0.252791X0.252791X-0.026517X-0.026517X0.252791X0*%
%ADD31R,1.000000X2.510000*%
%ADD32RoundRect,0.250000X0.700036X0.084853X0.084853X0.700036X-0.700036X-0.084853X-0.084853X-0.700036X0*%
%ADD33RoundRect,0.112500X0.362392X-0.203293X-0.203293X0.362392X-0.362392X0.203293X0.203293X-0.362392X0*%
%ADD34RoundRect,0.112500X0.187500X0.112500X-0.187500X0.112500X-0.187500X-0.112500X0.187500X-0.112500X0*%
%ADD35R,2.400000X3.500000*%
%ADD36RoundRect,0.150000X0.825000X0.150000X-0.825000X0.150000X-0.825000X-0.150000X0.825000X-0.150000X0*%
%ADD37R,0.900000X1.000000*%
%ADD38RoundRect,0.155000X-0.259862X0.040659X0.040659X-0.259862X0.259862X-0.040659X-0.040659X0.259862X0*%
%ADD39R,1.380000X0.450000*%
%ADD40R,2.100000X1.475000*%
%ADD41R,1.900000X1.375000*%
%ADD42R,1.498600X0.812800*%
%ADD43R,1.498600X1.143000*%
%ADD44R,1.143000X1.498600*%
%ADD45R,1.701800X1.397000*%
G04 APERTURE END LIST*
D10*
%TO.C,IC1*%
G36*
X30816400Y-81550000D02*
G01*
X29416200Y-81550000D01*
X29416200Y-80149800D01*
X30816400Y-80149800D01*
X30816400Y-81550000D01*
G37*
G36*
X30816400Y-83150200D02*
G01*
X29416200Y-83150200D01*
X29416200Y-81750000D01*
X30816400Y-81750000D01*
X30816400Y-83150200D01*
G37*
G36*
X32416600Y-81550000D02*
G01*
X31016400Y-81550000D01*
X31016400Y-80149800D01*
X32416600Y-80149800D01*
X32416600Y-81550000D01*
G37*
G36*
X32416600Y-83150200D02*
G01*
X31016400Y-83150200D01*
X31016400Y-81750000D01*
X32416600Y-81750000D01*
X32416600Y-83150200D01*
G37*
%TD*%
D11*
%TO.C,C8*%
X24777500Y-80540000D03*
X23642500Y-80540000D03*
%TD*%
D12*
%TO.C,IC1*%
X28316400Y-85148600D03*
X28716399Y-85148600D03*
X29116401Y-85148600D03*
X29516400Y-85148600D03*
X29916399Y-85148600D03*
D13*
X30321951Y-85148600D03*
D12*
X30716400Y-85148600D03*
X31116400Y-85148600D03*
X31516399Y-85148600D03*
X31916401Y-85148600D03*
X32316400Y-85148600D03*
X32716399Y-85148600D03*
X33116401Y-85148600D03*
D14*
X33516400Y-85023600D03*
D15*
X34290000Y-84250000D03*
D16*
X34415000Y-83850001D03*
X34415000Y-83449999D03*
D17*
X34415000Y-83055550D03*
D16*
X34415000Y-82650001D03*
X34415000Y-82249999D03*
X34415000Y-81850000D03*
D15*
X34290000Y-81450000D03*
D16*
X34415000Y-81050001D03*
X34415000Y-80649999D03*
X34415000Y-80250000D03*
X34415000Y-79850001D03*
X34415000Y-79449999D03*
D18*
X34290000Y-79055550D03*
D12*
X33516400Y-78151400D03*
X33116401Y-78151400D03*
X32716399Y-78151400D03*
D19*
X32321950Y-78151400D03*
D12*
X31916401Y-78151400D03*
X31516399Y-78151400D03*
X31116400Y-78151400D03*
X30716400Y-78151400D03*
X30316401Y-78151400D03*
X29916399Y-78151400D03*
X29516400Y-78151400D03*
X29116401Y-78151400D03*
X28716399Y-78151400D03*
D19*
X28321950Y-78151400D03*
D16*
X27417800Y-79050000D03*
D15*
X27542800Y-79449999D03*
D16*
X27417800Y-79850001D03*
X27417800Y-80250000D03*
X27417800Y-80649999D03*
X27417800Y-81050001D03*
X27417800Y-81450000D03*
X27417800Y-81850000D03*
X27417800Y-82249999D03*
X27417800Y-82650001D03*
X27417800Y-83050000D03*
X27417800Y-83449999D03*
X27417800Y-83850001D03*
D20*
X27542800Y-84249998D03*
%TD*%
D21*
%TO.C,C10*%
X36762500Y-81640000D03*
X37897500Y-81640000D03*
%TD*%
D22*
%TO.C,C2*%
X40870000Y-79462500D03*
X40870000Y-80597500D03*
%TD*%
D23*
%TO.C,R7*%
X20027500Y-90975000D03*
X21222500Y-90975000D03*
%TD*%
D24*
%TO.C,R10*%
X32517500Y-69850000D03*
X31322500Y-69850000D03*
%TD*%
D25*
%TO.C,R5*%
X25667496Y-78397496D03*
X24822504Y-77552504D03*
%TD*%
D26*
%TO.C,C7*%
X31850000Y-75907500D03*
X31850000Y-74772500D03*
%TD*%
D27*
%TO.C,D2*%
X35747500Y-69570000D03*
X33872500Y-69570000D03*
%TD*%
D28*
%TO.C,J1*%
X147178484Y-60238501D03*
X145678484Y-60238501D03*
X144178485Y-60238501D03*
X142678483Y-60238501D03*
X141178483Y-60238501D03*
X139678484Y-60238501D03*
X138178484Y-60238501D03*
X136678485Y-60238501D03*
D29*
X149783483Y-55048501D03*
X134073486Y-55048501D03*
%TD*%
D27*
%TO.C,D3*%
X35767500Y-67490000D03*
X33892500Y-67490000D03*
%TD*%
D30*
%TO.C,R3*%
X18850632Y-88670632D03*
X19695624Y-89515624D03*
%TD*%
D11*
%TO.C,C4*%
X38159500Y-80264000D03*
X37024500Y-80264000D03*
%TD*%
D31*
%TO.C,JP1*%
X143130000Y-123610000D03*
X145670000Y-126920000D03*
X148210000Y-123610000D03*
X150750000Y-126920000D03*
X153290000Y-123610000D03*
X155830000Y-126920000D03*
%TD*%
D32*
%TO.C,U1*%
X21835786Y-88189214D03*
X23250000Y-86775000D03*
X20633704Y-86987132D03*
X22047918Y-85572918D03*
D33*
X22601229Y-90234520D03*
X23499255Y-89336494D03*
X24397280Y-88438469D03*
X25295306Y-87540443D03*
X21282475Y-83527612D03*
X20384449Y-84425638D03*
X19486424Y-85323663D03*
X18588398Y-86221689D03*
%TD*%
D34*
%TO.C,D1*%
X23210000Y-92560000D03*
X21110000Y-92560000D03*
%TD*%
D21*
%TO.C,C5*%
X24362500Y-81580000D03*
X25497500Y-81580000D03*
%TD*%
D31*
%TO.C,JP2*%
X143151300Y-105965000D03*
X145691300Y-109275000D03*
X148231300Y-105965000D03*
X150771300Y-109275000D03*
X153311300Y-105965000D03*
X155851300Y-109275000D03*
%TD*%
D30*
%TO.C,R6*%
X24122504Y-78402504D03*
X24967496Y-79247496D03*
%TD*%
D27*
%TO.C,D4*%
X35777500Y-65390000D03*
X33902500Y-65390000D03*
%TD*%
D22*
%TO.C,C14*%
X26300000Y-76212500D03*
X26300000Y-77347500D03*
%TD*%
D24*
%TO.C,R2*%
X38967500Y-82730000D03*
X37772500Y-82730000D03*
%TD*%
D26*
%TO.C,C1*%
X40860000Y-84767500D03*
X40860000Y-83632500D03*
%TD*%
D35*
%TO.C,Y1*%
X43770000Y-79440000D03*
X43770000Y-84640000D03*
%TD*%
D24*
%TO.C,R12*%
X32510000Y-65360000D03*
X31315000Y-65360000D03*
%TD*%
D26*
%TO.C,C15*%
X28500000Y-76227500D03*
X28500000Y-75092500D03*
%TD*%
D24*
%TO.C,R1*%
X39445000Y-77500000D03*
X38250000Y-77500000D03*
%TD*%
D36*
%TO.C,U2*%
X51945000Y-104170000D03*
X51945000Y-102900000D03*
X51945000Y-101630000D03*
X51945000Y-100360000D03*
X46995000Y-100360000D03*
X46995000Y-101630000D03*
X46995000Y-102900000D03*
X46995000Y-104170000D03*
%TD*%
D37*
%TO.C,SW2*%
X39330000Y-103670000D03*
X43430000Y-103670000D03*
X39330000Y-105270000D03*
X43430000Y-105270000D03*
%TD*%
D38*
%TO.C,C11*%
X32618717Y-87228717D03*
X33421283Y-88031283D03*
%TD*%
D39*
%TO.C,J7*%
X17360000Y-77817500D03*
X17360000Y-77167500D03*
X17360000Y-76517500D03*
X17360000Y-75867500D03*
X17360000Y-75217500D03*
D40*
X17000000Y-74055000D03*
D41*
X14700000Y-75580000D03*
X14700000Y-77455000D03*
D40*
X17000000Y-78980000D03*
%TD*%
D42*
%TO.C,J12*%
X103262151Y-47253300D03*
X103262151Y-48353301D03*
X103262151Y-49453301D03*
X103262151Y-50553299D03*
X103262151Y-51653299D03*
X103262151Y-52753299D03*
X103262151Y-53853300D03*
X103262151Y-54953300D03*
D43*
X96412152Y-56528301D03*
D44*
X91687150Y-49353299D03*
D45*
X106162150Y-43503300D03*
X106162150Y-56403300D03*
D44*
X91687150Y-47053301D03*
X91687149Y-55953301D03*
%TD*%
D24*
%TO.C,R11*%
X32597500Y-67470000D03*
X31402500Y-67470000D03*
%TD*%
D22*
%TO.C,C6*%
X27340000Y-75362500D03*
X27340000Y-76497500D03*
%TD*%
%TO.C,C9*%
X28125000Y-86382500D03*
X28125000Y-87517500D03*
%TD*%
D25*
%TO.C,R4*%
X18950000Y-90240000D03*
X18105008Y-89395008D03*
%TD*%
D37*
%TO.C,SW1*%
X20940000Y-94750000D03*
X25040000Y-94750000D03*
X20940000Y-96350000D03*
X25040000Y-96350000D03*
%TD*%
D25*
%TO.C,R8*%
X33442496Y-90084496D03*
X32597504Y-89239504D03*
%TD*%
M02*
