M48
; DRILL file {KiCad 8.0.6-1.fc40} date 2024-10-27T15:38:05-0400
; FORMAT={-:-/ absolute / metric / decimal}
; #@! TF.CreationDate,2024-10-27T15:38:05-04:00
; #@! TF.GenerationSoftware,Kicad,Pcbnew,8.0.6-1.fc40
; #@! TF.FileFunction,Plated,1,4,PTH
FMAT,2
METRIC
; #@! TA.AperFunction,Plated,PTH,ViaDrill
T1C0.250
; #@! TA.AperFunction,Plated,PTH,ViaDrill
T2C0.400
; #@! TA.AperFunction,Plated,PTH,ComponentDrill
T3C0.700
; #@! TA.AperFunction,Plated,PTH,ComponentDrill
T4C1.000
; #@! TA.AperFunction,Plated,PTH,ComponentDrill
T5C2.500
; #@! TA.AperFunction,Plated,PTH,ComponentDrill
T6C2.950
%
G90
G05
T1
X18.15Y-83.09
X19.28Y-96.56
X20.2Y-78.85
X22.22Y-76.52
X23.64Y-77.91
X24.83Y-85.47
X25.46Y-80.57
X25.46Y-98.88
X26.0Y-92.5
X28.15Y-88.14
X28.61Y-81.84
X29.26Y-77.13
X29.39Y-67.51
X29.61Y-73.29
X29.73Y-65.85
X30.75Y-96.0
X31.43Y-79.44
X31.75Y-94.0
X32.14Y-106.88
X32.6Y-104.6
X32.75Y-74.75
X32.766Y-83.82
X33.39Y-80.518
X33.64Y-106.0
X33.75Y-89.0
X34.0Y-72.25
X34.5Y-74.5
X34.544Y-90.5
X35.5Y-87.5
X35.75Y-93.0
X35.92Y-108.0
X36.5Y-105.2
X36.562Y-86.708
X36.67Y-84.15
X36.75Y-93.75
X37.5Y-86.5
X37.662Y-99.098
X37.75Y-94.5
X38.0Y-87.25
X38.0Y-106.0
X38.25Y-76.7
X38.5Y-84.5
X38.5Y-86.25
X38.75Y-95.343
X39.25Y-81.25
X39.75Y-85.0
X39.8Y-78.54
X39.8Y-79.5
X40.25Y-77.5
X40.9Y-82.2
X40.91Y-103.67
X41.0Y-73.5
X41.13Y-105.53
X44.57Y-99.97
X46.6Y-79.54
X47.4Y-78.8
X48.2Y-70.8
X50.1Y-71.5
X53.661Y-102.922
X61.6Y-79.8
X61.73Y-59.062
X61.75Y-79.0
X62.4Y-81.2
X62.75Y-78.75
X63.7Y-77.5
X64.75Y-66.343
X66.25Y-84.25
X66.5Y-68.25
X67.0Y-83.4
X68.75Y-86.5
X68.9Y-72.181
X72.25Y-77.5
X75.25Y-88.25
X77.69Y-88.87
X80.772Y-93.25
X86.5Y-80.99
X86.6Y-83.06
X89.0Y-49.353
X90.93Y-87.918
X91.44Y-81.02
X101.0Y-48.25
X101.25Y-53.853
X101.75Y-50.553
T2
X109.29Y-68.88
T4
X29.165Y-57.44
X29.165Y-59.98
X31.705Y-56.17
X31.705Y-61.54
X36.785Y-56.17
X36.785Y-61.54
X39.325Y-57.44
X39.325Y-59.98
X44.75Y-97.725
X47.29Y-97.725
X73.152Y-101.092
X75.692Y-101.092
X78.232Y-101.092
X80.772Y-101.092
X83.312Y-101.092
X85.852Y-101.092
X91.735Y-36.5
X94.275Y-36.5
X99.34Y-69.57
X99.34Y-72.11
X99.34Y-74.65
X99.34Y-77.19
X99.34Y-79.73
X99.34Y-82.27
X124.77Y-72.05
X127.31Y-72.05
X129.85Y-72.05
X132.39Y-72.05
X134.93Y-72.05
X137.47Y-72.05
X140.01Y-72.05
X142.55Y-72.05
X145.09Y-72.05
X147.63Y-72.05
X150.17Y-72.05
T5
X139.341Y-107.62
X139.341Y-125.4
X159.661Y-107.62
X159.661Y-125.4
T6
X24.195Y-63.0
X62.989Y-23.896
X62.989Y-102.082
X84.156Y-37.977
X101.783Y-62.956
T3
G00X15.0Y-72.567
M15
G01X14.4Y-72.567
M16
G05
G00X15.0Y-80.468
M15
G01X14.4Y-80.468
M16
G05
M30
