M48
; DRILL file {KiCad 8.0.4} date 2024-10-28T08:05:07-0400
; FORMAT={-:-/ absolute / inch / decimal}
; #@! TF.CreationDate,2024-10-28T08:05:07-04:00
; #@! TF.GenerationSoftware,Kicad,Pcbnew,8.0.4
; #@! TF.FileFunction,Plated,1,4,PTH
FMAT,2
INCH
; #@! TA.AperFunction,Plated,PTH,ViaDrill
T1C0.0098
; #@! TA.AperFunction,Plated,PTH,ViaDrill
T2C0.0157
; #@! TA.AperFunction,Plated,PTH,ComponentDrill
T3C0.0276
; #@! TA.AperFunction,Plated,PTH,ComponentDrill
T4C0.0394
; #@! TA.AperFunction,Plated,PTH,ComponentDrill
T5C0.1161
%
G90
G05
T1
X0.7146Y-3.2713
X0.7591Y-3.8016
X0.7953Y-3.1043
X0.8748Y-3.0126
X0.9307Y-3.0673
X0.9776Y-3.365
X1.0024Y-3.172
X1.0024Y-3.8929
X1.0236Y-3.6417
X1.1083Y-3.4701
X1.1264Y-3.222
X1.152Y-3.0366
X1.1571Y-2.6579
X1.1657Y-2.8854
X1.1705Y-2.5925
X1.2106Y-3.7795
X1.2374Y-3.1276
X1.25Y-3.7008
X1.2654Y-4.2079
X1.2835Y-4.1181
X1.2894Y-2.9429
X1.29Y-3.3
X1.3146Y-3.17
X1.3244Y-4.1732
X1.3287Y-3.5039
X1.3386Y-2.8445
X1.3583Y-2.9331
X1.36Y-3.563
X1.3976Y-3.4449
X1.4075Y-3.6614
X1.4142Y-4.252
X1.437Y-4.1417
X1.4394Y-3.4137
X1.4437Y-3.313
X1.4469Y-3.6909
X1.4764Y-3.4055
X1.4828Y-3.9015
X1.4862Y-3.7205
X1.4961Y-3.435
X1.4961Y-4.1732
X1.5059Y-3.0197
X1.5157Y-3.3268
X1.5157Y-3.3957
X1.5256Y-3.7537
X1.5453Y-3.1988
X1.565Y-3.3465
X1.5669Y-3.0921
X1.5669Y-3.1299
X1.5846Y-3.0512
X1.6102Y-3.2362
X1.6106Y-4.0815
X1.6142Y-2.8937
X1.6193Y-4.1547
X1.7547Y-3.9358
X1.8346Y-3.1315
X1.8661Y-3.1024
X1.8976Y-2.7874
X1.9724Y-2.815
X2.1126Y-4.052
X2.4252Y-3.1417
X2.4303Y-2.3253
X2.4311Y-3.1102
X2.4567Y-3.1969
X2.4705Y-3.1004
X2.5079Y-3.0512
X2.5492Y-2.6119
X2.6083Y-3.3169
X2.6181Y-2.687
X2.6378Y-3.2835
X2.7067Y-3.4055
X2.7126Y-2.8418
X2.8445Y-3.0512
X2.9626Y-3.4744
X3.0587Y-3.4988
X3.18Y-3.6713
X3.4055Y-3.1886
X3.4094Y-3.2701
X3.5039Y-1.943
X3.5799Y-3.4613
X3.6Y-3.1898
X3.9764Y-1.8996
X3.985Y-3.5823
X3.9862Y-2.1202
X4.0059Y-1.9903
X4.0736Y-3.6374
X4.1476Y-3.7559
X4.2315Y-3.7
T2
X4.3028Y-2.7118
T4
X1.1482Y-2.2614
X1.1482Y-2.3614
X1.2482Y-2.2114
X1.2482Y-2.4228
X1.4482Y-2.2114
X1.4482Y-2.4228
X1.5482Y-2.2614
X1.5482Y-2.3614
X1.7618Y-3.8474
X1.8618Y-3.8474
X2.88Y-3.98
X2.98Y-3.98
X3.08Y-3.98
X3.18Y-3.98
X3.28Y-3.98
X3.38Y-3.98
X3.6116Y-1.437
X3.7116Y-1.437
X3.911Y-2.739
X3.911Y-2.839
X3.911Y-2.939
X3.911Y-3.039
X3.911Y-3.139
X3.911Y-3.239
T5
X0.9526Y-2.4803
X2.4799Y-0.9408
X2.4799Y-4.019
X3.3132Y-1.4952
X4.0072Y-2.4786
T3
G00X0.5906Y-2.857
M15
G01X0.5669Y-2.857
M16
G05
G00X0.5906Y-3.168
M15
G01X0.5669Y-3.168
M16
G05
M30
