%TF.GenerationSoftware,KiCad,Pcbnew,8.0.5-1.fc40*%
%TF.CreationDate,2024-10-23T18:06:54-04:00*%
%TF.ProjectId,payload_board,7061796c-6f61-4645-9f62-6f6172642e6b,rev?*%
%TF.SameCoordinates,Original*%
%TF.FileFunction,Profile,NP*%
%FSLAX46Y46*%
G04 Gerber Fmt 4.6, Leading zero omitted, Abs format (unit mm)*
G04 Created by KiCad (PCBNEW 8.0.5-1.fc40) date 2024-10-23 18:06:54*
%MOMM*%
%LPD*%
G01*
G04 APERTURE LIST*
%TA.AperFunction,Profile*%
%ADD10C,0.250000*%
%TD*%
G04 APERTURE END LIST*
D10*
X80255749Y-26718286D02*
X73844989Y-26718286D01*
X77948996Y-91764600D02*
X77948996Y-90504600D01*
X112988996Y-23474600D02*
X112988996Y-102474600D01*
X112988996Y-102474600D02*
X102488996Y-102474600D01*
X47948996Y-91764600D02*
X77948996Y-91764600D01*
X12988996Y-51085346D02*
X46806196Y-51085346D01*
X23488996Y-112974600D02*
X23488996Y-102474600D01*
X73844989Y-47292286D02*
X80255749Y-47292286D01*
X102485996Y-13000000D02*
X102488996Y-23474600D01*
X102488996Y-23474600D02*
X112988996Y-23474600D01*
X102488996Y-102474600D02*
X102488996Y-112974600D01*
X47948996Y-90504600D02*
X47948996Y-91764600D01*
X12988996Y-102474600D02*
X12988996Y-51085346D01*
X23488996Y-102474600D02*
X12988996Y-102474600D01*
X80255749Y-47292286D02*
X80255749Y-26718286D01*
X71612865Y-36868243D02*
G75*
G02*
X54340865Y-36868243I-8636000J0D01*
G01*
X54340865Y-36868243D02*
G75*
G02*
X71612865Y-36868243I8636000J0D01*
G01*
X73844989Y-26718286D02*
X73844989Y-47292286D01*
X77948996Y-90504600D02*
X47948996Y-90504600D01*
X46806196Y-13000000D02*
X102485996Y-13000000D01*
X102488996Y-112974600D02*
X23488996Y-112974600D01*
X46806196Y-51085346D02*
X46806196Y-13000000D01*
M02*
