%TF.GenerationSoftware,KiCad,Pcbnew,8.0.4*%
%TF.CreationDate,2024-10-28T08:05:00-04:00*%
%TF.ProjectId,payload_board,7061796c-6f61-4645-9f62-6f6172642e6b,rev?*%
%TF.SameCoordinates,Original*%
%TF.FileFunction,Soldermask,Top*%
%TF.FilePolarity,Negative*%
%FSLAX46Y46*%
G04 Gerber Fmt 4.6, Leading zero omitted, Abs format (unit mm)*
G04 Created by KiCad (PCBNEW 8.0.4) date 2024-10-28 08:05:00*
%MOMM*%
%LPD*%
G01*
G04 APERTURE LIST*
G04 Aperture macros list*
%AMRoundRect*
0 Rectangle with rounded corners*
0 $1 Rounding radius*
0 $2 $3 $4 $5 $6 $7 $8 $9 X,Y pos of 4 corners*
0 Add a 4 corners polygon primitive as box body*
4,1,4,$2,$3,$4,$5,$6,$7,$8,$9,$2,$3,0*
0 Add four circle primitives for the rounded corners*
1,1,$1+$1,$2,$3*
1,1,$1+$1,$4,$5*
1,1,$1+$1,$6,$7*
1,1,$1+$1,$8,$9*
0 Add four rect primitives between the rounded corners*
20,1,$1+$1,$2,$3,$4,$5,0*
20,1,$1+$1,$4,$5,$6,$7,0*
20,1,$1+$1,$6,$7,$8,$9,0*
20,1,$1+$1,$8,$9,$2,$3,0*%
%AMRotRect*
0 Rectangle, with rotation*
0 The origin of the aperture is its center*
0 $1 length*
0 $2 width*
0 $3 Rotation angle, in degrees counterclockwise*
0 Add horizontal line*
21,1,$1,$2,0,0,$3*%
G04 Aperture macros list end*
%ADD10C,1.000000*%
%ADD11RoundRect,0.155000X0.212500X0.155000X-0.212500X0.155000X-0.212500X-0.155000X0.212500X-0.155000X0*%
%ADD12RoundRect,0.155000X-0.212500X-0.155000X0.212500X-0.155000X0.212500X0.155000X-0.212500X0.155000X0*%
%ADD13RoundRect,0.155000X-0.155000X0.212500X-0.155000X-0.212500X0.155000X-0.212500X0.155000X0.212500X0*%
%ADD14RoundRect,0.160000X-0.197500X-0.160000X0.197500X-0.160000X0.197500X0.160000X-0.197500X0.160000X0*%
%ADD15C,5.250000*%
%ADD16RoundRect,0.160000X0.197500X0.160000X-0.197500X0.160000X-0.197500X-0.160000X0.197500X-0.160000X0*%
%ADD17RoundRect,0.160000X0.252791X-0.026517X-0.026517X0.252791X-0.252791X0.026517X0.026517X-0.252791X0*%
%ADD18RoundRect,0.155000X0.155000X-0.212500X0.155000X0.212500X-0.155000X0.212500X-0.155000X-0.212500X0*%
%ADD19R,1.700000X1.700000*%
%ADD20O,1.700000X1.700000*%
%ADD21RoundRect,0.243750X0.243750X0.456250X-0.243750X0.456250X-0.243750X-0.456250X0.243750X-0.456250X0*%
%ADD22RoundRect,0.160000X-0.252791X0.026517X0.026517X-0.252791X0.252791X-0.026517X-0.026517X0.252791X0*%
%ADD23R,0.177800X1.002800*%
%ADD24R,0.188898X1.002800*%
%ADD25R,0.177800X0.752800*%
%ADD26R,0.752800X0.177800*%
%ADD27R,1.002800X0.177800*%
%ADD28R,1.002800X0.188900*%
%ADD29R,0.752800X0.188900*%
%ADD30R,0.188900X1.002800*%
%ADD31R,0.752800X0.177796*%
%ADD32R,3.200400X3.200400*%
%ADD33RoundRect,0.112500X0.362392X-0.203293X-0.203293X0.362392X-0.362392X0.203293X0.203293X-0.362392X0*%
%ADD34RotRect,3.400000X4.000000X135.000000*%
%ADD35RoundRect,0.076200X-0.550000X0.350000X-0.550000X-0.350000X0.550000X-0.350000X0.550000X0.350000X0*%
%ADD36RoundRect,0.076200X-0.465000X0.450000X-0.465000X-0.450000X0.465000X-0.450000X0.465000X0.450000X0*%
%ADD37RoundRect,0.076200X-0.390000X0.525000X-0.390000X-0.525000X0.390000X-0.525000X0.390000X0.525000X0*%
%ADD38RoundRect,0.076200X-0.915000X0.570000X-0.915000X-0.570000X0.915000X-0.570000X0.915000X0.570000X0*%
%ADD39RoundRect,0.076200X-1.400000X0.430000X-1.400000X-0.430000X1.400000X-0.430000X1.400000X0.430000X0*%
%ADD40RoundRect,0.076200X-1.665000X0.350000X-1.665000X-0.350000X1.665000X-0.350000X1.665000X0.350000X0*%
%ADD41RoundRect,0.112500X0.187500X0.112500X-0.187500X0.112500X-0.187500X-0.112500X0.187500X-0.112500X0*%
%ADD42R,2.400000X3.500000*%
%ADD43RoundRect,0.150000X0.825000X0.150000X-0.825000X0.150000X-0.825000X-0.150000X0.825000X-0.150000X0*%
%ADD44R,0.900000X1.000000*%
%ADD45RoundRect,0.155000X-0.259862X0.040659X0.040659X-0.259862X0.259862X-0.040659X-0.040659X0.259862X0*%
%ADD46RoundRect,0.076200X-0.690000X-0.225000X0.690000X-0.225000X0.690000X0.225000X-0.690000X0.225000X0*%
%ADD47O,2.568400X1.360400*%
%ADD48RoundRect,0.076200X-1.050000X-0.737500X1.050000X-0.737500X1.050000X0.737500X-1.050000X0.737500X0*%
%ADD49RoundRect,0.076200X-0.950000X-0.687500X0.950000X-0.687500X0.950000X0.687500X-0.950000X0.687500X0*%
G04 APERTURE END LIST*
D10*
%TO.C,TF3V3*%
X20380000Y-80870000D03*
%TD*%
D11*
%TO.C,C8*%
X24777500Y-80540000D03*
X23642500Y-80540000D03*
%TD*%
D12*
%TO.C,C10*%
X36762500Y-81640000D03*
X37897500Y-81640000D03*
%TD*%
D13*
%TO.C,C2*%
X40870000Y-79462500D03*
X40870000Y-80597500D03*
%TD*%
D14*
%TO.C,R7*%
X20027500Y-90975000D03*
X21222500Y-90975000D03*
%TD*%
D15*
%TO.C,*%
X101782992Y-62956243D03*
%TD*%
D16*
%TO.C,R10*%
X32517500Y-69850000D03*
X31322500Y-69850000D03*
%TD*%
D17*
%TO.C,R5*%
X25667496Y-78397496D03*
X24822504Y-77552504D03*
%TD*%
D18*
%TO.C,C7*%
X31850000Y-75907500D03*
X31850000Y-74772500D03*
%TD*%
D19*
%TO.C,J2*%
X99340000Y-82270000D03*
D20*
X99340000Y-79730000D03*
X99340000Y-77190000D03*
X99340000Y-74650000D03*
X99340000Y-72110000D03*
X99340000Y-69570000D03*
%TD*%
D21*
%TO.C,D2*%
X35747500Y-69570000D03*
X33872500Y-69570000D03*
%TD*%
D10*
%TO.C,T3V3*%
X27390000Y-70380000D03*
%TD*%
D21*
%TO.C,D3*%
X35767500Y-67490000D03*
X33892500Y-67490000D03*
%TD*%
D22*
%TO.C,R3*%
X18850632Y-88670632D03*
X19695624Y-89515624D03*
%TD*%
D19*
%TO.C,J15*%
X85852000Y-101092000D03*
D20*
X83312000Y-101092000D03*
X80772000Y-101092000D03*
X78232000Y-101092000D03*
X75692000Y-101092000D03*
X73152000Y-101092000D03*
%TD*%
D11*
%TO.C,C4*%
X38159500Y-80264000D03*
X37024500Y-80264000D03*
%TD*%
D10*
%TO.C,TCAM3V3*%
X91948000Y-79248000D03*
%TD*%
D23*
%TO.C,IC1*%
X28316400Y-85148600D03*
X28716399Y-85148600D03*
X29116401Y-85148600D03*
X29516400Y-85148600D03*
X29916399Y-85148600D03*
D24*
X30321951Y-85148600D03*
D23*
X30716400Y-85148600D03*
X31116400Y-85148600D03*
X31516399Y-85148600D03*
X31916401Y-85148600D03*
X32316400Y-85148600D03*
X32716399Y-85148600D03*
X33116401Y-85148600D03*
D25*
X33516400Y-85023600D03*
D26*
X34290000Y-84250000D03*
D27*
X34415000Y-83850001D03*
X34415000Y-83449999D03*
D28*
X34415000Y-83055550D03*
D27*
X34415000Y-82650001D03*
X34415000Y-82249999D03*
X34415000Y-81850000D03*
D26*
X34290000Y-81450000D03*
D27*
X34415000Y-81050001D03*
X34415000Y-80649999D03*
X34415000Y-80250000D03*
X34415000Y-79850001D03*
X34415000Y-79449999D03*
D29*
X34290000Y-79055550D03*
D23*
X33516400Y-78151400D03*
X33116401Y-78151400D03*
X32716399Y-78151400D03*
D30*
X32321950Y-78151400D03*
D23*
X31916401Y-78151400D03*
X31516399Y-78151400D03*
X31116400Y-78151400D03*
X30716400Y-78151400D03*
X30316401Y-78151400D03*
X29916399Y-78151400D03*
X29516400Y-78151400D03*
X29116401Y-78151400D03*
X28716399Y-78151400D03*
D30*
X28321950Y-78151400D03*
D27*
X27417800Y-79050000D03*
D26*
X27542800Y-79449999D03*
D27*
X27417800Y-79850001D03*
X27417800Y-80250000D03*
X27417800Y-80649999D03*
X27417800Y-81050001D03*
X27417800Y-81450000D03*
X27417800Y-81850000D03*
X27417800Y-82249999D03*
X27417800Y-82650001D03*
X27417800Y-83050000D03*
X27417800Y-83449999D03*
X27417800Y-83850001D03*
D31*
X27542800Y-84249998D03*
D32*
X30916400Y-81650000D03*
%TD*%
D19*
%TO.C,J_Burn*%
X31705000Y-61540000D03*
X29165000Y-59980000D03*
X29165000Y-57440000D03*
X31705000Y-56170000D03*
D20*
X36785000Y-61540000D03*
D19*
X39325000Y-59980000D03*
X39325000Y-57440000D03*
D20*
X36785000Y-56170000D03*
%TD*%
D15*
%TO.C,*%
X84155749Y-37976859D03*
%TD*%
D19*
%TO.C,J12*%
X94275000Y-36500000D03*
D20*
X91735000Y-36500000D03*
%TD*%
D10*
%TO.C,T1V2*%
X23940000Y-74630000D03*
%TD*%
%TO.C,TUCS1*%
X20880000Y-98770000D03*
%TD*%
D33*
%TO.C,U1*%
X22601229Y-90234520D03*
X23499255Y-89336494D03*
X24397280Y-88438469D03*
X25295306Y-87540443D03*
X21282475Y-83527612D03*
X20384449Y-84425638D03*
X19486424Y-85323663D03*
X18588398Y-86221689D03*
D34*
X21941852Y-86881066D03*
%TD*%
D35*
%TO.C,J10*%
X103215000Y-47275000D03*
X103215000Y-48375000D03*
X103215000Y-49475000D03*
X103215000Y-50575000D03*
X103215000Y-51675000D03*
X103215000Y-52775000D03*
X103215000Y-53875000D03*
X103215000Y-54975000D03*
D36*
X90750000Y-45485000D03*
D37*
X90675000Y-49750000D03*
D38*
X103200000Y-43395000D03*
D39*
X102715000Y-56055000D03*
D40*
X91950000Y-43175000D03*
X91950000Y-56135000D03*
%TD*%
D41*
%TO.C,D1*%
X23210000Y-92560000D03*
X21110000Y-92560000D03*
%TD*%
D10*
%TO.C,TDGND1*%
X73500000Y-62500000D03*
%TD*%
D12*
%TO.C,C5*%
X24182500Y-81580000D03*
X25317500Y-81580000D03*
%TD*%
D22*
%TO.C,R6*%
X24122504Y-78402504D03*
X24967496Y-79247496D03*
%TD*%
D21*
%TO.C,D4*%
X35777500Y-65390000D03*
X33902500Y-65390000D03*
%TD*%
D13*
%TO.C,C14*%
X26300000Y-76212500D03*
X26300000Y-77347500D03*
%TD*%
D16*
%TO.C,R2*%
X38967500Y-82730000D03*
X37772500Y-82730000D03*
%TD*%
D18*
%TO.C,C1*%
X40860000Y-84767500D03*
X40860000Y-83632500D03*
%TD*%
D42*
%TO.C,Y1*%
X43770000Y-79440000D03*
X43770000Y-84640000D03*
%TD*%
D16*
%TO.C,R12*%
X32510000Y-65360000D03*
X31315000Y-65360000D03*
%TD*%
D18*
%TO.C,C15*%
X28500000Y-76227500D03*
X28500000Y-75092500D03*
%TD*%
D16*
%TO.C,R1*%
X39445000Y-77500000D03*
X38250000Y-77500000D03*
%TD*%
D15*
%TO.C,*%
X24195000Y-63000000D03*
%TD*%
D10*
%TO.C,TGND1*%
X23130000Y-70690000D03*
%TD*%
D43*
%TO.C,U2*%
X51945000Y-104170000D03*
X51945000Y-102900000D03*
X51945000Y-101630000D03*
X51945000Y-100360000D03*
X46995000Y-100360000D03*
X46995000Y-101630000D03*
X46995000Y-102900000D03*
X46995000Y-104170000D03*
%TD*%
D44*
%TO.C,SW2*%
X39330000Y-103670000D03*
X43430000Y-103670000D03*
X39330000Y-105270000D03*
X43430000Y-105270000D03*
%TD*%
D19*
%TO.C,R9*%
X44750000Y-97725000D03*
D20*
X47290000Y-97725000D03*
%TD*%
D45*
%TO.C,C11*%
X32618717Y-87228717D03*
X33421283Y-88031283D03*
%TD*%
D46*
%TO.C,J7*%
X17360000Y-77817500D03*
X17360000Y-77167500D03*
X17360000Y-76517500D03*
X17360000Y-75867500D03*
X17360000Y-75217500D03*
D47*
X14700000Y-72567500D03*
D48*
X17000000Y-74055000D03*
D49*
X14700000Y-75580000D03*
X14700000Y-77455000D03*
D48*
X17000000Y-78980000D03*
D47*
X14700000Y-80467500D03*
%TD*%
D10*
%TO.C,TCGND1*%
X101500000Y-88250000D03*
%TD*%
D16*
%TO.C,R11*%
X32597500Y-67470000D03*
X31402500Y-67470000D03*
%TD*%
D13*
%TO.C,C6*%
X27340000Y-75362500D03*
X27340000Y-76497500D03*
%TD*%
D15*
%TO.C,J2*%
X62988996Y-102081941D03*
%TD*%
D13*
%TO.C,C9*%
X28125000Y-86382500D03*
X28125000Y-87517500D03*
%TD*%
D10*
%TO.C,TFGND1*%
X18370000Y-94240000D03*
%TD*%
D17*
%TO.C,R4*%
X18950000Y-90240000D03*
X18105008Y-89395008D03*
%TD*%
D44*
%TO.C,SW1*%
X20940000Y-94750000D03*
X25040000Y-94750000D03*
X20940000Y-96350000D03*
X25040000Y-96350000D03*
%TD*%
D17*
%TO.C,R8*%
X33442496Y-90084496D03*
X32597504Y-89239504D03*
%TD*%
D15*
%TO.C,J5*%
X62988996Y-23896243D03*
%TD*%
M02*
