M48
; DRILL file {KiCad 8.0.4} date 2025-02-07T11:38:15-0500
; FORMAT={-:-/ absolute / inch / decimal}
; #@! TF.CreationDate,2025-02-07T11:38:15-05:00
; #@! TF.GenerationSoftware,Kicad,Pcbnew,8.0.4
; #@! TF.FileFunction,Plated,1,4,PTH
FMAT,2
INCH
; #@! TA.AperFunction,Plated,PTH,ViaDrill
T1C0.0098
; #@! TA.AperFunction,Plated,PTH,ViaDrill
T2C0.0157
; #@! TA.AperFunction,Plated,PTH,ComponentDrill
T3C0.0276
; #@! TA.AperFunction,Plated,PTH,ComponentDrill
T4C0.0394
; #@! TA.AperFunction,Plated,PTH,ComponentDrill
T5C0.1161
; #@! TA.AperFunction,Plated,PTH,ComponentDrill
T6C0.1181
%
G90
G05
T1
X0.7146Y-3.2713
X0.7591Y-3.8016
X0.8551Y-2.1264
X0.9252Y-3.061
X0.9547Y-3.0315
X0.9776Y-3.365
X1.0024Y-3.172
X1.0024Y-3.8929
X1.0039Y-1.7232
X1.0039Y-1.8098
X1.0039Y-1.8965
X1.0039Y-1.9398
X1.0236Y-3.6417
X1.0827Y-3.0512
X1.1024Y-3.937
X1.1083Y-3.4701
X1.139Y-3.0354
X1.1528Y-2.9142
X1.1585Y-3.9498
X1.1652Y-3.1623
X1.1657Y-2.8854
X1.166Y-3.2663
X1.1811Y-3.3071
X1.2106Y-3.7795
X1.25Y-3.7008
X1.2687Y-3.1624
X1.2696Y-3.2666
X1.2697Y-4.1732
X1.2894Y-2.9429
X1.3091Y-3.2067
X1.3287Y-3.5039
X1.3386Y-2.8445
X1.3583Y-2.9331
X1.36Y-3.563
X1.3976Y-3.4449
X1.4075Y-3.6614
X1.4173Y-2.6698
X1.4331Y-2.3622
X1.438Y-1.9291
X1.4394Y-3.4137
X1.4437Y-3.313
X1.4469Y-4.1732
X1.4764Y-3.4055
X1.4828Y-3.9015
X1.4862Y-3.7205
X1.4961Y-3.435
X1.5059Y-3.0197
X1.5059Y-4.1535
X1.5142Y-3.772
X1.5157Y-3.3268
X1.5157Y-3.3957
X1.5169Y-3.6909
X1.5453Y-3.1988
X1.565Y-3.3465
X1.5669Y-3.0921
X1.5669Y-3.1299
X1.5748Y-2.5886
X1.5846Y-3.0512
X1.6102Y-3.2362
X1.624Y-2.8839
X1.6909Y-2.7874
X1.7547Y-3.9358
X1.7717Y-2.7402
X1.811Y-2.7638
X1.811Y-2.815
X1.874Y-3.0472
X2.1126Y-4.052
X2.2008Y-2.7638
X2.2008Y-2.811
X2.2008Y-2.8583
X2.2008Y-2.9055
X2.2343Y-3.061
X2.2677Y-2.7756
X2.313Y-3.4055
X2.4483Y-2.289
X2.4508Y-2.6772
X2.4744Y-3.0374
X2.4921Y-3.1969
X2.5118Y-3.1181
X2.5197Y-3.1791
X2.5591Y-2.815
X2.5591Y-3.1299
X2.5787Y-3.4055
X2.6441Y-3.0409
X3.0Y-3.4646
X3.0787Y-3.4803
X3.1417Y-3.5748
X3.18Y-3.6713
X3.3787Y-3.4622
X3.6189Y-3.4697
X3.6965Y-3.4673
X3.722Y-2.9854
X3.7303Y-2.8878
X3.7469Y-2.7839
X3.985Y-3.5823
X3.9862Y-3.6417
X4.0689Y-3.713
X4.1902Y-3.7091
X4.2028Y-2.8839
T2
X4.3028Y-2.7118
T4
X1.6014Y-1.8597
X1.6014Y-1.9597
X2.88Y-3.98
X2.98Y-3.98
X3.08Y-3.98
X3.18Y-3.98
X3.28Y-3.98
X3.38Y-3.98
X3.4679Y-2.1362
X3.4679Y-2.2362
X3.5679Y-2.0862
X3.5679Y-2.2976
X3.7679Y-2.0862
X3.7679Y-2.2976
X3.8679Y-2.1362
X3.8679Y-2.2362
X3.911Y-2.739
X3.911Y-2.839
X3.911Y-2.939
X3.911Y-3.039
X3.911Y-3.139
X3.911Y-3.239
T5
X1.6465Y-1.4952
T6
X0.9526Y-2.4803
X2.4799Y-0.9408
X2.4799Y-4.019
X4.0072Y-2.4786
T3
G00X0.5669Y-2.857
M15
G01X0.5906Y-2.857
M16
G05
G00X0.5669Y-3.168
M15
G01X0.5906Y-3.168
M16
G05
M30
