%TF.GenerationSoftware,KiCad,Pcbnew,8.0.4*%
%TF.CreationDate,2025-02-03T16:05:13-05:00*%
%TF.ProjectId,payload_board,7061796c-6f61-4645-9f62-6f6172642e6b,1.0*%
%TF.SameCoordinates,Original*%
%TF.FileFunction,Soldermask,Top*%
%TF.FilePolarity,Negative*%
%FSLAX46Y46*%
G04 Gerber Fmt 4.6, Leading zero omitted, Abs format (unit mm)*
G04 Created by KiCad (PCBNEW 8.0.4) date 2025-02-03 16:05:13*
%MOMM*%
%LPD*%
G01*
G04 APERTURE LIST*
G04 Aperture macros list*
%AMRoundRect*
0 Rectangle with rounded corners*
0 $1 Rounding radius*
0 $2 $3 $4 $5 $6 $7 $8 $9 X,Y pos of 4 corners*
0 Add a 4 corners polygon primitive as box body*
4,1,4,$2,$3,$4,$5,$6,$7,$8,$9,$2,$3,0*
0 Add four circle primitives for the rounded corners*
1,1,$1+$1,$2,$3*
1,1,$1+$1,$4,$5*
1,1,$1+$1,$6,$7*
1,1,$1+$1,$8,$9*
0 Add four rect primitives between the rounded corners*
20,1,$1+$1,$2,$3,$4,$5,0*
20,1,$1+$1,$4,$5,$6,$7,0*
20,1,$1+$1,$6,$7,$8,$9,0*
20,1,$1+$1,$8,$9,$2,$3,0*%
%AMRotRect*
0 Rectangle, with rotation*
0 The origin of the aperture is its center*
0 $1 length*
0 $2 width*
0 $3 Rotation angle, in degrees counterclockwise*
0 Add horizontal line*
21,1,$1,$2,0,0,$3*%
%AMFreePoly0*
4,1,19,0.500000,-0.750000,0.000000,-0.750000,0.000000,-0.744911,-0.071157,-0.744911,-0.207708,-0.704816,-0.327430,-0.627875,-0.420627,-0.520320,-0.479746,-0.390866,-0.500000,-0.250000,-0.500000,0.250000,-0.479746,0.390866,-0.420627,0.520320,-0.327430,0.627875,-0.207708,0.704816,-0.071157,0.744911,0.000000,0.744911,0.000000,0.750000,0.500000,0.750000,0.500000,-0.750000,0.500000,-0.750000,
$1*%
%AMFreePoly1*
4,1,19,0.000000,0.744911,0.071157,0.744911,0.207708,0.704816,0.327430,0.627875,0.420627,0.520320,0.479746,0.390866,0.500000,0.250000,0.500000,-0.250000,0.479746,-0.390866,0.420627,-0.520320,0.327430,-0.627875,0.207708,-0.704816,0.071157,-0.744911,0.000000,-0.744911,0.000000,-0.750000,-0.500000,-0.750000,-0.500000,0.750000,0.000000,0.750000,0.000000,0.744911,0.000000,0.744911,
$1*%
%AMFreePoly2*
4,1,6,1.000000,0.000000,0.500000,-0.750000,-0.500000,-0.750000,-0.500000,0.750000,0.500000,0.750000,1.000000,0.000000,1.000000,0.000000,$1*%
%AMFreePoly3*
4,1,6,0.500000,-0.750000,-0.650000,-0.750000,-0.150000,0.000000,-0.650000,0.750000,0.500000,0.750000,0.500000,-0.750000,0.500000,-0.750000,$1*%
G04 Aperture macros list end*
%ADD10RoundRect,0.155000X-0.155000X0.212500X-0.155000X-0.212500X0.155000X-0.212500X0.155000X0.212500X0*%
%ADD11RoundRect,0.155000X-0.212500X-0.155000X0.212500X-0.155000X0.212500X0.155000X-0.212500X0.155000X0*%
%ADD12RoundRect,0.160000X0.160000X-0.197500X0.160000X0.197500X-0.160000X0.197500X-0.160000X-0.197500X0*%
%ADD13C,1.000000*%
%ADD14RoundRect,0.155000X0.212500X0.155000X-0.212500X0.155000X-0.212500X-0.155000X0.212500X-0.155000X0*%
%ADD15RoundRect,0.112500X-0.112500X0.187500X-0.112500X-0.187500X0.112500X-0.187500X0.112500X0.187500X0*%
%ADD16R,1.000000X0.600000*%
%ADD17R,1.800000X1.250000*%
%ADD18RoundRect,0.250000X0.400000X0.625000X-0.400000X0.625000X-0.400000X-0.625000X0.400000X-0.625000X0*%
%ADD19FreePoly0,180.000000*%
%ADD20FreePoly1,180.000000*%
%ADD21RoundRect,0.150000X0.150000X-0.512500X0.150000X0.512500X-0.150000X0.512500X-0.150000X-0.512500X0*%
%ADD22C,5.250000*%
%ADD23RoundRect,0.250000X0.650000X-0.412500X0.650000X0.412500X-0.650000X0.412500X-0.650000X-0.412500X0*%
%ADD24RoundRect,0.155000X0.155000X-0.212500X0.155000X0.212500X-0.155000X0.212500X-0.155000X-0.212500X0*%
%ADD25R,1.700000X1.700000*%
%ADD26O,1.700000X1.700000*%
%ADD27RoundRect,0.250000X0.350000X0.450000X-0.350000X0.450000X-0.350000X-0.450000X0.350000X-0.450000X0*%
%ADD28RoundRect,0.237500X0.300000X0.237500X-0.300000X0.237500X-0.300000X-0.237500X0.300000X-0.237500X0*%
%ADD29RoundRect,0.250000X0.625000X-0.400000X0.625000X0.400000X-0.625000X0.400000X-0.625000X-0.400000X0*%
%ADD30R,0.177800X1.002800*%
%ADD31R,0.188898X1.002800*%
%ADD32R,0.177800X0.752800*%
%ADD33R,0.752800X0.177800*%
%ADD34R,1.002800X0.177800*%
%ADD35R,1.002800X0.188900*%
%ADD36R,0.752800X0.188900*%
%ADD37R,0.188900X1.002800*%
%ADD38R,0.752800X0.177796*%
%ADD39C,0.500000*%
%ADD40R,3.200400X3.200400*%
%ADD41FreePoly2,180.000000*%
%ADD42FreePoly3,180.000000*%
%ADD43R,0.900000X0.800000*%
%ADD44RoundRect,0.112500X0.362392X-0.203293X-0.203293X0.362392X-0.362392X0.203293X0.203293X-0.362392X0*%
%ADD45RotRect,3.400000X4.000000X135.000000*%
%ADD46RoundRect,0.250000X0.412500X0.650000X-0.412500X0.650000X-0.412500X-0.650000X0.412500X-0.650000X0*%
%ADD47RoundRect,0.076200X0.550000X-0.350000X0.550000X0.350000X-0.550000X0.350000X-0.550000X-0.350000X0*%
%ADD48RoundRect,0.076200X0.465000X-0.450000X0.465000X0.450000X-0.465000X0.450000X-0.465000X-0.450000X0*%
%ADD49RoundRect,0.076200X0.390000X-0.525000X0.390000X0.525000X-0.390000X0.525000X-0.390000X-0.525000X0*%
%ADD50RoundRect,0.076200X0.915000X-0.570000X0.915000X0.570000X-0.915000X0.570000X-0.915000X-0.570000X0*%
%ADD51RoundRect,0.076200X1.400000X-0.430000X1.400000X0.430000X-1.400000X0.430000X-1.400000X-0.430000X0*%
%ADD52RoundRect,0.076200X1.665000X-0.350000X1.665000X0.350000X-1.665000X0.350000X-1.665000X-0.350000X0*%
%ADD53R,1.524000X1.701800*%
%ADD54R,0.254000X0.812800*%
%ADD55RoundRect,0.250001X0.462499X0.849999X-0.462499X0.849999X-0.462499X-0.849999X0.462499X-0.849999X0*%
%ADD56RoundRect,0.112500X0.187500X0.112500X-0.187500X0.112500X-0.187500X-0.112500X0.187500X-0.112500X0*%
%ADD57RoundRect,0.150000X-0.512500X-0.150000X0.512500X-0.150000X0.512500X0.150000X-0.512500X0.150000X0*%
%ADD58RoundRect,0.237500X-0.237500X0.300000X-0.237500X-0.300000X0.237500X-0.300000X0.237500X0.300000X0*%
%ADD59R,2.400000X3.500000*%
%ADD60R,1.850000X0.900000*%
%ADD61R,1.850000X3.200000*%
%ADD62RoundRect,0.150000X0.825000X0.150000X-0.825000X0.150000X-0.825000X-0.150000X0.825000X-0.150000X0*%
%ADD63R,0.900000X1.000000*%
%ADD64RoundRect,0.155000X-0.259862X0.040659X0.040659X-0.259862X0.259862X-0.040659X-0.040659X0.259862X0*%
%ADD65R,0.600000X1.000000*%
%ADD66R,1.250000X1.800000*%
%ADD67RoundRect,0.250000X-0.412500X-0.650000X0.412500X-0.650000X0.412500X0.650000X-0.412500X0.650000X0*%
%ADD68O,2.568400X1.360400*%
%ADD69RoundRect,0.160000X-0.197500X-0.160000X0.197500X-0.160000X0.197500X0.160000X-0.197500X0.160000X0*%
%ADD70RoundRect,0.160000X0.252791X-0.026517X-0.026517X0.252791X-0.252791X0.026517X0.026517X-0.252791X0*%
%ADD71RoundRect,0.160000X-0.252791X0.026517X0.026517X-0.252791X0.252791X-0.026517X-0.026517X0.252791X0*%
%ADD72RoundRect,0.160000X-0.160000X0.197500X-0.160000X-0.197500X0.160000X-0.197500X0.160000X0.197500X0*%
%ADD73RoundRect,0.160000X0.197500X0.160000X-0.197500X0.160000X-0.197500X-0.160000X0.197500X-0.160000X0*%
G04 APERTURE END LIST*
D10*
%TO.C,C22*%
X58330000Y-79552500D03*
X58330000Y-80687500D03*
%TD*%
D11*
%TO.C,R16*%
X58642500Y-77080000D03*
X59777500Y-77080000D03*
%TD*%
D10*
%TO.C,R15*%
X59730000Y-78870000D03*
X59730000Y-80005000D03*
%TD*%
%TO.C,C23*%
X67110000Y-79652500D03*
X67110000Y-80787500D03*
%TD*%
D12*
%TO.C,R19*%
X73550000Y-85260000D03*
X73550000Y-84065000D03*
%TD*%
D13*
%TO.C,TF3V3*%
X20380000Y-80870000D03*
%TD*%
D14*
%TO.C,C8*%
X24777500Y-80540000D03*
X23642500Y-80540000D03*
%TD*%
D15*
%TO.C,D7*%
X75400000Y-83650000D03*
X75400000Y-85750000D03*
%TD*%
D11*
%TO.C,C10*%
X36762500Y-81640000D03*
X37897500Y-81640000D03*
%TD*%
D16*
%TO.C,J8*%
X92950000Y-62800000D03*
X92950000Y-64300000D03*
D17*
X87760000Y-60195000D03*
X87760000Y-66905000D03*
%TD*%
D18*
%TO.C,R13*%
X61724400Y-73169796D03*
X58624400Y-73169796D03*
%TD*%
D10*
%TO.C,C2*%
X40870000Y-79462500D03*
X40870000Y-80597500D03*
%TD*%
D19*
%TO.C,JP2*%
X46400000Y-98250000D03*
D20*
X45100000Y-98250000D03*
%TD*%
D14*
%TO.C,C19*%
X72767500Y-70580000D03*
X71632500Y-70580000D03*
%TD*%
D21*
%TO.C,U4*%
X91920000Y-86630000D03*
X92870000Y-86630000D03*
X93820000Y-86630000D03*
X93820000Y-84355000D03*
X91920000Y-84355000D03*
%TD*%
D22*
%TO.C,*%
X101782992Y-62956243D03*
%TD*%
D23*
%TO.C,C18*%
X21720000Y-57802500D03*
X21720000Y-54677500D03*
%TD*%
D24*
%TO.C,C7*%
X31850000Y-75907500D03*
X31850000Y-74772500D03*
%TD*%
D25*
%TO.C,J2*%
X99340000Y-82270000D03*
D26*
X99340000Y-79730000D03*
X99340000Y-77190000D03*
X99340000Y-74650000D03*
X99340000Y-72110000D03*
X99340000Y-69570000D03*
%TD*%
D13*
%TO.C,T3V3*%
X34300000Y-58900000D03*
%TD*%
D16*
%TO.C,J1*%
X108690000Y-72354999D03*
X108690000Y-73854999D03*
X108690000Y-75354998D03*
X108690000Y-76855000D03*
X108690000Y-78355000D03*
X108690000Y-79854999D03*
X108690000Y-81354999D03*
X108690000Y-82854998D03*
D17*
X103500000Y-69750000D03*
X103500000Y-85459997D03*
%TD*%
D27*
%TO.C,R20*%
X68500000Y-74750000D03*
X66500000Y-74750000D03*
%TD*%
D25*
%TO.C,J15*%
X85852000Y-101092000D03*
D26*
X83312000Y-101092000D03*
X80772000Y-101092000D03*
X78232000Y-101092000D03*
X75692000Y-101092000D03*
X73152000Y-101092000D03*
%TD*%
D28*
%TO.C,C20*%
X72342500Y-80840000D03*
X70617500Y-80840000D03*
%TD*%
D14*
%TO.C,C4*%
X38159500Y-80264000D03*
X37024500Y-80264000D03*
%TD*%
D29*
%TO.C,R14*%
X95740200Y-87042500D03*
X95740200Y-83942500D03*
%TD*%
D13*
%TO.C,TCAM3V3*%
X89140000Y-84060000D03*
%TD*%
D30*
%TO.C,IC1*%
X28316400Y-85148600D03*
X28716399Y-85148600D03*
X29116401Y-85148600D03*
X29516400Y-85148600D03*
X29916399Y-85148600D03*
D31*
X30321951Y-85148600D03*
D30*
X30716400Y-85148600D03*
X31116400Y-85148600D03*
X31516399Y-85148600D03*
X31916401Y-85148600D03*
X32316400Y-85148600D03*
X32716399Y-85148600D03*
X33116401Y-85148600D03*
D32*
X33516400Y-85023600D03*
D33*
X34290000Y-84250000D03*
D34*
X34415000Y-83850001D03*
X34415000Y-83449999D03*
D35*
X34415000Y-83055550D03*
D34*
X34415000Y-82650001D03*
X34415000Y-82249999D03*
X34415000Y-81850000D03*
D33*
X34290000Y-81450000D03*
D34*
X34415000Y-81050001D03*
X34415000Y-80649999D03*
X34415000Y-80250000D03*
X34415000Y-79850001D03*
X34415000Y-79449999D03*
D36*
X34290000Y-79055550D03*
D30*
X33516400Y-78151400D03*
X33116401Y-78151400D03*
X32716399Y-78151400D03*
D37*
X32321950Y-78151400D03*
D30*
X31916401Y-78151400D03*
X31516399Y-78151400D03*
X31116400Y-78151400D03*
X30716400Y-78151400D03*
X30316401Y-78151400D03*
X29916399Y-78151400D03*
X29516400Y-78151400D03*
X29116401Y-78151400D03*
X28716399Y-78151400D03*
D37*
X28321950Y-78151400D03*
D34*
X27417800Y-79050000D03*
D33*
X27542800Y-79449999D03*
D34*
X27417800Y-79850001D03*
X27417800Y-80250000D03*
X27417800Y-80649999D03*
X27417800Y-81050001D03*
X27417800Y-81450000D03*
X27417800Y-81850000D03*
X27417800Y-82249999D03*
X27417800Y-82650001D03*
X27417800Y-83050000D03*
X27417800Y-83449999D03*
X27417800Y-83850001D03*
D38*
X27542800Y-84249998D03*
D39*
X29566400Y-83000000D03*
X32266400Y-83000000D03*
D40*
X30916400Y-81650000D03*
D39*
X29566400Y-80300000D03*
X32266400Y-80300000D03*
%TD*%
D41*
%TO.C,J4*%
X51722500Y-58340000D03*
D42*
X50272500Y-58340000D03*
%TD*%
D25*
%TO.C,J12*%
X40676000Y-49777000D03*
D26*
X40676000Y-47237000D03*
%TD*%
D14*
%TO.C,C16*%
X61250000Y-68000000D03*
X60115000Y-68000000D03*
%TD*%
D13*
%TO.C,T1V2*%
X23940000Y-74630000D03*
%TD*%
%TO.C,TGND3*%
X93580000Y-97440000D03*
%TD*%
%TO.C,TUCS1*%
X20880000Y-98770000D03*
%TD*%
D43*
%TO.C,Q1*%
X87050000Y-86020000D03*
X87050000Y-87920000D03*
X89450000Y-86970000D03*
%TD*%
D44*
%TO.C,U1*%
X22601229Y-90234520D03*
X23499255Y-89336494D03*
X24397280Y-88438469D03*
X25295306Y-87540443D03*
X21282475Y-83527612D03*
X20384449Y-84425638D03*
X19486424Y-85323663D03*
X18588398Y-86221689D03*
D45*
X21941852Y-86881066D03*
%TD*%
D46*
%TO.C,C13*%
X60970000Y-60830000D03*
X57845000Y-60830000D03*
%TD*%
D47*
%TO.C,J10*%
X23985000Y-50370000D03*
X23985000Y-49270000D03*
X23985000Y-48170000D03*
X23985000Y-47070000D03*
X23985000Y-45970000D03*
X23985000Y-44870000D03*
X23985000Y-43770000D03*
X23985000Y-42670000D03*
D48*
X36450000Y-52160000D03*
D49*
X36525000Y-47895000D03*
D50*
X24000000Y-54250000D03*
D51*
X24485000Y-41590000D03*
D52*
X35250000Y-54470000D03*
X35250000Y-41510000D03*
%TD*%
D53*
%TO.C,U6*%
X71802700Y-86413200D03*
X53997300Y-86413200D03*
D54*
X55649999Y-82400000D03*
X56149998Y-82400000D03*
X56650000Y-82400000D03*
X57149999Y-82400000D03*
X57650000Y-82400000D03*
X58149999Y-82400000D03*
X58649998Y-82400000D03*
X59150000Y-82400000D03*
X59649999Y-82400000D03*
X60150000Y-82400000D03*
X60649999Y-82400000D03*
X61149998Y-82400000D03*
X61650000Y-82400000D03*
X62149999Y-82400000D03*
X62649998Y-82400000D03*
X63150000Y-82400000D03*
X63649998Y-82400000D03*
X64150000Y-82400000D03*
X64649999Y-82400000D03*
X65149998Y-82400000D03*
X65650000Y-82400000D03*
X66149999Y-82400000D03*
X66650000Y-82400000D03*
X67149999Y-82400000D03*
X67649998Y-82400000D03*
X68150000Y-82400000D03*
X68649999Y-82400000D03*
X69150000Y-82400000D03*
X69649999Y-82400000D03*
X70149998Y-82400000D03*
%TD*%
D55*
%TO.C,L1*%
X69825000Y-68250000D03*
X67500000Y-68250000D03*
%TD*%
D56*
%TO.C,D1*%
X23210000Y-92560000D03*
X21110000Y-92560000D03*
%TD*%
D57*
%TO.C,U7*%
X67475000Y-70600000D03*
X67475000Y-71550000D03*
X67475000Y-72500000D03*
X69750000Y-72500000D03*
X69750000Y-71550000D03*
X69750000Y-70600000D03*
%TD*%
%TO.C,U3*%
X59006000Y-69390196D03*
X59006000Y-70340196D03*
X59006000Y-71290196D03*
X61281000Y-71290196D03*
X61281000Y-69390196D03*
%TD*%
D13*
%TO.C,TDGND1*%
X73500000Y-62500000D03*
%TD*%
D11*
%TO.C,C5*%
X24182500Y-81580000D03*
X25317500Y-81580000D03*
%TD*%
D27*
%TO.C,C26*%
X73750000Y-72750000D03*
X71750000Y-72750000D03*
%TD*%
D58*
%TO.C,C21*%
X68600000Y-78607500D03*
X68600000Y-80332500D03*
%TD*%
D16*
%TO.C,J3*%
X108520000Y-91024999D03*
X108520000Y-92524999D03*
X108520000Y-94024998D03*
X108520000Y-95525000D03*
D17*
X103330000Y-88420000D03*
X103330000Y-98129999D03*
%TD*%
D10*
%TO.C,C14*%
X26300000Y-76212500D03*
X26300000Y-77347500D03*
%TD*%
D13*
%TO.C,T13V*%
X71000000Y-76500000D03*
%TD*%
D24*
%TO.C,C1*%
X40860000Y-84767500D03*
X40860000Y-83632500D03*
%TD*%
D59*
%TO.C,Y1*%
X43400000Y-79440000D03*
X43400000Y-84640000D03*
%TD*%
D24*
%TO.C,C15*%
X28500000Y-76227500D03*
X28500000Y-75092500D03*
%TD*%
D60*
%TO.C,IC2*%
X53900000Y-53700000D03*
X53900000Y-56000000D03*
X53900000Y-58300000D03*
D61*
X60100000Y-56000000D03*
%TD*%
D22*
%TO.C,*%
X24195000Y-63000000D03*
%TD*%
D58*
%TO.C,C24*%
X56790000Y-78887500D03*
X56790000Y-80612500D03*
%TD*%
D13*
%TO.C,TGND1*%
X23130000Y-70690000D03*
%TD*%
D62*
%TO.C,U2*%
X51945000Y-104170000D03*
X51945000Y-102900000D03*
X51945000Y-101630000D03*
X51945000Y-100360000D03*
X46995000Y-100360000D03*
X46995000Y-101630000D03*
X46995000Y-102900000D03*
X46995000Y-104170000D03*
%TD*%
D63*
%TO.C,SW2*%
X50200000Y-96920000D03*
X54300000Y-96920000D03*
X50200000Y-98520000D03*
X54300000Y-98520000D03*
%TD*%
D64*
%TO.C,C11*%
X32618717Y-87228717D03*
X33421283Y-88031283D03*
%TD*%
D13*
%TO.C,TCGND1*%
X99730000Y-88420000D03*
%TD*%
D24*
%TO.C,C17*%
X90686000Y-85550000D03*
X90686000Y-84415000D03*
%TD*%
D10*
%TO.C,C6*%
X27340000Y-75362500D03*
X27340000Y-76497500D03*
%TD*%
D22*
%TO.C,J2*%
X62988996Y-102081941D03*
%TD*%
D65*
%TO.C,J6*%
X39750000Y-107000000D03*
X38250000Y-107000000D03*
X36750001Y-107000000D03*
X35249999Y-107000000D03*
X33749999Y-107000000D03*
X32250000Y-107000000D03*
D66*
X42354999Y-101810000D03*
X29645001Y-101810000D03*
%TD*%
D10*
%TO.C,C9*%
X28125000Y-86382500D03*
X28125000Y-87517500D03*
%TD*%
D13*
%TO.C,TFGND1*%
X18370000Y-94240000D03*
%TD*%
D15*
%TO.C,D5*%
X75400000Y-80350000D03*
X75400000Y-82450000D03*
%TD*%
D13*
%TO.C,TREG3V3*%
X62597500Y-55182500D03*
%TD*%
D63*
%TO.C,SW1*%
X20940000Y-94750000D03*
X25040000Y-94750000D03*
X20940000Y-96350000D03*
X25040000Y-96350000D03*
%TD*%
D67*
%TO.C,C12*%
X52755000Y-60810000D03*
X55880000Y-60810000D03*
%TD*%
D25*
%TO.C,J_Burn*%
X95705000Y-58360000D03*
X98245000Y-56800000D03*
X98245000Y-54260000D03*
X95705000Y-52990000D03*
D26*
X90625000Y-58360000D03*
D25*
X88085000Y-56800000D03*
X88085000Y-54260000D03*
D26*
X90625000Y-52990000D03*
%TD*%
D22*
%TO.C,*%
X41822243Y-37976859D03*
%TD*%
D68*
%TO.C,J7*%
X14700000Y-80467500D03*
X14700000Y-72567500D03*
%TD*%
D22*
%TO.C,J5*%
X62988996Y-23896243D03*
%TD*%
D69*
%TO.C,R7*%
X20027500Y-90975000D03*
X21222500Y-90975000D03*
%TD*%
D70*
%TO.C,R5*%
X25667496Y-78397496D03*
X24822504Y-77552504D03*
%TD*%
D71*
%TO.C,R3*%
X18850632Y-88670632D03*
X19695624Y-89515624D03*
%TD*%
D72*
%TO.C,R21*%
X64750000Y-73152500D03*
X64750000Y-74347500D03*
%TD*%
D71*
%TO.C,R6*%
X24122504Y-78402504D03*
X24967496Y-79247496D03*
%TD*%
D73*
%TO.C,R2*%
X38967500Y-82730000D03*
X37772500Y-82730000D03*
%TD*%
%TO.C,R1*%
X39445000Y-77500000D03*
X38250000Y-77500000D03*
%TD*%
D70*
%TO.C,R4*%
X18950000Y-90240000D03*
X18105008Y-89395008D03*
%TD*%
%TO.C,R8*%
X33442496Y-90084496D03*
X32597504Y-89239504D03*
%TD*%
M02*
