%TF.GenerationSoftware,KiCad,Pcbnew,8.0.4*%
%TF.CreationDate,2024-11-15T22:59:46-05:00*%
%TF.ProjectId,payload_board,7061796c-6f61-4645-9f62-6f6172642e6b,0.7.4*%
%TF.SameCoordinates,Original*%
%TF.FileFunction,Profile,NP*%
%FSLAX46Y46*%
G04 Gerber Fmt 4.6, Leading zero omitted, Abs format (unit mm)*
G04 Created by KiCad (PCBNEW 8.0.4) date 2024-11-15 22:59:46*
%MOMM*%
%LPD*%
G01*
G04 APERTURE LIST*
%TA.AperFunction,Profile*%
%ADD10C,0.250000*%
%TD*%
G04 APERTURE END LIST*
D10*
X45722243Y-26718286D02*
X52133003Y-26718286D01*
X48028996Y-91764600D02*
X48028996Y-90504600D01*
X12988996Y-23474600D02*
X12988996Y-102474600D01*
X12988996Y-102474600D02*
X23488996Y-102474600D01*
X78028996Y-91764600D02*
X48028996Y-91764600D01*
X112988996Y-51085346D02*
X79171796Y-51085346D01*
X102488996Y-112974600D02*
X102488996Y-102474600D01*
X52133003Y-47292286D02*
X45722243Y-47292286D01*
X23491996Y-13000000D02*
X23488996Y-23474600D01*
X23488996Y-23474600D02*
X12988996Y-23474600D01*
X23488996Y-102474600D02*
X23488996Y-112974600D01*
X78028996Y-90504600D02*
X78028996Y-91764600D01*
X112988996Y-102474600D02*
X112988996Y-51085346D01*
X102488996Y-102474600D02*
X112988996Y-102474600D01*
X45722243Y-47292286D02*
X45722243Y-26718286D01*
X71637127Y-36868243D02*
G75*
G02*
X54365127Y-36868243I-8636000J0D01*
G01*
X54365127Y-36868243D02*
G75*
G02*
X71637127Y-36868243I8636000J0D01*
G01*
X52133003Y-26718286D02*
X52133003Y-47292286D01*
X48028996Y-90504600D02*
X78028996Y-90504600D01*
X79171796Y-13000000D02*
X23491996Y-13000000D01*
X23488996Y-112974600D02*
X102488996Y-112974600D01*
X79171796Y-51085346D02*
X79171796Y-13000000D01*
M02*
