%TF.GenerationSoftware,KiCad,Pcbnew,8.0.4*%
%TF.CreationDate,2024-11-21T13:14:58-05:00*%
%TF.ProjectId,payload_board,7061796c-6f61-4645-9f62-6f6172642e6b,0.7.4*%
%TF.SameCoordinates,Original*%
%TF.FileFunction,Legend,Bot*%
%TF.FilePolarity,Positive*%
%FSLAX46Y46*%
G04 Gerber Fmt 4.6, Leading zero omitted, Abs format (unit mm)*
G04 Created by KiCad (PCBNEW 8.0.4) date 2024-11-21 13:14:58*
%MOMM*%
%LPD*%
G01*
G04 APERTURE LIST*
G04 Aperture macros list*
%AMRoundRect*
0 Rectangle with rounded corners*
0 $1 Rounding radius*
0 $2 $3 $4 $5 $6 $7 $8 $9 X,Y pos of 4 corners*
0 Add a 4 corners polygon primitive as box body*
4,1,4,$2,$3,$4,$5,$6,$7,$8,$9,$2,$3,0*
0 Add four circle primitives for the rounded corners*
1,1,$1+$1,$2,$3*
1,1,$1+$1,$4,$5*
1,1,$1+$1,$6,$7*
1,1,$1+$1,$8,$9*
0 Add four rect primitives between the rounded corners*
20,1,$1+$1,$2,$3,$4,$5,0*
20,1,$1+$1,$4,$5,$6,$7,0*
20,1,$1+$1,$6,$7,$8,$9,0*
20,1,$1+$1,$8,$9,$2,$3,0*%
G04 Aperture macros list end*
%ADD10C,0.150000*%
%ADD11C,0.100000*%
%ADD12C,0.120000*%
%ADD13C,0.000000*%
%ADD14C,0.127000*%
%ADD15C,0.200000*%
%ADD16C,5.250000*%
%ADD17R,1.700000X1.700000*%
%ADD18O,1.700000X1.700000*%
%ADD19RoundRect,0.160000X-0.197500X-0.160000X0.197500X-0.160000X0.197500X0.160000X-0.197500X0.160000X0*%
%ADD20RoundRect,0.243750X-0.243750X-0.456250X0.243750X-0.456250X0.243750X0.456250X-0.243750X0.456250X0*%
%ADD21RoundRect,0.076200X-0.690000X-0.225000X0.690000X-0.225000X0.690000X0.225000X-0.690000X0.225000X0*%
%ADD22O,2.568400X1.360400*%
%ADD23RoundRect,0.076200X-1.050000X-0.737500X1.050000X-0.737500X1.050000X0.737500X-1.050000X0.737500X0*%
%ADD24RoundRect,0.076200X-0.950000X-0.687500X0.950000X-0.687500X0.950000X0.687500X-0.950000X0.687500X0*%
G04 APERTURE END LIST*
D10*
X31858458Y-60915704D02*
X31239411Y-60915704D01*
X31239411Y-60915704D02*
X31572744Y-61334752D01*
X31572744Y-61334752D02*
X31429887Y-61334752D01*
X31429887Y-61334752D02*
X31334649Y-61387133D01*
X31334649Y-61387133D02*
X31287030Y-61439514D01*
X31287030Y-61439514D02*
X31239411Y-61544276D01*
X31239411Y-61544276D02*
X31239411Y-61806181D01*
X31239411Y-61806181D02*
X31287030Y-61910943D01*
X31287030Y-61910943D02*
X31334649Y-61963324D01*
X31334649Y-61963324D02*
X31429887Y-62015704D01*
X31429887Y-62015704D02*
X31715601Y-62015704D01*
X31715601Y-62015704D02*
X31810839Y-61963324D01*
X31810839Y-61963324D02*
X31858458Y-61910943D01*
X30810839Y-61910943D02*
X30763220Y-61963324D01*
X30763220Y-61963324D02*
X30810839Y-62015704D01*
X30810839Y-62015704D02*
X30858458Y-61963324D01*
X30858458Y-61963324D02*
X30810839Y-61910943D01*
X30810839Y-61910943D02*
X30810839Y-62015704D01*
X30429887Y-60915704D02*
X29810840Y-60915704D01*
X29810840Y-60915704D02*
X30144173Y-61334752D01*
X30144173Y-61334752D02*
X30001316Y-61334752D01*
X30001316Y-61334752D02*
X29906078Y-61387133D01*
X29906078Y-61387133D02*
X29858459Y-61439514D01*
X29858459Y-61439514D02*
X29810840Y-61544276D01*
X29810840Y-61544276D02*
X29810840Y-61806181D01*
X29810840Y-61806181D02*
X29858459Y-61910943D01*
X29858459Y-61910943D02*
X29906078Y-61963324D01*
X29906078Y-61963324D02*
X30001316Y-62015704D01*
X30001316Y-62015704D02*
X30287030Y-62015704D01*
X30287030Y-62015704D02*
X30382268Y-61963324D01*
X30382268Y-61963324D02*
X30429887Y-61910943D01*
X29525125Y-60915704D02*
X29191792Y-62015704D01*
X29191792Y-62015704D02*
X28858459Y-60915704D01*
X31287030Y-62686642D02*
X31763220Y-62686642D01*
X31763220Y-62686642D02*
X31810839Y-63210452D01*
X31810839Y-63210452D02*
X31763220Y-63158071D01*
X31763220Y-63158071D02*
X31667982Y-63105690D01*
X31667982Y-63105690D02*
X31429887Y-63105690D01*
X31429887Y-63105690D02*
X31334649Y-63158071D01*
X31334649Y-63158071D02*
X31287030Y-63210452D01*
X31287030Y-63210452D02*
X31239411Y-63315214D01*
X31239411Y-63315214D02*
X31239411Y-63577119D01*
X31239411Y-63577119D02*
X31287030Y-63681881D01*
X31287030Y-63681881D02*
X31334649Y-63734262D01*
X31334649Y-63734262D02*
X31429887Y-63786642D01*
X31429887Y-63786642D02*
X31667982Y-63786642D01*
X31667982Y-63786642D02*
X31763220Y-63734262D01*
X31763220Y-63734262D02*
X31810839Y-63681881D01*
X30953696Y-62686642D02*
X30620363Y-63786642D01*
X30620363Y-63786642D02*
X30287030Y-62686642D01*
X31763220Y-65557580D02*
X31763220Y-64457580D01*
X31287030Y-65557580D02*
X31287030Y-64457580D01*
X31287030Y-64457580D02*
X30715602Y-65557580D01*
X30715602Y-65557580D02*
X30715602Y-64457580D01*
X30239411Y-65557580D02*
X30239411Y-64457580D01*
X30239411Y-64457580D02*
X30001316Y-64457580D01*
X30001316Y-64457580D02*
X29858459Y-64509961D01*
X29858459Y-64509961D02*
X29763221Y-64614723D01*
X29763221Y-64614723D02*
X29715602Y-64719485D01*
X29715602Y-64719485D02*
X29667983Y-64929009D01*
X29667983Y-64929009D02*
X29667983Y-65086152D01*
X29667983Y-65086152D02*
X29715602Y-65295676D01*
X29715602Y-65295676D02*
X29763221Y-65400438D01*
X29763221Y-65400438D02*
X29858459Y-65505200D01*
X29858459Y-65505200D02*
X30001316Y-65557580D01*
X30001316Y-65557580D02*
X30239411Y-65557580D01*
X33950839Y-96904295D02*
X33950839Y-96104295D01*
X33607983Y-96180485D02*
X33569887Y-96142390D01*
X33569887Y-96142390D02*
X33493697Y-96104295D01*
X33493697Y-96104295D02*
X33303221Y-96104295D01*
X33303221Y-96104295D02*
X33227030Y-96142390D01*
X33227030Y-96142390D02*
X33188935Y-96180485D01*
X33188935Y-96180485D02*
X33150840Y-96256676D01*
X33150840Y-96256676D02*
X33150840Y-96332866D01*
X33150840Y-96332866D02*
X33188935Y-96447152D01*
X33188935Y-96447152D02*
X33646078Y-96904295D01*
X33646078Y-96904295D02*
X33150840Y-96904295D01*
X32350839Y-96828104D02*
X32388935Y-96866200D01*
X32388935Y-96866200D02*
X32503220Y-96904295D01*
X32503220Y-96904295D02*
X32579411Y-96904295D01*
X32579411Y-96904295D02*
X32693697Y-96866200D01*
X32693697Y-96866200D02*
X32769887Y-96790009D01*
X32769887Y-96790009D02*
X32807982Y-96713819D01*
X32807982Y-96713819D02*
X32846078Y-96561438D01*
X32846078Y-96561438D02*
X32846078Y-96447152D01*
X32846078Y-96447152D02*
X32807982Y-96294771D01*
X32807982Y-96294771D02*
X32769887Y-96218580D01*
X32769887Y-96218580D02*
X32693697Y-96142390D01*
X32693697Y-96142390D02*
X32579411Y-96104295D01*
X32579411Y-96104295D02*
X32503220Y-96104295D01*
X32503220Y-96104295D02*
X32388935Y-96142390D01*
X32388935Y-96142390D02*
X32350839Y-96180485D01*
X31131792Y-96485247D02*
X31017506Y-96523342D01*
X31017506Y-96523342D02*
X30979411Y-96561438D01*
X30979411Y-96561438D02*
X30941315Y-96637628D01*
X30941315Y-96637628D02*
X30941315Y-96751914D01*
X30941315Y-96751914D02*
X30979411Y-96828104D01*
X30979411Y-96828104D02*
X31017506Y-96866200D01*
X31017506Y-96866200D02*
X31093696Y-96904295D01*
X31093696Y-96904295D02*
X31398458Y-96904295D01*
X31398458Y-96904295D02*
X31398458Y-96104295D01*
X31398458Y-96104295D02*
X31131792Y-96104295D01*
X31131792Y-96104295D02*
X31055601Y-96142390D01*
X31055601Y-96142390D02*
X31017506Y-96180485D01*
X31017506Y-96180485D02*
X30979411Y-96256676D01*
X30979411Y-96256676D02*
X30979411Y-96332866D01*
X30979411Y-96332866D02*
X31017506Y-96409057D01*
X31017506Y-96409057D02*
X31055601Y-96447152D01*
X31055601Y-96447152D02*
X31131792Y-96485247D01*
X31131792Y-96485247D02*
X31398458Y-96485247D01*
X30598458Y-96904295D02*
X30598458Y-96370961D01*
X30598458Y-96523342D02*
X30560363Y-96447152D01*
X30560363Y-96447152D02*
X30522268Y-96409057D01*
X30522268Y-96409057D02*
X30446077Y-96370961D01*
X30446077Y-96370961D02*
X30369887Y-96370961D01*
X29798458Y-96866200D02*
X29874649Y-96904295D01*
X29874649Y-96904295D02*
X30027030Y-96904295D01*
X30027030Y-96904295D02*
X30103220Y-96866200D01*
X30103220Y-96866200D02*
X30141316Y-96790009D01*
X30141316Y-96790009D02*
X30141316Y-96485247D01*
X30141316Y-96485247D02*
X30103220Y-96409057D01*
X30103220Y-96409057D02*
X30027030Y-96370961D01*
X30027030Y-96370961D02*
X29874649Y-96370961D01*
X29874649Y-96370961D02*
X29798458Y-96409057D01*
X29798458Y-96409057D02*
X29760363Y-96485247D01*
X29760363Y-96485247D02*
X29760363Y-96561438D01*
X29760363Y-96561438D02*
X30141316Y-96637628D01*
X29074649Y-96904295D02*
X29074649Y-96485247D01*
X29074649Y-96485247D02*
X29112744Y-96409057D01*
X29112744Y-96409057D02*
X29188935Y-96370961D01*
X29188935Y-96370961D02*
X29341316Y-96370961D01*
X29341316Y-96370961D02*
X29417506Y-96409057D01*
X29074649Y-96866200D02*
X29150840Y-96904295D01*
X29150840Y-96904295D02*
X29341316Y-96904295D01*
X29341316Y-96904295D02*
X29417506Y-96866200D01*
X29417506Y-96866200D02*
X29455602Y-96790009D01*
X29455602Y-96790009D02*
X29455602Y-96713819D01*
X29455602Y-96713819D02*
X29417506Y-96637628D01*
X29417506Y-96637628D02*
X29341316Y-96599533D01*
X29341316Y-96599533D02*
X29150840Y-96599533D01*
X29150840Y-96599533D02*
X29074649Y-96561438D01*
X28693696Y-96904295D02*
X28693696Y-96104295D01*
X28617506Y-96599533D02*
X28388934Y-96904295D01*
X28388934Y-96370961D02*
X28693696Y-96675723D01*
X27931792Y-96904295D02*
X28007982Y-96866200D01*
X28007982Y-96866200D02*
X28046077Y-96828104D01*
X28046077Y-96828104D02*
X28084173Y-96751914D01*
X28084173Y-96751914D02*
X28084173Y-96523342D01*
X28084173Y-96523342D02*
X28046077Y-96447152D01*
X28046077Y-96447152D02*
X28007982Y-96409057D01*
X28007982Y-96409057D02*
X27931792Y-96370961D01*
X27931792Y-96370961D02*
X27817506Y-96370961D01*
X27817506Y-96370961D02*
X27741315Y-96409057D01*
X27741315Y-96409057D02*
X27703220Y-96447152D01*
X27703220Y-96447152D02*
X27665125Y-96523342D01*
X27665125Y-96523342D02*
X27665125Y-96751914D01*
X27665125Y-96751914D02*
X27703220Y-96828104D01*
X27703220Y-96828104D02*
X27741315Y-96866200D01*
X27741315Y-96866200D02*
X27817506Y-96904295D01*
X27817506Y-96904295D02*
X27931792Y-96904295D01*
X26979410Y-96370961D02*
X26979410Y-96904295D01*
X27322267Y-96370961D02*
X27322267Y-96790009D01*
X27322267Y-96790009D02*
X27284172Y-96866200D01*
X27284172Y-96866200D02*
X27207982Y-96904295D01*
X27207982Y-96904295D02*
X27093696Y-96904295D01*
X27093696Y-96904295D02*
X27017505Y-96866200D01*
X27017505Y-96866200D02*
X26979410Y-96828104D01*
X26712743Y-96370961D02*
X26407981Y-96370961D01*
X26598457Y-96104295D02*
X26598457Y-96790009D01*
X26598457Y-96790009D02*
X26560362Y-96866200D01*
X26560362Y-96866200D02*
X26484172Y-96904295D01*
X26484172Y-96904295D02*
X26407981Y-96904295D01*
X43531688Y-41894295D02*
X43798355Y-41513342D01*
X43988831Y-41894295D02*
X43988831Y-41094295D01*
X43988831Y-41094295D02*
X43684069Y-41094295D01*
X43684069Y-41094295D02*
X43607879Y-41132390D01*
X43607879Y-41132390D02*
X43569784Y-41170485D01*
X43569784Y-41170485D02*
X43531688Y-41246676D01*
X43531688Y-41246676D02*
X43531688Y-41360961D01*
X43531688Y-41360961D02*
X43569784Y-41437152D01*
X43569784Y-41437152D02*
X43607879Y-41475247D01*
X43607879Y-41475247D02*
X43684069Y-41513342D01*
X43684069Y-41513342D02*
X43988831Y-41513342D01*
X42922165Y-41475247D02*
X42807879Y-41513342D01*
X42807879Y-41513342D02*
X42769784Y-41551438D01*
X42769784Y-41551438D02*
X42731688Y-41627628D01*
X42731688Y-41627628D02*
X42731688Y-41741914D01*
X42731688Y-41741914D02*
X42769784Y-41818104D01*
X42769784Y-41818104D02*
X42807879Y-41856200D01*
X42807879Y-41856200D02*
X42884069Y-41894295D01*
X42884069Y-41894295D02*
X43188831Y-41894295D01*
X43188831Y-41894295D02*
X43188831Y-41094295D01*
X43188831Y-41094295D02*
X42922165Y-41094295D01*
X42922165Y-41094295D02*
X42845974Y-41132390D01*
X42845974Y-41132390D02*
X42807879Y-41170485D01*
X42807879Y-41170485D02*
X42769784Y-41246676D01*
X42769784Y-41246676D02*
X42769784Y-41322866D01*
X42769784Y-41322866D02*
X42807879Y-41399057D01*
X42807879Y-41399057D02*
X42845974Y-41437152D01*
X42845974Y-41437152D02*
X42922165Y-41475247D01*
X42922165Y-41475247D02*
X43188831Y-41475247D01*
X42122165Y-41475247D02*
X42388831Y-41475247D01*
X42388831Y-41894295D02*
X42388831Y-41094295D01*
X42388831Y-41094295D02*
X42007879Y-41094295D01*
X41093593Y-41894295D02*
X41093593Y-41094295D01*
X40636450Y-41894295D02*
X40979308Y-41437152D01*
X40636450Y-41094295D02*
X41093593Y-41551438D01*
X39988831Y-41856200D02*
X40065022Y-41894295D01*
X40065022Y-41894295D02*
X40217403Y-41894295D01*
X40217403Y-41894295D02*
X40293593Y-41856200D01*
X40293593Y-41856200D02*
X40331689Y-41780009D01*
X40331689Y-41780009D02*
X40331689Y-41475247D01*
X40331689Y-41475247D02*
X40293593Y-41399057D01*
X40293593Y-41399057D02*
X40217403Y-41360961D01*
X40217403Y-41360961D02*
X40065022Y-41360961D01*
X40065022Y-41360961D02*
X39988831Y-41399057D01*
X39988831Y-41399057D02*
X39950736Y-41475247D01*
X39950736Y-41475247D02*
X39950736Y-41551438D01*
X39950736Y-41551438D02*
X40331689Y-41627628D01*
X39684070Y-41360961D02*
X39493594Y-41894295D01*
X39303117Y-41360961D02*
X39493594Y-41894295D01*
X39493594Y-41894295D02*
X39569784Y-42084771D01*
X39569784Y-42084771D02*
X39607879Y-42122866D01*
X39607879Y-42122866D02*
X39684070Y-42160961D01*
X37112857Y-67092295D02*
X37329524Y-66711342D01*
X37484286Y-67092295D02*
X37484286Y-66292295D01*
X37484286Y-66292295D02*
X37236667Y-66292295D01*
X37236667Y-66292295D02*
X37174762Y-66330390D01*
X37174762Y-66330390D02*
X37143809Y-66368485D01*
X37143809Y-66368485D02*
X37112857Y-66444676D01*
X37112857Y-66444676D02*
X37112857Y-66558961D01*
X37112857Y-66558961D02*
X37143809Y-66635152D01*
X37143809Y-66635152D02*
X37174762Y-66673247D01*
X37174762Y-66673247D02*
X37236667Y-66711342D01*
X37236667Y-66711342D02*
X37484286Y-66711342D01*
X36493809Y-67092295D02*
X36865238Y-67092295D01*
X36679524Y-67092295D02*
X36679524Y-66292295D01*
X36679524Y-66292295D02*
X36741428Y-66406580D01*
X36741428Y-66406580D02*
X36803333Y-66482771D01*
X36803333Y-66482771D02*
X36865238Y-66520866D01*
X36091428Y-66292295D02*
X36029523Y-66292295D01*
X36029523Y-66292295D02*
X35967619Y-66330390D01*
X35967619Y-66330390D02*
X35936666Y-66368485D01*
X35936666Y-66368485D02*
X35905714Y-66444676D01*
X35905714Y-66444676D02*
X35874761Y-66597057D01*
X35874761Y-66597057D02*
X35874761Y-66787533D01*
X35874761Y-66787533D02*
X35905714Y-66939914D01*
X35905714Y-66939914D02*
X35936666Y-67016104D01*
X35936666Y-67016104D02*
X35967619Y-67054200D01*
X35967619Y-67054200D02*
X36029523Y-67092295D01*
X36029523Y-67092295D02*
X36091428Y-67092295D01*
X36091428Y-67092295D02*
X36153333Y-67054200D01*
X36153333Y-67054200D02*
X36184285Y-67016104D01*
X36184285Y-67016104D02*
X36215238Y-66939914D01*
X36215238Y-66939914D02*
X36246190Y-66787533D01*
X36246190Y-66787533D02*
X36246190Y-66597057D01*
X36246190Y-66597057D02*
X36215238Y-66444676D01*
X36215238Y-66444676D02*
X36184285Y-66368485D01*
X36184285Y-66368485D02*
X36153333Y-66330390D01*
X36153333Y-66330390D02*
X36091428Y-66292295D01*
D11*
X34204047Y-65556109D02*
X34204047Y-65056109D01*
X34204047Y-65056109D02*
X34084999Y-65056109D01*
X34084999Y-65056109D02*
X34013571Y-65079919D01*
X34013571Y-65079919D02*
X33965952Y-65127538D01*
X33965952Y-65127538D02*
X33942142Y-65175157D01*
X33942142Y-65175157D02*
X33918333Y-65270395D01*
X33918333Y-65270395D02*
X33918333Y-65341823D01*
X33918333Y-65341823D02*
X33942142Y-65437061D01*
X33942142Y-65437061D02*
X33965952Y-65484680D01*
X33965952Y-65484680D02*
X34013571Y-65532300D01*
X34013571Y-65532300D02*
X34084999Y-65556109D01*
X34084999Y-65556109D02*
X34204047Y-65556109D01*
X33727856Y-65103728D02*
X33704047Y-65079919D01*
X33704047Y-65079919D02*
X33656428Y-65056109D01*
X33656428Y-65056109D02*
X33537380Y-65056109D01*
X33537380Y-65056109D02*
X33489761Y-65079919D01*
X33489761Y-65079919D02*
X33465952Y-65103728D01*
X33465952Y-65103728D02*
X33442142Y-65151347D01*
X33442142Y-65151347D02*
X33442142Y-65198966D01*
X33442142Y-65198966D02*
X33465952Y-65270395D01*
X33465952Y-65270395D02*
X33751666Y-65556109D01*
X33751666Y-65556109D02*
X33442142Y-65556109D01*
X34184047Y-63476109D02*
X34184047Y-62976109D01*
X34184047Y-62976109D02*
X34064999Y-62976109D01*
X34064999Y-62976109D02*
X33993571Y-62999919D01*
X33993571Y-62999919D02*
X33945952Y-63047538D01*
X33945952Y-63047538D02*
X33922142Y-63095157D01*
X33922142Y-63095157D02*
X33898333Y-63190395D01*
X33898333Y-63190395D02*
X33898333Y-63261823D01*
X33898333Y-63261823D02*
X33922142Y-63357061D01*
X33922142Y-63357061D02*
X33945952Y-63404680D01*
X33945952Y-63404680D02*
X33993571Y-63452300D01*
X33993571Y-63452300D02*
X34064999Y-63476109D01*
X34064999Y-63476109D02*
X34184047Y-63476109D01*
X33731666Y-62976109D02*
X33422142Y-62976109D01*
X33422142Y-62976109D02*
X33588809Y-63166585D01*
X33588809Y-63166585D02*
X33517380Y-63166585D01*
X33517380Y-63166585D02*
X33469761Y-63190395D01*
X33469761Y-63190395D02*
X33445952Y-63214204D01*
X33445952Y-63214204D02*
X33422142Y-63261823D01*
X33422142Y-63261823D02*
X33422142Y-63380871D01*
X33422142Y-63380871D02*
X33445952Y-63428490D01*
X33445952Y-63428490D02*
X33469761Y-63452300D01*
X33469761Y-63452300D02*
X33517380Y-63476109D01*
X33517380Y-63476109D02*
X33660237Y-63476109D01*
X33660237Y-63476109D02*
X33707856Y-63452300D01*
X33707856Y-63452300D02*
X33731666Y-63428490D01*
D10*
X94185246Y-54891095D02*
X94185246Y-55462523D01*
X94185246Y-55462523D02*
X94216199Y-55576809D01*
X94216199Y-55576809D02*
X94278103Y-55653000D01*
X94278103Y-55653000D02*
X94370961Y-55691095D01*
X94370961Y-55691095D02*
X94432865Y-55691095D01*
X94030485Y-55767285D02*
X93535246Y-55767285D01*
X93163818Y-55272047D02*
X93070961Y-55310142D01*
X93070961Y-55310142D02*
X93040008Y-55348238D01*
X93040008Y-55348238D02*
X93009056Y-55424428D01*
X93009056Y-55424428D02*
X93009056Y-55538714D01*
X93009056Y-55538714D02*
X93040008Y-55614904D01*
X93040008Y-55614904D02*
X93070961Y-55653000D01*
X93070961Y-55653000D02*
X93132866Y-55691095D01*
X93132866Y-55691095D02*
X93380485Y-55691095D01*
X93380485Y-55691095D02*
X93380485Y-54891095D01*
X93380485Y-54891095D02*
X93163818Y-54891095D01*
X93163818Y-54891095D02*
X93101913Y-54929190D01*
X93101913Y-54929190D02*
X93070961Y-54967285D01*
X93070961Y-54967285D02*
X93040008Y-55043476D01*
X93040008Y-55043476D02*
X93040008Y-55119666D01*
X93040008Y-55119666D02*
X93070961Y-55195857D01*
X93070961Y-55195857D02*
X93101913Y-55233952D01*
X93101913Y-55233952D02*
X93163818Y-55272047D01*
X93163818Y-55272047D02*
X93380485Y-55272047D01*
X92451913Y-55157761D02*
X92451913Y-55691095D01*
X92730485Y-55157761D02*
X92730485Y-55576809D01*
X92730485Y-55576809D02*
X92699532Y-55653000D01*
X92699532Y-55653000D02*
X92637627Y-55691095D01*
X92637627Y-55691095D02*
X92544770Y-55691095D01*
X92544770Y-55691095D02*
X92482866Y-55653000D01*
X92482866Y-55653000D02*
X92451913Y-55614904D01*
X92142390Y-55691095D02*
X92142390Y-55157761D01*
X92142390Y-55310142D02*
X92111437Y-55233952D01*
X92111437Y-55233952D02*
X92080485Y-55195857D01*
X92080485Y-55195857D02*
X92018580Y-55157761D01*
X92018580Y-55157761D02*
X91956675Y-55157761D01*
X91740009Y-55157761D02*
X91740009Y-55691095D01*
X91740009Y-55233952D02*
X91709056Y-55195857D01*
X91709056Y-55195857D02*
X91647151Y-55157761D01*
X91647151Y-55157761D02*
X91554294Y-55157761D01*
X91554294Y-55157761D02*
X91492390Y-55195857D01*
X91492390Y-55195857D02*
X91461437Y-55272047D01*
X91461437Y-55272047D02*
X91461437Y-55691095D01*
X101871437Y-54829190D02*
X101933342Y-54791095D01*
X101933342Y-54791095D02*
X102026199Y-54791095D01*
X102026199Y-54791095D02*
X102119056Y-54829190D01*
X102119056Y-54829190D02*
X102180961Y-54905380D01*
X102180961Y-54905380D02*
X102211914Y-54981571D01*
X102211914Y-54981571D02*
X102242866Y-55133952D01*
X102242866Y-55133952D02*
X102242866Y-55248238D01*
X102242866Y-55248238D02*
X102211914Y-55400619D01*
X102211914Y-55400619D02*
X102180961Y-55476809D01*
X102180961Y-55476809D02*
X102119056Y-55553000D01*
X102119056Y-55553000D02*
X102026199Y-55591095D01*
X102026199Y-55591095D02*
X101964295Y-55591095D01*
X101964295Y-55591095D02*
X101871437Y-55553000D01*
X101871437Y-55553000D02*
X101840485Y-55514904D01*
X101840485Y-55514904D02*
X101840485Y-55248238D01*
X101840485Y-55248238D02*
X101964295Y-55248238D01*
X101561914Y-55591095D02*
X101561914Y-54791095D01*
X101561914Y-54791095D02*
X101190485Y-55591095D01*
X101190485Y-55591095D02*
X101190485Y-54791095D01*
X100880962Y-55591095D02*
X100880962Y-54791095D01*
X100880962Y-54791095D02*
X100726200Y-54791095D01*
X100726200Y-54791095D02*
X100633343Y-54829190D01*
X100633343Y-54829190D02*
X100571438Y-54905380D01*
X100571438Y-54905380D02*
X100540485Y-54981571D01*
X100540485Y-54981571D02*
X100509533Y-55133952D01*
X100509533Y-55133952D02*
X100509533Y-55248238D01*
X100509533Y-55248238D02*
X100540485Y-55400619D01*
X100540485Y-55400619D02*
X100571438Y-55476809D01*
X100571438Y-55476809D02*
X100633343Y-55553000D01*
X100633343Y-55553000D02*
X100726200Y-55591095D01*
X100726200Y-55591095D02*
X100880962Y-55591095D01*
X85095723Y-54992047D02*
X85002866Y-55030142D01*
X85002866Y-55030142D02*
X84971913Y-55068238D01*
X84971913Y-55068238D02*
X84940961Y-55144428D01*
X84940961Y-55144428D02*
X84940961Y-55258714D01*
X84940961Y-55258714D02*
X84971913Y-55334904D01*
X84971913Y-55334904D02*
X85002866Y-55373000D01*
X85002866Y-55373000D02*
X85064771Y-55411095D01*
X85064771Y-55411095D02*
X85312390Y-55411095D01*
X85312390Y-55411095D02*
X85312390Y-54611095D01*
X85312390Y-54611095D02*
X85095723Y-54611095D01*
X85095723Y-54611095D02*
X85033818Y-54649190D01*
X85033818Y-54649190D02*
X85002866Y-54687285D01*
X85002866Y-54687285D02*
X84971913Y-54763476D01*
X84971913Y-54763476D02*
X84971913Y-54839666D01*
X84971913Y-54839666D02*
X85002866Y-54915857D01*
X85002866Y-54915857D02*
X85033818Y-54953952D01*
X85033818Y-54953952D02*
X85095723Y-54992047D01*
X85095723Y-54992047D02*
X85312390Y-54992047D01*
X84662390Y-54611095D02*
X84662390Y-55258714D01*
X84662390Y-55258714D02*
X84631437Y-55334904D01*
X84631437Y-55334904D02*
X84600485Y-55373000D01*
X84600485Y-55373000D02*
X84538580Y-55411095D01*
X84538580Y-55411095D02*
X84414771Y-55411095D01*
X84414771Y-55411095D02*
X84352866Y-55373000D01*
X84352866Y-55373000D02*
X84321913Y-55334904D01*
X84321913Y-55334904D02*
X84290961Y-55258714D01*
X84290961Y-55258714D02*
X84290961Y-54611095D01*
X83610009Y-55411095D02*
X83826676Y-55030142D01*
X83981438Y-55411095D02*
X83981438Y-54611095D01*
X83981438Y-54611095D02*
X83733819Y-54611095D01*
X83733819Y-54611095D02*
X83671914Y-54649190D01*
X83671914Y-54649190D02*
X83640961Y-54687285D01*
X83640961Y-54687285D02*
X83610009Y-54763476D01*
X83610009Y-54763476D02*
X83610009Y-54877761D01*
X83610009Y-54877761D02*
X83640961Y-54953952D01*
X83640961Y-54953952D02*
X83671914Y-54992047D01*
X83671914Y-54992047D02*
X83733819Y-55030142D01*
X83733819Y-55030142D02*
X83981438Y-55030142D01*
X83331438Y-55411095D02*
X83331438Y-54611095D01*
X83331438Y-54611095D02*
X82960009Y-55411095D01*
X82960009Y-55411095D02*
X82960009Y-54611095D01*
D11*
X34174047Y-61376109D02*
X34174047Y-60876109D01*
X34174047Y-60876109D02*
X34054999Y-60876109D01*
X34054999Y-60876109D02*
X33983571Y-60899919D01*
X33983571Y-60899919D02*
X33935952Y-60947538D01*
X33935952Y-60947538D02*
X33912142Y-60995157D01*
X33912142Y-60995157D02*
X33888333Y-61090395D01*
X33888333Y-61090395D02*
X33888333Y-61161823D01*
X33888333Y-61161823D02*
X33912142Y-61257061D01*
X33912142Y-61257061D02*
X33935952Y-61304680D01*
X33935952Y-61304680D02*
X33983571Y-61352300D01*
X33983571Y-61352300D02*
X34054999Y-61376109D01*
X34054999Y-61376109D02*
X34174047Y-61376109D01*
X33459761Y-61042776D02*
X33459761Y-61376109D01*
X33578809Y-60852300D02*
X33697856Y-61209442D01*
X33697856Y-61209442D02*
X33388333Y-61209442D01*
D10*
X37150357Y-62652295D02*
X37367024Y-62271342D01*
X37521786Y-62652295D02*
X37521786Y-61852295D01*
X37521786Y-61852295D02*
X37274167Y-61852295D01*
X37274167Y-61852295D02*
X37212262Y-61890390D01*
X37212262Y-61890390D02*
X37181309Y-61928485D01*
X37181309Y-61928485D02*
X37150357Y-62004676D01*
X37150357Y-62004676D02*
X37150357Y-62118961D01*
X37150357Y-62118961D02*
X37181309Y-62195152D01*
X37181309Y-62195152D02*
X37212262Y-62233247D01*
X37212262Y-62233247D02*
X37274167Y-62271342D01*
X37274167Y-62271342D02*
X37521786Y-62271342D01*
X36531309Y-62652295D02*
X36902738Y-62652295D01*
X36717024Y-62652295D02*
X36717024Y-61852295D01*
X36717024Y-61852295D02*
X36778928Y-61966580D01*
X36778928Y-61966580D02*
X36840833Y-62042771D01*
X36840833Y-62042771D02*
X36902738Y-62080866D01*
X36283690Y-61928485D02*
X36252738Y-61890390D01*
X36252738Y-61890390D02*
X36190833Y-61852295D01*
X36190833Y-61852295D02*
X36036071Y-61852295D01*
X36036071Y-61852295D02*
X35974166Y-61890390D01*
X35974166Y-61890390D02*
X35943214Y-61928485D01*
X35943214Y-61928485D02*
X35912261Y-62004676D01*
X35912261Y-62004676D02*
X35912261Y-62080866D01*
X35912261Y-62080866D02*
X35943214Y-62195152D01*
X35943214Y-62195152D02*
X36314642Y-62652295D01*
X36314642Y-62652295D02*
X35912261Y-62652295D01*
X37062857Y-64682295D02*
X37279524Y-64301342D01*
X37434286Y-64682295D02*
X37434286Y-63882295D01*
X37434286Y-63882295D02*
X37186667Y-63882295D01*
X37186667Y-63882295D02*
X37124762Y-63920390D01*
X37124762Y-63920390D02*
X37093809Y-63958485D01*
X37093809Y-63958485D02*
X37062857Y-64034676D01*
X37062857Y-64034676D02*
X37062857Y-64148961D01*
X37062857Y-64148961D02*
X37093809Y-64225152D01*
X37093809Y-64225152D02*
X37124762Y-64263247D01*
X37124762Y-64263247D02*
X37186667Y-64301342D01*
X37186667Y-64301342D02*
X37434286Y-64301342D01*
X36443809Y-64682295D02*
X36815238Y-64682295D01*
X36629524Y-64682295D02*
X36629524Y-63882295D01*
X36629524Y-63882295D02*
X36691428Y-63996580D01*
X36691428Y-63996580D02*
X36753333Y-64072771D01*
X36753333Y-64072771D02*
X36815238Y-64110866D01*
X35824761Y-64682295D02*
X36196190Y-64682295D01*
X36010476Y-64682295D02*
X36010476Y-63882295D01*
X36010476Y-63882295D02*
X36072380Y-63996580D01*
X36072380Y-63996580D02*
X36134285Y-64072771D01*
X36134285Y-64072771D02*
X36196190Y-64110866D01*
D12*
%TO.C,R10*%
X36892621Y-65230000D02*
X36557379Y-65230000D01*
X36892621Y-65990000D02*
X36557379Y-65990000D01*
%TO.C,D2*%
X32150000Y-64370000D02*
X32150000Y-66290000D01*
X32150000Y-66290000D02*
X34835000Y-66290000D01*
X34835000Y-64370000D02*
X32150000Y-64370000D01*
%TO.C,D3*%
X32130000Y-62290000D02*
X32130000Y-64210000D01*
X32130000Y-64210000D02*
X34815000Y-64210000D01*
X34815000Y-62290000D02*
X32130000Y-62290000D01*
D13*
%TO.C,G\u002A\u002A\u002A*%
G36*
X45346904Y-24709209D02*
G01*
X45314569Y-24827377D01*
X45207594Y-25064745D01*
X45055361Y-25263971D01*
X44861878Y-25420459D01*
X44631154Y-25529616D01*
X44473634Y-25582942D01*
X44373771Y-25862632D01*
X44369264Y-25875137D01*
X44284614Y-26083917D01*
X44173953Y-26321592D01*
X44047208Y-26568750D01*
X43914302Y-26805981D01*
X43785160Y-27013873D01*
X43749971Y-27065262D01*
X43565564Y-27285518D01*
X43360576Y-27450552D01*
X43128772Y-27564547D01*
X42863916Y-27631683D01*
X42783011Y-27644937D01*
X42696910Y-27663355D01*
X42647463Y-27686058D01*
X42619820Y-27721190D01*
X42599128Y-27776896D01*
X42581846Y-27827300D01*
X42509236Y-28002708D01*
X42419595Y-28181103D01*
X42324009Y-28341665D01*
X42233561Y-28463570D01*
X42199794Y-28499596D01*
X42022845Y-28637602D01*
X41810971Y-28736816D01*
X41579992Y-28789355D01*
X41394419Y-28810315D01*
X41309856Y-29042478D01*
X41260519Y-29169194D01*
X41167878Y-29358953D01*
X41063249Y-29509815D01*
X40937455Y-29636418D01*
X40767936Y-29750194D01*
X40567070Y-29821994D01*
X40358712Y-29838256D01*
X40153728Y-29796759D01*
X40122453Y-29785862D01*
X40056434Y-29764925D01*
X40028832Y-29759580D01*
X40020893Y-29784577D01*
X39999695Y-29853858D01*
X39970358Y-29950849D01*
X39937731Y-30053354D01*
X39817015Y-30352333D01*
X39674082Y-30596100D01*
X39507368Y-30786986D01*
X39315308Y-30927321D01*
X39154476Y-31018090D01*
X39245183Y-31161119D01*
X39299267Y-31252369D01*
X39406433Y-31499250D01*
X39455562Y-31748462D01*
X39446685Y-32004712D01*
X39379837Y-32272707D01*
X39255050Y-32557156D01*
X39250437Y-32565858D01*
X39164541Y-32701921D01*
X39053072Y-32845108D01*
X38929883Y-32980152D01*
X38808829Y-33091785D01*
X38703762Y-33164739D01*
X38691575Y-33170949D01*
X38593403Y-33214259D01*
X38487985Y-33252962D01*
X38472689Y-33257611D01*
X38298577Y-33277089D01*
X38114254Y-33244064D01*
X37926562Y-33164537D01*
X37742346Y-33044511D01*
X37568448Y-32889988D01*
X37411713Y-32706969D01*
X37278984Y-32501458D01*
X37177105Y-32279456D01*
X37112920Y-32046966D01*
X37110873Y-32035337D01*
X37093480Y-31824327D01*
X37103353Y-31577299D01*
X37138304Y-31311256D01*
X37196144Y-31043200D01*
X37274686Y-30790134D01*
X37340081Y-30612185D01*
X37165245Y-30428888D01*
X36999165Y-30218214D01*
X36874966Y-29969134D01*
X36801411Y-29688536D01*
X36777184Y-29372843D01*
X36776325Y-29300161D01*
X36769852Y-29232683D01*
X36753520Y-29205999D01*
X36723240Y-29207572D01*
X36645745Y-29229385D01*
X36422031Y-29273571D01*
X36220883Y-29278909D01*
X36034815Y-29242297D01*
X35856343Y-29160635D01*
X35677981Y-29030819D01*
X35492244Y-28849748D01*
X35291647Y-28614321D01*
X35147995Y-28420473D01*
X34988674Y-28178263D01*
X34830284Y-27912911D01*
X34680511Y-27638535D01*
X34547040Y-27369254D01*
X34437558Y-27119187D01*
X34359750Y-26902453D01*
X34294979Y-26689461D01*
X34105815Y-26637680D01*
X34105726Y-26637656D01*
X33848229Y-26536220D01*
X33622756Y-26383818D01*
X33434849Y-26185155D01*
X33290048Y-25944937D01*
X33265076Y-25886738D01*
X33217576Y-25756795D01*
X33168469Y-25603541D01*
X33122323Y-25443216D01*
X33083705Y-25292055D01*
X33057185Y-25166297D01*
X33047330Y-25082180D01*
X33046944Y-25073270D01*
X33028474Y-25030027D01*
X32973841Y-24989312D01*
X32871372Y-24941812D01*
X32871019Y-24941665D01*
X32664806Y-24825555D01*
X32503124Y-24667011D01*
X32386127Y-24466400D01*
X32313972Y-24224087D01*
X32286816Y-23940438D01*
X32287883Y-23921185D01*
X32847425Y-23921185D01*
X32855930Y-24073014D01*
X32873387Y-24199409D01*
X32899552Y-24282554D01*
X32925653Y-24323209D01*
X33032230Y-24416149D01*
X33177931Y-24465326D01*
X33357531Y-24468616D01*
X33534259Y-24450144D01*
X33556628Y-24702843D01*
X33577471Y-24895598D01*
X33629268Y-25205017D01*
X33698996Y-25473397D01*
X33784963Y-25695839D01*
X33885478Y-25867446D01*
X33998850Y-25983319D01*
X34118838Y-26055349D01*
X34329795Y-26125741D01*
X34555702Y-26139400D01*
X34713699Y-26128519D01*
X34745429Y-26246413D01*
X34773237Y-26349050D01*
X34842774Y-26596398D01*
X34905817Y-26801198D01*
X34967558Y-26976365D01*
X35033188Y-27134811D01*
X35107901Y-27289449D01*
X35196888Y-27453193D01*
X35305341Y-27638956D01*
X35436873Y-27851571D01*
X35598861Y-28093128D01*
X35755666Y-28305711D01*
X35900539Y-28480259D01*
X36026733Y-28607707D01*
X36078664Y-28650490D01*
X36180585Y-28710721D01*
X36286887Y-28733074D01*
X36413617Y-28719413D01*
X36576820Y-28671601D01*
X36599942Y-28663876D01*
X36796832Y-28618323D01*
X36967786Y-28615413D01*
X37106884Y-28653636D01*
X37208209Y-28731482D01*
X37265843Y-28847441D01*
X37273834Y-28886772D01*
X37289071Y-28994103D01*
X37303550Y-29131655D01*
X37314983Y-29279303D01*
X37319239Y-29343749D01*
X37337219Y-29537785D01*
X37364782Y-29690362D01*
X37408564Y-29817218D01*
X37475203Y-29934092D01*
X37571334Y-30056723D01*
X37703595Y-30200849D01*
X37713831Y-30211610D01*
X37844665Y-30353621D01*
X37933527Y-30462834D01*
X37983979Y-30547222D01*
X37999582Y-30614762D01*
X37983900Y-30673427D01*
X37940495Y-30731192D01*
X37861544Y-30831308D01*
X37798700Y-30951060D01*
X37746469Y-31104108D01*
X37698881Y-31304623D01*
X37690129Y-31348148D01*
X37650830Y-31602651D01*
X37642212Y-31814760D01*
X37664492Y-31994205D01*
X37717889Y-32150713D01*
X37799929Y-32303912D01*
X37952441Y-32504633D01*
X38130402Y-32652722D01*
X38154563Y-32667974D01*
X38240436Y-32717551D01*
X38300524Y-32735110D01*
X38355575Y-32722743D01*
X38426335Y-32682540D01*
X38467250Y-32655132D01*
X38630327Y-32505129D01*
X38763082Y-32316610D01*
X38855648Y-32106144D01*
X38898158Y-31890299D01*
X38899880Y-31858300D01*
X38896950Y-31752557D01*
X38875753Y-31652353D01*
X38831126Y-31544350D01*
X38757907Y-31415208D01*
X38650934Y-31251591D01*
X38579331Y-31141290D01*
X38503014Y-31001440D01*
X38458036Y-30878155D01*
X38437301Y-30754940D01*
X38427007Y-30634274D01*
X38627035Y-30593558D01*
X38778760Y-30558213D01*
X38961605Y-30495525D01*
X39101203Y-30414996D01*
X39208380Y-30309800D01*
X39293964Y-30173113D01*
X39384171Y-29979410D01*
X39451010Y-29786210D01*
X39489794Y-29590358D01*
X39507294Y-29366252D01*
X39513907Y-29238526D01*
X39531663Y-29076990D01*
X39559473Y-28968135D01*
X39598924Y-28906689D01*
X39651607Y-28887378D01*
X39661298Y-28888634D01*
X39724026Y-28914618D01*
X39814834Y-28967318D01*
X39917588Y-29037619D01*
X39935692Y-29050858D01*
X40046275Y-29128598D01*
X40147832Y-29195382D01*
X40220374Y-29237983D01*
X40359466Y-29283908D01*
X40488385Y-29272887D01*
X40602047Y-29203474D01*
X40699812Y-29076506D01*
X40781044Y-28892819D01*
X40845104Y-28653251D01*
X40891352Y-28358637D01*
X40911455Y-28184385D01*
X41025205Y-28216551D01*
X41113345Y-28234823D01*
X41265946Y-28248205D01*
X41427588Y-28246663D01*
X41575189Y-28230740D01*
X41685670Y-28200980D01*
X41686761Y-28200505D01*
X41790397Y-28129967D01*
X41888229Y-28009777D01*
X41982873Y-27835947D01*
X42076945Y-27604489D01*
X42092161Y-27562845D01*
X42169798Y-27364705D01*
X42236815Y-27219222D01*
X42291980Y-27128831D01*
X42334061Y-27095969D01*
X42344158Y-27095316D01*
X42408307Y-27093053D01*
X42511306Y-27090558D01*
X42636239Y-27088263D01*
X42685853Y-27087296D01*
X42807030Y-27081113D01*
X42894251Y-27066336D01*
X42968446Y-27038077D01*
X43050544Y-26991442D01*
X43191926Y-26876369D01*
X43334708Y-26698602D01*
X43385489Y-26619909D01*
X43499445Y-26426227D01*
X43614891Y-26210398D01*
X43722701Y-25990643D01*
X43813746Y-25785182D01*
X43878900Y-25612238D01*
X43919072Y-25494506D01*
X43988217Y-25324490D01*
X44058785Y-25202322D01*
X44137673Y-25119569D01*
X44231775Y-25067800D01*
X44347988Y-25038581D01*
X44394144Y-25029811D01*
X44496361Y-25001755D01*
X44569212Y-24970370D01*
X44630717Y-24919695D01*
X44710734Y-24821666D01*
X44772677Y-24711862D01*
X44800793Y-24614492D01*
X44807160Y-24525606D01*
X44378805Y-24534063D01*
X44191458Y-24539431D01*
X44047207Y-24548571D01*
X43931101Y-24563632D01*
X43826324Y-24586803D01*
X43716062Y-24620270D01*
X43651561Y-24643152D01*
X43441291Y-24734317D01*
X43214476Y-24853605D01*
X42980235Y-24994385D01*
X42747684Y-25150030D01*
X42525941Y-25313910D01*
X42324123Y-25479399D01*
X42151349Y-25639865D01*
X42016734Y-25788682D01*
X41929397Y-25919221D01*
X41914358Y-25951693D01*
X41877925Y-26061980D01*
X41863349Y-26159935D01*
X41862984Y-26178796D01*
X41854677Y-26239088D01*
X41838852Y-26255731D01*
X41833728Y-26253387D01*
X41774360Y-26248945D01*
X41675404Y-26257267D01*
X41553768Y-26275477D01*
X41426357Y-26300699D01*
X41310079Y-26330058D01*
X41221840Y-26360679D01*
X41088733Y-26433659D01*
X40923724Y-26577657D01*
X40804157Y-26756623D01*
X40736744Y-26962234D01*
X40719605Y-27048234D01*
X40696539Y-27112312D01*
X40657548Y-27154144D01*
X40591285Y-27180886D01*
X40486400Y-27199693D01*
X40331544Y-27217723D01*
X40240500Y-27229124D01*
X39990127Y-27280751D01*
X39793557Y-27357483D01*
X39648174Y-27461013D01*
X39551362Y-27593033D01*
X39500505Y-27755234D01*
X39497000Y-27775047D01*
X39477937Y-27848800D01*
X39458265Y-27886000D01*
X39458007Y-27886147D01*
X39420968Y-27878084D01*
X39347859Y-27844149D01*
X39254244Y-27791548D01*
X39221508Y-27772220D01*
X38952274Y-27646143D01*
X38680808Y-27579197D01*
X38399549Y-27569416D01*
X38372100Y-27571265D01*
X38185373Y-27593946D01*
X38037402Y-27636382D01*
X37908785Y-27706132D01*
X37780124Y-27810754D01*
X37708293Y-27874591D01*
X37652025Y-27913164D01*
X37608387Y-27921117D01*
X37560964Y-27905548D01*
X37555048Y-27902617D01*
X37488247Y-27841316D01*
X37426761Y-27742092D01*
X37381467Y-27626390D01*
X37363240Y-27515655D01*
X37362082Y-27493432D01*
X37330451Y-27361838D01*
X37261405Y-27203765D01*
X37162663Y-27030693D01*
X37041946Y-26854104D01*
X36906972Y-26685476D01*
X36765462Y-26536289D01*
X36625136Y-26418025D01*
X36518535Y-26352022D01*
X36349453Y-26272319D01*
X36165283Y-26206031D01*
X35987715Y-26160716D01*
X35838440Y-26143932D01*
X35704334Y-26143932D01*
X35748690Y-25997512D01*
X35751758Y-25987171D01*
X35778898Y-25835547D01*
X35763736Y-25701042D01*
X35702543Y-25578378D01*
X35591588Y-25462275D01*
X35427144Y-25347455D01*
X35205480Y-25228640D01*
X34901419Y-25080461D01*
X34918633Y-24862122D01*
X34919784Y-24846969D01*
X34923386Y-24661140D01*
X34898951Y-24522960D01*
X34840093Y-24425760D01*
X34740426Y-24362872D01*
X34593564Y-24327626D01*
X34393121Y-24313354D01*
X34328351Y-24311165D01*
X34175946Y-24297571D01*
X34064596Y-24266155D01*
X33979179Y-24207892D01*
X33904573Y-24113758D01*
X33825657Y-23974731D01*
X33810032Y-23945533D01*
X33657273Y-23717394D01*
X33472767Y-23537718D01*
X33248649Y-23398655D01*
X33180459Y-23366729D01*
X33065948Y-23327158D01*
X32985629Y-23327790D01*
X32929679Y-23370185D01*
X32888275Y-23455902D01*
X32878044Y-23491255D01*
X32858239Y-23612489D01*
X32848113Y-23761738D01*
X32847425Y-23921185D01*
X32287883Y-23921185D01*
X32304814Y-23615820D01*
X32332727Y-23438732D01*
X32399172Y-23209034D01*
X32495361Y-23031369D01*
X32622983Y-22903665D01*
X32783733Y-22823851D01*
X32979301Y-22789853D01*
X32989668Y-22789327D01*
X33174291Y-22797354D01*
X33353862Y-22842324D01*
X33541635Y-22928909D01*
X33750860Y-23061778D01*
X33955763Y-23225560D01*
X34116352Y-23402585D01*
X34248975Y-23611034D01*
X34326610Y-23754975D01*
X34579485Y-23773784D01*
X34777738Y-23801012D01*
X35001195Y-23873479D01*
X35180637Y-23988694D01*
X35317607Y-24148098D01*
X35413651Y-24353134D01*
X35470315Y-24605244D01*
X35471096Y-24610917D01*
X35490892Y-24702426D01*
X35528469Y-24758867D01*
X35600281Y-24805608D01*
X35656353Y-24836621D01*
X35887404Y-24992421D01*
X36073510Y-25167136D01*
X36209105Y-25354752D01*
X36288623Y-25549256D01*
X36315448Y-25630769D01*
X36358037Y-25681975D01*
X36433735Y-25715324D01*
X36497278Y-25738804D01*
X36608632Y-25786226D01*
X36723240Y-25840359D01*
X36900485Y-25929042D01*
X36900485Y-25839370D01*
X36903837Y-25812315D01*
X37461805Y-25812315D01*
X37468473Y-25999570D01*
X37528769Y-26195477D01*
X37641036Y-26391580D01*
X37666150Y-26431914D01*
X37716543Y-26532866D01*
X37761015Y-26643650D01*
X37772988Y-26676720D01*
X37819780Y-26794865D01*
X37879685Y-26936009D01*
X37942724Y-27076395D01*
X38067861Y-27346116D01*
X38401224Y-27342739D01*
X38501109Y-27340734D01*
X38650189Y-27334344D01*
X38777341Y-27325025D01*
X38862705Y-27314014D01*
X38924042Y-27299418D01*
X39130793Y-27212073D01*
X39313608Y-27076476D01*
X39463885Y-26902013D01*
X39573022Y-26698072D01*
X39632415Y-26474040D01*
X39636299Y-26363899D01*
X39601410Y-26192349D01*
X39516326Y-26003673D01*
X39378882Y-25792048D01*
X39318163Y-25707454D01*
X39225182Y-25564753D01*
X39163669Y-25439429D01*
X39130294Y-25316039D01*
X39121730Y-25179139D01*
X39134648Y-25013285D01*
X39165720Y-24803034D01*
X39183041Y-24692482D01*
X39206289Y-24500839D01*
X39211715Y-24348953D01*
X39198437Y-24223576D01*
X39165574Y-24111456D01*
X39112244Y-23999345D01*
X39075647Y-23929613D01*
X39035277Y-23830276D01*
X39016616Y-23730325D01*
X39012062Y-23599414D01*
X39012229Y-23558334D01*
X39017331Y-23453855D01*
X39035224Y-23372965D01*
X39073471Y-23290994D01*
X39139634Y-23183273D01*
X39245839Y-22997750D01*
X39311338Y-22824057D01*
X39329400Y-22662059D01*
X39301324Y-22499173D01*
X39228407Y-22322817D01*
X39200939Y-22263079D01*
X39159999Y-22119876D01*
X39153944Y-21965233D01*
X39183107Y-21786254D01*
X39247821Y-21570042D01*
X39252402Y-21556720D01*
X39308028Y-21376437D01*
X39335338Y-21230279D01*
X39334319Y-21098857D01*
X39304955Y-20962779D01*
X39247231Y-20802656D01*
X39195845Y-20663661D01*
X39159856Y-20515648D01*
X39158462Y-20385846D01*
X39192033Y-20255512D01*
X39260938Y-20105903D01*
X39343204Y-19920819D01*
X39389640Y-19723782D01*
X39380429Y-19547166D01*
X39315263Y-19387032D01*
X39193840Y-19239443D01*
X39139611Y-19185864D01*
X39086874Y-19119881D01*
X39063523Y-19056257D01*
X39058252Y-18972753D01*
X39068262Y-18865969D01*
X39115565Y-18726432D01*
X39194933Y-18624259D01*
X39232418Y-18560501D01*
X39232198Y-18453728D01*
X39190286Y-18312486D01*
X39108031Y-18141178D01*
X38986780Y-17944208D01*
X38976711Y-17929230D01*
X38923010Y-17844952D01*
X38899288Y-17788544D01*
X38900722Y-17740195D01*
X38922490Y-17680093D01*
X38965976Y-17576015D01*
X38865694Y-17593702D01*
X38839478Y-17598445D01*
X38574951Y-17662953D01*
X38368151Y-17747752D01*
X38218527Y-17853128D01*
X38125531Y-17979366D01*
X38105999Y-18030809D01*
X38092958Y-18098090D01*
X38086993Y-18190527D01*
X38087354Y-18320219D01*
X38093290Y-18499271D01*
X38096472Y-18585697D01*
X38099122Y-18785035D01*
X38090640Y-18939097D01*
X38068160Y-19059566D01*
X38028819Y-19158122D01*
X37969753Y-19246450D01*
X37888097Y-19336229D01*
X37762174Y-19495865D01*
X37691790Y-19664421D01*
X37679768Y-19833815D01*
X37726494Y-19998409D01*
X37832353Y-20152566D01*
X37842653Y-20163734D01*
X37895769Y-20223966D01*
X37927208Y-20274799D01*
X37937194Y-20329737D01*
X37925952Y-20402284D01*
X37893705Y-20505945D01*
X37840678Y-20654223D01*
X37800088Y-20780398D01*
X37775278Y-20925524D01*
X37787669Y-21057352D01*
X37839733Y-21194493D01*
X37933947Y-21355561D01*
X37993807Y-21453269D01*
X38049751Y-21573998D01*
X38065370Y-21676167D01*
X38042053Y-21775407D01*
X37981189Y-21887349D01*
X37937376Y-21963942D01*
X37857838Y-22183196D01*
X37828315Y-22420583D01*
X37848281Y-22663901D01*
X37917205Y-22900948D01*
X38034561Y-23119523D01*
X38090666Y-23201116D01*
X38156564Y-23297285D01*
X38203475Y-23366125D01*
X38208418Y-23373589D01*
X38236716Y-23432439D01*
X38240669Y-23494813D01*
X38217004Y-23572077D01*
X38162450Y-23675595D01*
X38073734Y-23816733D01*
X38016088Y-23908869D01*
X37932836Y-24071318D01*
X37889352Y-24218426D01*
X37881595Y-24367474D01*
X37905522Y-24535740D01*
X37930448Y-24666864D01*
X37946203Y-24817637D01*
X37935643Y-24944574D01*
X37894577Y-25064662D01*
X37818818Y-25194888D01*
X37704176Y-25352236D01*
X37684015Y-25378874D01*
X37604553Y-25490626D01*
X37538732Y-25593185D01*
X37499146Y-25667205D01*
X37461805Y-25812315D01*
X36903837Y-25812315D01*
X36918990Y-25690010D01*
X36981271Y-25497667D01*
X37081918Y-25293870D01*
X37215178Y-25092273D01*
X37404359Y-24841211D01*
X37368199Y-24666141D01*
X37335948Y-24423110D01*
X37347371Y-24139024D01*
X37414264Y-23875155D01*
X37535835Y-23636371D01*
X37617002Y-23513720D01*
X37507940Y-23310682D01*
X37496570Y-23289186D01*
X37373855Y-22996516D01*
X37302032Y-22693352D01*
X37281840Y-22389821D01*
X37314018Y-22096051D01*
X37399306Y-21822172D01*
X37463680Y-21672531D01*
X37366367Y-21480744D01*
X37278305Y-21254301D01*
X37233756Y-21003663D01*
X37240030Y-20755572D01*
X37298165Y-20524585D01*
X37305998Y-20502173D01*
X37313169Y-20444406D01*
X37295603Y-20376685D01*
X37249117Y-20277983D01*
X37216345Y-20208393D01*
X37184021Y-20110423D01*
X37164815Y-19995037D01*
X37153930Y-19840169D01*
X37157431Y-19620741D01*
X37198713Y-19407724D01*
X37283641Y-19221479D01*
X37416336Y-19049580D01*
X37458504Y-19003868D01*
X37499423Y-18953110D01*
X37528097Y-18900829D01*
X37546179Y-18837012D01*
X37555322Y-18751643D01*
X37557180Y-18634710D01*
X37553404Y-18476199D01*
X37545647Y-18266094D01*
X37544249Y-18228956D01*
X37540998Y-18096146D01*
X37545011Y-18001364D01*
X37559578Y-17925400D01*
X37587992Y-17849045D01*
X37633543Y-17753089D01*
X37659607Y-17702769D01*
X37786888Y-17516635D01*
X37950690Y-17364995D01*
X38163092Y-17236056D01*
X38333297Y-17163329D01*
X38532707Y-17103391D01*
X38734256Y-17064753D01*
X38923795Y-17049312D01*
X39087172Y-17058967D01*
X39210237Y-17095616D01*
X39311450Y-17169343D01*
X39404443Y-17279191D01*
X39473742Y-17405127D01*
X39510199Y-17530307D01*
X39504671Y-17637888D01*
X39501810Y-17659411D01*
X39521371Y-17743618D01*
X39577569Y-17859856D01*
X39582160Y-17867976D01*
X39667162Y-18041416D01*
X39735640Y-18223868D01*
X39781183Y-18395588D01*
X39797381Y-18536831D01*
X39796207Y-18563846D01*
X39775586Y-18684875D01*
X39737554Y-18799111D01*
X39678404Y-18929412D01*
X39782464Y-19102221D01*
X39869703Y-19273441D01*
X39936062Y-19503364D01*
X39945561Y-19740622D01*
X39898258Y-19990847D01*
X39794209Y-20259672D01*
X39697875Y-20463398D01*
X39785038Y-20675813D01*
X39793630Y-20697151D01*
X39864676Y-20933405D01*
X39887372Y-21168574D01*
X39861753Y-21415816D01*
X39787856Y-21688288D01*
X39683945Y-21995144D01*
X39756488Y-22153597D01*
X39841014Y-22381429D01*
X39878490Y-22604048D01*
X39866327Y-22828011D01*
X39803915Y-23064182D01*
X39690642Y-23323422D01*
X39651411Y-23402627D01*
X39599395Y-23514021D01*
X39563841Y-23598544D01*
X39550828Y-23642328D01*
X39551035Y-23645547D01*
X39571105Y-23700433D01*
X39613755Y-23771299D01*
X39634360Y-23802018D01*
X39718130Y-23988168D01*
X39760320Y-24216150D01*
X39761072Y-24487320D01*
X39720526Y-24803034D01*
X39720012Y-24805878D01*
X39691120Y-24976956D01*
X39677843Y-25103708D01*
X39682782Y-25201854D01*
X39708542Y-25287113D01*
X39757725Y-25375205D01*
X39832934Y-25481849D01*
X39845088Y-25498503D01*
X40012429Y-25764231D01*
X40122025Y-26021851D01*
X40175886Y-26277548D01*
X40175932Y-26363899D01*
X40176025Y-26537512D01*
X40172196Y-26613715D01*
X40183115Y-26676749D01*
X40210783Y-26682765D01*
X40252010Y-26632076D01*
X40303605Y-26524996D01*
X40305134Y-26521340D01*
X40374923Y-26398960D01*
X40481364Y-26261293D01*
X40609106Y-26124789D01*
X40742801Y-26005900D01*
X40867099Y-25921075D01*
X40943282Y-25884015D01*
X41078304Y-25829425D01*
X41211093Y-25785886D01*
X41218479Y-25783827D01*
X41325174Y-25750374D01*
X41395367Y-25712975D01*
X41451378Y-25655078D01*
X41515527Y-25560131D01*
X41583847Y-25463241D01*
X41748286Y-25274881D01*
X41955944Y-25077345D01*
X42197072Y-24877626D01*
X42461922Y-24682717D01*
X42740746Y-24499611D01*
X43023794Y-24335300D01*
X43301318Y-24196778D01*
X43563569Y-24091037D01*
X43575215Y-24087106D01*
X43729452Y-24047055D01*
X43921485Y-24013339D01*
X44135016Y-23987266D01*
X44353744Y-23970143D01*
X44561372Y-23963278D01*
X44741601Y-23967980D01*
X44878131Y-23985556D01*
X44920413Y-23996479D01*
X45091258Y-24075385D01*
X45225601Y-24195793D01*
X45317171Y-24348021D01*
X45359695Y-24522386D01*
X45359475Y-24525606D01*
X45346904Y-24709209D01*
G37*
D12*
%TO.C,J_Burn*%
X96765000Y-58080000D02*
X96765000Y-59350000D01*
X96765000Y-59350000D02*
X95495000Y-59350000D01*
%TO.C,D4*%
X32120000Y-60190000D02*
X32120000Y-62110000D01*
X32120000Y-62110000D02*
X34805000Y-62110000D01*
X34805000Y-60190000D02*
X32120000Y-60190000D01*
%TO.C,R12*%
X36900121Y-60740000D02*
X36564879Y-60740000D01*
X36900121Y-61500000D02*
X36564879Y-61500000D01*
D14*
%TO.C,J7*%
X13250000Y-72417500D02*
X13250000Y-73117500D01*
X13250000Y-75217500D02*
X13250000Y-77817500D01*
X13250000Y-79917500D02*
X13250000Y-80617500D01*
X17700000Y-72417500D02*
X16170000Y-72417500D01*
X17700000Y-73037500D02*
X17700000Y-72417500D01*
X17700000Y-79997500D02*
X17700000Y-80617500D01*
X17700000Y-80617500D02*
X16170000Y-80617500D01*
D15*
X18750000Y-75217500D02*
G75*
G02*
X18550000Y-75217500I-100000J0D01*
G01*
X18550000Y-75217500D02*
G75*
G02*
X18750000Y-75217500I100000J0D01*
G01*
D13*
%TO.C,G\u002A\u002A\u002A*%
G36*
X26392072Y-38851998D02*
G01*
X26383611Y-38860459D01*
X26375150Y-38851998D01*
X26383611Y-38843537D01*
X26392072Y-38851998D01*
G37*
G36*
X23250248Y-37650489D02*
G01*
X23307055Y-37683704D01*
X23347571Y-37734434D01*
X23363025Y-37794370D01*
X23353636Y-37840835D01*
X23313561Y-37897204D01*
X23308122Y-37902521D01*
X23258708Y-37936803D01*
X23202265Y-37946669D01*
X23154283Y-37938251D01*
X23097476Y-37905037D01*
X23056960Y-37854307D01*
X23041506Y-37794370D01*
X23050391Y-37748913D01*
X23085451Y-37695096D01*
X23138999Y-37656713D01*
X23202265Y-37642072D01*
X23250248Y-37650489D01*
G37*
G36*
X28936057Y-37650489D02*
G01*
X28992864Y-37683704D01*
X29033380Y-37734434D01*
X29048834Y-37794370D01*
X29039445Y-37840835D01*
X28999370Y-37897204D01*
X28993931Y-37902521D01*
X28944518Y-37936803D01*
X28888075Y-37946669D01*
X28840093Y-37938251D01*
X28783286Y-37905037D01*
X28742770Y-37854307D01*
X28727315Y-37794370D01*
X28736201Y-37748913D01*
X28771260Y-37695096D01*
X28824809Y-37656713D01*
X28888075Y-37642072D01*
X28936057Y-37650489D01*
G37*
G36*
X17931046Y-37760526D02*
G01*
X17931046Y-37862058D01*
X17795670Y-37862058D01*
X17660293Y-37862058D01*
X17660293Y-38428947D01*
X17660293Y-38995836D01*
X17804131Y-38995836D01*
X17947968Y-38995836D01*
X17947968Y-39097368D01*
X17947968Y-39198900D01*
X17524917Y-39198900D01*
X17101866Y-39198900D01*
X17101866Y-39097368D01*
X17101866Y-38995836D01*
X17245703Y-38995836D01*
X17389541Y-38995836D01*
X17389541Y-38327415D01*
X17389541Y-37658994D01*
X17660293Y-37658994D01*
X17931046Y-37658994D01*
X17931046Y-37760526D01*
G37*
G36*
X19369421Y-38488174D02*
G01*
X19369421Y-39198900D01*
X19242505Y-39198900D01*
X19115590Y-39198900D01*
X19115590Y-38868920D01*
X19115590Y-38538940D01*
X18861759Y-38538940D01*
X18607928Y-38538940D01*
X18607928Y-38437408D01*
X18607928Y-38335876D01*
X18861759Y-38335876D01*
X19115590Y-38335876D01*
X19115590Y-38166655D01*
X19115590Y-37997435D01*
X18802532Y-37997435D01*
X18489474Y-37997435D01*
X18489474Y-37887441D01*
X18489474Y-37777448D01*
X18929447Y-37777448D01*
X19369421Y-37777448D01*
X19369421Y-38488174D01*
G37*
G36*
X23566090Y-38234343D02*
G01*
X23566090Y-38335876D01*
X23439174Y-38335876D01*
X23312259Y-38335876D01*
X23312259Y-38665856D01*
X23312259Y-38995836D01*
X23439174Y-38995836D01*
X23566090Y-38995836D01*
X23566090Y-39097368D01*
X23566090Y-39198900D01*
X23193804Y-39198900D01*
X22821519Y-39198900D01*
X22821519Y-39097368D01*
X22821519Y-38995836D01*
X22939974Y-38995836D01*
X23058428Y-38995836D01*
X23058428Y-38564323D01*
X23058428Y-38132811D01*
X23312259Y-38132811D01*
X23566090Y-38132811D01*
X23566090Y-38234343D01*
G37*
G36*
X29251899Y-38234343D02*
G01*
X29251899Y-38335876D01*
X29124984Y-38335876D01*
X28998068Y-38335876D01*
X28998068Y-38665856D01*
X28998068Y-38995836D01*
X29124984Y-38995836D01*
X29251899Y-38995836D01*
X29251899Y-39097368D01*
X29251899Y-39198900D01*
X28879614Y-39198900D01*
X28507329Y-39198900D01*
X28507329Y-39097368D01*
X28507329Y-38995836D01*
X28625783Y-38995836D01*
X28744237Y-38995836D01*
X28744237Y-38564323D01*
X28744237Y-38132811D01*
X28998068Y-38132811D01*
X29251899Y-38132811D01*
X29251899Y-38234343D01*
G37*
G36*
X21712109Y-38132476D02*
G01*
X21724430Y-38137061D01*
X21781004Y-38166517D01*
X21833031Y-38204044D01*
X21890806Y-38254771D01*
X21890806Y-38193791D01*
X21890806Y-38132811D01*
X22026183Y-38132811D01*
X22161559Y-38132811D01*
X22161559Y-38665856D01*
X22161559Y-39198900D01*
X22036201Y-39198900D01*
X21910843Y-39198900D01*
X21904778Y-38873151D01*
X21902335Y-38763724D01*
X21899006Y-38671100D01*
X21894563Y-38602830D01*
X21888550Y-38553942D01*
X21880509Y-38519463D01*
X21869984Y-38494420D01*
X21864427Y-38484605D01*
X21807600Y-38414835D01*
X21736716Y-38367372D01*
X21658416Y-38343334D01*
X21579346Y-38343841D01*
X21506147Y-38370009D01*
X21445465Y-38422958D01*
X21405715Y-38473749D01*
X21352125Y-38353897D01*
X21346232Y-38340672D01*
X21321986Y-38285170D01*
X21304961Y-38244416D01*
X21298535Y-38226447D01*
X21304206Y-38220253D01*
X21331824Y-38200666D01*
X21374677Y-38174226D01*
X21433108Y-38147364D01*
X21528417Y-38123697D01*
X21626160Y-38118148D01*
X21712109Y-38132476D01*
G37*
G36*
X27369731Y-38117891D02*
G01*
X27460794Y-38135154D01*
X27547106Y-38168359D01*
X27614386Y-38212514D01*
X27633917Y-38227790D01*
X27642672Y-38221360D01*
X27644304Y-38186200D01*
X27644304Y-38132811D01*
X27771220Y-38132811D01*
X27898135Y-38132811D01*
X27898135Y-38665856D01*
X27898135Y-39198900D01*
X27772627Y-39198900D01*
X27647119Y-39198900D01*
X27641481Y-38816743D01*
X27635843Y-38434585D01*
X27581595Y-38386138D01*
X27532960Y-38351838D01*
X27462817Y-38327417D01*
X27394717Y-38328193D01*
X27335978Y-38353723D01*
X27293916Y-38403564D01*
X27292463Y-38406773D01*
X27284906Y-38438364D01*
X27279247Y-38493036D01*
X27275346Y-38573475D01*
X27273067Y-38682363D01*
X27272268Y-38822385D01*
X27272019Y-39198900D01*
X27136643Y-39198900D01*
X27001266Y-39198900D01*
X27001266Y-38835909D01*
X27001317Y-38808490D01*
X27002557Y-38695947D01*
X27005256Y-38591098D01*
X27009150Y-38500483D01*
X27013972Y-38430635D01*
X27019458Y-38388093D01*
X27032672Y-38339180D01*
X27079385Y-38244095D01*
X27147389Y-38174224D01*
X27234793Y-38131171D01*
X27339707Y-38116539D01*
X27369731Y-38117891D01*
G37*
G36*
X25072152Y-38851998D02*
G01*
X25072152Y-39571186D01*
X24936776Y-39571186D01*
X24801399Y-39571186D01*
X24800885Y-39330046D01*
X24800608Y-39279082D01*
X24798901Y-39195012D01*
X24795526Y-39141654D01*
X24790303Y-39116899D01*
X24783055Y-39118640D01*
X24753003Y-39150873D01*
X24694341Y-39184116D01*
X24621168Y-39207063D01*
X24544012Y-39215451D01*
X24442845Y-39202519D01*
X24343676Y-39158801D01*
X24256048Y-39083468D01*
X24217048Y-39035858D01*
X24174317Y-38963838D01*
X24144392Y-38879358D01*
X24122744Y-38771829D01*
X24122063Y-38767347D01*
X24114715Y-38632060D01*
X24117070Y-38614141D01*
X24378123Y-38614141D01*
X24381469Y-38710355D01*
X24398393Y-38803099D01*
X24428096Y-38885188D01*
X24469778Y-38949435D01*
X24522639Y-38988655D01*
X24533471Y-38993073D01*
X24592067Y-39010044D01*
X24640543Y-39006022D01*
X24693690Y-38980283D01*
X24693984Y-38980103D01*
X24745360Y-38932856D01*
X24779341Y-38863235D01*
X24796768Y-38768565D01*
X24798478Y-38646171D01*
X24795813Y-38600863D01*
X24782871Y-38502236D01*
X24761588Y-38434485D01*
X24759807Y-38430946D01*
X24713319Y-38372242D01*
X24651188Y-38336233D01*
X24581802Y-38324425D01*
X24513550Y-38338323D01*
X24454819Y-38379433D01*
X24415368Y-38440049D01*
X24389156Y-38521644D01*
X24378123Y-38614141D01*
X24117070Y-38614141D01*
X24131756Y-38502392D01*
X24170942Y-38383454D01*
X24230032Y-38280358D01*
X24306784Y-38198213D01*
X24398957Y-38142130D01*
X24491431Y-38117896D01*
X24595737Y-38119603D01*
X24694960Y-38149270D01*
X24780247Y-38205429D01*
X24818321Y-38240243D01*
X24818321Y-38186527D01*
X24818321Y-38132811D01*
X24945237Y-38132811D01*
X25072152Y-38132811D01*
X25072152Y-38646171D01*
X25072152Y-38851998D01*
G37*
G36*
X20845042Y-38545991D02*
G01*
X20852985Y-38650210D01*
X20850584Y-38756361D01*
X20837770Y-38853080D01*
X20814468Y-38929007D01*
X20792962Y-38970976D01*
X20713835Y-39077750D01*
X20611213Y-39160404D01*
X20486276Y-39217900D01*
X20481962Y-39219120D01*
X20440354Y-39224716D01*
X20378674Y-39227447D01*
X20308595Y-39226730D01*
X20236148Y-39221309D01*
X20143456Y-39201125D01*
X20061858Y-39162241D01*
X19978615Y-39099754D01*
X19919387Y-39048837D01*
X19988420Y-38978936D01*
X20057452Y-38909035D01*
X20140718Y-38959892D01*
X20180328Y-38982130D01*
X20276385Y-39017269D01*
X20365839Y-39020614D01*
X20451452Y-38992455D01*
X20505126Y-38955970D01*
X20561031Y-38885221D01*
X20597106Y-38788541D01*
X20608399Y-38742005D01*
X20260430Y-38742005D01*
X19912460Y-38742005D01*
X19901928Y-38685864D01*
X19898934Y-38652155D01*
X19903114Y-38579514D01*
X19906948Y-38555862D01*
X20160329Y-38555862D01*
X20374069Y-38555862D01*
X20456743Y-38555348D01*
X20521431Y-38553223D01*
X20561573Y-38548924D01*
X20582066Y-38541896D01*
X20587808Y-38531581D01*
X20578879Y-38484616D01*
X20550068Y-38422467D01*
X20508204Y-38366312D01*
X20501606Y-38359686D01*
X20438628Y-38318974D01*
X20370210Y-38306946D01*
X20302743Y-38321141D01*
X20242620Y-38359100D01*
X20196231Y-38418365D01*
X20169966Y-38496474D01*
X20160329Y-38555862D01*
X19906948Y-38555862D01*
X19916543Y-38496672D01*
X19936877Y-38416695D01*
X19961768Y-38352651D01*
X19985943Y-38310778D01*
X20062510Y-38222350D01*
X20158954Y-38159984D01*
X20272332Y-38125247D01*
X20399699Y-38119703D01*
X20423106Y-38121883D01*
X20546388Y-38151968D01*
X20653460Y-38211275D01*
X20742377Y-38298421D01*
X20811191Y-38412025D01*
X20826830Y-38455065D01*
X20842156Y-38531581D01*
X20845042Y-38545991D01*
G37*
G36*
X15898061Y-38221652D02*
G01*
X15903543Y-38265239D01*
X15919902Y-38340011D01*
X15944937Y-38431172D01*
X15976554Y-38530479D01*
X16013378Y-38640876D01*
X16042036Y-38725944D01*
X16064352Y-38782380D01*
X16083155Y-38809837D01*
X16101277Y-38807972D01*
X16121549Y-38776439D01*
X16146802Y-38714894D01*
X16179865Y-38622992D01*
X16223571Y-38500387D01*
X16353540Y-38141272D01*
X16482333Y-38136330D01*
X16495952Y-38135835D01*
X16554410Y-38134415D01*
X16595392Y-38134580D01*
X16610732Y-38136330D01*
X16608227Y-38143399D01*
X16595158Y-38177985D01*
X16572191Y-38237988D01*
X16540765Y-38319670D01*
X16502320Y-38419291D01*
X16458296Y-38533112D01*
X16410130Y-38657395D01*
X16209923Y-39173517D01*
X16240562Y-39234846D01*
X16244016Y-39241424D01*
X16281060Y-39295224D01*
X16325389Y-39341771D01*
X16346465Y-39357709D01*
X16395885Y-39377433D01*
X16448234Y-39369366D01*
X16511174Y-39333152D01*
X16514244Y-39330982D01*
X16548054Y-39309335D01*
X16567981Y-39300433D01*
X16576548Y-39308915D01*
X16595841Y-39340873D01*
X16619615Y-39388444D01*
X16631564Y-39415019D01*
X16647034Y-39462127D01*
X16641817Y-39494780D01*
X16612359Y-39522045D01*
X16555104Y-39552989D01*
X16514289Y-39569060D01*
X16424730Y-39585965D01*
X16331752Y-39584896D01*
X16250989Y-39565225D01*
X16221111Y-39549451D01*
X16159268Y-39501956D01*
X16101030Y-39441252D01*
X16058213Y-39378769D01*
X16057707Y-39377783D01*
X16043392Y-39344858D01*
X16019816Y-39285330D01*
X15988813Y-39204239D01*
X15952220Y-39106628D01*
X15911872Y-38997538D01*
X15869604Y-38882009D01*
X15827252Y-38765082D01*
X15786653Y-38651800D01*
X15749641Y-38547202D01*
X15718052Y-38456330D01*
X15693721Y-38384226D01*
X15678485Y-38335930D01*
X15663519Y-38278900D01*
X15651270Y-38219856D01*
X15646569Y-38179401D01*
X15646569Y-38132811D01*
X15770461Y-38132811D01*
X15894352Y-38132811D01*
X15898061Y-38221652D01*
G37*
G36*
X26182221Y-38130912D02*
G01*
X26214245Y-38141072D01*
X26300708Y-38185984D01*
X26369035Y-38247915D01*
X26416393Y-38321433D01*
X26439955Y-38401105D01*
X26436887Y-38481500D01*
X26404361Y-38557188D01*
X26370065Y-38600432D01*
X26324295Y-38639871D01*
X26263287Y-38675652D01*
X26181065Y-38711239D01*
X26071652Y-38750100D01*
X26048242Y-38757985D01*
X25959098Y-38790649D01*
X25897524Y-38819526D01*
X25859063Y-38847689D01*
X25839256Y-38878211D01*
X25833645Y-38914166D01*
X25833740Y-38919676D01*
X25846263Y-38966713D01*
X25881889Y-38998019D01*
X25943580Y-39015153D01*
X26034295Y-39019669D01*
X26153972Y-39007494D01*
X26262429Y-38970081D01*
X26354222Y-38906156D01*
X26371234Y-38891560D01*
X26390711Y-38882979D01*
X26409314Y-38892588D01*
X26432752Y-38924217D01*
X26466734Y-38981702D01*
X26512052Y-39060639D01*
X26456292Y-39102389D01*
X26355825Y-39166004D01*
X26227632Y-39215206D01*
X26215342Y-39217728D01*
X26160319Y-39223845D01*
X26087924Y-39227199D01*
X26010489Y-39227114D01*
X25991266Y-39226550D01*
X25918107Y-39222511D01*
X25865525Y-39214444D01*
X25822593Y-39199977D01*
X25778385Y-39176737D01*
X25760682Y-39165845D01*
X25678634Y-39097588D01*
X25622470Y-39018320D01*
X25593213Y-38932960D01*
X25591885Y-38846428D01*
X25619510Y-38763643D01*
X25677110Y-38689525D01*
X25711001Y-38661901D01*
X25763112Y-38631066D01*
X25833623Y-38600325D01*
X25929882Y-38566088D01*
X25938113Y-38563335D01*
X26033561Y-38529126D01*
X26100475Y-38499278D01*
X26143063Y-38471054D01*
X26165531Y-38441718D01*
X26172086Y-38408534D01*
X26163305Y-38372669D01*
X26130524Y-38345455D01*
X26069017Y-38327551D01*
X26055519Y-38325407D01*
X25962895Y-38329258D01*
X25873359Y-38362782D01*
X25795570Y-38422957D01*
X25768734Y-38449289D01*
X25742328Y-38469903D01*
X25732112Y-38470001D01*
X25725159Y-38451569D01*
X25702539Y-38413071D01*
X25669671Y-38365342D01*
X25607230Y-38280280D01*
X25656980Y-38240178D01*
X25701713Y-38208549D01*
X25812832Y-38155463D01*
X25937080Y-38123345D01*
X26063772Y-38114421D01*
X26182221Y-38130912D01*
G37*
G36*
X26430342Y-31207330D02*
G01*
X26432910Y-31350673D01*
X26434953Y-31483048D01*
X26436435Y-31600645D01*
X26437321Y-31699650D01*
X26437575Y-31776254D01*
X26437163Y-31826644D01*
X26436048Y-31847009D01*
X26422808Y-31858035D01*
X26383661Y-31883921D01*
X26322604Y-31921866D01*
X26243596Y-31969457D01*
X26150594Y-32024278D01*
X26047558Y-32083918D01*
X25952658Y-32138838D01*
X25859970Y-32193487D01*
X25781454Y-32240857D01*
X25720934Y-32278603D01*
X25682233Y-32304383D01*
X25681873Y-32304699D01*
X25669172Y-32315853D01*
X25680158Y-32324668D01*
X25716959Y-32348654D01*
X25775813Y-32385054D01*
X25852768Y-32431463D01*
X25943872Y-32485476D01*
X26045170Y-32544687D01*
X26417455Y-32760832D01*
X26429774Y-33411714D01*
X26429790Y-33412609D01*
X26432721Y-33578836D01*
X26434714Y-33723329D01*
X26435556Y-33839170D01*
X26435212Y-33929007D01*
X26433649Y-33995488D01*
X26430834Y-34041260D01*
X26426733Y-34068972D01*
X26421313Y-34081270D01*
X26410820Y-34088071D01*
X26372731Y-34110973D01*
X26309085Y-34148530D01*
X26222049Y-34199484D01*
X26113789Y-34262577D01*
X25986472Y-34336551D01*
X25842263Y-34420147D01*
X25683330Y-34512108D01*
X25511837Y-34611174D01*
X25329952Y-34716089D01*
X25139840Y-34825592D01*
X25120690Y-34836615D01*
X24908970Y-34958498D01*
X24690670Y-35084197D01*
X24469781Y-35211412D01*
X24250293Y-35337844D01*
X24036198Y-35461194D01*
X23831485Y-35579162D01*
X23640145Y-35689449D01*
X23466169Y-35789756D01*
X23313547Y-35877783D01*
X23186270Y-35951231D01*
X22493393Y-36351222D01*
X22416317Y-36305841D01*
X22403409Y-36298282D01*
X22359242Y-36272546D01*
X22290444Y-36232534D01*
X22199990Y-36179976D01*
X22090853Y-36116598D01*
X21966010Y-36044127D01*
X21828434Y-35964291D01*
X21681100Y-35878818D01*
X21526982Y-35789433D01*
X21400957Y-35716336D01*
X21200112Y-35599793D01*
X20984690Y-35474742D01*
X20762000Y-35345427D01*
X20539353Y-35216096D01*
X20324058Y-35090995D01*
X20123428Y-34974368D01*
X19944770Y-34870462D01*
X19931582Y-34862790D01*
X19772702Y-34770385D01*
X19613876Y-34678058D01*
X19459274Y-34588229D01*
X19313067Y-34503319D01*
X19179426Y-34425752D01*
X19062521Y-34357947D01*
X18966523Y-34302327D01*
X18895603Y-34261313D01*
X18893210Y-34259930D01*
X18804845Y-34208517D01*
X18726123Y-34162003D01*
X18661980Y-34123361D01*
X18617351Y-34095563D01*
X18597172Y-34081582D01*
X18592990Y-34070661D01*
X18587904Y-34033329D01*
X18583506Y-33968901D01*
X18579747Y-33876028D01*
X18576576Y-33753361D01*
X18573940Y-33599550D01*
X18571945Y-33426801D01*
X19725454Y-33426801D01*
X19739124Y-33436447D01*
X19779609Y-33461606D01*
X19844374Y-33500733D01*
X19930877Y-33552324D01*
X20036577Y-33614874D01*
X20158932Y-33686882D01*
X20295401Y-33766841D01*
X20443442Y-33853250D01*
X20600515Y-33944603D01*
X20670744Y-33985380D01*
X20850433Y-34089730D01*
X21034620Y-34196716D01*
X21218479Y-34303535D01*
X21397188Y-34407382D01*
X21565921Y-34505455D01*
X21719855Y-34594950D01*
X21854165Y-34673063D01*
X21964029Y-34736992D01*
X22046148Y-34784724D01*
X22157601Y-34849263D01*
X22257632Y-34906908D01*
X22342681Y-34955622D01*
X22409190Y-34993367D01*
X22453598Y-35018108D01*
X22472346Y-35027809D01*
X22475817Y-35027061D01*
X22504010Y-35013933D01*
X22557559Y-34985851D01*
X22633670Y-34944377D01*
X22729546Y-34891073D01*
X22842391Y-34827501D01*
X22969412Y-34755221D01*
X23107811Y-34675794D01*
X23254793Y-34590783D01*
X23355489Y-34532340D01*
X23540665Y-34424938D01*
X23736758Y-34311282D01*
X23937074Y-34195249D01*
X24134916Y-34080716D01*
X24323586Y-33971562D01*
X24496391Y-33871662D01*
X24646632Y-33784894D01*
X24727724Y-33738012D01*
X24854940Y-33664118D01*
X24970799Y-33596397D01*
X25072301Y-33536626D01*
X25156446Y-33486584D01*
X25220234Y-33448048D01*
X25260665Y-33422797D01*
X25274740Y-33412609D01*
X25271795Y-33409683D01*
X25245850Y-33392185D01*
X25196583Y-33361621D01*
X25128200Y-33320534D01*
X25044909Y-33271465D01*
X24950916Y-33216955D01*
X24916091Y-33196907D01*
X24819787Y-33141454D01*
X24732041Y-33090914D01*
X24658049Y-33048281D01*
X24603002Y-33016546D01*
X24572094Y-32998700D01*
X24516621Y-32966588D01*
X24138657Y-33186775D01*
X24137761Y-33187297D01*
X23914480Y-33317211D01*
X23700991Y-33441113D01*
X23499058Y-33557996D01*
X23310446Y-33666849D01*
X23136920Y-33766666D01*
X22980244Y-33856436D01*
X22842183Y-33935151D01*
X22724502Y-34001803D01*
X22628964Y-34055382D01*
X22557335Y-34094880D01*
X22511379Y-34119288D01*
X22492861Y-34127598D01*
X22487595Y-34125423D01*
X22456415Y-34108963D01*
X22399701Y-34077519D01*
X22319898Y-34032491D01*
X22219451Y-33975279D01*
X22100806Y-33907281D01*
X21966407Y-33829898D01*
X21818699Y-33744528D01*
X21660128Y-33652572D01*
X21493138Y-33555427D01*
X21407802Y-33505743D01*
X21244819Y-33411058D01*
X21091524Y-33322268D01*
X20950356Y-33240770D01*
X20823758Y-33167965D01*
X20714170Y-33105250D01*
X20624032Y-33054025D01*
X20555787Y-33015688D01*
X20511875Y-32991639D01*
X20494737Y-32983277D01*
X20491426Y-32984142D01*
X20464049Y-32997092D01*
X20414315Y-33023462D01*
X20346944Y-33060532D01*
X20266653Y-33105582D01*
X20178161Y-33155892D01*
X20086188Y-33208740D01*
X19995450Y-33261406D01*
X19910668Y-33311171D01*
X19836558Y-33355313D01*
X19777840Y-33391112D01*
X19739233Y-33415848D01*
X19725454Y-33426801D01*
X18571945Y-33426801D01*
X18571788Y-33413248D01*
X18565623Y-32763438D01*
X18950219Y-32541762D01*
X19047539Y-32485378D01*
X19140743Y-32430772D01*
X19219961Y-32383721D01*
X19281343Y-32346533D01*
X19311271Y-32327672D01*
X21655145Y-32327672D01*
X21656682Y-32336601D01*
X21656846Y-32336747D01*
X21677721Y-32350803D01*
X21723794Y-32379225D01*
X21791011Y-32419597D01*
X21875319Y-32469503D01*
X21972661Y-32526526D01*
X22078983Y-32588251D01*
X22085656Y-32592108D01*
X22190297Y-32652408D01*
X22284819Y-32706562D01*
X22365391Y-32752399D01*
X22428184Y-32787751D01*
X22469367Y-32810447D01*
X22485113Y-32818319D01*
X22485624Y-32818152D01*
X22505200Y-32807703D01*
X22548935Y-32782930D01*
X22612389Y-32746432D01*
X22691122Y-32700811D01*
X22780693Y-32648669D01*
X22876663Y-32592607D01*
X22974591Y-32535225D01*
X23070038Y-32479126D01*
X23158563Y-32426910D01*
X23235726Y-32381179D01*
X23297087Y-32344534D01*
X23338206Y-32319576D01*
X23354643Y-32308906D01*
X23355010Y-32308520D01*
X23356634Y-32304699D01*
X23353414Y-32298987D01*
X23342630Y-32289713D01*
X23321565Y-32275209D01*
X23287500Y-32253804D01*
X23237717Y-32223829D01*
X23169496Y-32183613D01*
X23080120Y-32131487D01*
X22966869Y-32065781D01*
X22827026Y-31984826D01*
X22519475Y-31806864D01*
X22076779Y-32061425D01*
X22012914Y-32098229D01*
X21896931Y-32165703D01*
X21806868Y-32219272D01*
X21740191Y-32260594D01*
X21694367Y-32291328D01*
X21666863Y-32313135D01*
X21655145Y-32327672D01*
X19311271Y-32327672D01*
X19321038Y-32321517D01*
X19335195Y-32310979D01*
X19324751Y-32302677D01*
X19288654Y-32279276D01*
X19230500Y-32243329D01*
X19154170Y-32197202D01*
X19063543Y-32143259D01*
X18962499Y-32083863D01*
X18875105Y-32032611D01*
X18782073Y-31977611D01*
X18702482Y-31930074D01*
X18640291Y-31892383D01*
X18599455Y-31866918D01*
X18583934Y-31856061D01*
X18583689Y-31855027D01*
X18582262Y-31830469D01*
X18580643Y-31776505D01*
X18578901Y-31696864D01*
X18577101Y-31595274D01*
X18575312Y-31475464D01*
X18573601Y-31341162D01*
X18572203Y-31211695D01*
X19725074Y-31211695D01*
X19726262Y-31213701D01*
X19747956Y-31230048D01*
X19793279Y-31258960D01*
X19857451Y-31297741D01*
X19935691Y-31343693D01*
X20023218Y-31394117D01*
X20115249Y-31446316D01*
X20207005Y-31497593D01*
X20293703Y-31545249D01*
X20370562Y-31586587D01*
X20432802Y-31618909D01*
X20475640Y-31639518D01*
X20494297Y-31645715D01*
X20500039Y-31642776D01*
X20532152Y-31624954D01*
X20589847Y-31592331D01*
X20670661Y-31546316D01*
X20772132Y-31488319D01*
X20891800Y-31419750D01*
X21027202Y-31342019D01*
X21175876Y-31256535D01*
X21335361Y-31164709D01*
X21503194Y-31067950D01*
X21591915Y-31016778D01*
X21755125Y-30922701D01*
X21908410Y-30834419D01*
X22049345Y-30753324D01*
X22175510Y-30680806D01*
X22284479Y-30618256D01*
X22373832Y-30567067D01*
X22441146Y-30528629D01*
X22483996Y-30504333D01*
X22499961Y-30495571D01*
X22505433Y-30497572D01*
X22536175Y-30513362D01*
X22590647Y-30543155D01*
X22665285Y-30584947D01*
X22756520Y-30636733D01*
X22860786Y-30696510D01*
X22974517Y-30762271D01*
X23087006Y-30827552D01*
X23247474Y-30920608D01*
X23418591Y-31019779D01*
X23590382Y-31119283D01*
X23752867Y-31213341D01*
X23896070Y-31296172D01*
X23939321Y-31321179D01*
X24054470Y-31387790D01*
X24162010Y-31450046D01*
X24257603Y-31505433D01*
X24336909Y-31551435D01*
X24395588Y-31585537D01*
X24429301Y-31605224D01*
X24505638Y-31650142D01*
X24890427Y-31427711D01*
X24988155Y-31370893D01*
X25081185Y-31316133D01*
X25160171Y-31268929D01*
X25221281Y-31231595D01*
X25260683Y-31206446D01*
X25274544Y-31195794D01*
X25267752Y-31190365D01*
X25235377Y-31169602D01*
X25179409Y-31135432D01*
X25103269Y-31089898D01*
X25010379Y-31035042D01*
X24904160Y-30972905D01*
X24788035Y-30905528D01*
X24739740Y-30877608D01*
X24619042Y-30807782D01*
X24476062Y-30725014D01*
X24315535Y-30632046D01*
X24142192Y-30531621D01*
X23960767Y-30426480D01*
X23775994Y-30319367D01*
X23592605Y-30213023D01*
X23415334Y-30110191D01*
X23410266Y-30107251D01*
X23251851Y-30015616D01*
X23102010Y-29929444D01*
X22963324Y-29850188D01*
X22838375Y-29779297D01*
X22729742Y-29718224D01*
X22640008Y-29668419D01*
X22571753Y-29631335D01*
X22527558Y-29608421D01*
X22510004Y-29601130D01*
X22499593Y-29606365D01*
X22461968Y-29627125D01*
X22399584Y-29662297D01*
X22314901Y-29710460D01*
X22210376Y-29770191D01*
X22088470Y-29840067D01*
X21951641Y-29918668D01*
X21802348Y-30004571D01*
X21643051Y-30096354D01*
X21476207Y-30192594D01*
X21304276Y-30291871D01*
X21129717Y-30392761D01*
X20954989Y-30493843D01*
X20782550Y-30593695D01*
X20614861Y-30690894D01*
X20454379Y-30784019D01*
X20303563Y-30871648D01*
X20164874Y-30952358D01*
X20040769Y-31024727D01*
X19933707Y-31087334D01*
X19846148Y-31138757D01*
X19780550Y-31177572D01*
X19739372Y-31202359D01*
X19725074Y-31211695D01*
X18572203Y-31211695D01*
X18572035Y-31196098D01*
X18565623Y-30545927D01*
X18980214Y-30306386D01*
X19108174Y-30232459D01*
X19498863Y-30006816D01*
X19861384Y-29797562D01*
X20196565Y-29604225D01*
X20505237Y-29426332D01*
X20788229Y-29263410D01*
X21046371Y-29114985D01*
X21280494Y-28980585D01*
X21491427Y-28859736D01*
X21680000Y-28751965D01*
X21847042Y-28656800D01*
X21993385Y-28573767D01*
X22119858Y-28502393D01*
X22227290Y-28442206D01*
X22316512Y-28392731D01*
X22388354Y-28353496D01*
X22443645Y-28324029D01*
X22483215Y-28303855D01*
X22507895Y-28292502D01*
X22518514Y-28289496D01*
X22520207Y-28290118D01*
X22545526Y-28303037D01*
X22596597Y-28331038D01*
X22670512Y-28372467D01*
X22764361Y-28425670D01*
X22875238Y-28488992D01*
X23000233Y-28560780D01*
X23136438Y-28639379D01*
X23280944Y-28723135D01*
X23387049Y-28784763D01*
X23544629Y-28876282D01*
X23723730Y-28980294D01*
X23920019Y-29094284D01*
X24129162Y-29215733D01*
X24346825Y-29342127D01*
X24568673Y-29470946D01*
X24790373Y-29599676D01*
X25007590Y-29725799D01*
X25215990Y-29846798D01*
X26417455Y-30544366D01*
X26429947Y-31186856D01*
X26430119Y-31195794D01*
X26430342Y-31207330D01*
G37*
D12*
%TO.C,R11*%
X36812621Y-62850000D02*
X36477379Y-62850000D01*
X36812621Y-63610000D02*
X36477379Y-63610000D01*
%TD*%
%LPC*%
D16*
%TO.C,*%
X101782992Y-62956243D03*
%TD*%
D17*
%TO.C,J2*%
X99340000Y-82270000D03*
D18*
X99340000Y-79730000D03*
X99340000Y-77190000D03*
X99340000Y-74650000D03*
X99340000Y-72110000D03*
X99340000Y-69570000D03*
%TD*%
D17*
%TO.C,J15*%
X85852000Y-101092000D03*
D18*
X83312000Y-101092000D03*
X80772000Y-101092000D03*
X78232000Y-101092000D03*
X75692000Y-101092000D03*
X73152000Y-101092000D03*
%TD*%
D17*
%TO.C,J12*%
X33500000Y-32750000D03*
D18*
X30960000Y-32750000D03*
%TD*%
D16*
%TO.C,*%
X24195000Y-63000000D03*
%TD*%
%TO.C,J2*%
X62988996Y-102081941D03*
%TD*%
D19*
%TO.C,R10*%
X36127500Y-65610000D03*
X37322500Y-65610000D03*
%TD*%
D20*
%TO.C,D2*%
X32897500Y-65330000D03*
X34772500Y-65330000D03*
%TD*%
%TO.C,D3*%
X32877500Y-63250000D03*
X34752500Y-63250000D03*
%TD*%
D17*
%TO.C,J_Burn*%
X95495000Y-58080000D03*
X98035000Y-56520000D03*
X98035000Y-53980000D03*
X95495000Y-52710000D03*
D18*
X90415000Y-58080000D03*
D17*
X87875000Y-56520000D03*
X87875000Y-53980000D03*
D18*
X90415000Y-52710000D03*
%TD*%
D16*
%TO.C,*%
X41822243Y-37976859D03*
%TD*%
D20*
%TO.C,D4*%
X32867500Y-61150000D03*
X34742500Y-61150000D03*
%TD*%
D19*
%TO.C,R12*%
X36135000Y-61120000D03*
X37330000Y-61120000D03*
%TD*%
D21*
%TO.C,J7*%
X17360000Y-75217500D03*
X17360000Y-75867500D03*
X17360000Y-76517500D03*
X17360000Y-77167500D03*
X17360000Y-77817500D03*
D22*
X14700000Y-80467500D03*
D23*
X17000000Y-78980000D03*
D24*
X14700000Y-77455000D03*
X14700000Y-75580000D03*
D23*
X17000000Y-74055000D03*
D22*
X14700000Y-72567500D03*
%TD*%
D19*
%TO.C,R11*%
X36047500Y-63230000D03*
X37242500Y-63230000D03*
%TD*%
D16*
%TO.C,J5*%
X62988996Y-23896243D03*
%TD*%
%LPD*%
M02*
