%TF.GenerationSoftware,KiCad,Pcbnew,8.0.4*%
%TF.CreationDate,2024-12-02T13:52:29-05:00*%
%TF.ProjectId,13vconvertertest,31337663-6f6e-4766-9572-746572746573,rev?*%
%TF.SameCoordinates,Original*%
%TF.FileFunction,Copper,L1,Top*%
%TF.FilePolarity,Positive*%
%FSLAX46Y46*%
G04 Gerber Fmt 4.6, Leading zero omitted, Abs format (unit mm)*
G04 Created by KiCad (PCBNEW 8.0.4) date 2024-12-02 13:52:29*
%MOMM*%
%LPD*%
G01*
G04 APERTURE LIST*
G04 Aperture macros list*
%AMRoundRect*
0 Rectangle with rounded corners*
0 $1 Rounding radius*
0 $2 $3 $4 $5 $6 $7 $8 $9 X,Y pos of 4 corners*
0 Add a 4 corners polygon primitive as box body*
4,1,4,$2,$3,$4,$5,$6,$7,$8,$9,$2,$3,0*
0 Add four circle primitives for the rounded corners*
1,1,$1+$1,$2,$3*
1,1,$1+$1,$4,$5*
1,1,$1+$1,$6,$7*
1,1,$1+$1,$8,$9*
0 Add four rect primitives between the rounded corners*
20,1,$1+$1,$2,$3,$4,$5,0*
20,1,$1+$1,$4,$5,$6,$7,0*
20,1,$1+$1,$6,$7,$8,$9,0*
20,1,$1+$1,$8,$9,$2,$3,0*%
G04 Aperture macros list end*
%TA.AperFunction,SMDPad,CuDef*%
%ADD10R,1.800000X3.600000*%
%TD*%
%TA.AperFunction,SMDPad,CuDef*%
%ADD11RoundRect,0.250000X-0.325000X-1.100000X0.325000X-1.100000X0.325000X1.100000X-0.325000X1.100000X0*%
%TD*%
%TA.AperFunction,SMDPad,CuDef*%
%ADD12RoundRect,0.250000X1.400000X1.000000X-1.400000X1.000000X-1.400000X-1.000000X1.400000X-1.000000X0*%
%TD*%
%TA.AperFunction,ComponentPad*%
%ADD13R,1.700000X1.700000*%
%TD*%
%TA.AperFunction,ComponentPad*%
%ADD14O,1.700000X1.700000*%
%TD*%
%TA.AperFunction,SMDPad,CuDef*%
%ADD15RoundRect,0.135000X-0.185000X0.135000X-0.185000X-0.135000X0.185000X-0.135000X0.185000X0.135000X0*%
%TD*%
%TA.AperFunction,SMDPad,CuDef*%
%ADD16RoundRect,0.150000X-0.512500X-0.150000X0.512500X-0.150000X0.512500X0.150000X-0.512500X0.150000X0*%
%TD*%
%TA.AperFunction,SMDPad,CuDef*%
%ADD17RoundRect,0.225000X-0.225000X-0.250000X0.225000X-0.250000X0.225000X0.250000X-0.225000X0.250000X0*%
%TD*%
%TA.AperFunction,SMDPad,CuDef*%
%ADD18RoundRect,0.250000X-0.262500X-0.450000X0.262500X-0.450000X0.262500X0.450000X-0.262500X0.450000X0*%
%TD*%
%TA.AperFunction,SMDPad,CuDef*%
%ADD19RoundRect,0.140000X-0.170000X0.140000X-0.170000X-0.140000X0.170000X-0.140000X0.170000X0.140000X0*%
%TD*%
%TA.AperFunction,SMDPad,CuDef*%
%ADD20RoundRect,0.250000X-0.450000X0.262500X-0.450000X-0.262500X0.450000X-0.262500X0.450000X0.262500X0*%
%TD*%
%TA.AperFunction,Conductor*%
%ADD21C,0.250000*%
%TD*%
G04 APERTURE END LIST*
D10*
%TO.P,L1,1,1*%
%TO.N,+3.3V*%
X96800000Y-29880000D03*
%TO.P,L1,2,2*%
%TO.N,Net-(D1-A)*%
X87800000Y-29880000D03*
%TD*%
D11*
%TO.P,C3,1*%
%TO.N,+13V*%
X91015000Y-45520000D03*
%TO.P,C3,2*%
%TO.N,GND*%
X93965000Y-45520000D03*
%TD*%
D12*
%TO.P,D1,1,K*%
%TO.N,+13V*%
X86650000Y-43610000D03*
%TO.P,D1,2,A*%
%TO.N,Net-(D1-A)*%
X86650000Y-36810000D03*
%TD*%
D13*
%TO.P,J1,1,Pin_1*%
%TO.N,+13V*%
X96620000Y-47005000D03*
D14*
%TO.P,J1,2,Pin_2*%
%TO.N,GND*%
X96620000Y-44465000D03*
%TO.P,J1,3,Pin_3*%
%TO.N,+3.3V*%
X96620000Y-41925000D03*
%TD*%
D15*
%TO.P,R3,1*%
%TO.N,Net-(U1-FB)*%
X90790000Y-42260000D03*
%TO.P,R3,2*%
%TO.N,+13V*%
X90790000Y-43280000D03*
%TD*%
D16*
%TO.P,U1,1,SW*%
%TO.N,Net-(D1-A)*%
X91175000Y-36500000D03*
%TO.P,U1,2,GND*%
%TO.N,GND*%
X91175000Y-37450000D03*
%TO.P,U1,3,FB*%
%TO.N,Net-(U1-FB)*%
X91175000Y-38400000D03*
%TO.P,U1,4,EN*%
%TO.N,Net-(U1-EN)*%
X93450000Y-38400000D03*
%TO.P,U1,5,VIN*%
%TO.N,+3.3V*%
X93450000Y-36500000D03*
%TD*%
D17*
%TO.P,C1,1*%
%TO.N,+3.3V*%
X95650000Y-35960000D03*
%TO.P,C1,2*%
%TO.N,GND*%
X97200000Y-35960000D03*
%TD*%
D18*
%TO.P,R2,1*%
%TO.N,Net-(U1-FB)*%
X91147500Y-40350000D03*
%TO.P,R2,2*%
%TO.N,GND*%
X92972500Y-40350000D03*
%TD*%
D19*
%TO.P,C2,1*%
%TO.N,Net-(U1-FB)*%
X91940000Y-42270000D03*
%TO.P,C2,2*%
%TO.N,+13V*%
X91940000Y-43230000D03*
%TD*%
D20*
%TO.P,R1,1*%
%TO.N,+3.3V*%
X95390000Y-37487500D03*
%TO.P,R1,2*%
%TO.N,Net-(U1-EN)*%
X95390000Y-39312500D03*
%TD*%
D21*
%TO.N,+3.3V*%
X96620000Y-36930000D02*
X95650000Y-35960000D01*
X96020000Y-29880000D02*
X96800000Y-29880000D01*
X96620000Y-38717500D02*
X95390000Y-37487500D01*
X96620000Y-41925000D02*
X96620000Y-36930000D01*
X93450000Y-32490000D02*
X93430000Y-32470000D01*
X93450000Y-36500000D02*
X93450000Y-32490000D01*
X93430000Y-32470000D02*
X96020000Y-29880000D01*
X96620000Y-41925000D02*
X96620000Y-38717500D01*
%TO.N,Net-(U1-FB)*%
X91147500Y-38427500D02*
X91175000Y-38400000D01*
X91147500Y-40350000D02*
X91147500Y-41530000D01*
X91147500Y-41530000D02*
X91147500Y-41902500D01*
X91887500Y-42270000D02*
X91147500Y-41530000D01*
X91147500Y-40350000D02*
X91147500Y-38427500D01*
X91147500Y-41902500D02*
X90790000Y-42260000D01*
X91940000Y-42270000D02*
X91887500Y-42270000D01*
%TO.N,+13V*%
X94670000Y-47810000D02*
X93305000Y-47810000D01*
X96620000Y-47005000D02*
X95475000Y-47005000D01*
X93305000Y-47810000D02*
X91015000Y-45520000D01*
X95475000Y-47005000D02*
X94670000Y-47810000D01*
%TO.N,Net-(D1-A)*%
X90980000Y-36500000D02*
X90670000Y-36810000D01*
X88570000Y-29880000D02*
X87800000Y-29880000D01*
X91175000Y-36500000D02*
X90980000Y-36500000D01*
%TO.N,GND*%
X90600000Y-37450000D02*
X88810000Y-39240000D01*
X91175000Y-37450000D02*
X90600000Y-37450000D01*
%TO.N,Net-(U1-EN)*%
X95390000Y-39312500D02*
X94362500Y-39312500D01*
X94362500Y-39312500D02*
X93450000Y-38400000D01*
%TD*%
%TA.AperFunction,Conductor*%
%TO.N,Net-(D1-A)*%
G36*
X86725761Y-27399685D02*
G01*
X86771516Y-27452489D01*
X86781460Y-27521647D01*
X86752435Y-27585203D01*
X86702055Y-27620182D01*
X86657913Y-27636645D01*
X86657906Y-27636649D01*
X86542812Y-27722809D01*
X86542809Y-27722812D01*
X86456649Y-27837906D01*
X86456645Y-27837913D01*
X86406403Y-27972620D01*
X86406401Y-27972627D01*
X86400000Y-28032155D01*
X86400000Y-29630000D01*
X89200000Y-29630000D01*
X89200000Y-28032172D01*
X89199999Y-28032155D01*
X89193598Y-27972627D01*
X89193596Y-27972620D01*
X89143354Y-27837913D01*
X89143350Y-27837906D01*
X89057190Y-27722812D01*
X89057187Y-27722809D01*
X88942093Y-27636649D01*
X88942086Y-27636645D01*
X88897945Y-27620182D01*
X88842011Y-27578311D01*
X88817594Y-27512847D01*
X88832445Y-27444574D01*
X88881851Y-27395168D01*
X88941278Y-27380000D01*
X90828638Y-27380000D01*
X90895677Y-27399685D01*
X90916319Y-27416319D01*
X91926215Y-28426215D01*
X91959700Y-28487538D01*
X91954716Y-28557230D01*
X91951329Y-28565407D01*
X91934663Y-28601899D01*
X91914976Y-28668944D01*
X91894500Y-28811362D01*
X91894500Y-35576982D01*
X91874815Y-35644021D01*
X91822011Y-35689776D01*
X91760777Y-35700600D01*
X91753162Y-35700001D01*
X91753134Y-35700000D01*
X91425000Y-35700000D01*
X91425000Y-36525500D01*
X91405315Y-36592539D01*
X91352511Y-36638294D01*
X91301000Y-36649500D01*
X90596798Y-36649500D01*
X90559932Y-36652401D01*
X90559926Y-36652402D01*
X90402106Y-36698254D01*
X90402103Y-36698255D01*
X90343806Y-36732732D01*
X90280685Y-36750000D01*
X90015205Y-36750000D01*
X90010074Y-36755550D01*
X89999758Y-36804651D01*
X89950705Y-36854407D01*
X89890506Y-36870000D01*
X89859999Y-36870000D01*
X89011681Y-37718318D01*
X88950358Y-37751803D01*
X88880666Y-37746819D01*
X88824733Y-37704947D01*
X88800316Y-37639483D01*
X88800000Y-37630637D01*
X88800000Y-37060000D01*
X86524000Y-37060000D01*
X86456961Y-37040315D01*
X86411206Y-36987511D01*
X86400000Y-36936000D01*
X86400000Y-36560000D01*
X86900000Y-36560000D01*
X88799999Y-36560000D01*
X88799999Y-36249998D01*
X90015204Y-36249998D01*
X90015205Y-36250000D01*
X90925000Y-36250000D01*
X90925000Y-35700000D01*
X90596850Y-35700000D01*
X90560010Y-35702899D01*
X90560004Y-35702900D01*
X90402306Y-35748716D01*
X90402303Y-35748717D01*
X90260947Y-35832314D01*
X90260938Y-35832321D01*
X90144821Y-35948438D01*
X90144814Y-35948447D01*
X90061218Y-36089801D01*
X90015399Y-36247513D01*
X90015204Y-36249998D01*
X88799999Y-36249998D01*
X88799999Y-35760028D01*
X88799998Y-35760013D01*
X88789505Y-35657302D01*
X88734358Y-35490880D01*
X88734356Y-35490875D01*
X88642315Y-35341654D01*
X88518345Y-35217684D01*
X88369124Y-35125643D01*
X88369119Y-35125641D01*
X88202697Y-35070494D01*
X88202690Y-35070493D01*
X88099986Y-35060000D01*
X86900000Y-35060000D01*
X86900000Y-36560000D01*
X86400000Y-36560000D01*
X86400000Y-35060000D01*
X85200028Y-35060000D01*
X85200012Y-35060001D01*
X85097302Y-35070494D01*
X84930880Y-35125641D01*
X84930875Y-35125643D01*
X84781654Y-35217684D01*
X84751681Y-35247658D01*
X84690358Y-35281143D01*
X84620666Y-35276159D01*
X84564733Y-35234287D01*
X84540316Y-35168823D01*
X84540000Y-35159977D01*
X84540000Y-31727844D01*
X86400000Y-31727844D01*
X86406401Y-31787372D01*
X86406403Y-31787379D01*
X86456645Y-31922086D01*
X86456649Y-31922093D01*
X86542809Y-32037187D01*
X86542812Y-32037190D01*
X86657906Y-32123350D01*
X86657913Y-32123354D01*
X86792620Y-32173596D01*
X86792627Y-32173598D01*
X86852155Y-32179999D01*
X86852172Y-32180000D01*
X87550000Y-32180000D01*
X88050000Y-32180000D01*
X88747828Y-32180000D01*
X88747844Y-32179999D01*
X88807372Y-32173598D01*
X88807379Y-32173596D01*
X88942086Y-32123354D01*
X88942093Y-32123350D01*
X89057187Y-32037190D01*
X89057190Y-32037187D01*
X89143350Y-31922093D01*
X89143354Y-31922086D01*
X89193596Y-31787379D01*
X89193598Y-31787372D01*
X89199999Y-31727844D01*
X89200000Y-31727827D01*
X89200000Y-30130000D01*
X88050000Y-30130000D01*
X88050000Y-32180000D01*
X87550000Y-32180000D01*
X87550000Y-30130000D01*
X86400000Y-30130000D01*
X86400000Y-31727844D01*
X84540000Y-31727844D01*
X84540000Y-28811362D01*
X84559685Y-28744323D01*
X84576319Y-28723681D01*
X85883681Y-27416319D01*
X85945004Y-27382834D01*
X85971362Y-27380000D01*
X86658722Y-27380000D01*
X86725761Y-27399685D01*
G37*
%TD.AperFunction*%
%TD*%
%TA.AperFunction,Conductor*%
%TO.N,+13V*%
G36*
X88605677Y-41149685D02*
G01*
X88626319Y-41166319D01*
X88793681Y-41333681D01*
X88827166Y-41395004D01*
X88830000Y-41421362D01*
X88830000Y-41460000D01*
X90002779Y-42632779D01*
X90021830Y-42657339D01*
X90051418Y-42707370D01*
X90068601Y-42775094D01*
X90051419Y-42833611D01*
X90017594Y-42890806D01*
X89977156Y-43030000D01*
X90529591Y-43030000D01*
X90539318Y-43030382D01*
X90539516Y-43030397D01*
X90540819Y-43030500D01*
X91039180Y-43030499D01*
X91039193Y-43030498D01*
X91040668Y-43030382D01*
X91050393Y-43030000D01*
X91096942Y-43030000D01*
X91125691Y-43012997D01*
X91222324Y-42984922D01*
X91256916Y-42980000D01*
X91441648Y-42980000D01*
X91504766Y-42997267D01*
X91513605Y-43002494D01*
X91513608Y-43002494D01*
X91513610Y-43002496D01*
X91669002Y-43047642D01*
X91669005Y-43047642D01*
X91669007Y-43047643D01*
X91705310Y-43050500D01*
X91705318Y-43050500D01*
X92066000Y-43050500D01*
X92133039Y-43070185D01*
X92178794Y-43122989D01*
X92190000Y-43174500D01*
X92190000Y-43356000D01*
X92170315Y-43423039D01*
X92117511Y-43468794D01*
X92066000Y-43480000D01*
X91653000Y-43480000D01*
X91639319Y-43493681D01*
X91577996Y-43527166D01*
X91551638Y-43530000D01*
X91040000Y-43530000D01*
X91040000Y-43627000D01*
X91141000Y-43627000D01*
X91208039Y-43646685D01*
X91253794Y-43699489D01*
X91265000Y-43751000D01*
X91265000Y-45270000D01*
X92089999Y-45270000D01*
X92089999Y-44370028D01*
X92089998Y-44370013D01*
X92079505Y-44267302D01*
X92048258Y-44173003D01*
X92045856Y-44103175D01*
X92081588Y-44043133D01*
X92144108Y-44011940D01*
X92165964Y-44009999D01*
X92174624Y-44009999D01*
X92174649Y-44009998D01*
X92210910Y-44007145D01*
X92366196Y-43962030D01*
X92505374Y-43879721D01*
X92505383Y-43879714D01*
X92619714Y-43765383D01*
X92619723Y-43765371D01*
X92649268Y-43715414D01*
X92700337Y-43667730D01*
X92769078Y-43655226D01*
X92833668Y-43681871D01*
X92873598Y-43739206D01*
X92880000Y-43778534D01*
X92880000Y-46438637D01*
X92860315Y-46505676D01*
X92843681Y-46526318D01*
X92349999Y-47019999D01*
X92350000Y-47020000D01*
X91974471Y-47020000D01*
X92024356Y-46939124D01*
X92024358Y-46939119D01*
X92079505Y-46772697D01*
X92079506Y-46772690D01*
X92089999Y-46669986D01*
X92090000Y-46669973D01*
X92090000Y-45770000D01*
X91265000Y-45770000D01*
X91265000Y-47020000D01*
X91090000Y-47020000D01*
X90765000Y-47345000D01*
X90765000Y-45770000D01*
X89940001Y-45770000D01*
X89940001Y-46669986D01*
X89950494Y-46772697D01*
X90005641Y-46939119D01*
X90005643Y-46939124D01*
X90097684Y-47088345D01*
X90221654Y-47212315D01*
X90370875Y-47304356D01*
X90370880Y-47304358D01*
X90537302Y-47359505D01*
X90537309Y-47359506D01*
X90640019Y-47369999D01*
X90740001Y-47369999D01*
X90410000Y-47700000D01*
X90410000Y-47910000D01*
X90680000Y-48180000D01*
X85461362Y-48180000D01*
X85394323Y-48160315D01*
X85373681Y-48143681D01*
X84266319Y-47036319D01*
X84232834Y-46974996D01*
X84230000Y-46948638D01*
X84230000Y-44659986D01*
X84500001Y-44659986D01*
X84510494Y-44762697D01*
X84565641Y-44929119D01*
X84565643Y-44929124D01*
X84657684Y-45078345D01*
X84781654Y-45202315D01*
X84930875Y-45294356D01*
X84930880Y-45294358D01*
X85097302Y-45349505D01*
X85097309Y-45349506D01*
X85200019Y-45359999D01*
X86399999Y-45359999D01*
X86900000Y-45359999D01*
X88099972Y-45359999D01*
X88099986Y-45359998D01*
X88202697Y-45349505D01*
X88369119Y-45294358D01*
X88369124Y-45294356D01*
X88518345Y-45202315D01*
X88642315Y-45078345D01*
X88734356Y-44929124D01*
X88734358Y-44929119D01*
X88789505Y-44762697D01*
X88789506Y-44762690D01*
X88799999Y-44659986D01*
X88800000Y-44659973D01*
X88800000Y-44370013D01*
X89940000Y-44370013D01*
X89940000Y-45270000D01*
X90765000Y-45270000D01*
X90765000Y-44093000D01*
X90664000Y-44093000D01*
X90596961Y-44073315D01*
X90551206Y-44020511D01*
X90540000Y-43969000D01*
X90540000Y-43530000D01*
X89977156Y-43530000D01*
X90017595Y-43669194D01*
X90103235Y-43814004D01*
X90100639Y-43815539D01*
X90121024Y-43867461D01*
X90107342Y-43935978D01*
X90101246Y-43945368D01*
X90101475Y-43945509D01*
X90005643Y-44100875D01*
X90005641Y-44100880D01*
X89950494Y-44267302D01*
X89950493Y-44267309D01*
X89940000Y-44370013D01*
X88800000Y-44370013D01*
X88800000Y-43860000D01*
X86900000Y-43860000D01*
X86900000Y-45359999D01*
X86399999Y-45359999D01*
X86400000Y-45359998D01*
X86400000Y-43860000D01*
X84500001Y-43860000D01*
X84500001Y-44659986D01*
X84230000Y-44659986D01*
X84230000Y-42560013D01*
X84500000Y-42560013D01*
X84500000Y-43360000D01*
X86400000Y-43360000D01*
X86900000Y-43360000D01*
X88799999Y-43360000D01*
X88799999Y-42560028D01*
X88799998Y-42560013D01*
X88789505Y-42457302D01*
X88734358Y-42290880D01*
X88734356Y-42290875D01*
X88642315Y-42141654D01*
X88518345Y-42017684D01*
X88369124Y-41925643D01*
X88369119Y-41925641D01*
X88202697Y-41870494D01*
X88202690Y-41870493D01*
X88099986Y-41860000D01*
X86900000Y-41860000D01*
X86900000Y-43360000D01*
X86400000Y-43360000D01*
X86400000Y-41860000D01*
X85200028Y-41860000D01*
X85200012Y-41860001D01*
X85097302Y-41870494D01*
X84930880Y-41925641D01*
X84930875Y-41925643D01*
X84781654Y-42017684D01*
X84657684Y-42141654D01*
X84565643Y-42290875D01*
X84565641Y-42290880D01*
X84510494Y-42457302D01*
X84510493Y-42457309D01*
X84500000Y-42560013D01*
X84230000Y-42560013D01*
X84230000Y-41591362D01*
X84249685Y-41524323D01*
X84266319Y-41503681D01*
X84603681Y-41166319D01*
X84665004Y-41132834D01*
X84691362Y-41130000D01*
X88538638Y-41130000D01*
X88605677Y-41149685D01*
G37*
%TD.AperFunction*%
%TD*%
%TA.AperFunction,Conductor*%
%TO.N,+3.3V*%
G36*
X97795677Y-27289685D02*
G01*
X97816319Y-27306319D01*
X97882675Y-27372675D01*
X97916160Y-27433998D01*
X97911176Y-27503690D01*
X97869304Y-27559623D01*
X97803840Y-27584040D01*
X97781738Y-27583645D01*
X97747844Y-27580000D01*
X97050000Y-27580000D01*
X97050000Y-29630000D01*
X98200000Y-29630000D01*
X98200000Y-28032172D01*
X98199999Y-28032162D01*
X98196354Y-27998264D01*
X98208757Y-27929504D01*
X98256366Y-27878365D01*
X98324065Y-27861084D01*
X98390360Y-27883147D01*
X98407324Y-27897324D01*
X98693681Y-28183681D01*
X98727166Y-28245004D01*
X98730000Y-28271362D01*
X98730000Y-32768638D01*
X98710315Y-32835677D01*
X98693681Y-32856319D01*
X98120000Y-33430000D01*
X96449535Y-35100464D01*
X96388212Y-35133949D01*
X96318520Y-35128965D01*
X96296756Y-35118321D01*
X96183488Y-35048455D01*
X96183481Y-35048452D01*
X96022606Y-34995144D01*
X95923322Y-34985000D01*
X95900000Y-34985000D01*
X95900000Y-36086000D01*
X95880315Y-36153039D01*
X95827511Y-36198794D01*
X95776000Y-36210000D01*
X94691805Y-36210000D01*
X94624766Y-36190315D01*
X94579011Y-36137511D01*
X94572729Y-36120595D01*
X94563784Y-36089806D01*
X94563782Y-36089803D01*
X94480185Y-35948447D01*
X94480178Y-35948438D01*
X94364061Y-35832321D01*
X94364052Y-35832314D01*
X94222696Y-35748717D01*
X94222693Y-35748716D01*
X94064995Y-35702900D01*
X94064989Y-35702899D01*
X94028149Y-35700000D01*
X93700000Y-35700000D01*
X93700000Y-37300000D01*
X94028134Y-37300000D01*
X94028149Y-37299999D01*
X94064992Y-37297100D01*
X94160285Y-37269413D01*
X94192651Y-37245257D01*
X94235819Y-37237500D01*
X95516000Y-37237500D01*
X95583039Y-37257185D01*
X95628794Y-37309989D01*
X95640000Y-37361500D01*
X95640000Y-37613500D01*
X95620315Y-37680539D01*
X95567511Y-37726294D01*
X95516000Y-37737500D01*
X94407725Y-37737500D01*
X94344604Y-37720232D01*
X94222896Y-37648255D01*
X94222893Y-37648254D01*
X94065073Y-37602402D01*
X94065067Y-37602401D01*
X94028201Y-37599500D01*
X94028194Y-37599500D01*
X93310862Y-37599500D01*
X93243823Y-37579815D01*
X93223181Y-37563181D01*
X93167681Y-37507681D01*
X93134196Y-37446358D01*
X93139180Y-37376666D01*
X93167681Y-37332319D01*
X93200000Y-37300000D01*
X93200000Y-35700000D01*
X92871850Y-35700000D01*
X92835010Y-35702899D01*
X92835004Y-35702900D01*
X92677306Y-35748716D01*
X92677305Y-35748716D01*
X92587120Y-35802051D01*
X92519396Y-35819233D01*
X92453134Y-35797072D01*
X92409371Y-35742606D01*
X92400000Y-35695318D01*
X92400000Y-35661677D01*
X94700000Y-35661677D01*
X94700000Y-35710000D01*
X95400000Y-35710000D01*
X95400000Y-34984999D01*
X95376693Y-34985000D01*
X95376674Y-34985001D01*
X95277392Y-34995144D01*
X95116518Y-35048452D01*
X95116507Y-35048457D01*
X94972271Y-35137424D01*
X94972267Y-35137427D01*
X94852427Y-35257267D01*
X94852424Y-35257271D01*
X94763457Y-35401507D01*
X94763452Y-35401518D01*
X94710144Y-35562393D01*
X94700000Y-35661677D01*
X92400000Y-35661677D01*
X92400000Y-31727844D01*
X95400000Y-31727844D01*
X95406401Y-31787372D01*
X95406403Y-31787379D01*
X95456645Y-31922086D01*
X95456649Y-31922093D01*
X95542809Y-32037187D01*
X95542812Y-32037190D01*
X95657906Y-32123350D01*
X95657913Y-32123354D01*
X95792620Y-32173596D01*
X95792627Y-32173598D01*
X95852155Y-32179999D01*
X95852172Y-32180000D01*
X96550000Y-32180000D01*
X97050000Y-32180000D01*
X97747828Y-32180000D01*
X97747844Y-32179999D01*
X97807372Y-32173598D01*
X97807379Y-32173596D01*
X97942086Y-32123354D01*
X97942093Y-32123350D01*
X98057187Y-32037190D01*
X98057190Y-32037187D01*
X98143350Y-31922093D01*
X98143354Y-31922086D01*
X98193596Y-31787379D01*
X98193598Y-31787372D01*
X98199999Y-31727844D01*
X98200000Y-31727827D01*
X98200000Y-30130000D01*
X97050000Y-30130000D01*
X97050000Y-32180000D01*
X96550000Y-32180000D01*
X96550000Y-30130000D01*
X95400000Y-30130000D01*
X95400000Y-31727844D01*
X92400000Y-31727844D01*
X92400000Y-28811362D01*
X92419685Y-28744323D01*
X92436319Y-28723681D01*
X93127845Y-28032155D01*
X95400000Y-28032155D01*
X95400000Y-29630000D01*
X96550000Y-29630000D01*
X96550000Y-27580000D01*
X95852155Y-27580000D01*
X95792627Y-27586401D01*
X95792620Y-27586403D01*
X95657913Y-27636645D01*
X95657906Y-27636649D01*
X95542812Y-27722809D01*
X95542809Y-27722812D01*
X95456649Y-27837906D01*
X95456645Y-27837913D01*
X95406403Y-27972620D01*
X95406401Y-27972627D01*
X95400000Y-28032155D01*
X93127845Y-28032155D01*
X93853681Y-27306319D01*
X93915004Y-27272834D01*
X93941362Y-27270000D01*
X97728638Y-27270000D01*
X97795677Y-27289685D01*
G37*
%TD.AperFunction*%
%TD*%
%TA.AperFunction,Conductor*%
%TO.N,+13V*%
G36*
X91265000Y-47369999D02*
G01*
X91389972Y-47369999D01*
X91389986Y-47369998D01*
X91492697Y-47359505D01*
X91659119Y-47304358D01*
X91659124Y-47304356D01*
X91808345Y-47212315D01*
X91932315Y-47088345D01*
X91974471Y-47020000D01*
X92350000Y-47020000D01*
X92935734Y-47020000D01*
X93002773Y-47039685D01*
X93041271Y-47078901D01*
X93047288Y-47088656D01*
X93171344Y-47212712D01*
X93320666Y-47304814D01*
X93487203Y-47359999D01*
X93589991Y-47370500D01*
X94340008Y-47370499D01*
X94340016Y-47370498D01*
X94340019Y-47370498D01*
X94396302Y-47364748D01*
X94442797Y-47359999D01*
X94609334Y-47304814D01*
X94758656Y-47212712D01*
X94882712Y-47088656D01*
X94888729Y-47078901D01*
X94940677Y-47032178D01*
X94994266Y-47020000D01*
X95146000Y-47020000D01*
X95213039Y-47039685D01*
X95258794Y-47092489D01*
X95270000Y-47144000D01*
X95270000Y-47902844D01*
X95276401Y-47962372D01*
X95276403Y-47962379D01*
X95295159Y-48012667D01*
X95300143Y-48082359D01*
X95266658Y-48143682D01*
X95205334Y-48177166D01*
X95178977Y-48180000D01*
X90680000Y-48180000D01*
X90410000Y-47910000D01*
X90410000Y-47700000D01*
X90740001Y-47369999D01*
X90764999Y-47369999D01*
X90765000Y-47369998D01*
X90765000Y-47345000D01*
X91090000Y-47020000D01*
X91265000Y-47020000D01*
X91265000Y-47369999D01*
G37*
%TD.AperFunction*%
%TD*%
%TA.AperFunction,Conductor*%
%TO.N,GND*%
G36*
X98792539Y-24380185D02*
G01*
X98838294Y-24432989D01*
X98849500Y-24484500D01*
X98849500Y-27352697D01*
X98829815Y-27419736D01*
X98777011Y-27465491D01*
X98707853Y-27475435D01*
X98669998Y-27463582D01*
X98549992Y-27403515D01*
X98549971Y-27403506D01*
X98479486Y-27380049D01*
X98480130Y-27378111D01*
X98427259Y-27346318D01*
X98402330Y-27305694D01*
X98378758Y-27242496D01*
X98359826Y-27191737D01*
X98326341Y-27130414D01*
X98240117Y-27015233D01*
X98173761Y-26948877D01*
X98173737Y-26948855D01*
X98133519Y-26912728D01*
X98133507Y-26912718D01*
X98112856Y-26896076D01*
X98068974Y-26864433D01*
X97938100Y-26804663D01*
X97871055Y-26784976D01*
X97823582Y-26778150D01*
X97728638Y-26764500D01*
X93941362Y-26764500D01*
X93941360Y-26764500D01*
X93887311Y-26767397D01*
X93887310Y-26767397D01*
X93860977Y-26770229D01*
X93860950Y-26770232D01*
X93807554Y-26778885D01*
X93807552Y-26778885D01*
X93672747Y-26829166D01*
X93611422Y-26862651D01*
X93496240Y-26948876D01*
X93496228Y-26948886D01*
X92417680Y-28027434D01*
X92356357Y-28060919D01*
X92286665Y-28055935D01*
X92242318Y-28027434D01*
X91273776Y-27058892D01*
X91273770Y-27058886D01*
X91273761Y-27058877D01*
X91273737Y-27058855D01*
X91233519Y-27022728D01*
X91233507Y-27022718D01*
X91212856Y-27006076D01*
X91168974Y-26974433D01*
X91038100Y-26914663D01*
X91031510Y-26912728D01*
X90971058Y-26894977D01*
X90971060Y-26894977D01*
X90971055Y-26894976D01*
X90923582Y-26888150D01*
X90828638Y-26874500D01*
X88941278Y-26874500D01*
X88941274Y-26874500D01*
X88816260Y-26890203D01*
X88756843Y-26905368D01*
X88639590Y-26951501D01*
X88524410Y-27037725D01*
X88524398Y-27037735D01*
X88479862Y-27082272D01*
X88478694Y-27083318D01*
X88475003Y-27087129D01*
X88388774Y-27202319D01*
X88338497Y-27337122D01*
X88338495Y-27337129D01*
X88323646Y-27405390D01*
X88323645Y-27405400D01*
X88323645Y-27405401D01*
X88319485Y-27463582D01*
X88319430Y-27464345D01*
X88295014Y-27529809D01*
X88239081Y-27571681D01*
X88195746Y-27579500D01*
X87405814Y-27579500D01*
X87338775Y-27559815D01*
X87293020Y-27507011D01*
X87281814Y-27455500D01*
X87281814Y-27449706D01*
X87281814Y-27449703D01*
X87271870Y-27380545D01*
X87231335Y-27242496D01*
X87153547Y-27121457D01*
X87123808Y-27087136D01*
X87107798Y-27068659D01*
X87107794Y-27068656D01*
X87107792Y-27068653D01*
X86999058Y-26974433D01*
X86999055Y-26974431D01*
X86999053Y-26974430D01*
X86868187Y-26914664D01*
X86868182Y-26914662D01*
X86868181Y-26914662D01*
X86801142Y-26894977D01*
X86801144Y-26894977D01*
X86801139Y-26894976D01*
X86753666Y-26888150D01*
X86658722Y-26874500D01*
X85971362Y-26874500D01*
X85971360Y-26874500D01*
X85917311Y-26877397D01*
X85917310Y-26877397D01*
X85890977Y-26880229D01*
X85890950Y-26880232D01*
X85837554Y-26888885D01*
X85837552Y-26888885D01*
X85702747Y-26939166D01*
X85641422Y-26972651D01*
X85526240Y-27058876D01*
X85526228Y-27058886D01*
X84218892Y-28366223D01*
X84218855Y-28366262D01*
X84182728Y-28406480D01*
X84182718Y-28406492D01*
X84166076Y-28427143D01*
X84134433Y-28471025D01*
X84074663Y-28601899D01*
X84054976Y-28668944D01*
X84034500Y-28811363D01*
X84034500Y-35159996D01*
X84034820Y-35177978D01*
X84035139Y-35186894D01*
X84036103Y-35204880D01*
X84036105Y-35204895D01*
X84066686Y-35345471D01*
X84066688Y-35345478D01*
X84081847Y-35386122D01*
X84091105Y-35410943D01*
X84091107Y-35410947D01*
X84152334Y-35523075D01*
X84160056Y-35537217D01*
X84261793Y-35638957D01*
X84261796Y-35638959D01*
X84317726Y-35680829D01*
X84317731Y-35680833D01*
X84317742Y-35680840D01*
X84371147Y-35710000D01*
X84434926Y-35744825D01*
X84484331Y-35794228D01*
X84499500Y-35853657D01*
X84499500Y-37860001D01*
X84499501Y-37860018D01*
X84510000Y-37962796D01*
X84510001Y-37962799D01*
X84565185Y-38129331D01*
X84565187Y-38129336D01*
X84585325Y-38161985D01*
X84657288Y-38278656D01*
X84781344Y-38402712D01*
X84930666Y-38494814D01*
X85097203Y-38549999D01*
X85199991Y-38560500D01*
X88100008Y-38560499D01*
X88202797Y-38549999D01*
X88369334Y-38494814D01*
X88518656Y-38402712D01*
X88642712Y-38278656D01*
X88642714Y-38278652D01*
X88642978Y-38278320D01*
X88643217Y-38278150D01*
X88647819Y-38273549D01*
X88648605Y-38274335D01*
X88699999Y-38237942D01*
X88766603Y-38234063D01*
X88784436Y-38237942D01*
X88844607Y-38251031D01*
X88905576Y-38255391D01*
X88914297Y-38256015D01*
X88914299Y-38256015D01*
X88914300Y-38256015D01*
X88923878Y-38255329D01*
X89057810Y-38245751D01*
X89192619Y-38195469D01*
X89253942Y-38161984D01*
X89369123Y-38075760D01*
X89806054Y-37638827D01*
X89867377Y-37605343D01*
X89937068Y-37610327D01*
X89993002Y-37652198D01*
X90012453Y-37696749D01*
X90013632Y-37696407D01*
X90061216Y-37860193D01*
X90061220Y-37860203D01*
X90061927Y-37861398D01*
X90062195Y-37862454D01*
X90064316Y-37867356D01*
X90063524Y-37867698D01*
X90079103Y-37929123D01*
X90063493Y-37982284D01*
X90063855Y-37982441D01*
X90062587Y-37985369D01*
X90061927Y-37987620D01*
X90060759Y-37989594D01*
X90060754Y-37989607D01*
X90014902Y-38147426D01*
X90014901Y-38147432D01*
X90012000Y-38184298D01*
X90012000Y-38615701D01*
X90014901Y-38652567D01*
X90014902Y-38652573D01*
X90060754Y-38810393D01*
X90060755Y-38810396D01*
X90144232Y-38951550D01*
X90144418Y-38951864D01*
X90144423Y-38951870D01*
X90260629Y-39068076D01*
X90260638Y-39068083D01*
X90371193Y-39133465D01*
X90418877Y-39184534D01*
X90431380Y-39253276D01*
X90404735Y-39317865D01*
X90395754Y-39327878D01*
X90292287Y-39431345D01*
X90200187Y-39580663D01*
X90200186Y-39580666D01*
X90145001Y-39747203D01*
X90145001Y-39747204D01*
X90145000Y-39747204D01*
X90134500Y-39849983D01*
X90134500Y-40850001D01*
X90134501Y-40850019D01*
X90145000Y-40952796D01*
X90145001Y-40952799D01*
X90190938Y-41091425D01*
X90200186Y-41119334D01*
X90292096Y-41268345D01*
X90292289Y-41268657D01*
X90369626Y-41345994D01*
X90403111Y-41407317D01*
X90398127Y-41477009D01*
X90356255Y-41532942D01*
X90345066Y-41540407D01*
X90212405Y-41618862D01*
X90212396Y-41618869D01*
X90098869Y-41732396D01*
X90098862Y-41732405D01*
X90075599Y-41771742D01*
X90024530Y-41819426D01*
X89955788Y-41831929D01*
X89891199Y-41805283D01*
X89881186Y-41796302D01*
X89309658Y-41224774D01*
X89281157Y-41180426D01*
X89270831Y-41152741D01*
X89270829Y-41152737D01*
X89237350Y-41091425D01*
X89237349Y-41091424D01*
X89237347Y-41091420D01*
X89151123Y-40976239D01*
X89151118Y-40976234D01*
X89151113Y-40976228D01*
X88983776Y-40808892D01*
X88983770Y-40808886D01*
X88983761Y-40808877D01*
X88983737Y-40808855D01*
X88943519Y-40772728D01*
X88943507Y-40772718D01*
X88922856Y-40756076D01*
X88878974Y-40724433D01*
X88748100Y-40664663D01*
X88681055Y-40644976D01*
X88633582Y-40638150D01*
X88538638Y-40624500D01*
X84691362Y-40624500D01*
X84691360Y-40624500D01*
X84637311Y-40627397D01*
X84637310Y-40627397D01*
X84610977Y-40630229D01*
X84610950Y-40630232D01*
X84557554Y-40638885D01*
X84557552Y-40638885D01*
X84422747Y-40689166D01*
X84361422Y-40722651D01*
X84246240Y-40808876D01*
X84246228Y-40808886D01*
X83908892Y-41146223D01*
X83908855Y-41146262D01*
X83872728Y-41186480D01*
X83872718Y-41186492D01*
X83856076Y-41207143D01*
X83824433Y-41251025D01*
X83764663Y-41381899D01*
X83744976Y-41448944D01*
X83724500Y-41591363D01*
X83724500Y-46948640D01*
X83727397Y-47002688D01*
X83727397Y-47002689D01*
X83730229Y-47029022D01*
X83730232Y-47029049D01*
X83738885Y-47082445D01*
X83738885Y-47082447D01*
X83789166Y-47217252D01*
X83789168Y-47217257D01*
X83822653Y-47278580D01*
X83908877Y-47393761D01*
X83908881Y-47393765D01*
X83908886Y-47393771D01*
X84477598Y-47962482D01*
X85016239Y-48501123D01*
X85016255Y-48501137D01*
X85016262Y-48501144D01*
X85056480Y-48537271D01*
X85056492Y-48537281D01*
X85056500Y-48537288D01*
X85077142Y-48553922D01*
X85121026Y-48585567D01*
X85251903Y-48645338D01*
X85318942Y-48665023D01*
X85318946Y-48665024D01*
X85461362Y-48685500D01*
X85461365Y-48685500D01*
X95178979Y-48685500D01*
X95184665Y-48685195D01*
X95233019Y-48682603D01*
X95259376Y-48679769D01*
X95312777Y-48671116D01*
X95447586Y-48620837D01*
X95506989Y-48588401D01*
X95508447Y-48587639D01*
X95508904Y-48587356D01*
X95508910Y-48587353D01*
X95508918Y-48587349D01*
X95624100Y-48501125D01*
X95695917Y-48405187D01*
X95751851Y-48363317D01*
X95795184Y-48355499D01*
X97517871Y-48355499D01*
X97517872Y-48355499D01*
X97577483Y-48349091D01*
X97712331Y-48298796D01*
X97827546Y-48212546D01*
X97913796Y-48097331D01*
X97964091Y-47962483D01*
X97970500Y-47902873D01*
X97970499Y-46107128D01*
X97964091Y-46047517D01*
X97959817Y-46036059D01*
X97913797Y-45912671D01*
X97913793Y-45912664D01*
X97827547Y-45797455D01*
X97827544Y-45797452D01*
X97712335Y-45711206D01*
X97712328Y-45711202D01*
X97580401Y-45661997D01*
X97524467Y-45620126D01*
X97500050Y-45554662D01*
X97514902Y-45486389D01*
X97536053Y-45458133D01*
X97658108Y-45336078D01*
X97793600Y-45142578D01*
X97893429Y-44928492D01*
X97893432Y-44928486D01*
X97950636Y-44715000D01*
X97053012Y-44715000D01*
X97085925Y-44657993D01*
X97120000Y-44530826D01*
X97120000Y-44399174D01*
X97085925Y-44272007D01*
X97053012Y-44215000D01*
X97950636Y-44215000D01*
X97950635Y-44214999D01*
X97893432Y-44001513D01*
X97893429Y-44001507D01*
X97793600Y-43787422D01*
X97793599Y-43787420D01*
X97658113Y-43593926D01*
X97658108Y-43593920D01*
X97491078Y-43426890D01*
X97305405Y-43296879D01*
X97261780Y-43242302D01*
X97254588Y-43172804D01*
X97286110Y-43110449D01*
X97305406Y-43093730D01*
X97491401Y-42963495D01*
X97658495Y-42796401D01*
X97794035Y-42602830D01*
X97893903Y-42388663D01*
X97955063Y-42160408D01*
X97975659Y-41925000D01*
X97955063Y-41689592D01*
X97893903Y-41461337D01*
X97794035Y-41247171D01*
X97766008Y-41207143D01*
X97658494Y-41053597D01*
X97491402Y-40886506D01*
X97491401Y-40886505D01*
X97328911Y-40772728D01*
X97298376Y-40751347D01*
X97254751Y-40696770D01*
X97245500Y-40649772D01*
X97245500Y-38785241D01*
X97245501Y-38785220D01*
X97245501Y-38650784D01*
X97245500Y-38650758D01*
X97245500Y-37058999D01*
X97265185Y-36991960D01*
X97317989Y-36946205D01*
X97369500Y-36934999D01*
X97473308Y-36934999D01*
X97473322Y-36934998D01*
X97572607Y-36924855D01*
X97733481Y-36871547D01*
X97733492Y-36871542D01*
X97877728Y-36782575D01*
X97877732Y-36782572D01*
X97997572Y-36662732D01*
X97997575Y-36662728D01*
X98086542Y-36518492D01*
X98086547Y-36518481D01*
X98139855Y-36357606D01*
X98149999Y-36258322D01*
X98150000Y-36258309D01*
X98150000Y-36210000D01*
X97074000Y-36210000D01*
X97006961Y-36190315D01*
X96961206Y-36137511D01*
X96950000Y-36086000D01*
X96950000Y-35834000D01*
X96969685Y-35766961D01*
X97022489Y-35721206D01*
X97074000Y-35710000D01*
X98149999Y-35710000D01*
X98149999Y-35661692D01*
X98149998Y-35661677D01*
X98139855Y-35562392D01*
X98086547Y-35401518D01*
X98086542Y-35401507D01*
X97997575Y-35257271D01*
X97997572Y-35257267D01*
X97877732Y-35137427D01*
X97877728Y-35137424D01*
X97733492Y-35048457D01*
X97733481Y-35048452D01*
X97572607Y-34995144D01*
X97557407Y-34993591D01*
X97492716Y-34967194D01*
X97452566Y-34910012D01*
X97449704Y-34840201D01*
X97482329Y-34782555D01*
X98477442Y-33787443D01*
X98477442Y-33787442D01*
X98637821Y-33627062D01*
X98699142Y-33593580D01*
X98768834Y-33598564D01*
X98824767Y-33640436D01*
X98849184Y-33705900D01*
X98849500Y-33714746D01*
X98849500Y-48815500D01*
X98829815Y-48882539D01*
X98777011Y-48928294D01*
X98725500Y-48939500D01*
X83234500Y-48939500D01*
X83167461Y-48919815D01*
X83121706Y-48867011D01*
X83110500Y-48815500D01*
X83110500Y-24484500D01*
X83130185Y-24417461D01*
X83182989Y-24371706D01*
X83234500Y-24360500D01*
X98725500Y-24360500D01*
X98792539Y-24380185D01*
G37*
%TD.AperFunction*%
%TA.AperFunction,Conductor*%
G36*
X94156445Y-39904186D02*
G01*
X94180048Y-39913963D01*
X94226505Y-39923203D01*
X94288417Y-39955588D01*
X94307853Y-39979723D01*
X94331925Y-40018749D01*
X94347288Y-40043656D01*
X94471344Y-40167712D01*
X94620666Y-40259814D01*
X94787203Y-40314999D01*
X94889991Y-40325500D01*
X95870500Y-40325499D01*
X95937539Y-40345183D01*
X95983294Y-40397987D01*
X95994500Y-40449499D01*
X95994500Y-40649773D01*
X95974815Y-40716812D01*
X95941623Y-40751348D01*
X95748597Y-40886505D01*
X95581505Y-41053597D01*
X95445965Y-41247169D01*
X95445964Y-41247171D01*
X95346098Y-41461335D01*
X95346094Y-41461344D01*
X95284938Y-41689586D01*
X95284936Y-41689596D01*
X95264341Y-41924999D01*
X95264341Y-41925000D01*
X95284936Y-42160403D01*
X95284938Y-42160413D01*
X95346094Y-42388655D01*
X95346096Y-42388659D01*
X95346097Y-42388663D01*
X95438008Y-42585766D01*
X95445965Y-42602830D01*
X95445967Y-42602834D01*
X95581501Y-42796395D01*
X95581506Y-42796402D01*
X95748597Y-42963493D01*
X95748603Y-42963498D01*
X95934594Y-43093730D01*
X95978219Y-43148307D01*
X95985413Y-43217805D01*
X95953890Y-43280160D01*
X95934595Y-43296880D01*
X95748922Y-43426890D01*
X95748920Y-43426891D01*
X95581891Y-43593920D01*
X95581886Y-43593926D01*
X95446400Y-43787420D01*
X95446399Y-43787422D01*
X95346570Y-44001507D01*
X95346566Y-44001516D01*
X95285432Y-44229673D01*
X95285430Y-44229683D01*
X95279572Y-44296643D01*
X95254119Y-44361712D01*
X95197528Y-44402690D01*
X95127766Y-44406568D01*
X95066982Y-44372113D01*
X95034475Y-44310266D01*
X95032686Y-44298435D01*
X95029506Y-44267303D01*
X94974358Y-44100880D01*
X94974356Y-44100875D01*
X94882315Y-43951654D01*
X94758345Y-43827684D01*
X94609124Y-43735643D01*
X94609119Y-43735641D01*
X94442697Y-43680494D01*
X94442690Y-43680493D01*
X94339986Y-43670000D01*
X94215000Y-43670000D01*
X94215000Y-45270000D01*
X95039999Y-45270000D01*
X95039999Y-44725733D01*
X95059684Y-44658694D01*
X95112488Y-44612939D01*
X95181646Y-44602995D01*
X95245202Y-44632020D01*
X95282976Y-44690798D01*
X95283984Y-44695104D01*
X95284030Y-44695092D01*
X95346566Y-44928483D01*
X95346570Y-44928492D01*
X95446399Y-45142578D01*
X95581894Y-45336082D01*
X95703946Y-45458134D01*
X95737431Y-45519457D01*
X95732447Y-45589149D01*
X95690575Y-45645082D01*
X95659598Y-45661997D01*
X95527671Y-45711202D01*
X95527664Y-45711206D01*
X95412455Y-45797452D01*
X95412452Y-45797455D01*
X95326206Y-45912664D01*
X95326202Y-45912671D01*
X95280182Y-46036059D01*
X95238311Y-46091993D01*
X95172847Y-46116410D01*
X95104574Y-46101558D01*
X95055168Y-46052153D01*
X95040000Y-45992726D01*
X95040000Y-45770000D01*
X93839000Y-45770000D01*
X93771961Y-45750315D01*
X93726206Y-45697511D01*
X93715000Y-45646000D01*
X93715000Y-43670000D01*
X93590027Y-43670000D01*
X93590009Y-43670001D01*
X93487940Y-43680428D01*
X93419247Y-43667658D01*
X93368363Y-43619777D01*
X93354954Y-43586794D01*
X93354704Y-43585784D01*
X93353001Y-43578884D01*
X93288414Y-43450315D01*
X93249164Y-43393957D01*
X93248592Y-43393117D01*
X93248484Y-43392980D01*
X93248480Y-43392974D01*
X93150286Y-43287811D01*
X93026441Y-43214571D01*
X93026439Y-43214570D01*
X92961858Y-43187928D01*
X92961845Y-43187924D01*
X92844006Y-43158028D01*
X92783866Y-43122462D01*
X92752502Y-43060028D01*
X92750500Y-43037836D01*
X92750500Y-43025317D01*
X92750499Y-43025302D01*
X92747643Y-42989008D01*
X92747642Y-42989002D01*
X92702495Y-42833609D01*
X92702495Y-42833608D01*
X92702494Y-42833607D01*
X92702494Y-42833605D01*
X92690379Y-42813120D01*
X92673196Y-42745399D01*
X92690379Y-42686880D01*
X92702494Y-42666395D01*
X92747643Y-42510993D01*
X92750500Y-42474690D01*
X92750500Y-42065310D01*
X92747643Y-42029007D01*
X92702494Y-41873605D01*
X92656777Y-41796302D01*
X92621777Y-41737119D01*
X92604594Y-41669395D01*
X92626754Y-41603132D01*
X92681220Y-41559369D01*
X92721015Y-41551482D01*
X92722499Y-41549999D01*
X93222500Y-41549999D01*
X93284972Y-41549999D01*
X93284986Y-41549998D01*
X93387697Y-41539505D01*
X93554119Y-41484358D01*
X93554124Y-41484356D01*
X93703345Y-41392315D01*
X93827315Y-41268345D01*
X93919356Y-41119124D01*
X93919358Y-41119119D01*
X93974505Y-40952697D01*
X93974506Y-40952690D01*
X93984999Y-40849986D01*
X93985000Y-40849973D01*
X93985000Y-40600000D01*
X93222500Y-40600000D01*
X93222500Y-41549999D01*
X92722499Y-41549999D01*
X92722500Y-41549998D01*
X92722500Y-40224000D01*
X92742185Y-40156961D01*
X92794989Y-40111206D01*
X92846500Y-40100000D01*
X93984999Y-40100000D01*
X93984999Y-40018749D01*
X94004684Y-39951710D01*
X94057488Y-39905955D01*
X94126646Y-39896011D01*
X94156445Y-39904186D01*
G37*
%TD.AperFunction*%
%TA.AperFunction,Conductor*%
G36*
X92488852Y-37140129D02*
G01*
X92528512Y-37164530D01*
X92529469Y-37163298D01*
X92535632Y-37168078D01*
X92535635Y-37168081D01*
X92535637Y-37168082D01*
X92579817Y-37194210D01*
X92627500Y-37245279D01*
X92640004Y-37314020D01*
X92637863Y-37327297D01*
X92634968Y-37340603D01*
X92634968Y-37340607D01*
X92629984Y-37410298D01*
X92629984Y-37410300D01*
X92640248Y-37553811D01*
X92642134Y-37562481D01*
X92640294Y-37562881D01*
X92644482Y-37621509D01*
X92610991Y-37682829D01*
X92586441Y-37701871D01*
X92535637Y-37731917D01*
X92529469Y-37736702D01*
X92528164Y-37735019D01*
X92476454Y-37763246D01*
X92406763Y-37758251D01*
X92359058Y-37726247D01*
X92334796Y-37700000D01*
X92069315Y-37700000D01*
X92006194Y-37682732D01*
X92002094Y-37680307D01*
X91947898Y-37648256D01*
X91947897Y-37648255D01*
X91947896Y-37648255D01*
X91947893Y-37648254D01*
X91790073Y-37602402D01*
X91790067Y-37602401D01*
X91753201Y-37599500D01*
X91753194Y-37599500D01*
X91049000Y-37599500D01*
X90981961Y-37579815D01*
X90936206Y-37527011D01*
X90925000Y-37475500D01*
X90925000Y-37458177D01*
X90944685Y-37391138D01*
X90980104Y-37355078D01*
X91030508Y-37321398D01*
X91097183Y-37300520D01*
X91099399Y-37300500D01*
X91753186Y-37300500D01*
X91753194Y-37300500D01*
X91790069Y-37297598D01*
X91790071Y-37297597D01*
X91790073Y-37297597D01*
X91831691Y-37285505D01*
X91947898Y-37251744D01*
X92006194Y-37217268D01*
X92069315Y-37200000D01*
X92334794Y-37200000D01*
X92359057Y-37173752D01*
X92419018Y-37137885D01*
X92488852Y-37140129D01*
G37*
%TD.AperFunction*%
%TD*%
M02*
