%TF.GenerationSoftware,KiCad,Pcbnew,8.0.4*%
%TF.CreationDate,2024-12-02T13:52:29-05:00*%
%TF.ProjectId,13vconvertertest,31337663-6f6e-4766-9572-746572746573,rev?*%
%TF.SameCoordinates,Original*%
%TF.FileFunction,Copper,L2,Bot*%
%TF.FilePolarity,Positive*%
%FSLAX46Y46*%
G04 Gerber Fmt 4.6, Leading zero omitted, Abs format (unit mm)*
G04 Created by KiCad (PCBNEW 8.0.4) date 2024-12-02 13:52:29*
%MOMM*%
%LPD*%
G01*
G04 APERTURE LIST*
%TA.AperFunction,ComponentPad*%
%ADD10R,1.700000X1.700000*%
%TD*%
%TA.AperFunction,ComponentPad*%
%ADD11O,1.700000X1.700000*%
%TD*%
G04 APERTURE END LIST*
D10*
%TO.P,J1,1,Pin_1*%
%TO.N,+13V*%
X96620000Y-47005000D03*
D11*
%TO.P,J1,2,Pin_2*%
%TO.N,GND*%
X96620000Y-44465000D03*
%TO.P,J1,3,Pin_3*%
%TO.N,+3.3V*%
X96620000Y-41925000D03*
%TD*%
%TA.AperFunction,Conductor*%
%TO.N,GND*%
G36*
X98792539Y-24380185D02*
G01*
X98838294Y-24432989D01*
X98849500Y-24484500D01*
X98849500Y-48815500D01*
X98829815Y-48882539D01*
X98777011Y-48928294D01*
X98725500Y-48939500D01*
X83234500Y-48939500D01*
X83167461Y-48919815D01*
X83121706Y-48867011D01*
X83110500Y-48815500D01*
X83110500Y-41924999D01*
X95264341Y-41924999D01*
X95264341Y-41925000D01*
X95284936Y-42160403D01*
X95284938Y-42160413D01*
X95346094Y-42388655D01*
X95346096Y-42388659D01*
X95346097Y-42388663D01*
X95445965Y-42602830D01*
X95445967Y-42602834D01*
X95581501Y-42796395D01*
X95581506Y-42796402D01*
X95748597Y-42963493D01*
X95748603Y-42963498D01*
X95934594Y-43093730D01*
X95978219Y-43148307D01*
X95985413Y-43217805D01*
X95953890Y-43280160D01*
X95934595Y-43296880D01*
X95748922Y-43426890D01*
X95748920Y-43426891D01*
X95581891Y-43593920D01*
X95581886Y-43593926D01*
X95446400Y-43787420D01*
X95446399Y-43787422D01*
X95346570Y-44001507D01*
X95346567Y-44001513D01*
X95289364Y-44214999D01*
X95289364Y-44215000D01*
X96186988Y-44215000D01*
X96154075Y-44272007D01*
X96120000Y-44399174D01*
X96120000Y-44530826D01*
X96154075Y-44657993D01*
X96186988Y-44715000D01*
X95289364Y-44715000D01*
X95346567Y-44928486D01*
X95346570Y-44928492D01*
X95446399Y-45142578D01*
X95581894Y-45336082D01*
X95703946Y-45458134D01*
X95737431Y-45519457D01*
X95732447Y-45589149D01*
X95690575Y-45645082D01*
X95659598Y-45661997D01*
X95527671Y-45711202D01*
X95527664Y-45711206D01*
X95412455Y-45797452D01*
X95412452Y-45797455D01*
X95326206Y-45912664D01*
X95326202Y-45912671D01*
X95275908Y-46047517D01*
X95269501Y-46107116D01*
X95269501Y-46107123D01*
X95269500Y-46107135D01*
X95269500Y-47902870D01*
X95269501Y-47902876D01*
X95275908Y-47962483D01*
X95326202Y-48097328D01*
X95326206Y-48097335D01*
X95412452Y-48212544D01*
X95412455Y-48212547D01*
X95527664Y-48298793D01*
X95527671Y-48298797D01*
X95662517Y-48349091D01*
X95662516Y-48349091D01*
X95669444Y-48349835D01*
X95722127Y-48355500D01*
X97517872Y-48355499D01*
X97577483Y-48349091D01*
X97712331Y-48298796D01*
X97827546Y-48212546D01*
X97913796Y-48097331D01*
X97964091Y-47962483D01*
X97970500Y-47902873D01*
X97970499Y-46107128D01*
X97964091Y-46047517D01*
X97913796Y-45912669D01*
X97913795Y-45912668D01*
X97913793Y-45912664D01*
X97827547Y-45797455D01*
X97827544Y-45797452D01*
X97712335Y-45711206D01*
X97712328Y-45711202D01*
X97580401Y-45661997D01*
X97524467Y-45620126D01*
X97500050Y-45554662D01*
X97514902Y-45486389D01*
X97536053Y-45458133D01*
X97658108Y-45336078D01*
X97793600Y-45142578D01*
X97893429Y-44928492D01*
X97893432Y-44928486D01*
X97950636Y-44715000D01*
X97053012Y-44715000D01*
X97085925Y-44657993D01*
X97120000Y-44530826D01*
X97120000Y-44399174D01*
X97085925Y-44272007D01*
X97053012Y-44215000D01*
X97950636Y-44215000D01*
X97950635Y-44214999D01*
X97893432Y-44001513D01*
X97893429Y-44001507D01*
X97793600Y-43787422D01*
X97793599Y-43787420D01*
X97658113Y-43593926D01*
X97658108Y-43593920D01*
X97491078Y-43426890D01*
X97305405Y-43296879D01*
X97261780Y-43242302D01*
X97254588Y-43172804D01*
X97286110Y-43110449D01*
X97305406Y-43093730D01*
X97491401Y-42963495D01*
X97658495Y-42796401D01*
X97794035Y-42602830D01*
X97893903Y-42388663D01*
X97955063Y-42160408D01*
X97975659Y-41925000D01*
X97955063Y-41689592D01*
X97893903Y-41461337D01*
X97794035Y-41247171D01*
X97658495Y-41053599D01*
X97658494Y-41053597D01*
X97491402Y-40886506D01*
X97491395Y-40886501D01*
X97297834Y-40750967D01*
X97297830Y-40750965D01*
X97297828Y-40750964D01*
X97083663Y-40651097D01*
X97083659Y-40651096D01*
X97083655Y-40651094D01*
X96855413Y-40589938D01*
X96855403Y-40589936D01*
X96620001Y-40569341D01*
X96619999Y-40569341D01*
X96384596Y-40589936D01*
X96384586Y-40589938D01*
X96156344Y-40651094D01*
X96156335Y-40651098D01*
X95942171Y-40750964D01*
X95942169Y-40750965D01*
X95748597Y-40886505D01*
X95581505Y-41053597D01*
X95445965Y-41247169D01*
X95445964Y-41247171D01*
X95346098Y-41461335D01*
X95346094Y-41461344D01*
X95284938Y-41689586D01*
X95284936Y-41689596D01*
X95264341Y-41924999D01*
X83110500Y-41924999D01*
X83110500Y-24484500D01*
X83130185Y-24417461D01*
X83182989Y-24371706D01*
X83234500Y-24360500D01*
X98725500Y-24360500D01*
X98792539Y-24380185D01*
G37*
%TD.AperFunction*%
%TD*%
M02*
