%TF.GenerationSoftware,KiCad,Pcbnew,8.0.4*%
%TF.CreationDate,2024-09-09T11:17:31-04:00*%
%TF.ProjectId,payload_board_rev072,7061796c-6f61-4645-9f62-6f6172645f72,rev?*%
%TF.SameCoordinates,Original*%
%TF.FileFunction,Soldermask,Bot*%
%TF.FilePolarity,Negative*%
%FSLAX46Y46*%
G04 Gerber Fmt 4.6, Leading zero omitted, Abs format (unit mm)*
G04 Created by KiCad (PCBNEW 8.0.4) date 2024-09-09 11:17:31*
%MOMM*%
%LPD*%
G01*
G04 APERTURE LIST*
G04 Aperture macros list*
%AMRoundRect*
0 Rectangle with rounded corners*
0 $1 Rounding radius*
0 $2 $3 $4 $5 $6 $7 $8 $9 X,Y pos of 4 corners*
0 Add a 4 corners polygon primitive as box body*
4,1,4,$2,$3,$4,$5,$6,$7,$8,$9,$2,$3,0*
0 Add four circle primitives for the rounded corners*
1,1,$1+$1,$2,$3*
1,1,$1+$1,$4,$5*
1,1,$1+$1,$6,$7*
1,1,$1+$1,$8,$9*
0 Add four rect primitives between the rounded corners*
20,1,$1+$1,$2,$3,$4,$5,0*
20,1,$1+$1,$4,$5,$6,$7,0*
20,1,$1+$1,$6,$7,$8,$9,0*
20,1,$1+$1,$8,$9,$2,$3,0*%
G04 Aperture macros list end*
%ADD10R,1.700000X1.700000*%
%ADD11O,1.700000X1.700000*%
%ADD12C,5.250000*%
%ADD13C,3.352400*%
%ADD14O,2.568400X1.360400*%
%ADD15RoundRect,0.140000X-0.140000X-0.170000X0.140000X-0.170000X0.140000X0.170000X-0.140000X0.170000X0*%
%ADD16R,0.600000X1.000000*%
%ADD17R,1.250000X1.800000*%
%ADD18RoundRect,0.150000X-0.512500X-0.150000X0.512500X-0.150000X0.512500X0.150000X-0.512500X0.150000X0*%
%ADD19RoundRect,0.140000X0.140000X0.170000X-0.140000X0.170000X-0.140000X-0.170000X0.140000X-0.170000X0*%
%ADD20RoundRect,0.250000X-0.400000X-0.625000X0.400000X-0.625000X0.400000X0.625000X-0.400000X0.625000X0*%
%ADD21R,1.500000X1.500000*%
%ADD22R,0.900000X0.800000*%
%ADD23RoundRect,0.150000X0.625000X-0.150000X0.625000X0.150000X-0.625000X0.150000X-0.625000X-0.150000X0*%
%ADD24RoundRect,0.250000X0.650000X-0.350000X0.650000X0.350000X-0.650000X0.350000X-0.650000X-0.350000X0*%
G04 APERTURE END LIST*
D10*
%TO.C,J5*%
X75800000Y-49700000D03*
D11*
X73260000Y-49700000D03*
X70720000Y-49700000D03*
X68180000Y-49700000D03*
X65640000Y-49700000D03*
X63100000Y-49700000D03*
X60560000Y-49700000D03*
X58020000Y-49700000D03*
X55480000Y-49700000D03*
X52940000Y-49700000D03*
X50400000Y-49700000D03*
%TD*%
D12*
%TO.C,*%
X103000000Y-63000000D03*
%TD*%
D10*
%TO.C,J2*%
X99314000Y-87376000D03*
D11*
X99314000Y-84836000D03*
X99314000Y-82296000D03*
X99314000Y-79756000D03*
X99314000Y-77216000D03*
X99314000Y-74676000D03*
X99314000Y-72136000D03*
X99314000Y-69596000D03*
%TD*%
D13*
%TO.C,*%
X82127052Y-50714652D03*
%TD*%
D10*
%TO.C,J15*%
X85852000Y-101092000D03*
D11*
X83312000Y-101092000D03*
X80772000Y-101092000D03*
X78232000Y-101092000D03*
X75692000Y-101092000D03*
X73152000Y-101092000D03*
%TD*%
D10*
%TO.C,J_Burn*%
X38188800Y-39318800D03*
X40728800Y-40878800D03*
X40728800Y-43418800D03*
X38188800Y-44688800D03*
D11*
X33108800Y-39318800D03*
D10*
X30568800Y-40878800D03*
X30568800Y-43418800D03*
D11*
X33108800Y-44688800D03*
%TD*%
D12*
%TO.C,*%
X90000000Y-36000000D03*
%TD*%
D10*
%TO.C,J12*%
X95865000Y-50780000D03*
D11*
X93325000Y-50780000D03*
%TD*%
D12*
%TO.C,*%
X23000000Y-63000000D03*
%TD*%
D10*
%TO.C,J12*%
X33885000Y-100320000D03*
D11*
X31345000Y-100320000D03*
%TD*%
D14*
%TO.C,J7*%
X14700000Y-72567500D03*
X14700000Y-80467500D03*
%TD*%
D12*
%TO.C,J2*%
X63000000Y-103000000D03*
%TD*%
D13*
%TO.C,*%
X44027052Y-87544652D03*
%TD*%
%TO.C,*%
X44027052Y-50714652D03*
%TD*%
%TO.C,*%
X82127052Y-87544652D03*
%TD*%
D15*
%TO.C,C10*%
X37590000Y-81650000D03*
X38550000Y-81650000D03*
%TD*%
D16*
%TO.C,J8*%
X34531200Y-55488100D03*
X36031200Y-55488100D03*
D17*
X31926200Y-50298100D03*
X38636200Y-50298100D03*
%TD*%
D18*
%TO.C,U4*%
X94082500Y-86142000D03*
X94082500Y-85192000D03*
X94082500Y-84242000D03*
X96357500Y-84242000D03*
X96357500Y-86142000D03*
%TD*%
D19*
%TO.C,C4*%
X38550000Y-80725000D03*
X37590000Y-80725000D03*
%TD*%
D20*
%TO.C,R14*%
X93670000Y-82321800D03*
X96770000Y-82321800D03*
%TD*%
D21*
%TO.C,TGND3*%
X93580000Y-97440000D03*
%TD*%
D22*
%TO.C,Q1*%
X87954000Y-83246000D03*
X87954000Y-81346000D03*
X90354000Y-82296000D03*
%TD*%
D23*
%TO.C,J6*%
X24440000Y-97610000D03*
X24440000Y-96610000D03*
X24440000Y-95610000D03*
X24440000Y-94610000D03*
D24*
X20565000Y-98910000D03*
X20565000Y-93310000D03*
%TD*%
D15*
%TO.C,C17*%
X95250000Y-87376000D03*
X96210000Y-87376000D03*
%TD*%
D12*
%TO.C,J5*%
X63000000Y-23000000D03*
%TD*%
M02*
