%TF.GenerationSoftware,KiCad,Pcbnew,8.0.4*%
%TF.CreationDate,2024-09-09T11:17:31-04:00*%
%TF.ProjectId,payload_board_rev072,7061796c-6f61-4645-9f62-6f6172645f72,rev?*%
%TF.SameCoordinates,Original*%
%TF.FileFunction,Paste,Top*%
%TF.FilePolarity,Positive*%
%FSLAX46Y46*%
G04 Gerber Fmt 4.6, Leading zero omitted, Abs format (unit mm)*
G04 Created by KiCad (PCBNEW 8.0.4) date 2024-09-09 11:17:31*
%MOMM*%
%LPD*%
G01*
G04 APERTURE LIST*
G04 Aperture macros list*
%AMRoundRect*
0 Rectangle with rounded corners*
0 $1 Rounding radius*
0 $2 $3 $4 $5 $6 $7 $8 $9 X,Y pos of 4 corners*
0 Add a 4 corners polygon primitive as box body*
4,1,4,$2,$3,$4,$5,$6,$7,$8,$9,$2,$3,0*
0 Add four circle primitives for the rounded corners*
1,1,$1+$1,$2,$3*
1,1,$1+$1,$4,$5*
1,1,$1+$1,$6,$7*
1,1,$1+$1,$8,$9*
0 Add four rect primitives between the rounded corners*
20,1,$1+$1,$2,$3,$4,$5,0*
20,1,$1+$1,$4,$5,$6,$7,0*
20,1,$1+$1,$6,$7,$8,$9,0*
20,1,$1+$1,$8,$9,$2,$3,0*%
G04 Aperture macros list end*
%ADD10C,0.000000*%
%ADD11RoundRect,0.140000X0.140000X0.170000X-0.140000X0.170000X-0.140000X-0.170000X0.140000X-0.170000X0*%
%ADD12R,0.177800X0.812800*%
%ADD13R,0.812800X0.177800*%
%ADD14RoundRect,0.250000X0.625000X-0.400000X0.625000X0.400000X-0.625000X0.400000X-0.625000X-0.400000X0*%
%ADD15RoundRect,0.140000X-0.170000X0.140000X-0.170000X-0.140000X0.170000X-0.140000X0.170000X0.140000X0*%
%ADD16RoundRect,0.135000X-0.135000X-0.185000X0.135000X-0.185000X0.135000X0.185000X-0.135000X0.185000X0*%
%ADD17RoundRect,0.135000X0.135000X0.185000X-0.135000X0.185000X-0.135000X-0.185000X0.135000X-0.185000X0*%
%ADD18RoundRect,0.135000X0.226274X0.035355X0.035355X0.226274X-0.226274X-0.035355X-0.035355X-0.226274X0*%
%ADD19RoundRect,0.140000X0.170000X-0.140000X0.170000X0.140000X-0.170000X0.140000X-0.170000X-0.140000X0*%
%ADD20RoundRect,0.243750X-0.243750X-0.456250X0.243750X-0.456250X0.243750X0.456250X-0.243750X0.456250X0*%
%ADD21RoundRect,0.243750X0.243750X0.456250X-0.243750X0.456250X-0.243750X-0.456250X0.243750X-0.456250X0*%
%ADD22RoundRect,0.135000X-0.226274X-0.035355X-0.035355X-0.226274X0.226274X0.035355X0.035355X0.226274X0*%
%ADD23RoundRect,0.250000X0.700036X0.084853X0.084853X0.700036X-0.700036X-0.084853X-0.084853X-0.700036X0*%
%ADD24RoundRect,0.112500X0.362392X-0.203293X-0.203293X0.362392X-0.362392X0.203293X0.203293X-0.362392X0*%
%ADD25RoundRect,0.250000X-0.650000X0.412500X-0.650000X-0.412500X0.650000X-0.412500X0.650000X0.412500X0*%
%ADD26RoundRect,0.150000X-0.150000X0.512500X-0.150000X-0.512500X0.150000X-0.512500X0.150000X0.512500X0*%
%ADD27RoundRect,0.140000X-0.140000X-0.170000X0.140000X-0.170000X0.140000X0.170000X-0.140000X0.170000X0*%
%ADD28RoundRect,0.250000X0.250000X0.250000X-0.250000X0.250000X-0.250000X-0.250000X0.250000X-0.250000X0*%
%ADD29RoundRect,0.135000X-0.185000X0.135000X-0.185000X-0.135000X0.185000X-0.135000X0.185000X0.135000X0*%
%ADD30RoundRect,0.135000X0.185000X-0.135000X0.185000X0.135000X-0.185000X0.135000X-0.185000X-0.135000X0*%
%ADD31R,1.850000X0.900000*%
%ADD32R,1.850000X3.200000*%
%ADD33RoundRect,0.150000X0.825000X0.150000X-0.825000X0.150000X-0.825000X-0.150000X0.825000X-0.150000X0*%
%ADD34R,0.900000X1.000000*%
%ADD35RoundRect,0.140000X-0.219203X-0.021213X-0.021213X-0.219203X0.219203X0.021213X0.021213X0.219203X0*%
%ADD36R,1.380000X0.450000*%
%ADD37R,2.100000X1.475000*%
%ADD38R,1.900000X1.375000*%
%ADD39R,2.400000X2.000000*%
%ADD40RoundRect,0.250000X0.412500X0.650000X-0.412500X0.650000X-0.412500X-0.650000X0.412500X-0.650000X0*%
G04 APERTURE END LIST*
D10*
%TO.C,IC1*%
G36*
X30816400Y-81550000D02*
G01*
X29416200Y-81550000D01*
X29416200Y-80149800D01*
X30816400Y-80149800D01*
X30816400Y-81550000D01*
G37*
G36*
X30816400Y-83150200D02*
G01*
X29416200Y-83150200D01*
X29416200Y-81750000D01*
X30816400Y-81750000D01*
X30816400Y-83150200D01*
G37*
G36*
X32416600Y-81550000D02*
G01*
X31016400Y-81550000D01*
X31016400Y-80149800D01*
X32416600Y-80149800D01*
X32416600Y-81550000D01*
G37*
G36*
X32416600Y-83150200D02*
G01*
X31016400Y-83150200D01*
X31016400Y-81750000D01*
X32416600Y-81750000D01*
X32416600Y-83150200D01*
G37*
%TD*%
D11*
%TO.C,C8*%
X24690000Y-80540000D03*
X23730000Y-80540000D03*
%TD*%
D12*
%TO.C,IC1*%
X28316400Y-85053600D03*
X28716399Y-85053600D03*
X29116401Y-85053600D03*
X29516400Y-85053600D03*
X29916399Y-85053600D03*
X30316401Y-85053600D03*
X30716400Y-85053600D03*
X31116400Y-85053600D03*
X31516399Y-85053600D03*
X31916401Y-85053600D03*
X32316400Y-85053600D03*
X32716399Y-85053600D03*
X33116401Y-85053600D03*
X33516400Y-85053600D03*
D13*
X34320000Y-84250000D03*
X34320000Y-83850001D03*
X34320000Y-83449999D03*
X34320000Y-83050000D03*
X34320000Y-82650001D03*
X34320000Y-82249999D03*
X34320000Y-81850000D03*
X34320000Y-81450000D03*
X34320000Y-81050001D03*
X34320000Y-80649999D03*
X34320000Y-80250000D03*
X34320000Y-79850001D03*
X34320000Y-79449999D03*
X34320000Y-79050000D03*
D12*
X33516400Y-78246400D03*
X33116401Y-78246400D03*
X32716399Y-78246400D03*
X32316400Y-78246400D03*
X31916401Y-78246400D03*
X31516399Y-78246400D03*
X31116400Y-78246400D03*
X30716400Y-78246400D03*
X30316401Y-78246400D03*
X29916399Y-78246400D03*
X29516400Y-78246400D03*
X29116401Y-78246400D03*
X28716399Y-78246400D03*
X28316400Y-78246400D03*
D13*
X27512800Y-79050000D03*
X27512800Y-79449999D03*
X27512800Y-79850001D03*
X27512800Y-80250000D03*
X27512800Y-80649999D03*
X27512800Y-81050001D03*
X27512800Y-81450000D03*
X27512800Y-81850000D03*
X27512800Y-82249999D03*
X27512800Y-82650001D03*
X27512800Y-83050000D03*
X27512800Y-83449999D03*
X27512800Y-83850001D03*
X27512800Y-84250000D03*
%TD*%
D14*
%TO.C,R13*%
X52981405Y-46914400D03*
X52981405Y-43814400D03*
%TD*%
D15*
%TO.C,C2*%
X36837500Y-79610000D03*
X36837500Y-78650000D03*
%TD*%
D16*
%TO.C,R7*%
X20115000Y-90975000D03*
X21135000Y-90975000D03*
%TD*%
D17*
%TO.C,R10*%
X32320000Y-61900000D03*
X31300000Y-61900000D03*
%TD*%
D18*
%TO.C,R5*%
X25605624Y-78335624D03*
X24884376Y-77614376D03*
%TD*%
D19*
%TO.C,C7*%
X31931999Y-76138200D03*
X31931999Y-75178200D03*
%TD*%
D20*
%TO.C,D2*%
X30482500Y-60030000D03*
X32357500Y-60030000D03*
%TD*%
D21*
%TO.C,D3*%
X32147500Y-57890000D03*
X30272500Y-57890000D03*
%TD*%
D22*
%TO.C,R3*%
X19064376Y-88614376D03*
X19785624Y-89335624D03*
%TD*%
D19*
%TO.C,C16*%
X58240000Y-46490000D03*
X58240000Y-45530000D03*
%TD*%
D23*
%TO.C,U1*%
X21835786Y-88189214D03*
X23250000Y-86775000D03*
X20633704Y-86987132D03*
X22047918Y-85572918D03*
D24*
X22601229Y-90234520D03*
X23499255Y-89336494D03*
X24397280Y-88438469D03*
X25295306Y-87540443D03*
X21282475Y-83527612D03*
X20384449Y-84425638D03*
X19486424Y-85323663D03*
X18588398Y-86221689D03*
%TD*%
D25*
%TO.C,C13*%
X35450000Y-55567500D03*
X35450000Y-58692500D03*
%TD*%
D26*
%TO.C,U3*%
X56761005Y-44196000D03*
X55811005Y-44196000D03*
X54861005Y-44196000D03*
X54861005Y-46471000D03*
X56761005Y-46471000D03*
%TD*%
D27*
%TO.C,C5*%
X24470000Y-81525000D03*
X25430000Y-81525000D03*
%TD*%
D22*
%TO.C,R6*%
X24184376Y-78464376D03*
X24905624Y-79185624D03*
%TD*%
D21*
%TO.C,D4*%
X32161600Y-55727800D03*
X30286600Y-55727800D03*
%TD*%
D28*
%TO.C,D1*%
X23400000Y-92500000D03*
X20900000Y-92500000D03*
%TD*%
D15*
%TO.C,C14*%
X26320000Y-76520000D03*
X26320000Y-77480000D03*
%TD*%
D29*
%TO.C,R2*%
X36807500Y-80630000D03*
X36807500Y-81650000D03*
%TD*%
D19*
%TO.C,C1*%
X36922500Y-82730000D03*
X36922500Y-83690000D03*
%TD*%
D30*
%TO.C,R12*%
X28788000Y-55674000D03*
X28788000Y-54654000D03*
%TD*%
D19*
%TO.C,C15*%
X28570000Y-76405000D03*
X28570000Y-75445000D03*
%TD*%
D31*
%TO.C,IC2*%
X29400000Y-48140000D03*
X29400000Y-50440000D03*
X29400000Y-52740000D03*
D32*
X35600000Y-50440000D03*
%TD*%
D17*
%TO.C,R1*%
X39550000Y-76550000D03*
X38530000Y-76550000D03*
%TD*%
D33*
%TO.C,U2*%
X49654000Y-107188000D03*
X49654000Y-105918000D03*
X49654000Y-104648000D03*
X49654000Y-103378000D03*
X44704000Y-103378000D03*
X44704000Y-104648000D03*
X44704000Y-105918000D03*
X44704000Y-107188000D03*
%TD*%
D34*
%TO.C,SW2*%
X30970000Y-105118000D03*
X35070000Y-105118000D03*
X30970000Y-106718000D03*
X35070000Y-106718000D03*
%TD*%
D16*
%TO.C,R2*%
X41583127Y-105975039D03*
X42603127Y-105975039D03*
%TD*%
D35*
%TO.C,C11*%
X32680589Y-87290589D03*
X33359411Y-87969411D03*
%TD*%
D36*
%TO.C,J7*%
X17360000Y-77817500D03*
X17360000Y-77167500D03*
X17360000Y-76517500D03*
X17360000Y-75867500D03*
X17360000Y-75217500D03*
D37*
X17000000Y-74055000D03*
D38*
X14700000Y-75580000D03*
X14700000Y-77455000D03*
D37*
X17000000Y-78980000D03*
%TD*%
D30*
%TO.C,R11*%
X27772000Y-55674000D03*
X27772000Y-54654000D03*
%TD*%
D15*
%TO.C,C6*%
X27320000Y-75645000D03*
X27320000Y-76605000D03*
%TD*%
%TO.C,C9*%
X28125000Y-86470000D03*
X28125000Y-87430000D03*
%TD*%
D39*
%TO.C,Y1*%
X39322500Y-79572500D03*
X39322500Y-83272500D03*
%TD*%
D18*
%TO.C,R4*%
X19040000Y-90060000D03*
X18318752Y-89338752D03*
%TD*%
D34*
%TO.C,SW1*%
X20940000Y-94750000D03*
X25040000Y-94750000D03*
X20940000Y-96350000D03*
X25040000Y-96350000D03*
%TD*%
D18*
%TO.C,R8*%
X33380624Y-90022624D03*
X32659376Y-89301376D03*
%TD*%
D40*
%TO.C,C12*%
X25282500Y-50780000D03*
X22157500Y-50780000D03*
%TD*%
M02*
