M48
; DRILL file {KiCad 8.0.4} date 2024-09-09T11:17:46-0400
; FORMAT={-:-/ absolute / inch / decimal}
; #@! TF.CreationDate,2024-09-09T11:17:46-04:00
; #@! TF.GenerationSoftware,Kicad,Pcbnew,8.0.4
; #@! TF.FileFunction,Plated,1,4,PTH
FMAT,2
INCH
; #@! TA.AperFunction,Plated,PTH,ViaDrill
T1C0.0098
; #@! TA.AperFunction,Plated,PTH,ComponentDrill
T2C0.0276
; #@! TA.AperFunction,Plated,PTH,ComponentDrill
T3C0.0394
; #@! TA.AperFunction,Plated,PTH,ComponentDrill
T4C0.0984
; #@! TA.AperFunction,Plated,PTH,ComponentDrill
T5C0.1161
%
G90
G05
T1
X0.7146Y-3.2713
X0.7402Y-2.8339
X0.7591Y-3.8016
X0.7953Y-3.1043
X0.8748Y-3.0126
X0.902Y-1.8118
X0.9307Y-3.0673
X0.9776Y-3.365
X0.9898Y-3.6299
X1.0024Y-3.172
X1.0024Y-3.8929
X1.0197Y-3.5902
X1.0197Y-3.6744
X1.0669Y-3.8433
X1.0898Y-3.6287
X1.1083Y-3.4701
X1.1264Y-3.222
X1.1303Y-3.6094
X1.152Y-3.0366
X1.1606Y-3.572
X1.1744Y-2.8898
X1.2102Y-3.0098
X1.2106Y-2.4776
X1.2299Y-3.5299
X1.237Y-3.4811
X1.2374Y-3.1276
X1.2854Y-2.7736
X1.2949Y-3.2965
X1.3421Y-3.4917
X1.3492Y-3.4
X1.3598Y-3.6094
X1.3724Y-2.9272
X1.3846Y-3.3295
X1.3878Y-3.1988
X1.3898Y-3.4008
X1.4102Y-3.1752
X1.4142Y-3.1382
X1.4161Y-3.2654
X1.4437Y-3.4094
X1.4634Y-3.3362
X1.4827Y-3.3598
X1.4843Y-2.0957
X1.5075Y-2.985
X1.5539Y-3.9425
X1.6087Y-3.0303
X1.6287Y-4.1181
X1.6319Y-2.8047
X1.6933Y-2.8185
X1.7402Y-3.6398
X1.9201Y-3.2902
X1.9673Y-2.7638
X2.0Y-3.7799
X2.0224Y-4.1709
X2.1248Y-1.6571
X2.2996Y-1.7299
X2.3362Y-1.8417
X2.7803Y-3.3898
X3.0587Y-3.4988
X3.4055Y-3.1886
X3.4094Y-3.2701
X3.5091Y-3.5898
X3.5799Y-3.4613
X3.6Y-3.1898
T3
X1.2035Y-1.6094
X1.2035Y-1.7094
X1.2341Y-3.9496
X1.3035Y-1.548
X1.3035Y-1.7594
X1.3341Y-3.9496
X1.5035Y-1.548
X1.5035Y-1.7594
X1.6035Y-1.6094
X1.6035Y-1.7094
X1.9843Y-1.9567
X2.0843Y-1.9567
X2.1843Y-1.9567
X2.2843Y-1.9567
X2.3843Y-1.9567
X2.4843Y-1.9567
X2.5843Y-1.9567
X2.6843Y-1.9567
X2.7843Y-1.9567
X2.88Y-3.98
X2.8843Y-1.9567
X2.98Y-3.98
X2.9843Y-1.9567
X3.08Y-3.98
X3.18Y-3.98
X3.28Y-3.98
X3.38Y-3.98
X3.6742Y-1.9992
X3.7742Y-1.9992
X3.91Y-2.74
X3.91Y-2.84
X3.91Y-2.94
X3.91Y-3.04
X3.91Y-3.14
X3.91Y-3.24
X3.91Y-3.34
X3.91Y-3.44
T4
X1.7333Y-1.9966
X1.7333Y-3.4466
X3.2333Y-1.9966
X3.2333Y-3.4466
T5
X0.9055Y-2.4803
X2.4803Y-0.9055
X2.4803Y-4.0551
X3.5433Y-1.4173
X4.0551Y-2.4803
T2
G00X0.5906Y-2.857
M15
G01X0.5669Y-2.857
M16
G05
G00X0.5906Y-3.168
M15
G01X0.5669Y-3.168
M16
G05
M30
