%TF.GenerationSoftware,KiCad,Pcbnew,8.0.4*%
%TF.CreationDate,2024-09-09T11:17:31-04:00*%
%TF.ProjectId,payload_board_rev072,7061796c-6f61-4645-9f62-6f6172645f72,rev?*%
%TF.SameCoordinates,Original*%
%TF.FileFunction,Copper,L4,Bot*%
%TF.FilePolarity,Positive*%
%FSLAX46Y46*%
G04 Gerber Fmt 4.6, Leading zero omitted, Abs format (unit mm)*
G04 Created by KiCad (PCBNEW 8.0.4) date 2024-09-09 11:17:31*
%MOMM*%
%LPD*%
G01*
G04 APERTURE LIST*
G04 Aperture macros list*
%AMRoundRect*
0 Rectangle with rounded corners*
0 $1 Rounding radius*
0 $2 $3 $4 $5 $6 $7 $8 $9 X,Y pos of 4 corners*
0 Add a 4 corners polygon primitive as box body*
4,1,4,$2,$3,$4,$5,$6,$7,$8,$9,$2,$3,0*
0 Add four circle primitives for the rounded corners*
1,1,$1+$1,$2,$3*
1,1,$1+$1,$4,$5*
1,1,$1+$1,$6,$7*
1,1,$1+$1,$8,$9*
0 Add four rect primitives between the rounded corners*
20,1,$1+$1,$2,$3,$4,$5,0*
20,1,$1+$1,$4,$5,$6,$7,0*
20,1,$1+$1,$6,$7,$8,$9,0*
20,1,$1+$1,$8,$9,$2,$3,0*%
G04 Aperture macros list end*
%TA.AperFunction,ComponentPad*%
%ADD10R,1.700000X1.700000*%
%TD*%
%TA.AperFunction,ComponentPad*%
%ADD11O,1.700000X1.700000*%
%TD*%
%TA.AperFunction,ComponentPad*%
%ADD12C,5.250000*%
%TD*%
%TA.AperFunction,ComponentPad*%
%ADD13C,3.200000*%
%TD*%
%TA.AperFunction,ComponentPad*%
%ADD14O,2.416000X1.208000*%
%TD*%
%TA.AperFunction,SMDPad,CuDef*%
%ADD15RoundRect,0.140000X-0.140000X-0.170000X0.140000X-0.170000X0.140000X0.170000X-0.140000X0.170000X0*%
%TD*%
%TA.AperFunction,SMDPad,CuDef*%
%ADD16R,0.600000X1.000000*%
%TD*%
%TA.AperFunction,SMDPad,CuDef*%
%ADD17R,1.250000X1.800000*%
%TD*%
%TA.AperFunction,SMDPad,CuDef*%
%ADD18RoundRect,0.150000X-0.512500X-0.150000X0.512500X-0.150000X0.512500X0.150000X-0.512500X0.150000X0*%
%TD*%
%TA.AperFunction,SMDPad,CuDef*%
%ADD19RoundRect,0.140000X0.140000X0.170000X-0.140000X0.170000X-0.140000X-0.170000X0.140000X-0.170000X0*%
%TD*%
%TA.AperFunction,SMDPad,CuDef*%
%ADD20RoundRect,0.250000X-0.400000X-0.625000X0.400000X-0.625000X0.400000X0.625000X-0.400000X0.625000X0*%
%TD*%
%TA.AperFunction,SMDPad,CuDef*%
%ADD21R,1.500000X1.500000*%
%TD*%
%TA.AperFunction,SMDPad,CuDef*%
%ADD22R,0.900000X0.800000*%
%TD*%
%TA.AperFunction,SMDPad,CuDef*%
%ADD23RoundRect,0.150000X0.625000X-0.150000X0.625000X0.150000X-0.625000X0.150000X-0.625000X-0.150000X0*%
%TD*%
%TA.AperFunction,SMDPad,CuDef*%
%ADD24RoundRect,0.250000X0.650000X-0.350000X0.650000X0.350000X-0.650000X0.350000X-0.650000X-0.350000X0*%
%TD*%
%TA.AperFunction,ViaPad*%
%ADD25C,0.550000*%
%TD*%
%TA.AperFunction,Conductor*%
%ADD26C,0.381000*%
%TD*%
%TA.AperFunction,Conductor*%
%ADD27C,0.152400*%
%TD*%
%TA.AperFunction,Conductor*%
%ADD28C,0.635000*%
%TD*%
G04 APERTURE END LIST*
D10*
%TO.P,J5,1,Pin_1*%
%TO.N,SPI0_MOSI*%
X75800000Y-49700000D03*
D11*
%TO.P,J5,2,Pin_2*%
%TO.N,SPI0_SCK*%
X73260000Y-49700000D03*
%TO.P,J5,3,Pin_3*%
%TO.N,Disp_DC*%
X70720000Y-49700000D03*
%TO.P,J5,4,Pin_4*%
%TO.N,Disp_RST*%
X68180000Y-49700000D03*
%TO.P,J5,5,Pin_5*%
%TO.N,SPI0_CS_DISP*%
X65640000Y-49700000D03*
%TO.P,J5,6,Pin_6*%
%TO.N,SPI0_CS_SD*%
X63100000Y-49700000D03*
%TO.P,J5,7,Pin_7*%
%TO.N,SPI0_MISO*%
X60560000Y-49700000D03*
%TO.P,J5,8,Pin_8*%
%TO.N,SD_IND*%
X58020000Y-49700000D03*
%TO.P,J5,9,Pin_9*%
%TO.N,/3Vo*%
X55480000Y-49700000D03*
%TO.P,J5,10,Pin_10*%
%TO.N,DIN-*%
X52940000Y-49700000D03*
%TO.P,J5,11,Pin_11*%
%TO.N,GND*%
X50400000Y-49700000D03*
%TD*%
D12*
%TO.P,,1,DAT2*%
%TO.N,GND*%
X103000000Y-63000000D03*
%TD*%
D10*
%TO.P,J2,1,Pin_1*%
%TO.N,I2C1_SCL*%
X99314000Y-87376000D03*
D11*
%TO.P,J2,2,Pin_2*%
%TO.N,I2C1_SDA*%
X99314000Y-84836000D03*
%TO.P,J2,3,Pin_3*%
%TO.N,CIN-*%
X99314000Y-82296000D03*
%TO.P,J2,4,Pin_4*%
%TO.N,GND*%
X99314000Y-79756000D03*
%TO.P,J2,5,Pin_5*%
%TO.N,SPI1_SCK_Cam*%
X99314000Y-77216000D03*
%TO.P,J2,6,Pin_6*%
%TO.N,SPI1_MISO_Cam*%
X99314000Y-74676000D03*
%TO.P,J2,7,Pin_7*%
%TO.N,SPI1_MOSI_Cam*%
X99314000Y-72136000D03*
%TO.P,J2,8,Pin_8*%
%TO.N,SPI1_CS_Cam*%
X99314000Y-69596000D03*
%TD*%
D13*
%TO.P,,P$1*%
%TO.N,GND*%
X82127052Y-50714652D03*
%TD*%
D10*
%TO.P,J15,1,Pin_1*%
%TO.N,SWCLK*%
X85852000Y-101092000D03*
D11*
%TO.P,J15,2,Pin_2*%
%TO.N,GND*%
X83312000Y-101092000D03*
%TO.P,J15,3*%
%TO.N,SWDIO*%
X80772000Y-101092000D03*
%TO.P,J15,4*%
%TO.N,UART1_TX*%
X78232000Y-101092000D03*
%TO.P,J15,5*%
%TO.N,GND*%
X75692000Y-101092000D03*
%TO.P,J15,6*%
%TO.N,UART1_RX*%
X73152000Y-101092000D03*
%TD*%
D10*
%TO.P,J_Burn,1*%
%TO.N,BGND*%
X38188800Y-39318800D03*
X40728800Y-40878800D03*
X40728800Y-43418800D03*
X38188800Y-44688800D03*
D11*
%TO.P,J_Burn,2*%
%TO.N,BPWR*%
X33108800Y-39318800D03*
D10*
X30568800Y-40878800D03*
X30568800Y-43418800D03*
D11*
X33108800Y-44688800D03*
%TD*%
D12*
%TO.P,,1,In*%
%TO.N,N/C*%
X90000000Y-36000000D03*
%TD*%
D10*
%TO.P,J12,1,Pin_1*%
%TO.N,GND*%
X95865000Y-50780000D03*
D11*
%TO.P,J12,2,Pin_2*%
%TO.N,+3.3V*%
X93325000Y-50780000D03*
%TD*%
D12*
%TO.P,,1,Pin_1*%
%TO.N,GND*%
X23000000Y-63000000D03*
%TD*%
D10*
%TO.P,J12,1,Pin_1*%
%TO.N,Break_SCL*%
X33885000Y-100320000D03*
D11*
%TO.P,J12,2,Pin_2*%
%TO.N,Break_SDA*%
X31345000Y-100320000D03*
%TD*%
D14*
%TO.P,J7,SH1*%
%TO.N,N/C*%
X14700000Y-72567500D03*
%TO.P,J7,SH6*%
X14700000Y-80467500D03*
%TD*%
D12*
%TO.P,J2,1,VTref*%
%TO.N,GND*%
X63000000Y-103000000D03*
%TD*%
D13*
%TO.P,,P$1*%
%TO.N,GND*%
X44027052Y-87544652D03*
%TD*%
%TO.P,,P$1*%
%TO.N,GND*%
X44027052Y-50714652D03*
%TD*%
%TO.P,,P$1*%
%TO.N,GND*%
X82127052Y-87544652D03*
%TD*%
D15*
%TO.P,C10,1,1*%
%TO.N,+3.3V*%
X37590000Y-81650000D03*
%TO.P,C10,2,2*%
%TO.N,GND*%
X38550000Y-81650000D03*
%TD*%
D16*
%TO.P,J8,1,Pin_1*%
%TO.N,BPWR*%
X34531200Y-55488100D03*
%TO.P,J8,2,Pin_2*%
%TO.N,BGND*%
X36031200Y-55488100D03*
D17*
%TO.P,J8,S1*%
%TO.N,N/C*%
X31926200Y-50298100D03*
%TO.P,J8,S2*%
X38636200Y-50298100D03*
%TD*%
D18*
%TO.P,U4,1*%
%TO.N,ADC1*%
X94082500Y-86142000D03*
%TO.P,U4,2,GND*%
%TO.N,GND*%
X94082500Y-85192000D03*
%TO.P,U4,3,+*%
%TO.N,Cam_3.3v*%
X94082500Y-84242000D03*
%TO.P,U4,4,-*%
%TO.N,CIN-*%
X96357500Y-84242000D03*
%TO.P,U4,5,V+*%
%TO.N,Cam_3.3v*%
X96357500Y-86142000D03*
%TD*%
D19*
%TO.P,C4,1,1*%
%TO.N,GND*%
X38550000Y-80725000D03*
%TO.P,C4,2,2*%
%TO.N,1.2V*%
X37590000Y-80725000D03*
%TD*%
D20*
%TO.P,R14,1,1*%
%TO.N,Cam_3.3v*%
X93670000Y-82321800D03*
%TO.P,R14,2,2*%
%TO.N,CIN-*%
X96770000Y-82321800D03*
%TD*%
D21*
%TO.P,TGND3,1,P$1*%
%TO.N,GND*%
X93580000Y-97440000D03*
%TD*%
D22*
%TO.P,Q1,1,G*%
%TO.N,Cam_RST*%
X87954000Y-83246000D03*
%TO.P,Q1,2,S*%
%TO.N,+3.3V*%
X87954000Y-81346000D03*
%TO.P,Q1,3,D*%
%TO.N,Cam_3.3v*%
X90354000Y-82296000D03*
%TD*%
D23*
%TO.P,J6,1,1*%
%TO.N,GND*%
X24440000Y-97610000D03*
%TO.P,J6,2,2*%
%TO.N,+3.3V*%
X24440000Y-96610000D03*
%TO.P,J6,3,3*%
%TO.N,Break_SDA*%
X24440000Y-95610000D03*
%TO.P,J6,4,4*%
%TO.N,Break_SCL*%
X24440000Y-94610000D03*
D24*
%TO.P,J6,MP*%
%TO.N,N/C*%
X20565000Y-98910000D03*
X20565000Y-93310000D03*
%TD*%
D15*
%TO.P,C17,1,1*%
%TO.N,GND*%
X95250000Y-87376000D03*
%TO.P,C17,2,2*%
%TO.N,Cam_3.3v*%
X96210000Y-87376000D03*
%TD*%
D12*
%TO.P,J5,1,Pin_1*%
%TO.N,GND*%
X63000000Y-23000000D03*
%TD*%
D25*
%TO.N,GND*%
X22910000Y-46020000D03*
X19280000Y-96560000D03*
%TO.N,Cam_3.3v*%
X90930040Y-87917700D03*
%TO.N,GND*%
X25460000Y-98880000D03*
X35970000Y-82940000D03*
X24830000Y-85470000D03*
X28150000Y-88140000D03*
%TO.N,/~{RESET}*%
X38290000Y-75820000D03*
%TO.N,+3.3V*%
X32650000Y-70450000D03*
X40860000Y-76970000D03*
X51370000Y-105940000D03*
X86500000Y-80990000D03*
X27100000Y-97620000D03*
X18150000Y-83090000D03*
X25460000Y-80570000D03*
X31430000Y-79440000D03*
X59340000Y-46780000D03*
X53970000Y-42090000D03*
X37700000Y-53230000D03*
%TO.N,GND*%
X34090000Y-88690000D03*
%TO.N,1.2V*%
X35250000Y-81250000D03*
X28610000Y-81840000D03*
%TO.N,Break_SDA*%
X25900000Y-91190000D03*
%TO.N,Break_SCL*%
X25900000Y-93330000D03*
%TO.N,I2C1_SDA*%
X50800000Y-96010000D03*
X27680000Y-92170000D03*
X89130000Y-91180000D03*
%TO.N,I2C1_SCL*%
X28710000Y-91680000D03*
%TO.N,Cam_RST*%
X70620000Y-86100000D03*
X34540000Y-91680000D03*
X36670000Y-86600000D03*
X86600000Y-83060000D03*
%TO.N,SPI1_SCK_Cam*%
X34270000Y-86360000D03*
%TO.N,SPI1_MOSI_Cam*%
X35300000Y-86380000D03*
X48770000Y-83570000D03*
%TO.N,Disp_RST*%
X31420000Y-88420000D03*
%TO.N,/USBBOOT*%
X35170000Y-84570000D03*
X25140000Y-92200000D03*
%TO.N,Disp_DC*%
X37660000Y-85340000D03*
%TO.N,SWCLK*%
X35820000Y-80650000D03*
X77690000Y-88870000D03*
%TO.N,SWDIO*%
X35920000Y-79710000D03*
%TO.N,/~{RESET}*%
X39470000Y-100140000D03*
%TO.N,SPI0_MISO*%
X43010000Y-71590000D03*
%TO.N,SPI0_CS_SD*%
X41450000Y-71240000D03*
%TO.N,SPI0_SCK*%
X49970000Y-70200000D03*
%TO.N,WDT_WDI*%
X41370000Y-104600000D03*
X34860000Y-74350000D03*
%TO.N,ADC0*%
X58410000Y-43940000D03*
X29830000Y-73400000D03*
%TO.N,ADC1*%
X29260000Y-77130000D03*
%TO.N,Cam_3.3v*%
X91440000Y-81020000D03*
%TO.N,+3.3V*%
X32890000Y-83730000D03*
%TO.N,SD_IND*%
X37170000Y-84740000D03*
%TO.N,VBUS*%
X20200000Y-78850000D03*
X18800000Y-71980000D03*
%TO.N,/D+*%
X23640000Y-77910000D03*
X22220000Y-76520000D03*
%TO.N,UART1_TX*%
X29480000Y-90730000D03*
%TO.N,UART1_RX*%
X31240000Y-89660000D03*
X44200000Y-92450000D03*
%TO.N,Net-(IC1-GPIO25)*%
X30740000Y-76450000D03*
X30750000Y-62930000D03*
%TD*%
D26*
%TO.N,VBUS*%
X18800000Y-77450000D02*
X18800000Y-71980000D01*
X20200000Y-78850000D02*
X18800000Y-77450000D01*
D27*
%TO.N,Cam_3.3v*%
X91502340Y-88490000D02*
X90930040Y-87917700D01*
X95450000Y-88490000D02*
X91502340Y-88490000D01*
X96210000Y-87730000D02*
X95450000Y-88490000D01*
X96210000Y-87376000D02*
X96210000Y-87730000D01*
%TO.N,/~{RESET}*%
X39470000Y-100100000D02*
X39470000Y-100140000D01*
X30698300Y-91328300D02*
X39470000Y-100100000D01*
X30698300Y-83411700D02*
X30698300Y-91328300D01*
X38290000Y-75820000D02*
X30698300Y-83411700D01*
%TO.N,+3.3V*%
X86856000Y-81346000D02*
X86500000Y-80990000D01*
X87954000Y-81346000D02*
X86856000Y-81346000D01*
%TO.N,Cam_RST*%
X69796000Y-86106000D02*
X70612000Y-86106000D01*
X69367952Y-85677952D02*
X69796000Y-86106000D01*
X43253839Y-85677952D02*
X69367952Y-85677952D01*
X42160352Y-86771439D02*
X43253839Y-85677952D01*
X42160352Y-86790000D02*
X42160352Y-86771439D01*
X34544000Y-90424000D02*
X36680000Y-88288000D01*
X34544000Y-91676000D02*
X34544000Y-90424000D01*
X36680000Y-88288000D02*
X36680000Y-86600000D01*
X34540000Y-91680000D02*
X34544000Y-91676000D01*
X36680000Y-86600000D02*
X36870000Y-86790000D01*
X36870000Y-86790000D02*
X42160352Y-86790000D01*
%TO.N,+3.3V*%
X26090000Y-96610000D02*
X27100000Y-97620000D01*
X24440000Y-96610000D02*
X26090000Y-96610000D01*
%TO.N,GND*%
X94744999Y-85192000D02*
X95250000Y-85697001D01*
X95250000Y-85697001D02*
X95250000Y-87376000D01*
X94082500Y-85192000D02*
X94744999Y-85192000D01*
%TO.N,1.2V*%
X37045000Y-80725000D02*
X37590000Y-80725000D01*
X35260000Y-81240000D02*
X36530000Y-81240000D01*
X36530000Y-81240000D02*
X37045000Y-80725000D01*
X35250000Y-81250000D02*
X35260000Y-81240000D01*
%TO.N,Break_SDA*%
X26782500Y-95757500D02*
X31345000Y-100320000D01*
X26700000Y-95675000D02*
X26782500Y-95757500D01*
X25908000Y-91408000D02*
X26700000Y-92200000D01*
X26635000Y-95610000D02*
X24440000Y-95610000D01*
X26727500Y-95702500D02*
X26782500Y-95757500D01*
X26727500Y-95702500D02*
X26635000Y-95610000D01*
X25900000Y-91190000D02*
X25908000Y-91408000D01*
X26700000Y-92200000D02*
X26700000Y-95675000D01*
%TO.N,Break_SCL*%
X25900000Y-93330000D02*
X25720000Y-93330000D01*
X25720000Y-93330000D02*
X24440000Y-94610000D01*
%TO.N,Cam_RST*%
X86614000Y-83058000D02*
X87766000Y-83058000D01*
X87766000Y-83058000D02*
X87954000Y-83246000D01*
%TO.N,SPI1_MOSI_Cam*%
X48768000Y-83566000D02*
X40774000Y-83566000D01*
X38370000Y-85970000D02*
X35706000Y-85970000D01*
X40774000Y-83566000D02*
X38370000Y-85970000D01*
X35706000Y-85970000D02*
X35306000Y-86370000D01*
%TO.N,SWCLK*%
X35820001Y-80649999D02*
X36055067Y-80649999D01*
X35820000Y-80650000D02*
X35820001Y-80649999D01*
X68972300Y-80148300D02*
X77690000Y-88866000D01*
X36055067Y-80649999D02*
X36556766Y-80148300D01*
X36556766Y-80148300D02*
X68972300Y-80148300D01*
X77690000Y-88866000D02*
X77690000Y-88870000D01*
%TO.N,SWDIO*%
X35920000Y-79730000D02*
X36570000Y-79080000D01*
X36570000Y-79080000D02*
X69682000Y-79080000D01*
X80772000Y-90170000D02*
X80772000Y-101092000D01*
X69682000Y-79080000D02*
X80772000Y-90170000D01*
%TO.N,SPI0_CS_SD*%
X41450000Y-71240000D02*
X41560000Y-71240000D01*
X41560000Y-71240000D02*
X63100000Y-49700000D01*
%TO.N,WDT_WDI*%
X34860000Y-74350000D02*
X34860000Y-74360000D01*
X34860000Y-74360000D02*
X30190000Y-79030000D01*
X30190000Y-93410000D02*
X41370000Y-104590000D01*
X30190000Y-79030000D02*
X30190000Y-93410000D01*
%TO.N,ADC1*%
X32850960Y-73510000D02*
X43776960Y-73510000D01*
X47696960Y-77430000D02*
X78070000Y-77430000D01*
X29260000Y-77130000D02*
X29240000Y-77120960D01*
X29240000Y-77120960D02*
X32850960Y-73510000D01*
X43776960Y-73510000D02*
X47696960Y-77430000D01*
X86782000Y-86142000D02*
X94082500Y-86142000D01*
X78070000Y-77430000D02*
X86782000Y-86142000D01*
D26*
%TO.N,Cam_3.3v*%
X90379800Y-82321800D02*
X90354000Y-82296000D01*
D27*
X94813600Y-82753600D02*
X94813600Y-83668000D01*
X94381800Y-82321800D02*
X94813600Y-82753600D01*
X90354000Y-82112000D02*
X90354000Y-82296000D01*
X96357500Y-86142000D02*
X96357500Y-87228500D01*
X91440000Y-81026000D02*
X90354000Y-82112000D01*
D26*
X93670000Y-82321800D02*
X90379800Y-82321800D01*
D27*
X94813600Y-83668000D02*
X94239600Y-84242000D01*
%TO.N,+3.3V*%
X37210000Y-82030000D02*
X34590000Y-82030000D01*
X37590000Y-81650000D02*
X37210000Y-82030000D01*
X34590000Y-82030000D02*
X32890000Y-83730000D01*
%TO.N,/D+*%
X22252500Y-76522500D02*
X22230000Y-76522500D01*
X23640000Y-77910000D02*
X22252500Y-76522500D01*
D28*
%TO.N,BGND*%
X36031200Y-46846400D02*
X38188800Y-44688800D01*
X36031200Y-55488100D02*
X36031200Y-46846400D01*
%TO.N,BPWR*%
X33108800Y-44688800D02*
X34531200Y-46111200D01*
X34531200Y-46111200D02*
X34531200Y-55488100D01*
D26*
%TO.N,CIN-*%
X96795800Y-82296000D02*
X96770000Y-82321800D01*
D27*
X95702600Y-83668000D02*
X96276600Y-84242000D01*
X96134400Y-82321800D02*
X95702600Y-82753600D01*
D26*
X99080000Y-82296000D02*
X96795800Y-82296000D01*
D27*
X95702600Y-82753600D02*
X95702600Y-83668000D01*
%TD*%
%TA.AperFunction,Conductor*%
%TO.N,GND*%
G36*
X99752734Y-15400909D02*
G01*
X99798643Y-15453579D01*
X99810000Y-15505420D01*
X99810000Y-26210000D01*
X99840000Y-26240000D01*
X109659453Y-26240000D01*
X109726492Y-26259685D01*
X109772247Y-26312489D01*
X109783452Y-26364534D01*
X109467515Y-99706534D01*
X109447542Y-99773488D01*
X109394541Y-99819015D01*
X109343516Y-99830000D01*
X99789999Y-99830000D01*
X99770000Y-99849999D01*
X99770000Y-108946177D01*
X99750315Y-109013216D01*
X99697511Y-109058971D01*
X99646433Y-109070176D01*
X26204433Y-109326544D01*
X26137325Y-109307094D01*
X26091386Y-109254450D01*
X26080000Y-109202545D01*
X26080000Y-105939998D01*
X50796221Y-105939998D01*
X50796221Y-105940001D01*
X50815771Y-106088503D01*
X50815773Y-106088508D01*
X50873090Y-106226885D01*
X50873090Y-106226886D01*
X50873092Y-106226889D01*
X50873093Y-106226890D01*
X50964277Y-106345723D01*
X51083110Y-106436907D01*
X51083113Y-106436908D01*
X51083114Y-106436909D01*
X51152302Y-106465567D01*
X51221495Y-106494228D01*
X51295747Y-106504003D01*
X51369999Y-106513779D01*
X51370000Y-106513779D01*
X51370001Y-106513779D01*
X51419501Y-106507262D01*
X51518505Y-106494228D01*
X51656885Y-106436909D01*
X51656886Y-106436909D01*
X51656886Y-106436908D01*
X51656890Y-106436907D01*
X51775723Y-106345723D01*
X51866907Y-106226890D01*
X51924228Y-106088505D01*
X51943779Y-105940000D01*
X51924228Y-105791495D01*
X51866907Y-105653111D01*
X51775723Y-105534277D01*
X51656890Y-105443093D01*
X51656887Y-105443092D01*
X51656885Y-105443090D01*
X51518508Y-105385773D01*
X51518503Y-105385771D01*
X51370001Y-105366221D01*
X51369999Y-105366221D01*
X51221496Y-105385771D01*
X51221494Y-105385772D01*
X51083111Y-105443092D01*
X50964277Y-105534277D01*
X50873092Y-105653111D01*
X50815772Y-105791494D01*
X50815771Y-105791496D01*
X50796221Y-105939998D01*
X26080000Y-105939998D01*
X26080000Y-99790000D01*
X25852674Y-99790000D01*
X25842674Y-99790000D01*
X21745306Y-99790000D01*
X21678267Y-99770315D01*
X21632512Y-99717511D01*
X21622568Y-99648353D01*
X21646502Y-99591075D01*
X21680625Y-99546076D01*
X21693527Y-99529062D01*
X21748374Y-99389980D01*
X21758870Y-99302577D01*
X21758869Y-98517424D01*
X21748374Y-98430020D01*
X21693527Y-98290938D01*
X21605024Y-98174228D01*
X21603190Y-98171809D01*
X21484064Y-98081474D01*
X21484058Y-98081471D01*
X21344981Y-98026626D01*
X21334054Y-98025314D01*
X21257577Y-98016130D01*
X21257570Y-98016130D01*
X19872429Y-98016130D01*
X19785020Y-98026625D01*
X19785016Y-98026627D01*
X19645941Y-98081471D01*
X19645935Y-98081474D01*
X19526809Y-98171809D01*
X19436474Y-98290935D01*
X19436471Y-98290941D01*
X19381626Y-98430018D01*
X19381626Y-98430020D01*
X19371130Y-98517423D01*
X19371130Y-98517428D01*
X19371130Y-98517429D01*
X19371130Y-99302570D01*
X19381625Y-99389979D01*
X19381627Y-99389983D01*
X19436471Y-99529058D01*
X19436474Y-99529064D01*
X19483498Y-99591075D01*
X19508321Y-99656387D01*
X19493893Y-99724751D01*
X19444795Y-99774462D01*
X19384694Y-99790000D01*
X16134000Y-99790000D01*
X16066961Y-99770315D01*
X16021206Y-99717511D01*
X16010000Y-99666000D01*
X16010000Y-97860001D01*
X23167704Y-97860001D01*
X23167899Y-97862486D01*
X23213718Y-98020198D01*
X23297314Y-98161552D01*
X23297321Y-98161561D01*
X23413438Y-98277678D01*
X23413447Y-98277685D01*
X23554803Y-98361282D01*
X23554806Y-98361283D01*
X23712504Y-98407099D01*
X23712510Y-98407100D01*
X23749350Y-98409999D01*
X23749366Y-98410000D01*
X24190000Y-98410000D01*
X24690000Y-98410000D01*
X25130634Y-98410000D01*
X25130649Y-98409999D01*
X25167489Y-98407100D01*
X25167495Y-98407099D01*
X25325193Y-98361283D01*
X25325196Y-98361282D01*
X25466552Y-98277685D01*
X25466561Y-98277678D01*
X25582678Y-98161561D01*
X25582685Y-98161552D01*
X25666281Y-98020198D01*
X25712100Y-97862486D01*
X25712295Y-97860001D01*
X25712295Y-97860000D01*
X24690000Y-97860000D01*
X24690000Y-98410000D01*
X24190000Y-98410000D01*
X24190000Y-97860000D01*
X23167705Y-97860000D01*
X23167704Y-97860001D01*
X16010000Y-97860001D01*
X16010000Y-97359998D01*
X23167704Y-97359998D01*
X23167705Y-97360000D01*
X25712295Y-97360000D01*
X25712295Y-97359998D01*
X25712100Y-97357513D01*
X25666280Y-97199799D01*
X25646996Y-97167190D01*
X25629813Y-97099466D01*
X25651973Y-97033204D01*
X25706440Y-96989441D01*
X25753728Y-96980070D01*
X25885350Y-96980070D01*
X25952389Y-96999755D01*
X25973031Y-97016389D01*
X26489902Y-97533260D01*
X26523387Y-97594583D01*
X26525669Y-97615813D01*
X26545772Y-97768504D01*
X26545773Y-97768508D01*
X26603090Y-97906885D01*
X26603090Y-97906886D01*
X26603092Y-97906889D01*
X26603093Y-97906890D01*
X26694277Y-98025723D01*
X26813110Y-98116907D01*
X26813113Y-98116908D01*
X26813114Y-98116909D01*
X26882302Y-98145567D01*
X26951495Y-98174228D01*
X27025747Y-98184003D01*
X27099999Y-98193779D01*
X27100000Y-98193779D01*
X27100001Y-98193779D01*
X27149501Y-98187262D01*
X27248505Y-98174228D01*
X27386885Y-98116909D01*
X27386886Y-98116909D01*
X27386886Y-98116908D01*
X27386890Y-98116907D01*
X27505723Y-98025723D01*
X27596907Y-97906890D01*
X27654228Y-97768505D01*
X27673779Y-97620000D01*
X27654228Y-97471495D01*
X27654227Y-97471493D01*
X27653557Y-97466402D01*
X27664322Y-97397366D01*
X27710702Y-97345110D01*
X27777971Y-97326225D01*
X27844772Y-97346706D01*
X27864177Y-97362535D01*
X30254879Y-99753237D01*
X30288364Y-99814560D01*
X30283380Y-99884252D01*
X30278201Y-99896185D01*
X30273805Y-99905014D01*
X30273799Y-99905027D01*
X30215790Y-100108911D01*
X30215789Y-100108914D01*
X30196230Y-100319999D01*
X30196230Y-100320000D01*
X30215789Y-100531085D01*
X30215790Y-100531087D01*
X30273802Y-100734979D01*
X30273808Y-100734994D01*
X30368292Y-100924743D01*
X30368297Y-100924751D01*
X30496050Y-101093923D01*
X30627648Y-101213890D01*
X30652711Y-101236738D01*
X30832949Y-101348337D01*
X31030624Y-101424916D01*
X31239005Y-101463870D01*
X31239008Y-101463870D01*
X31450992Y-101463870D01*
X31450995Y-101463870D01*
X31659376Y-101424916D01*
X31857051Y-101348337D01*
X32037289Y-101236738D01*
X32193951Y-101093921D01*
X32321704Y-100924749D01*
X32416196Y-100734984D01*
X32474210Y-100531086D01*
X32493659Y-100321191D01*
X32493967Y-100320416D01*
X32493659Y-100318806D01*
X32493591Y-100318076D01*
X32493179Y-100313634D01*
X32739288Y-100313634D01*
X32741130Y-100332634D01*
X32741130Y-101213864D01*
X32741132Y-101213890D01*
X32743979Y-101238443D01*
X32743981Y-101238447D01*
X32788355Y-101338947D01*
X32788358Y-101338951D01*
X32788359Y-101338953D01*
X32866047Y-101416641D01*
X32966553Y-101461019D01*
X32991127Y-101463870D01*
X34778872Y-101463869D01*
X34778887Y-101463867D01*
X34778890Y-101463867D01*
X34803443Y-101461020D01*
X34803444Y-101461019D01*
X34803447Y-101461019D01*
X34885217Y-101424914D01*
X34903947Y-101416644D01*
X34903948Y-101416643D01*
X34903953Y-101416641D01*
X34981641Y-101338953D01*
X35026019Y-101238447D01*
X35028870Y-101213873D01*
X35028869Y-99426128D01*
X35028867Y-99426109D01*
X35026020Y-99401556D01*
X35026019Y-99401554D01*
X35026019Y-99401553D01*
X34982317Y-99302577D01*
X34981644Y-99301052D01*
X34981642Y-99301049D01*
X34981641Y-99301047D01*
X34903953Y-99223359D01*
X34871794Y-99209159D01*
X34803448Y-99178981D01*
X34778873Y-99176130D01*
X32991135Y-99176130D01*
X32991109Y-99176132D01*
X32966556Y-99178979D01*
X32966552Y-99178981D01*
X32866052Y-99223355D01*
X32866044Y-99223361D01*
X32788361Y-99301044D01*
X32788357Y-99301051D01*
X32743981Y-99401550D01*
X32743981Y-99401552D01*
X32741130Y-99426125D01*
X32741130Y-100307365D01*
X32739288Y-100313634D01*
X32493179Y-100313634D01*
X32474210Y-100108914D01*
X32416196Y-99905016D01*
X32398798Y-99870076D01*
X32321707Y-99715256D01*
X32321702Y-99715248D01*
X32193949Y-99546076D01*
X32037290Y-99403263D01*
X32037289Y-99403262D01*
X31857051Y-99291663D01*
X31857049Y-99291662D01*
X31659379Y-99215085D01*
X31659378Y-99215084D01*
X31659376Y-99215084D01*
X31450995Y-99176130D01*
X31239005Y-99176130D01*
X31030624Y-99215084D01*
X31030622Y-99215084D01*
X31030620Y-99215085D01*
X30985525Y-99232555D01*
X30913387Y-99260501D01*
X30843764Y-99266363D01*
X30782024Y-99233653D01*
X30780913Y-99232555D01*
X27106389Y-95558031D01*
X27072904Y-95496708D01*
X27070070Y-95470350D01*
X27070070Y-92670476D01*
X27089755Y-92603437D01*
X27142559Y-92557682D01*
X27211717Y-92547738D01*
X27269557Y-92572100D01*
X27274274Y-92575720D01*
X27274277Y-92575723D01*
X27393110Y-92666907D01*
X27393113Y-92666908D01*
X27393114Y-92666909D01*
X27401726Y-92670476D01*
X27531495Y-92724228D01*
X27605747Y-92734003D01*
X27679999Y-92743779D01*
X27680000Y-92743779D01*
X27680001Y-92743779D01*
X27732365Y-92736885D01*
X27828505Y-92724228D01*
X27966885Y-92666909D01*
X27966886Y-92666909D01*
X27966886Y-92666908D01*
X27966890Y-92666907D01*
X28085723Y-92575723D01*
X28176907Y-92456890D01*
X28234228Y-92318505D01*
X28240672Y-92269552D01*
X28268938Y-92205657D01*
X28327262Y-92167185D01*
X28397127Y-92166353D01*
X28415480Y-92174085D01*
X28415600Y-92173797D01*
X28515564Y-92215203D01*
X28561495Y-92234228D01*
X28635747Y-92244003D01*
X28709999Y-92253779D01*
X28710000Y-92253779D01*
X28710001Y-92253779D01*
X28759501Y-92247262D01*
X28858505Y-92234228D01*
X28996885Y-92176909D01*
X28996886Y-92176909D01*
X28996886Y-92176908D01*
X28996890Y-92176907D01*
X29115723Y-92085723D01*
X29206907Y-91966890D01*
X29264228Y-91828505D01*
X29283779Y-91680000D01*
X29264228Y-91531495D01*
X29234208Y-91459022D01*
X29226740Y-91389556D01*
X29258015Y-91327077D01*
X29318103Y-91291424D01*
X29364954Y-91288633D01*
X29408563Y-91294374D01*
X29479999Y-91303779D01*
X29480000Y-91303779D01*
X29480001Y-91303779D01*
X29529501Y-91297262D01*
X29628505Y-91284228D01*
X29648478Y-91275954D01*
X29717947Y-91268486D01*
X29780426Y-91299761D01*
X29816078Y-91359850D01*
X29819930Y-91390516D01*
X29819930Y-93458721D01*
X29845150Y-93552842D01*
X29860409Y-93579270D01*
X29860410Y-93579274D01*
X29860411Y-93579274D01*
X29893869Y-93637226D01*
X29893871Y-93637229D01*
X40760010Y-104503368D01*
X40793495Y-104564691D01*
X40794635Y-104591873D01*
X40796221Y-104591873D01*
X40796221Y-104600001D01*
X40815771Y-104748503D01*
X40815773Y-104748508D01*
X40873090Y-104886885D01*
X40873090Y-104886886D01*
X40873092Y-104886889D01*
X40873093Y-104886890D01*
X40964277Y-105005723D01*
X41083110Y-105096907D01*
X41083113Y-105096908D01*
X41083114Y-105096909D01*
X41152302Y-105125567D01*
X41221495Y-105154228D01*
X41295747Y-105164003D01*
X41369999Y-105173779D01*
X41370000Y-105173779D01*
X41370001Y-105173779D01*
X41419501Y-105167262D01*
X41518505Y-105154228D01*
X41656885Y-105096909D01*
X41656886Y-105096909D01*
X41656886Y-105096908D01*
X41656890Y-105096907D01*
X41775723Y-105005723D01*
X41866907Y-104886890D01*
X41924228Y-104748505D01*
X41943779Y-104600000D01*
X41939130Y-104564691D01*
X41924228Y-104451496D01*
X41924228Y-104451495D01*
X41866907Y-104313111D01*
X41775723Y-104194277D01*
X41656890Y-104103093D01*
X41656887Y-104103092D01*
X41656885Y-104103090D01*
X41518508Y-104045773D01*
X41518506Y-104045772D01*
X41518505Y-104045772D01*
X41489668Y-104041975D01*
X41365181Y-104025586D01*
X41301285Y-103997319D01*
X41293686Y-103990328D01*
X40303358Y-103000000D01*
X59870076Y-103000000D01*
X59889755Y-103350435D01*
X59889757Y-103350447D01*
X59948549Y-103696470D01*
X59948551Y-103696479D01*
X60045716Y-104033745D01*
X60180032Y-104358016D01*
X60180034Y-104358020D01*
X60349818Y-104665220D01*
X60552928Y-104951477D01*
X60619960Y-105026485D01*
X61795238Y-103851207D01*
X61874933Y-103960898D01*
X62039102Y-104125067D01*
X62148791Y-104204760D01*
X60973513Y-105380038D01*
X61048522Y-105447071D01*
X61334779Y-105650181D01*
X61641979Y-105819965D01*
X61641983Y-105819967D01*
X61966254Y-105954283D01*
X62303520Y-106051448D01*
X62303529Y-106051450D01*
X62649552Y-106110242D01*
X62649564Y-106110244D01*
X63000000Y-106129923D01*
X63350435Y-106110244D01*
X63350447Y-106110242D01*
X63696470Y-106051450D01*
X63696479Y-106051448D01*
X64033745Y-105954283D01*
X64358016Y-105819967D01*
X64358020Y-105819965D01*
X64665220Y-105650181D01*
X64951477Y-105447071D01*
X65026485Y-105380038D01*
X63851208Y-104204761D01*
X63960898Y-104125067D01*
X64125067Y-103960898D01*
X64204761Y-103851208D01*
X65380038Y-105026485D01*
X65447071Y-104951477D01*
X65650181Y-104665220D01*
X65819965Y-104358020D01*
X65819967Y-104358016D01*
X65954283Y-104033745D01*
X66051448Y-103696479D01*
X66051450Y-103696470D01*
X66110242Y-103350447D01*
X66110244Y-103350435D01*
X66129923Y-103000000D01*
X66110244Y-102649564D01*
X66110242Y-102649552D01*
X66051450Y-102303529D01*
X66051448Y-102303520D01*
X65954283Y-101966254D01*
X65819967Y-101641983D01*
X65819965Y-101641979D01*
X65650181Y-101334779D01*
X65477920Y-101091999D01*
X72003230Y-101091999D01*
X72003230Y-101092000D01*
X72022789Y-101303085D01*
X72022790Y-101303087D01*
X72080802Y-101506979D01*
X72080808Y-101506994D01*
X72175292Y-101696743D01*
X72175297Y-101696751D01*
X72303050Y-101865923D01*
X72434648Y-101985890D01*
X72459711Y-102008738D01*
X72639949Y-102120337D01*
X72837624Y-102196916D01*
X73046005Y-102235870D01*
X73046008Y-102235870D01*
X73257992Y-102235870D01*
X73257995Y-102235870D01*
X73466376Y-102196916D01*
X73664051Y-102120337D01*
X73844289Y-102008738D01*
X74000951Y-101865921D01*
X74128704Y-101696749D01*
X74155976Y-101641979D01*
X74197742Y-101558103D01*
X74245245Y-101506866D01*
X74312908Y-101489445D01*
X74379248Y-101511371D01*
X74421124Y-101560970D01*
X74518399Y-101769578D01*
X74653894Y-101963082D01*
X74820917Y-102130105D01*
X75014421Y-102265600D01*
X75228507Y-102365429D01*
X75228516Y-102365433D01*
X75442000Y-102422634D01*
X75442000Y-101525012D01*
X75499007Y-101557925D01*
X75626174Y-101592000D01*
X75757826Y-101592000D01*
X75884993Y-101557925D01*
X75942000Y-101525012D01*
X75942000Y-102422633D01*
X76155483Y-102365433D01*
X76155492Y-102365429D01*
X76369578Y-102265600D01*
X76563082Y-102130105D01*
X76730105Y-101963082D01*
X76865600Y-101769577D01*
X76865601Y-101769575D01*
X76962875Y-101560971D01*
X77009047Y-101508531D01*
X77076240Y-101489379D01*
X77143122Y-101509595D01*
X77186257Y-101558103D01*
X77255292Y-101696743D01*
X77255297Y-101696751D01*
X77383050Y-101865923D01*
X77514648Y-101985890D01*
X77539711Y-102008738D01*
X77719949Y-102120337D01*
X77917624Y-102196916D01*
X78126005Y-102235870D01*
X78126008Y-102235870D01*
X78337992Y-102235870D01*
X78337995Y-102235870D01*
X78546376Y-102196916D01*
X78744051Y-102120337D01*
X78924289Y-102008738D01*
X79080951Y-101865921D01*
X79208704Y-101696749D01*
X79303196Y-101506984D01*
X79361210Y-101303086D01*
X79378529Y-101116183D01*
X79387399Y-101093845D01*
X79380307Y-101080182D01*
X79378529Y-101067815D01*
X79361210Y-100880914D01*
X79361209Y-100880912D01*
X79303197Y-100677020D01*
X79303196Y-100677016D01*
X79303191Y-100677005D01*
X79208707Y-100487256D01*
X79208702Y-100487248D01*
X79080949Y-100318076D01*
X78924290Y-100175263D01*
X78924289Y-100175262D01*
X78744051Y-100063663D01*
X78744049Y-100063662D01*
X78546379Y-99987085D01*
X78546378Y-99987084D01*
X78546376Y-99987084D01*
X78337995Y-99948130D01*
X78126005Y-99948130D01*
X77917624Y-99987084D01*
X77917622Y-99987084D01*
X77917620Y-99987085D01*
X77719950Y-100063662D01*
X77719948Y-100063663D01*
X77539709Y-100175263D01*
X77383050Y-100318076D01*
X77255297Y-100487248D01*
X77255295Y-100487252D01*
X77186257Y-100625897D01*
X77138753Y-100677133D01*
X77071090Y-100694554D01*
X77004750Y-100672628D01*
X76962875Y-100623029D01*
X76865600Y-100414422D01*
X76865599Y-100414420D01*
X76730113Y-100220926D01*
X76730108Y-100220920D01*
X76563082Y-100053894D01*
X76369578Y-99918399D01*
X76155492Y-99818570D01*
X76155486Y-99818567D01*
X75942000Y-99761364D01*
X75942000Y-100658988D01*
X75884993Y-100626075D01*
X75757826Y-100592000D01*
X75626174Y-100592000D01*
X75499007Y-100626075D01*
X75442000Y-100658988D01*
X75442000Y-99761364D01*
X75441999Y-99761364D01*
X75228513Y-99818567D01*
X75228507Y-99818570D01*
X75014422Y-99918399D01*
X75014420Y-99918400D01*
X74820926Y-100053886D01*
X74820920Y-100053891D01*
X74653891Y-100220920D01*
X74653886Y-100220926D01*
X74518400Y-100414420D01*
X74518399Y-100414422D01*
X74421124Y-100623029D01*
X74374951Y-100675468D01*
X74307758Y-100694620D01*
X74240877Y-100674404D01*
X74197742Y-100625896D01*
X74128707Y-100487256D01*
X74128702Y-100487248D01*
X74000949Y-100318076D01*
X73844290Y-100175263D01*
X73844289Y-100175262D01*
X73664051Y-100063663D01*
X73664049Y-100063662D01*
X73466379Y-99987085D01*
X73466378Y-99987084D01*
X73466376Y-99987084D01*
X73257995Y-99948130D01*
X73046005Y-99948130D01*
X72837624Y-99987084D01*
X72837622Y-99987084D01*
X72837620Y-99987085D01*
X72639950Y-100063662D01*
X72639948Y-100063663D01*
X72459709Y-100175263D01*
X72303050Y-100318076D01*
X72175297Y-100487248D01*
X72175292Y-100487256D01*
X72080808Y-100677005D01*
X72080802Y-100677020D01*
X72022790Y-100880912D01*
X72022789Y-100880914D01*
X72003230Y-101091999D01*
X65477920Y-101091999D01*
X65447071Y-101048522D01*
X65380038Y-100973513D01*
X64204760Y-102148791D01*
X64125067Y-102039102D01*
X63960898Y-101874933D01*
X63851208Y-101795238D01*
X65026486Y-100619960D01*
X64951477Y-100552928D01*
X64665220Y-100349818D01*
X64358020Y-100180034D01*
X64358016Y-100180032D01*
X64033745Y-100045716D01*
X63696479Y-99948551D01*
X63696470Y-99948549D01*
X63350447Y-99889757D01*
X63350435Y-99889755D01*
X63000000Y-99870076D01*
X62649564Y-99889755D01*
X62649552Y-99889757D01*
X62303529Y-99948549D01*
X62303520Y-99948551D01*
X61966254Y-100045716D01*
X61641983Y-100180032D01*
X61641979Y-100180034D01*
X61334775Y-100349820D01*
X61334770Y-100349823D01*
X61048528Y-100552924D01*
X61048520Y-100552929D01*
X60973513Y-100619959D01*
X60973513Y-100619960D01*
X62148791Y-101795238D01*
X62039102Y-101874933D01*
X61874933Y-102039102D01*
X61795238Y-102148791D01*
X60619960Y-100973513D01*
X60619959Y-100973513D01*
X60552929Y-101048520D01*
X60552924Y-101048528D01*
X60349823Y-101334770D01*
X60349820Y-101334775D01*
X60180034Y-101641979D01*
X60180032Y-101641983D01*
X60045716Y-101966254D01*
X59948551Y-102303520D01*
X59948549Y-102303529D01*
X59889757Y-102649552D01*
X59889755Y-102649564D01*
X59870076Y-103000000D01*
X40303358Y-103000000D01*
X30596389Y-93293031D01*
X30562904Y-93231708D01*
X30560070Y-93205350D01*
X30560070Y-92012790D01*
X30579755Y-91945751D01*
X30632559Y-91899996D01*
X30701717Y-91890052D01*
X30765273Y-91919077D01*
X30771751Y-91925109D01*
X38863500Y-100016858D01*
X38896985Y-100078181D01*
X38898758Y-100120721D01*
X38896222Y-100139998D01*
X38896221Y-100140002D01*
X38915771Y-100288503D01*
X38915773Y-100288508D01*
X38973090Y-100426885D01*
X38973090Y-100426886D01*
X38973092Y-100426889D01*
X38973093Y-100426890D01*
X39064277Y-100545723D01*
X39183110Y-100636907D01*
X39183113Y-100636908D01*
X39183114Y-100636909D01*
X39252302Y-100665567D01*
X39321495Y-100694228D01*
X39395747Y-100704003D01*
X39469999Y-100713779D01*
X39470000Y-100713779D01*
X39470001Y-100713779D01*
X39519501Y-100707262D01*
X39618505Y-100694228D01*
X39756885Y-100636909D01*
X39756886Y-100636909D01*
X39756886Y-100636908D01*
X39756890Y-100636907D01*
X39875723Y-100545723D01*
X39966907Y-100426890D01*
X40024228Y-100288505D01*
X40043779Y-100140000D01*
X40039686Y-100108914D01*
X40026488Y-100008659D01*
X40024228Y-99991495D01*
X39966907Y-99853111D01*
X39906558Y-99774462D01*
X39875724Y-99734278D01*
X39875723Y-99734277D01*
X39756890Y-99643093D01*
X39756887Y-99643092D01*
X39756885Y-99643090D01*
X39618508Y-99585773D01*
X39618506Y-99585772D01*
X39618505Y-99585772D01*
X39591298Y-99582190D01*
X39499729Y-99570134D01*
X39435832Y-99541867D01*
X39428234Y-99534876D01*
X35903356Y-96009998D01*
X50226221Y-96009998D01*
X50226221Y-96010001D01*
X50245771Y-96158503D01*
X50245773Y-96158508D01*
X50303090Y-96296885D01*
X50303090Y-96296886D01*
X50303092Y-96296889D01*
X50303093Y-96296890D01*
X50394277Y-96415723D01*
X50513110Y-96506907D01*
X50513113Y-96506908D01*
X50513114Y-96506909D01*
X50582302Y-96535567D01*
X50651495Y-96564228D01*
X50725747Y-96574003D01*
X50799999Y-96583779D01*
X50800000Y-96583779D01*
X50800001Y-96583779D01*
X50849501Y-96577262D01*
X50948505Y-96564228D01*
X51086885Y-96506909D01*
X51086886Y-96506909D01*
X51086886Y-96506908D01*
X51086890Y-96506907D01*
X51205723Y-96415723D01*
X51296907Y-96296890D01*
X51354228Y-96158505D01*
X51373779Y-96010000D01*
X51354228Y-95861495D01*
X51296907Y-95723111D01*
X51205723Y-95604277D01*
X51086890Y-95513093D01*
X51086887Y-95513092D01*
X51086885Y-95513090D01*
X50948508Y-95455773D01*
X50948503Y-95455771D01*
X50800001Y-95436221D01*
X50799999Y-95436221D01*
X50651496Y-95455771D01*
X50651494Y-95455772D01*
X50513111Y-95513092D01*
X50394277Y-95604277D01*
X50303092Y-95723111D01*
X50245772Y-95861494D01*
X50245771Y-95861496D01*
X50226221Y-96009998D01*
X35903356Y-96009998D01*
X32343356Y-92449998D01*
X43626221Y-92449998D01*
X43626221Y-92450001D01*
X43645771Y-92598503D01*
X43645773Y-92598508D01*
X43703090Y-92736885D01*
X43703090Y-92736886D01*
X43703092Y-92736889D01*
X43703093Y-92736890D01*
X43794277Y-92855723D01*
X43913110Y-92946907D01*
X43913113Y-92946908D01*
X43913114Y-92946909D01*
X43982302Y-92975567D01*
X44051495Y-93004228D01*
X44125747Y-93014003D01*
X44199999Y-93023779D01*
X44200000Y-93023779D01*
X44200001Y-93023779D01*
X44249501Y-93017262D01*
X44348505Y-93004228D01*
X44486885Y-92946909D01*
X44486886Y-92946909D01*
X44486886Y-92946908D01*
X44486890Y-92946907D01*
X44605723Y-92855723D01*
X44696907Y-92736890D01*
X44754228Y-92598505D01*
X44772872Y-92456890D01*
X44773779Y-92450001D01*
X44773779Y-92449998D01*
X44754228Y-92301496D01*
X44754228Y-92301495D01*
X44696907Y-92163111D01*
X44687828Y-92151279D01*
X44605724Y-92044278D01*
X44604898Y-92043644D01*
X44486890Y-91953093D01*
X44486887Y-91953092D01*
X44486885Y-91953090D01*
X44348508Y-91895773D01*
X44348503Y-91895771D01*
X44200001Y-91876221D01*
X44199999Y-91876221D01*
X44051496Y-91895771D01*
X44051494Y-91895772D01*
X43913111Y-91953092D01*
X43794277Y-92044277D01*
X43703092Y-92163111D01*
X43645772Y-92301494D01*
X43645771Y-92301496D01*
X43626221Y-92449998D01*
X32343356Y-92449998D01*
X31104689Y-91211331D01*
X31071204Y-91150008D01*
X31068370Y-91123650D01*
X31068370Y-90352578D01*
X31088055Y-90285539D01*
X31140859Y-90239784D01*
X31208554Y-90229639D01*
X31240000Y-90233779D01*
X31240001Y-90233779D01*
X31289501Y-90227262D01*
X31388505Y-90214228D01*
X31526885Y-90156909D01*
X31526886Y-90156909D01*
X31526886Y-90156908D01*
X31526890Y-90156907D01*
X31645723Y-90065723D01*
X31736907Y-89946890D01*
X31794228Y-89808505D01*
X31813779Y-89660000D01*
X31811758Y-89644652D01*
X31794228Y-89511496D01*
X31794228Y-89511495D01*
X31736907Y-89373111D01*
X31645723Y-89254277D01*
X31552021Y-89182377D01*
X31510821Y-89125951D01*
X31506666Y-89056205D01*
X31540879Y-88995284D01*
X31580055Y-88969443D01*
X31706885Y-88916909D01*
X31706886Y-88916909D01*
X31706886Y-88916908D01*
X31706890Y-88916907D01*
X31825723Y-88825723D01*
X31916907Y-88706890D01*
X31974228Y-88568505D01*
X31993779Y-88420000D01*
X31993069Y-88414609D01*
X31977483Y-88296221D01*
X31974228Y-88271495D01*
X31916907Y-88133111D01*
X31878925Y-88083611D01*
X31825724Y-88014278D01*
X31812903Y-88004440D01*
X31706890Y-87923093D01*
X31706887Y-87923092D01*
X31706885Y-87923090D01*
X31568508Y-87865773D01*
X31568503Y-87865771D01*
X31420001Y-87846221D01*
X31419999Y-87846221D01*
X31271496Y-87865771D01*
X31271491Y-87865773D01*
X31239822Y-87878891D01*
X31170353Y-87886360D01*
X31107874Y-87855084D01*
X31072222Y-87794995D01*
X31068370Y-87764330D01*
X31068370Y-86359998D01*
X33696221Y-86359998D01*
X33696221Y-86360001D01*
X33715771Y-86508503D01*
X33715773Y-86508508D01*
X33773090Y-86646885D01*
X33773090Y-86646886D01*
X33773092Y-86646889D01*
X33773093Y-86646890D01*
X33864277Y-86765723D01*
X33983110Y-86856907D01*
X33983113Y-86856908D01*
X33983114Y-86856909D01*
X34031394Y-86876907D01*
X34121495Y-86914228D01*
X34188042Y-86922989D01*
X34269999Y-86933779D01*
X34270000Y-86933779D01*
X34270001Y-86933779D01*
X34351958Y-86922989D01*
X34418505Y-86914228D01*
X34556885Y-86856909D01*
X34556886Y-86856909D01*
X34556886Y-86856908D01*
X34556890Y-86856907D01*
X34675723Y-86765723D01*
X34678948Y-86761518D01*
X34735372Y-86720315D01*
X34805118Y-86716157D01*
X34866040Y-86750366D01*
X34875698Y-86761511D01*
X34894277Y-86785723D01*
X35013110Y-86876907D01*
X35013113Y-86876908D01*
X35013114Y-86876909D01*
X35082302Y-86905567D01*
X35151495Y-86934228D01*
X35225747Y-86944003D01*
X35299999Y-86953779D01*
X35300000Y-86953779D01*
X35300001Y-86953779D01*
X35349501Y-86947262D01*
X35448505Y-86934228D01*
X35586885Y-86876909D01*
X35586886Y-86876909D01*
X35586886Y-86876908D01*
X35586890Y-86876907D01*
X35705723Y-86785723D01*
X35796907Y-86666890D01*
X35854228Y-86528505D01*
X35864842Y-86447884D01*
X35893109Y-86383988D01*
X35951433Y-86345517D01*
X35987781Y-86340070D01*
X35989047Y-86340070D01*
X36056086Y-86359755D01*
X36101841Y-86412559D01*
X36111985Y-86480254D01*
X36105633Y-86528508D01*
X36096221Y-86600000D01*
X36096221Y-86600001D01*
X36115771Y-86748503D01*
X36115773Y-86748508D01*
X36173090Y-86886885D01*
X36173093Y-86886890D01*
X36264278Y-87005725D01*
X36270024Y-87011471D01*
X36268399Y-87013095D01*
X36302616Y-87059948D01*
X36309930Y-87101904D01*
X36309930Y-88083349D01*
X36290245Y-88150388D01*
X36273611Y-88171030D01*
X34247872Y-90196768D01*
X34247870Y-90196771D01*
X34237791Y-90214228D01*
X34216982Y-90250270D01*
X34216981Y-90250272D01*
X34216980Y-90250271D01*
X34199151Y-90281153D01*
X34189365Y-90317675D01*
X34173930Y-90375279D01*
X34173930Y-90375281D01*
X34173930Y-91183261D01*
X34154245Y-91250300D01*
X34137616Y-91270937D01*
X34134280Y-91274273D01*
X34043092Y-91393111D01*
X33985772Y-91531494D01*
X33985771Y-91531496D01*
X33966221Y-91679998D01*
X33966221Y-91680001D01*
X33985771Y-91828503D01*
X33985773Y-91828508D01*
X34043090Y-91966885D01*
X34043090Y-91966886D01*
X34043092Y-91966889D01*
X34043093Y-91966890D01*
X34134277Y-92085723D01*
X34253110Y-92176907D01*
X34253113Y-92176908D01*
X34253114Y-92176909D01*
X34308861Y-92200000D01*
X34391495Y-92234228D01*
X34465747Y-92244003D01*
X34539999Y-92253779D01*
X34540000Y-92253779D01*
X34540001Y-92253779D01*
X34589501Y-92247262D01*
X34688505Y-92234228D01*
X34826885Y-92176909D01*
X34826886Y-92176909D01*
X34826886Y-92176908D01*
X34826890Y-92176907D01*
X34945723Y-92085723D01*
X35036907Y-91966890D01*
X35094228Y-91828505D01*
X35113779Y-91680000D01*
X35094228Y-91531495D01*
X35060649Y-91450431D01*
X35036907Y-91393110D01*
X34940776Y-91267829D01*
X34943274Y-91265912D01*
X34916904Y-91217619D01*
X34914070Y-91191261D01*
X34914070Y-90628650D01*
X34933755Y-90561611D01*
X34950389Y-90540969D01*
X35026642Y-90464716D01*
X47759500Y-90464716D01*
X47759500Y-91804483D01*
X47769452Y-91828508D01*
X47790024Y-91878174D01*
X47846426Y-91934576D01*
X47920118Y-91965100D01*
X47920120Y-91965100D01*
X77999880Y-91965100D01*
X77999882Y-91965100D01*
X78073574Y-91934576D01*
X78129976Y-91878174D01*
X78160500Y-91804482D01*
X78160500Y-90464718D01*
X78129976Y-90391026D01*
X78073574Y-90334624D01*
X78048594Y-90324277D01*
X77999883Y-90304100D01*
X77999882Y-90304100D01*
X47999882Y-90304100D01*
X47920118Y-90304100D01*
X47920116Y-90304100D01*
X47846425Y-90334624D01*
X47790024Y-90391025D01*
X47759500Y-90464716D01*
X35026642Y-90464716D01*
X35885827Y-89605531D01*
X36976130Y-88515228D01*
X37016151Y-88445909D01*
X37024850Y-88430842D01*
X37050070Y-88336721D01*
X37050070Y-87284070D01*
X37069755Y-87217031D01*
X37122559Y-87171276D01*
X37174070Y-87160070D01*
X41815679Y-87160070D01*
X41882718Y-87179755D01*
X41928473Y-87232559D01*
X41939390Y-87292532D01*
X41922145Y-87544651D01*
X41941749Y-87831270D01*
X41941750Y-87831271D01*
X42000197Y-88112537D01*
X42000202Y-88112554D01*
X42096407Y-88383247D01*
X42228579Y-88638329D01*
X42228583Y-88638335D01*
X42373919Y-88844228D01*
X42373920Y-88844229D01*
X42983372Y-88234776D01*
X43073606Y-88358972D01*
X43212732Y-88498098D01*
X43336925Y-88588330D01*
X42729250Y-89196005D01*
X42813196Y-89264299D01*
X42813198Y-89264300D01*
X43058659Y-89413569D01*
X43322160Y-89528023D01*
X43598789Y-89605531D01*
X43598796Y-89605532D01*
X43883407Y-89644652D01*
X44170697Y-89644652D01*
X44455307Y-89605532D01*
X44455314Y-89605531D01*
X44731943Y-89528023D01*
X44995444Y-89413569D01*
X45240906Y-89264300D01*
X45324852Y-89196005D01*
X44717178Y-88588330D01*
X44841372Y-88498098D01*
X44980498Y-88358972D01*
X45070731Y-88234777D01*
X45680182Y-88844228D01*
X45680183Y-88844228D01*
X45825524Y-88638328D01*
X45957696Y-88383247D01*
X46053901Y-88112554D01*
X46053906Y-88112537D01*
X46112353Y-87831271D01*
X46112354Y-87831270D01*
X46131958Y-87544652D01*
X46112354Y-87258033D01*
X46112353Y-87258032D01*
X46053906Y-86976766D01*
X46053901Y-86976749D01*
X45957696Y-86706056D01*
X45825524Y-86450974D01*
X45825520Y-86450968D01*
X45679094Y-86243530D01*
X45656515Y-86177410D01*
X45673268Y-86109578D01*
X45724034Y-86061572D01*
X45780398Y-86048022D01*
X69163302Y-86048022D01*
X69230341Y-86067707D01*
X69250983Y-86084341D01*
X69568772Y-86402130D01*
X69611137Y-86426589D01*
X69653158Y-86450850D01*
X69747279Y-86476070D01*
X70133541Y-86476070D01*
X70200580Y-86495755D01*
X70209028Y-86501694D01*
X70214274Y-86505719D01*
X70214277Y-86505723D01*
X70333110Y-86596907D01*
X70333113Y-86596908D01*
X70333114Y-86596909D01*
X70372466Y-86613209D01*
X70471495Y-86654228D01*
X70545747Y-86664003D01*
X70619999Y-86673779D01*
X70620000Y-86673779D01*
X70620001Y-86673779D01*
X70672365Y-86666885D01*
X70768505Y-86654228D01*
X70906885Y-86596909D01*
X70906886Y-86596909D01*
X70906886Y-86596908D01*
X70906890Y-86596907D01*
X71025723Y-86505723D01*
X71116907Y-86386890D01*
X71174228Y-86248505D01*
X71193779Y-86100000D01*
X71191717Y-86084341D01*
X71177227Y-85974277D01*
X71174228Y-85951495D01*
X71116907Y-85813111D01*
X71081973Y-85767584D01*
X71025724Y-85694278D01*
X71001556Y-85675733D01*
X70906890Y-85603093D01*
X70906887Y-85603092D01*
X70906885Y-85603090D01*
X70768508Y-85545773D01*
X70768503Y-85545771D01*
X70620001Y-85526221D01*
X70619999Y-85526221D01*
X70471496Y-85545771D01*
X70471494Y-85545772D01*
X70333111Y-85603092D01*
X70214273Y-85694279D01*
X70208938Y-85699615D01*
X70147614Y-85733097D01*
X70121261Y-85735930D01*
X70000650Y-85735930D01*
X69933611Y-85716245D01*
X69912969Y-85699611D01*
X69595182Y-85381824D01*
X69595180Y-85381822D01*
X69541681Y-85350934D01*
X69510794Y-85333102D01*
X69416673Y-85307882D01*
X43205118Y-85307882D01*
X43138957Y-85325609D01*
X43110992Y-85333103D01*
X43080110Y-85350932D01*
X43080109Y-85350934D01*
X43068803Y-85357461D01*
X43026610Y-85381822D01*
X43026607Y-85381824D01*
X42024822Y-86383611D01*
X41963499Y-86417096D01*
X41937141Y-86419930D01*
X38742790Y-86419930D01*
X38675751Y-86400245D01*
X38629996Y-86347441D01*
X38620052Y-86278283D01*
X38649077Y-86214727D01*
X38655109Y-86208249D01*
X40890969Y-83972389D01*
X40952292Y-83938904D01*
X40978650Y-83936070D01*
X48273262Y-83936070D01*
X48340301Y-83955755D01*
X48360943Y-83972389D01*
X48364272Y-83975718D01*
X48364274Y-83975720D01*
X48364277Y-83975723D01*
X48483110Y-84066907D01*
X48483113Y-84066908D01*
X48483114Y-84066909D01*
X48498044Y-84073093D01*
X48621495Y-84124228D01*
X48695747Y-84134003D01*
X48769999Y-84143779D01*
X48770000Y-84143779D01*
X48770001Y-84143779D01*
X48819501Y-84137262D01*
X48918505Y-84124228D01*
X49056885Y-84066909D01*
X49056886Y-84066909D01*
X49056886Y-84066908D01*
X49056890Y-84066907D01*
X49175723Y-83975723D01*
X49266907Y-83856890D01*
X49324228Y-83718505D01*
X49343779Y-83570000D01*
X49342055Y-83556907D01*
X49326236Y-83436751D01*
X49324228Y-83421495D01*
X49266907Y-83283111D01*
X49212907Y-83212736D01*
X49175724Y-83164278D01*
X49175723Y-83164277D01*
X49056890Y-83073093D01*
X49056887Y-83073092D01*
X49056885Y-83073090D01*
X48918508Y-83015773D01*
X48918503Y-83015771D01*
X48770001Y-82996221D01*
X48769999Y-82996221D01*
X48621496Y-83015771D01*
X48621494Y-83015772D01*
X48483111Y-83073092D01*
X48387081Y-83146778D01*
X48367133Y-83162086D01*
X48357829Y-83169225D01*
X48355911Y-83166726D01*
X48307620Y-83193096D01*
X48281262Y-83195930D01*
X40725279Y-83195930D01*
X40631552Y-83221043D01*
X40631553Y-83221044D01*
X40631158Y-83221149D01*
X40631155Y-83221150D01*
X40546775Y-83269867D01*
X40546770Y-83269871D01*
X38439832Y-85376809D01*
X38378509Y-85410294D01*
X38308817Y-85405310D01*
X38252884Y-85363438D01*
X38229212Y-85305313D01*
X38227531Y-85292547D01*
X38214228Y-85191495D01*
X38156907Y-85053111D01*
X38136783Y-85026885D01*
X38065724Y-84934278D01*
X38065723Y-84934277D01*
X37946890Y-84843093D01*
X37946887Y-84843092D01*
X37946885Y-84843090D01*
X37812561Y-84787452D01*
X37758157Y-84743611D01*
X37737075Y-84689078D01*
X37724228Y-84591495D01*
X37666907Y-84453111D01*
X37575723Y-84334277D01*
X37456890Y-84243093D01*
X37456887Y-84243092D01*
X37456885Y-84243090D01*
X37318508Y-84185773D01*
X37318503Y-84185771D01*
X37170001Y-84166221D01*
X37169999Y-84166221D01*
X37021496Y-84185771D01*
X37021494Y-84185772D01*
X36883111Y-84243092D01*
X36764277Y-84334277D01*
X36673092Y-84453111D01*
X36615772Y-84591494D01*
X36615771Y-84591496D01*
X36596221Y-84739998D01*
X36596221Y-84740001D01*
X36615771Y-84888503D01*
X36615773Y-84888508D01*
X36673090Y-85026885D01*
X36673090Y-85026886D01*
X36673092Y-85026889D01*
X36673093Y-85026890D01*
X36764277Y-85145723D01*
X36883110Y-85236907D01*
X36883113Y-85236908D01*
X36883114Y-85236909D01*
X36917095Y-85250984D01*
X37017439Y-85292548D01*
X37071842Y-85336387D01*
X37092925Y-85390922D01*
X37101986Y-85459744D01*
X37091221Y-85528779D01*
X37044841Y-85581035D01*
X36979047Y-85599930D01*
X35657279Y-85599930D01*
X35600806Y-85615062D01*
X35563156Y-85625150D01*
X35563151Y-85625153D01*
X35478778Y-85673865D01*
X35478774Y-85673868D01*
X35478772Y-85673870D01*
X35382737Y-85769903D01*
X35321416Y-85803387D01*
X35308014Y-85804827D01*
X35308058Y-85805160D01*
X35151495Y-85825772D01*
X35151494Y-85825772D01*
X35013111Y-85883092D01*
X34894277Y-85974277D01*
X34891045Y-85978489D01*
X34834615Y-86019688D01*
X34764869Y-86023840D01*
X34703950Y-85989624D01*
X34694298Y-85978484D01*
X34686075Y-85967769D01*
X34675723Y-85954277D01*
X34556890Y-85863093D01*
X34556887Y-85863092D01*
X34556885Y-85863090D01*
X34418508Y-85805773D01*
X34418503Y-85805771D01*
X34270001Y-85786221D01*
X34269999Y-85786221D01*
X34121496Y-85805771D01*
X34121494Y-85805772D01*
X33983111Y-85863092D01*
X33864277Y-85954277D01*
X33773092Y-86073111D01*
X33715772Y-86211494D01*
X33715771Y-86211496D01*
X33696221Y-86359998D01*
X31068370Y-86359998D01*
X31068370Y-84569998D01*
X34596221Y-84569998D01*
X34596221Y-84570001D01*
X34615771Y-84718503D01*
X34615773Y-84718508D01*
X34673090Y-84856885D01*
X34673090Y-84856886D01*
X34673092Y-84856889D01*
X34673093Y-84856890D01*
X34764277Y-84975723D01*
X34883110Y-85066907D01*
X34883113Y-85066908D01*
X34883114Y-85066909D01*
X34952302Y-85095567D01*
X35021495Y-85124228D01*
X35095747Y-85134003D01*
X35169999Y-85143779D01*
X35170000Y-85143779D01*
X35170001Y-85143779D01*
X35219501Y-85137262D01*
X35318505Y-85124228D01*
X35456885Y-85066909D01*
X35456886Y-85066909D01*
X35456886Y-85066908D01*
X35456890Y-85066907D01*
X35575723Y-84975723D01*
X35666907Y-84856890D01*
X35724228Y-84718505D01*
X35743779Y-84570000D01*
X35724228Y-84421495D01*
X35666907Y-84283111D01*
X35636198Y-84243090D01*
X35575724Y-84164278D01*
X35575723Y-84164277D01*
X35456890Y-84073093D01*
X35456887Y-84073092D01*
X35456885Y-84073090D01*
X35318508Y-84015773D01*
X35318503Y-84015771D01*
X35170001Y-83996221D01*
X35169999Y-83996221D01*
X35021496Y-84015771D01*
X35021494Y-84015772D01*
X34883111Y-84073092D01*
X34764277Y-84164277D01*
X34673092Y-84283111D01*
X34615772Y-84421494D01*
X34615771Y-84421496D01*
X34596221Y-84569998D01*
X31068370Y-84569998D01*
X31068370Y-83616349D01*
X31088055Y-83549310D01*
X31104684Y-83528673D01*
X35152035Y-79481322D01*
X35213355Y-79447839D01*
X35283047Y-79452823D01*
X35338980Y-79494695D01*
X35363397Y-79560159D01*
X35362652Y-79585190D01*
X35346221Y-79709998D01*
X35346221Y-79710001D01*
X35365771Y-79858503D01*
X35365773Y-79858508D01*
X35423090Y-79996885D01*
X35423093Y-79996890D01*
X35463818Y-80049964D01*
X35489012Y-80115133D01*
X35474974Y-80183578D01*
X35440931Y-80223824D01*
X35414277Y-80244277D01*
X35323092Y-80363111D01*
X35265772Y-80501494D01*
X35265772Y-80501496D01*
X35255060Y-80582856D01*
X35226793Y-80646753D01*
X35168468Y-80685223D01*
X35148307Y-80689608D01*
X35101495Y-80695772D01*
X35101494Y-80695772D01*
X34963111Y-80753092D01*
X34844277Y-80844277D01*
X34753092Y-80963111D01*
X34695772Y-81101494D01*
X34695771Y-81101496D01*
X34676221Y-81249998D01*
X34676221Y-81250001D01*
X34695771Y-81398503D01*
X34695772Y-81398505D01*
X34732390Y-81486909D01*
X34733040Y-81488477D01*
X34740509Y-81557947D01*
X34709234Y-81620426D01*
X34649145Y-81656078D01*
X34618479Y-81659930D01*
X34541279Y-81659930D01*
X34475118Y-81677657D01*
X34447153Y-81685151D01*
X34416272Y-81702979D01*
X34416273Y-81702980D01*
X34362769Y-81733871D01*
X32976739Y-83119902D01*
X32915416Y-83153387D01*
X32894191Y-83155669D01*
X32741495Y-83175772D01*
X32741494Y-83175772D01*
X32603111Y-83233092D01*
X32484277Y-83324277D01*
X32393092Y-83443111D01*
X32335772Y-83581494D01*
X32335771Y-83581496D01*
X32316221Y-83729998D01*
X32316221Y-83730001D01*
X32335771Y-83878503D01*
X32335773Y-83878508D01*
X32393090Y-84016885D01*
X32393090Y-84016886D01*
X32393092Y-84016889D01*
X32393093Y-84016890D01*
X32484277Y-84135723D01*
X32603110Y-84226907D01*
X32603113Y-84226908D01*
X32603114Y-84226909D01*
X32613597Y-84231251D01*
X32741495Y-84284228D01*
X32815747Y-84294003D01*
X32889999Y-84303779D01*
X32890000Y-84303779D01*
X32890001Y-84303779D01*
X32939501Y-84297262D01*
X33038505Y-84284228D01*
X33176885Y-84226909D01*
X33176886Y-84226909D01*
X33176886Y-84226908D01*
X33176890Y-84226907D01*
X33295723Y-84135723D01*
X33386907Y-84016890D01*
X33444228Y-83878505D01*
X33457908Y-83774593D01*
X33464840Y-83721942D01*
X33466362Y-83722142D01*
X33483464Y-83663901D01*
X33500098Y-83643259D01*
X34706969Y-82436389D01*
X34768292Y-82402904D01*
X34794650Y-82400070D01*
X37258718Y-82400070D01*
X37258721Y-82400070D01*
X37352842Y-82374850D01*
X37383729Y-82357017D01*
X37437228Y-82326130D01*
X37473169Y-82290189D01*
X37534491Y-82256703D01*
X37560851Y-82253869D01*
X37782264Y-82253869D01*
X37782266Y-82253869D01*
X37811573Y-82251122D01*
X37830220Y-82244596D01*
X37899997Y-82241033D01*
X37958858Y-82273956D01*
X38014616Y-82329714D01*
X38014625Y-82329721D01*
X38153804Y-82412031D01*
X38300000Y-82454504D01*
X38300000Y-82454503D01*
X38800000Y-82454503D01*
X38946195Y-82412031D01*
X39085374Y-82329721D01*
X39085383Y-82329714D01*
X39199714Y-82215383D01*
X39199721Y-82215374D01*
X39282031Y-82076195D01*
X39282033Y-82076190D01*
X39327144Y-81920918D01*
X39327145Y-81920912D01*
X39328790Y-81900000D01*
X38800000Y-81900000D01*
X38800000Y-82454503D01*
X38300000Y-82454503D01*
X38300000Y-81400000D01*
X38800000Y-81400000D01*
X39328790Y-81400000D01*
X39327144Y-81379086D01*
X39281535Y-81222095D01*
X39281535Y-81152905D01*
X39327144Y-80995918D01*
X39327145Y-80995912D01*
X39328790Y-80975000D01*
X38800000Y-80975000D01*
X38800000Y-81400000D01*
X38300000Y-81400000D01*
X38300000Y-80642370D01*
X38319685Y-80575331D01*
X38372489Y-80529576D01*
X38424000Y-80518370D01*
X68767650Y-80518370D01*
X68834689Y-80538055D01*
X68855331Y-80554689D01*
X77079902Y-88779260D01*
X77113387Y-88840583D01*
X77116221Y-88866941D01*
X77116221Y-88870001D01*
X77135771Y-89018503D01*
X77135773Y-89018508D01*
X77193090Y-89156885D01*
X77193090Y-89156886D01*
X77193092Y-89156889D01*
X77193093Y-89156890D01*
X77284277Y-89275723D01*
X77403110Y-89366907D01*
X77403113Y-89366908D01*
X77403114Y-89366909D01*
X77472302Y-89395567D01*
X77541495Y-89424228D01*
X77615747Y-89434003D01*
X77689999Y-89443779D01*
X77690000Y-89443779D01*
X77690001Y-89443779D01*
X77739501Y-89437262D01*
X77838505Y-89424228D01*
X77976885Y-89366909D01*
X77976886Y-89366909D01*
X77976886Y-89366908D01*
X77976890Y-89366907D01*
X78095723Y-89275723D01*
X78186907Y-89156890D01*
X78244228Y-89018505D01*
X78263779Y-88870000D01*
X78263414Y-88867230D01*
X78244228Y-88721496D01*
X78244228Y-88721495D01*
X78186907Y-88583111D01*
X78175702Y-88568508D01*
X78095724Y-88464278D01*
X78095723Y-88464277D01*
X77976890Y-88373093D01*
X77976887Y-88373092D01*
X77976885Y-88373090D01*
X77838508Y-88315773D01*
X77838506Y-88315772D01*
X77838505Y-88315772D01*
X77764564Y-88306037D01*
X77681942Y-88295160D01*
X77682291Y-88292506D01*
X77627902Y-88276536D01*
X77607260Y-88259902D01*
X69199530Y-79852172D01*
X69199528Y-79852170D01*
X69146029Y-79821282D01*
X69115142Y-79803450D01*
X69021021Y-79778230D01*
X36694490Y-79778230D01*
X36627451Y-79758545D01*
X36581696Y-79705741D01*
X36571752Y-79636583D01*
X36600777Y-79573027D01*
X36606809Y-79566549D01*
X36686969Y-79486389D01*
X36748292Y-79452904D01*
X36774650Y-79450070D01*
X69477350Y-79450070D01*
X69544389Y-79469755D01*
X69565031Y-79486389D01*
X80365611Y-90286969D01*
X80399096Y-90348292D01*
X80401930Y-90374650D01*
X80401930Y-99923717D01*
X80382245Y-99990756D01*
X80329441Y-100036511D01*
X80322732Y-100039340D01*
X80308882Y-100044705D01*
X80259949Y-100063662D01*
X80259947Y-100063663D01*
X80079709Y-100175263D01*
X79923050Y-100318076D01*
X79795297Y-100487248D01*
X79795292Y-100487256D01*
X79700808Y-100677005D01*
X79700802Y-100677020D01*
X79642790Y-100880912D01*
X79642789Y-100880914D01*
X79625471Y-101067815D01*
X79616600Y-101090153D01*
X79623693Y-101103817D01*
X79625471Y-101116184D01*
X79642789Y-101303085D01*
X79642790Y-101303087D01*
X79700802Y-101506979D01*
X79700808Y-101506994D01*
X79795292Y-101696743D01*
X79795297Y-101696751D01*
X79923050Y-101865923D01*
X80054648Y-101985890D01*
X80079711Y-102008738D01*
X80259949Y-102120337D01*
X80457624Y-102196916D01*
X80666005Y-102235870D01*
X80666008Y-102235870D01*
X80877992Y-102235870D01*
X80877995Y-102235870D01*
X81086376Y-102196916D01*
X81284051Y-102120337D01*
X81464289Y-102008738D01*
X81620951Y-101865921D01*
X81748704Y-101696749D01*
X81775976Y-101641979D01*
X81817742Y-101558103D01*
X81865245Y-101506866D01*
X81932908Y-101489445D01*
X81999248Y-101511371D01*
X82041124Y-101560970D01*
X82138399Y-101769578D01*
X82273894Y-101963082D01*
X82440917Y-102130105D01*
X82634421Y-102265600D01*
X82848507Y-102365429D01*
X82848516Y-102365433D01*
X83062000Y-102422634D01*
X83062000Y-101525012D01*
X83119007Y-101557925D01*
X83246174Y-101592000D01*
X83377826Y-101592000D01*
X83504993Y-101557925D01*
X83562000Y-101525012D01*
X83562000Y-102422633D01*
X83775483Y-102365433D01*
X83775492Y-102365429D01*
X83989578Y-102265600D01*
X84183082Y-102130105D01*
X84350108Y-101963079D01*
X84482555Y-101773926D01*
X84537132Y-101730301D01*
X84606630Y-101723107D01*
X84668985Y-101754630D01*
X84704399Y-101814860D01*
X84708130Y-101845048D01*
X84708130Y-101985863D01*
X84708132Y-101985890D01*
X84710979Y-102010443D01*
X84710981Y-102010447D01*
X84755355Y-102110947D01*
X84755358Y-102110951D01*
X84755359Y-102110953D01*
X84833047Y-102188641D01*
X84933553Y-102233019D01*
X84958127Y-102235870D01*
X86745872Y-102235869D01*
X86745887Y-102235867D01*
X86745890Y-102235867D01*
X86770443Y-102233020D01*
X86770444Y-102233019D01*
X86770447Y-102233019D01*
X86852217Y-102196914D01*
X86870947Y-102188644D01*
X86870948Y-102188643D01*
X86870953Y-102188641D01*
X86948641Y-102110953D01*
X86993019Y-102010447D01*
X86995870Y-101985873D01*
X86995869Y-100198128D01*
X86995867Y-100198109D01*
X86993020Y-100173556D01*
X86993019Y-100173554D01*
X86993019Y-100173553D01*
X86964477Y-100108911D01*
X86948644Y-100073052D01*
X86948642Y-100073049D01*
X86948641Y-100073047D01*
X86870953Y-99995359D01*
X86838794Y-99981159D01*
X86770448Y-99950981D01*
X86745873Y-99948130D01*
X84958135Y-99948130D01*
X84958109Y-99948132D01*
X84933556Y-99950979D01*
X84933552Y-99950981D01*
X84833052Y-99995355D01*
X84833044Y-99995361D01*
X84755361Y-100073044D01*
X84755357Y-100073051D01*
X84710981Y-100173550D01*
X84710981Y-100173552D01*
X84708130Y-100198125D01*
X84708130Y-100338949D01*
X84688445Y-100405988D01*
X84635641Y-100451743D01*
X84566483Y-100461687D01*
X84502927Y-100432662D01*
X84482555Y-100410073D01*
X84350109Y-100220922D01*
X84350108Y-100220920D01*
X84183082Y-100053894D01*
X83989578Y-99918399D01*
X83775492Y-99818570D01*
X83775486Y-99818567D01*
X83562000Y-99761364D01*
X83562000Y-100658988D01*
X83504993Y-100626075D01*
X83377826Y-100592000D01*
X83246174Y-100592000D01*
X83119007Y-100626075D01*
X83062000Y-100658988D01*
X83062000Y-99761364D01*
X83061999Y-99761364D01*
X82848513Y-99818567D01*
X82848507Y-99818570D01*
X82634422Y-99918399D01*
X82634420Y-99918400D01*
X82440926Y-100053886D01*
X82440920Y-100053891D01*
X82273891Y-100220920D01*
X82273886Y-100220926D01*
X82138400Y-100414420D01*
X82138399Y-100414422D01*
X82041124Y-100623029D01*
X81994951Y-100675468D01*
X81927758Y-100694620D01*
X81860877Y-100674404D01*
X81817742Y-100625896D01*
X81748707Y-100487256D01*
X81748702Y-100487248D01*
X81620949Y-100318076D01*
X81464290Y-100175263D01*
X81464289Y-100175262D01*
X81357134Y-100108914D01*
X81284052Y-100063663D01*
X81284050Y-100063662D01*
X81237725Y-100045716D01*
X81221275Y-100039343D01*
X81165875Y-99996771D01*
X81142284Y-99931004D01*
X81142070Y-99923717D01*
X81142070Y-98237844D01*
X92330000Y-98237844D01*
X92336401Y-98297372D01*
X92336403Y-98297379D01*
X92386645Y-98432086D01*
X92386649Y-98432093D01*
X92472809Y-98547187D01*
X92472812Y-98547190D01*
X92587906Y-98633350D01*
X92587913Y-98633354D01*
X92722620Y-98683596D01*
X92722627Y-98683598D01*
X92782155Y-98689999D01*
X92782172Y-98690000D01*
X93330000Y-98690000D01*
X93830000Y-98690000D01*
X94377828Y-98690000D01*
X94377844Y-98689999D01*
X94437372Y-98683598D01*
X94437379Y-98683596D01*
X94572086Y-98633354D01*
X94572093Y-98633350D01*
X94687187Y-98547190D01*
X94687190Y-98547187D01*
X94773350Y-98432093D01*
X94773354Y-98432086D01*
X94823596Y-98297379D01*
X94823598Y-98297372D01*
X94829999Y-98237844D01*
X94830000Y-98237827D01*
X94830000Y-97690000D01*
X93830000Y-97690000D01*
X93830000Y-98690000D01*
X93330000Y-98690000D01*
X93330000Y-97690000D01*
X92330000Y-97690000D01*
X92330000Y-98237844D01*
X81142070Y-98237844D01*
X81142070Y-96642155D01*
X92330000Y-96642155D01*
X92330000Y-97190000D01*
X93330000Y-97190000D01*
X93830000Y-97190000D01*
X94830000Y-97190000D01*
X94830000Y-96642172D01*
X94829999Y-96642155D01*
X94823598Y-96582627D01*
X94823596Y-96582620D01*
X94773354Y-96447913D01*
X94773350Y-96447906D01*
X94687190Y-96332812D01*
X94687187Y-96332809D01*
X94572093Y-96246649D01*
X94572086Y-96246645D01*
X94437379Y-96196403D01*
X94437372Y-96196401D01*
X94377844Y-96190000D01*
X93830000Y-96190000D01*
X93830000Y-97190000D01*
X93330000Y-97190000D01*
X93330000Y-96190000D01*
X92782155Y-96190000D01*
X92722627Y-96196401D01*
X92722620Y-96196403D01*
X92587913Y-96246645D01*
X92587906Y-96246649D01*
X92472812Y-96332809D01*
X92472809Y-96332812D01*
X92386649Y-96447906D01*
X92386645Y-96447913D01*
X92336403Y-96582620D01*
X92336401Y-96582627D01*
X92330000Y-96642155D01*
X81142070Y-96642155D01*
X81142070Y-91179998D01*
X88556221Y-91179998D01*
X88556221Y-91180001D01*
X88575771Y-91328503D01*
X88575773Y-91328508D01*
X88633090Y-91466885D01*
X88633090Y-91466886D01*
X88633092Y-91466889D01*
X88633093Y-91466890D01*
X88724277Y-91585723D01*
X88843110Y-91676907D01*
X88843113Y-91676908D01*
X88843114Y-91676909D01*
X88912302Y-91705567D01*
X88981495Y-91734228D01*
X89055747Y-91744003D01*
X89129999Y-91753779D01*
X89130000Y-91753779D01*
X89130001Y-91753779D01*
X89179501Y-91747262D01*
X89278505Y-91734228D01*
X89416885Y-91676909D01*
X89416886Y-91676909D01*
X89416886Y-91676908D01*
X89416890Y-91676907D01*
X89535723Y-91585723D01*
X89626907Y-91466890D01*
X89684228Y-91328505D01*
X89699654Y-91211331D01*
X89703779Y-91180001D01*
X89703779Y-91179998D01*
X89685545Y-91041496D01*
X89684228Y-91031495D01*
X89626907Y-90893111D01*
X89535724Y-90774278D01*
X89535723Y-90774277D01*
X89416890Y-90683093D01*
X89416887Y-90683092D01*
X89416885Y-90683090D01*
X89278508Y-90625773D01*
X89278503Y-90625771D01*
X89130001Y-90606221D01*
X89129999Y-90606221D01*
X88981496Y-90625771D01*
X88981494Y-90625772D01*
X88843111Y-90683092D01*
X88724277Y-90774277D01*
X88633092Y-90893111D01*
X88575772Y-91031494D01*
X88575771Y-91031496D01*
X88556221Y-91179998D01*
X81142070Y-91179998D01*
X81142070Y-90121281D01*
X81142070Y-90121279D01*
X81116850Y-90027158D01*
X81102958Y-90003097D01*
X81068130Y-89942772D01*
X78670010Y-87544652D01*
X80022145Y-87544652D01*
X80041749Y-87831270D01*
X80041750Y-87831271D01*
X80100197Y-88112537D01*
X80100202Y-88112554D01*
X80196407Y-88383247D01*
X80328579Y-88638329D01*
X80328583Y-88638335D01*
X80473919Y-88844228D01*
X80473920Y-88844229D01*
X81083372Y-88234777D01*
X81173606Y-88358972D01*
X81312732Y-88498098D01*
X81436925Y-88588330D01*
X80829250Y-89196005D01*
X80913196Y-89264299D01*
X80913198Y-89264300D01*
X81158659Y-89413569D01*
X81422160Y-89528023D01*
X81698789Y-89605531D01*
X81698796Y-89605532D01*
X81983407Y-89644652D01*
X82270697Y-89644652D01*
X82555307Y-89605532D01*
X82555314Y-89605531D01*
X82831943Y-89528023D01*
X83095444Y-89413569D01*
X83340906Y-89264300D01*
X83424852Y-89196005D01*
X82817178Y-88588330D01*
X82941372Y-88498098D01*
X83080498Y-88358972D01*
X83170731Y-88234777D01*
X83780182Y-88844228D01*
X83780183Y-88844228D01*
X83925524Y-88638328D01*
X84057696Y-88383247D01*
X84153901Y-88112554D01*
X84153906Y-88112537D01*
X84194393Y-87917698D01*
X90356261Y-87917698D01*
X90356261Y-87917701D01*
X90375811Y-88066203D01*
X90375813Y-88066208D01*
X90433130Y-88204585D01*
X90433130Y-88204586D01*
X90433132Y-88204589D01*
X90433133Y-88204590D01*
X90524317Y-88323423D01*
X90643150Y-88414607D01*
X90643153Y-88414608D01*
X90643154Y-88414609D01*
X90712342Y-88443267D01*
X90781535Y-88471928D01*
X90855475Y-88481662D01*
X90938098Y-88492540D01*
X90937897Y-88494062D01*
X90996138Y-88511164D01*
X91016780Y-88527798D01*
X91275112Y-88786130D01*
X91275114Y-88786131D01*
X91275118Y-88786134D01*
X91328605Y-88817014D01*
X91359498Y-88834850D01*
X91453619Y-88860070D01*
X91453622Y-88860070D01*
X95498718Y-88860070D01*
X95498721Y-88860070D01*
X95592842Y-88834850D01*
X95623729Y-88817017D01*
X95677228Y-88786130D01*
X96495648Y-87967709D01*
X96542376Y-87938349D01*
X96555024Y-87933924D01*
X96660258Y-87856258D01*
X96737924Y-87751024D01*
X96781122Y-87627573D01*
X96783870Y-87598267D01*
X96783869Y-87153734D01*
X96781122Y-87124427D01*
X96774355Y-87105087D01*
X96734856Y-86992206D01*
X96737635Y-86991233D01*
X96727570Y-86950632D01*
X96727570Y-86859869D01*
X96747255Y-86792830D01*
X96800059Y-86747075D01*
X96851570Y-86735869D01*
X96923460Y-86735869D01*
X96923466Y-86735869D01*
X96953453Y-86733058D01*
X97079749Y-86688865D01*
X97187409Y-86609409D01*
X97266865Y-86501749D01*
X97266866Y-86501747D01*
X97273732Y-86482125D01*
X98170130Y-86482125D01*
X98170130Y-88269864D01*
X98170132Y-88269890D01*
X98172979Y-88294443D01*
X98172981Y-88294447D01*
X98217355Y-88394947D01*
X98217358Y-88394951D01*
X98217359Y-88394953D01*
X98295047Y-88472641D01*
X98395553Y-88517019D01*
X98420127Y-88519870D01*
X100207872Y-88519869D01*
X100207887Y-88519867D01*
X100207890Y-88519867D01*
X100232443Y-88517020D01*
X100232444Y-88517019D01*
X100232447Y-88517019D01*
X100306851Y-88484166D01*
X100332947Y-88472644D01*
X100332948Y-88472643D01*
X100332953Y-88472641D01*
X100410641Y-88394953D01*
X100455019Y-88294447D01*
X100457870Y-88269873D01*
X100457869Y-86482128D01*
X100457652Y-86480256D01*
X100455020Y-86457556D01*
X100455019Y-86457554D01*
X100455019Y-86457553D01*
X100430547Y-86402130D01*
X100410644Y-86357052D01*
X100410642Y-86357049D01*
X100410641Y-86357047D01*
X100332953Y-86279359D01*
X100263076Y-86248505D01*
X100232448Y-86234981D01*
X100207873Y-86232130D01*
X98420135Y-86232130D01*
X98420109Y-86232132D01*
X98395556Y-86234979D01*
X98395552Y-86234981D01*
X98295052Y-86279355D01*
X98295044Y-86279361D01*
X98217361Y-86357044D01*
X98217357Y-86357051D01*
X98172981Y-86457550D01*
X98172981Y-86457552D01*
X98170130Y-86482125D01*
X97273732Y-86482125D01*
X97311058Y-86375455D01*
X97311058Y-86375453D01*
X97312530Y-86359755D01*
X97313870Y-86345467D01*
X97313869Y-85938534D01*
X97311058Y-85908547D01*
X97266865Y-85782251D01*
X97256040Y-85767584D01*
X97187409Y-85674591D01*
X97187408Y-85674590D01*
X97079749Y-85595135D01*
X96953454Y-85550941D01*
X96923471Y-85548130D01*
X95791539Y-85548130D01*
X95777756Y-85549422D01*
X95761547Y-85550942D01*
X95761544Y-85550942D01*
X95761543Y-85550943D01*
X95761541Y-85550943D01*
X95635250Y-85595135D01*
X95635249Y-85595135D01*
X95527591Y-85674590D01*
X95527590Y-85674591D01*
X95448135Y-85782249D01*
X95448135Y-85782250D01*
X95403941Y-85908544D01*
X95403941Y-85908546D01*
X95401130Y-85938528D01*
X95401130Y-86345460D01*
X95401316Y-86347441D01*
X95403942Y-86375453D01*
X95403942Y-86375455D01*
X95403943Y-86375456D01*
X95403943Y-86375458D01*
X95448134Y-86501747D01*
X95448135Y-86501749D01*
X95475771Y-86539194D01*
X95499741Y-86604820D01*
X95500000Y-86612826D01*
X95500000Y-87502000D01*
X95480315Y-87569039D01*
X95427511Y-87614794D01*
X95376000Y-87626000D01*
X94471210Y-87626000D01*
X94472854Y-87646910D01*
X94517968Y-87802195D01*
X94595213Y-87932809D01*
X94612396Y-88000533D01*
X94590236Y-88066795D01*
X94535770Y-88110559D01*
X94488481Y-88119930D01*
X91706990Y-88119930D01*
X91639951Y-88100245D01*
X91619309Y-88083611D01*
X91540138Y-88004440D01*
X91506653Y-87943117D01*
X91504370Y-87921886D01*
X91496983Y-87865773D01*
X91484268Y-87769195D01*
X91426947Y-87630811D01*
X91401975Y-87598267D01*
X91335764Y-87511978D01*
X91335763Y-87511977D01*
X91216930Y-87420793D01*
X91216927Y-87420792D01*
X91216925Y-87420790D01*
X91078548Y-87363473D01*
X91078543Y-87363471D01*
X90930041Y-87343921D01*
X90930039Y-87343921D01*
X90781536Y-87363471D01*
X90781534Y-87363472D01*
X90643151Y-87420792D01*
X90524317Y-87511977D01*
X90433132Y-87630811D01*
X90375812Y-87769194D01*
X90375811Y-87769196D01*
X90356261Y-87917698D01*
X84194393Y-87917698D01*
X84212353Y-87831271D01*
X84212354Y-87831270D01*
X84231958Y-87544652D01*
X84212354Y-87258033D01*
X84212353Y-87258032D01*
X84153906Y-86976766D01*
X84153901Y-86976749D01*
X84057696Y-86706056D01*
X83925524Y-86450975D01*
X83780182Y-86245074D01*
X83170730Y-86854525D01*
X83080498Y-86730332D01*
X82941372Y-86591206D01*
X82817177Y-86500972D01*
X83424852Y-85893297D01*
X83340914Y-85825009D01*
X83340905Y-85825003D01*
X83095444Y-85675734D01*
X82831943Y-85561280D01*
X82555314Y-85483772D01*
X82555307Y-85483771D01*
X82270697Y-85444652D01*
X81983407Y-85444652D01*
X81698796Y-85483771D01*
X81698789Y-85483772D01*
X81422160Y-85561280D01*
X81158662Y-85675733D01*
X80913192Y-85825007D01*
X80913189Y-85825009D01*
X80829251Y-85893297D01*
X81436926Y-86500972D01*
X81312732Y-86591206D01*
X81173606Y-86730332D01*
X81083372Y-86854525D01*
X80473920Y-86245073D01*
X80473919Y-86245073D01*
X80328583Y-86450968D01*
X80328579Y-86450974D01*
X80196407Y-86706056D01*
X80100202Y-86976749D01*
X80100197Y-86976766D01*
X80041750Y-87258032D01*
X80041749Y-87258033D01*
X80022145Y-87544652D01*
X78670010Y-87544652D01*
X69909228Y-78783870D01*
X69855729Y-78752982D01*
X69824842Y-78735150D01*
X69730721Y-78709930D01*
X36521279Y-78709930D01*
X36455118Y-78727657D01*
X36427153Y-78735151D01*
X36396272Y-78752979D01*
X36396273Y-78752980D01*
X36342775Y-78783868D01*
X36342773Y-78783869D01*
X36025467Y-79101174D01*
X35964144Y-79134658D01*
X35928127Y-79136160D01*
X35928127Y-79136221D01*
X35926668Y-79136221D01*
X35921609Y-79136432D01*
X35920005Y-79136221D01*
X35919998Y-79136221D01*
X35795190Y-79152652D01*
X35726155Y-79141886D01*
X35673899Y-79095506D01*
X35655014Y-79028237D01*
X35675495Y-78961437D01*
X35691317Y-78942039D01*
X37663358Y-76969998D01*
X40286221Y-76969998D01*
X40286221Y-76970001D01*
X40305771Y-77118503D01*
X40305773Y-77118508D01*
X40363090Y-77256885D01*
X40363090Y-77256886D01*
X40363092Y-77256889D01*
X40363093Y-77256890D01*
X40454277Y-77375723D01*
X40573110Y-77466907D01*
X40573113Y-77466908D01*
X40573114Y-77466909D01*
X40642302Y-77495567D01*
X40711495Y-77524228D01*
X40785747Y-77534003D01*
X40859999Y-77543779D01*
X40860000Y-77543779D01*
X40860001Y-77543779D01*
X40909501Y-77537262D01*
X41008505Y-77524228D01*
X41146885Y-77466909D01*
X41146886Y-77466909D01*
X41146886Y-77466908D01*
X41146890Y-77466907D01*
X41265723Y-77375723D01*
X41356907Y-77256890D01*
X41414228Y-77118505D01*
X41427652Y-77016542D01*
X41433779Y-76970001D01*
X41433779Y-76969998D01*
X41414228Y-76821496D01*
X41414228Y-76821495D01*
X41356907Y-76683111D01*
X41345702Y-76668508D01*
X41265724Y-76564278D01*
X41255224Y-76556221D01*
X41146890Y-76473093D01*
X41146887Y-76473092D01*
X41146885Y-76473090D01*
X41008508Y-76415773D01*
X41008503Y-76415771D01*
X40860001Y-76396221D01*
X40859999Y-76396221D01*
X40711496Y-76415771D01*
X40711494Y-76415772D01*
X40573111Y-76473092D01*
X40454277Y-76564277D01*
X40363092Y-76683111D01*
X40305772Y-76821494D01*
X40305771Y-76821496D01*
X40286221Y-76969998D01*
X37663358Y-76969998D01*
X38203259Y-76430097D01*
X38264582Y-76396613D01*
X38285817Y-76394329D01*
X38289997Y-76393778D01*
X38290000Y-76393779D01*
X38438505Y-76374228D01*
X38576885Y-76316909D01*
X38576886Y-76316909D01*
X38576886Y-76316908D01*
X38576890Y-76316907D01*
X38695723Y-76225723D01*
X38786907Y-76106890D01*
X38844228Y-75968505D01*
X38863779Y-75820000D01*
X38844228Y-75671495D01*
X38786907Y-75533111D01*
X38723075Y-75449923D01*
X38695724Y-75414278D01*
X38695723Y-75414277D01*
X38576890Y-75323093D01*
X38576887Y-75323092D01*
X38576885Y-75323090D01*
X38438508Y-75265773D01*
X38438503Y-75265771D01*
X38290001Y-75246221D01*
X38289999Y-75246221D01*
X38141496Y-75265771D01*
X38141494Y-75265772D01*
X38003111Y-75323092D01*
X37884277Y-75414277D01*
X37793092Y-75533111D01*
X37735772Y-75671494D01*
X37735772Y-75671495D01*
X37715160Y-75828058D01*
X37713637Y-75827857D01*
X37696536Y-75886097D01*
X37679902Y-75906739D01*
X30771751Y-82814890D01*
X30710428Y-82848375D01*
X30640736Y-82843391D01*
X30584803Y-82801519D01*
X30560386Y-82736055D01*
X30560070Y-82727209D01*
X30560070Y-79234649D01*
X30579755Y-79167610D01*
X30596384Y-79146973D01*
X30735426Y-79007931D01*
X30796747Y-78974448D01*
X30866439Y-78979432D01*
X30922372Y-79021304D01*
X30946789Y-79086768D01*
X30934173Y-79144761D01*
X30936203Y-79145602D01*
X30875772Y-79291494D01*
X30875771Y-79291496D01*
X30856221Y-79439998D01*
X30856221Y-79440001D01*
X30875771Y-79588503D01*
X30875773Y-79588508D01*
X30933090Y-79726885D01*
X30933090Y-79726886D01*
X30933092Y-79726889D01*
X30933093Y-79726890D01*
X31024277Y-79845723D01*
X31143110Y-79936907D01*
X31143113Y-79936908D01*
X31143114Y-79936909D01*
X31172288Y-79948993D01*
X31281495Y-79994228D01*
X31355747Y-80004003D01*
X31429999Y-80013779D01*
X31430000Y-80013779D01*
X31430001Y-80013779D01*
X31479501Y-80007262D01*
X31578505Y-79994228D01*
X31716885Y-79936909D01*
X31716886Y-79936909D01*
X31716886Y-79936908D01*
X31716890Y-79936907D01*
X31835723Y-79845723D01*
X31926907Y-79726890D01*
X31984228Y-79588505D01*
X32003779Y-79440000D01*
X32001643Y-79423779D01*
X31984228Y-79291496D01*
X31984228Y-79291495D01*
X31926907Y-79153111D01*
X31887055Y-79101174D01*
X31835724Y-79034278D01*
X31835723Y-79034277D01*
X31716890Y-78943093D01*
X31716887Y-78943092D01*
X31716885Y-78943090D01*
X31578508Y-78885773D01*
X31578503Y-78885771D01*
X31430001Y-78866221D01*
X31429999Y-78866221D01*
X31281496Y-78885771D01*
X31281494Y-78885772D01*
X31135602Y-78946203D01*
X31134550Y-78943665D01*
X31079692Y-78956964D01*
X31013670Y-78934100D01*
X30970488Y-78879171D01*
X30963859Y-78809617D01*
X30995886Y-78747520D01*
X30997895Y-78745462D01*
X34783687Y-74959669D01*
X34845008Y-74926186D01*
X34855181Y-74924413D01*
X34859998Y-74923778D01*
X34860000Y-74923779D01*
X35008505Y-74904228D01*
X35146885Y-74846909D01*
X35146886Y-74846909D01*
X35146886Y-74846908D01*
X35146890Y-74846907D01*
X35265723Y-74755723D01*
X35356907Y-74636890D01*
X35414228Y-74498505D01*
X35433779Y-74350000D01*
X35414228Y-74201495D01*
X35360279Y-74071251D01*
X35353797Y-74055602D01*
X35355868Y-74054744D01*
X35342143Y-73998170D01*
X35364996Y-73932143D01*
X35419917Y-73888952D01*
X35466003Y-73880070D01*
X43572310Y-73880070D01*
X43639349Y-73899755D01*
X43659991Y-73916389D01*
X47469732Y-77726130D01*
X47506591Y-77747410D01*
X47554118Y-77774850D01*
X47648239Y-77800070D01*
X77865350Y-77800070D01*
X77932389Y-77819755D01*
X77953031Y-77836389D01*
X86554772Y-86438130D01*
X86639159Y-86486851D01*
X86694761Y-86501749D01*
X86694763Y-86501750D01*
X86709588Y-86505722D01*
X86733279Y-86512070D01*
X86733280Y-86512070D01*
X86830721Y-86512070D01*
X93118154Y-86512070D01*
X93185193Y-86531755D01*
X93217924Y-86562437D01*
X93249204Y-86604820D01*
X93252591Y-86609409D01*
X93360251Y-86688865D01*
X93409380Y-86706056D01*
X93486545Y-86733058D01*
X93494369Y-86733791D01*
X93516533Y-86735870D01*
X94427094Y-86735869D01*
X94494133Y-86755553D01*
X94539888Y-86808357D01*
X94549832Y-86877516D01*
X94533827Y-86922989D01*
X94517967Y-86949806D01*
X94517966Y-86949809D01*
X94472855Y-87105081D01*
X94472854Y-87105087D01*
X94471209Y-87125999D01*
X94471210Y-87126000D01*
X95000000Y-87126000D01*
X95000000Y-86509535D01*
X95002115Y-86509535D01*
X95000111Y-86480923D01*
X95004197Y-86466505D01*
X95007329Y-86457556D01*
X95036058Y-86375453D01*
X95038870Y-86345467D01*
X95038869Y-85938534D01*
X95036058Y-85908547D01*
X95036055Y-85908538D01*
X95034680Y-85902240D01*
X95039604Y-85832544D01*
X95068143Y-85788095D01*
X95112680Y-85743558D01*
X95112686Y-85743550D01*
X95196281Y-85602198D01*
X95242100Y-85444486D01*
X95242295Y-85442001D01*
X95242295Y-85442000D01*
X92922705Y-85442000D01*
X92922704Y-85442001D01*
X92922899Y-85444486D01*
X92970895Y-85609690D01*
X92968637Y-85610345D01*
X92975754Y-85668037D01*
X92945460Y-85730997D01*
X92885935Y-85767584D01*
X92853395Y-85771930D01*
X86986650Y-85771930D01*
X86919611Y-85752245D01*
X86898969Y-85735611D01*
X84223356Y-83059998D01*
X86026221Y-83059998D01*
X86026221Y-83060001D01*
X86045771Y-83208503D01*
X86045773Y-83208508D01*
X86103090Y-83346885D01*
X86103090Y-83346886D01*
X86103092Y-83346889D01*
X86103093Y-83346890D01*
X86194277Y-83465723D01*
X86313110Y-83556907D01*
X86313113Y-83556908D01*
X86313114Y-83556909D01*
X86372468Y-83581494D01*
X86451495Y-83614228D01*
X86525747Y-83624003D01*
X86599999Y-83633779D01*
X86600000Y-83633779D01*
X86600001Y-83633779D01*
X86649501Y-83627262D01*
X86748505Y-83614228D01*
X86886890Y-83556907D01*
X87005723Y-83465723D01*
X87005724Y-83465720D01*
X87010644Y-83461946D01*
X87075813Y-83436751D01*
X87144258Y-83450789D01*
X87194248Y-83499602D01*
X87210131Y-83560321D01*
X87210131Y-83689864D01*
X87210132Y-83689890D01*
X87212979Y-83714443D01*
X87212981Y-83714447D01*
X87257355Y-83814947D01*
X87257358Y-83814951D01*
X87257359Y-83814953D01*
X87335047Y-83892641D01*
X87435553Y-83937019D01*
X87460127Y-83939870D01*
X88447872Y-83939869D01*
X88447887Y-83939867D01*
X88447890Y-83939867D01*
X88472443Y-83937020D01*
X88472444Y-83937019D01*
X88472447Y-83937019D01*
X88567092Y-83895229D01*
X88572947Y-83892644D01*
X88572948Y-83892643D01*
X88572953Y-83892641D01*
X88650641Y-83814953D01*
X88695019Y-83714447D01*
X88697870Y-83689873D01*
X88697869Y-82802128D01*
X88697867Y-82802109D01*
X88695020Y-82777556D01*
X88695019Y-82777554D01*
X88695019Y-82777553D01*
X88665624Y-82710979D01*
X88650644Y-82677052D01*
X88650642Y-82677049D01*
X88650641Y-82677047D01*
X88572953Y-82599359D01*
X88528815Y-82579870D01*
X88472448Y-82554981D01*
X88447873Y-82552130D01*
X87460135Y-82552130D01*
X87460109Y-82552132D01*
X87435556Y-82554979D01*
X87435552Y-82554981D01*
X87335052Y-82599355D01*
X87335046Y-82599359D01*
X87282794Y-82651612D01*
X87221470Y-82685096D01*
X87195113Y-82687930D01*
X87090738Y-82687930D01*
X87023699Y-82668245D01*
X87012298Y-82659057D01*
X87012170Y-82659225D01*
X87005724Y-82654279D01*
X87005723Y-82654277D01*
X86886890Y-82563093D01*
X86886887Y-82563092D01*
X86886885Y-82563090D01*
X86748508Y-82505773D01*
X86748503Y-82505771D01*
X86600001Y-82486221D01*
X86599999Y-82486221D01*
X86451496Y-82505771D01*
X86451494Y-82505772D01*
X86313111Y-82563092D01*
X86194277Y-82654277D01*
X86103092Y-82773111D01*
X86045772Y-82911494D01*
X86045771Y-82911496D01*
X86026221Y-83059998D01*
X84223356Y-83059998D01*
X82153356Y-80989998D01*
X85926221Y-80989998D01*
X85926221Y-80990001D01*
X85945771Y-81138503D01*
X85945773Y-81138508D01*
X86003090Y-81276885D01*
X86003090Y-81276886D01*
X86003092Y-81276889D01*
X86003093Y-81276890D01*
X86094277Y-81395723D01*
X86213110Y-81486907D01*
X86213113Y-81486908D01*
X86213114Y-81486909D01*
X86216900Y-81488477D01*
X86351495Y-81544228D01*
X86418968Y-81553111D01*
X86508058Y-81564840D01*
X86507857Y-81566362D01*
X86566098Y-81583464D01*
X86586740Y-81600098D01*
X86628772Y-81642130D01*
X86682270Y-81673017D01*
X86713158Y-81690850D01*
X86807279Y-81716070D01*
X87091445Y-81716070D01*
X87158484Y-81735755D01*
X87204239Y-81788559D01*
X87211096Y-81807517D01*
X87212982Y-81814451D01*
X87257355Y-81914947D01*
X87257358Y-81914951D01*
X87257359Y-81914953D01*
X87335047Y-81992641D01*
X87435553Y-82037019D01*
X87460127Y-82039870D01*
X88447872Y-82039869D01*
X88447887Y-82039867D01*
X88447890Y-82039867D01*
X88472443Y-82037020D01*
X88472444Y-82037019D01*
X88472447Y-82037019D01*
X88546851Y-82004166D01*
X88572947Y-81992644D01*
X88572948Y-81992643D01*
X88572953Y-81992641D01*
X88650641Y-81914953D01*
X88678382Y-81852125D01*
X89610130Y-81852125D01*
X89610130Y-82739864D01*
X89610132Y-82739890D01*
X89612979Y-82764443D01*
X89612981Y-82764447D01*
X89657355Y-82864947D01*
X89657358Y-82864951D01*
X89657359Y-82864953D01*
X89735047Y-82942641D01*
X89835553Y-82987019D01*
X89860127Y-82989870D01*
X90847872Y-82989869D01*
X90847887Y-82989867D01*
X90847890Y-82989867D01*
X90872443Y-82987020D01*
X90872444Y-82987019D01*
X90872447Y-82987019D01*
X90946851Y-82954166D01*
X90972947Y-82942644D01*
X90972948Y-82942643D01*
X90972953Y-82942641D01*
X91050641Y-82864953D01*
X91050643Y-82864946D01*
X91053968Y-82860095D01*
X91108093Y-82815911D01*
X91156269Y-82806170D01*
X92602131Y-82806170D01*
X92669170Y-82825855D01*
X92714925Y-82878659D01*
X92726131Y-82930170D01*
X92726131Y-82989376D01*
X92729301Y-83015773D01*
X92736625Y-83076779D01*
X92736627Y-83076783D01*
X92791471Y-83215858D01*
X92791474Y-83215864D01*
X92881809Y-83334990D01*
X92995886Y-83421496D01*
X93000938Y-83425327D01*
X93140020Y-83480174D01*
X93227423Y-83490670D01*
X93260459Y-83490669D01*
X93327496Y-83510352D01*
X93373252Y-83563154D01*
X93383197Y-83632313D01*
X93354174Y-83695869D01*
X93334094Y-83714438D01*
X93252590Y-83774591D01*
X93173135Y-83882249D01*
X93173135Y-83882250D01*
X93128941Y-84008544D01*
X93128941Y-84008546D01*
X93126130Y-84038528D01*
X93126130Y-84445459D01*
X93128942Y-84475453D01*
X93130321Y-84481764D01*
X93125393Y-84551460D01*
X93096859Y-84595900D01*
X93052321Y-84640439D01*
X93052313Y-84640449D01*
X92968718Y-84781801D01*
X92922899Y-84939513D01*
X92922704Y-84941998D01*
X92922705Y-84942000D01*
X95242295Y-84942000D01*
X95242295Y-84941998D01*
X95242100Y-84939513D01*
X95212027Y-84835999D01*
X98165230Y-84835999D01*
X98165230Y-84836000D01*
X98184789Y-85047085D01*
X98184790Y-85047087D01*
X98242802Y-85250979D01*
X98242808Y-85250994D01*
X98337292Y-85440743D01*
X98337297Y-85440751D01*
X98465050Y-85609923D01*
X98563438Y-85699615D01*
X98621711Y-85752738D01*
X98801949Y-85864337D01*
X98999624Y-85940916D01*
X99208005Y-85979870D01*
X99208008Y-85979870D01*
X99419992Y-85979870D01*
X99419995Y-85979870D01*
X99628376Y-85940916D01*
X99826051Y-85864337D01*
X100006289Y-85752738D01*
X100162951Y-85609921D01*
X100290704Y-85440749D01*
X100385196Y-85250984D01*
X100443210Y-85047086D01*
X100462770Y-84836000D01*
X100451882Y-84718505D01*
X100443210Y-84624914D01*
X100443209Y-84624912D01*
X100434954Y-84595900D01*
X100385196Y-84421016D01*
X100385191Y-84421005D01*
X100290707Y-84231256D01*
X100290702Y-84231248D01*
X100162949Y-84062076D01*
X100006290Y-83919263D01*
X100006289Y-83919262D01*
X99826051Y-83807663D01*
X99826049Y-83807662D01*
X99628379Y-83731085D01*
X99628378Y-83731084D01*
X99628376Y-83731084D01*
X99419995Y-83692130D01*
X99208005Y-83692130D01*
X98999624Y-83731084D01*
X98999622Y-83731084D01*
X98999620Y-83731085D01*
X98801950Y-83807662D01*
X98801948Y-83807663D01*
X98621709Y-83919263D01*
X98465050Y-84062076D01*
X98337297Y-84231248D01*
X98337292Y-84231256D01*
X98242808Y-84421005D01*
X98242802Y-84421020D01*
X98184790Y-84624912D01*
X98184789Y-84624914D01*
X98165230Y-84835999D01*
X95212027Y-84835999D01*
X95196281Y-84781801D01*
X95112685Y-84640447D01*
X95112678Y-84640438D01*
X95068142Y-84595902D01*
X95034657Y-84534579D01*
X95034682Y-84481748D01*
X95036057Y-84475455D01*
X95036058Y-84475453D01*
X95038870Y-84445467D01*
X95038869Y-84038534D01*
X95038100Y-84030339D01*
X95051436Y-83961759D01*
X95073877Y-83931080D01*
X95109730Y-83895228D01*
X95150713Y-83824242D01*
X95201280Y-83776028D01*
X95269887Y-83762804D01*
X95334752Y-83788772D01*
X95365486Y-83824242D01*
X95375582Y-83841729D01*
X95398977Y-83882250D01*
X95401143Y-83886001D01*
X95417615Y-83953901D01*
X95410797Y-83988952D01*
X95403942Y-84008542D01*
X95403941Y-84008546D01*
X95401130Y-84038528D01*
X95401130Y-84445460D01*
X95401131Y-84445466D01*
X95403942Y-84475453D01*
X95403942Y-84475455D01*
X95403943Y-84475456D01*
X95403943Y-84475458D01*
X95448135Y-84601749D01*
X95448135Y-84601750D01*
X95527590Y-84709408D01*
X95527591Y-84709409D01*
X95635251Y-84788865D01*
X95696070Y-84810146D01*
X95761545Y-84833058D01*
X95769369Y-84833791D01*
X95791533Y-84835870D01*
X96923466Y-84835869D01*
X96953453Y-84833058D01*
X97079749Y-84788865D01*
X97187409Y-84709409D01*
X97266865Y-84601749D01*
X97308850Y-84481764D01*
X97311058Y-84475455D01*
X97311058Y-84475453D01*
X97313153Y-84453111D01*
X97313870Y-84445467D01*
X97313869Y-84038534D01*
X97311058Y-84008547D01*
X97266865Y-83882251D01*
X97264100Y-83878505D01*
X97227137Y-83828421D01*
X97187409Y-83774591D01*
X97105902Y-83714437D01*
X97063654Y-83658792D01*
X97058195Y-83589136D01*
X97091262Y-83527587D01*
X97152356Y-83493685D01*
X97179537Y-83490669D01*
X97212576Y-83490669D01*
X97299980Y-83480174D01*
X97439062Y-83425327D01*
X97558190Y-83334990D01*
X97648527Y-83215862D01*
X97703374Y-83076780D01*
X97713870Y-82989377D01*
X97713870Y-82904370D01*
X97733555Y-82837331D01*
X97786359Y-82791576D01*
X97837870Y-82780370D01*
X98200576Y-82780370D01*
X98267615Y-82800055D01*
X98311576Y-82849098D01*
X98337292Y-82900743D01*
X98337297Y-82900751D01*
X98465050Y-83069923D01*
X98568552Y-83164277D01*
X98621711Y-83212738D01*
X98801949Y-83324337D01*
X98999624Y-83400916D01*
X99208005Y-83439870D01*
X99208008Y-83439870D01*
X99419992Y-83439870D01*
X99419995Y-83439870D01*
X99628376Y-83400916D01*
X99826051Y-83324337D01*
X100006289Y-83212738D01*
X100155428Y-83076779D01*
X100162949Y-83069923D01*
X100170445Y-83059998D01*
X100290704Y-82900749D01*
X100385196Y-82710984D01*
X100443210Y-82507086D01*
X100462770Y-82296000D01*
X100458611Y-82251122D01*
X100443210Y-82084914D01*
X100443209Y-82084912D01*
X100440727Y-82076190D01*
X100385196Y-81881016D01*
X100364773Y-81840001D01*
X100290707Y-81691256D01*
X100290702Y-81691248D01*
X100162949Y-81522076D01*
X100006290Y-81379263D01*
X100006289Y-81379262D01*
X99826051Y-81267663D01*
X99791708Y-81254358D01*
X99736307Y-81211786D01*
X99712716Y-81146020D01*
X99728427Y-81077939D01*
X99778451Y-81029160D01*
X99784097Y-81026350D01*
X99991578Y-80929600D01*
X100185082Y-80794105D01*
X100352105Y-80627082D01*
X100487600Y-80433578D01*
X100587429Y-80219492D01*
X100587432Y-80219486D01*
X100644636Y-80006000D01*
X99747012Y-80006000D01*
X99779925Y-79948993D01*
X99814000Y-79821826D01*
X99814000Y-79690174D01*
X99779925Y-79563007D01*
X99747012Y-79506000D01*
X100644636Y-79506000D01*
X100644635Y-79505999D01*
X100587432Y-79292513D01*
X100587429Y-79292507D01*
X100487600Y-79078422D01*
X100487599Y-79078420D01*
X100352113Y-78884926D01*
X100352108Y-78884920D01*
X100185082Y-78717894D01*
X99991578Y-78582399D01*
X99784097Y-78485649D01*
X99731658Y-78439476D01*
X99712506Y-78372283D01*
X99732722Y-78305402D01*
X99785887Y-78260067D01*
X99791668Y-78257656D01*
X99826051Y-78244337D01*
X100006289Y-78132738D01*
X100162951Y-77989921D01*
X100290704Y-77820749D01*
X100385196Y-77630984D01*
X100443210Y-77427086D01*
X100462770Y-77216000D01*
X100452314Y-77103167D01*
X100443210Y-77004914D01*
X100443209Y-77004912D01*
X100443014Y-77004228D01*
X100385196Y-76801016D01*
X100361904Y-76754239D01*
X100290707Y-76611256D01*
X100290702Y-76611248D01*
X100162949Y-76442076D01*
X100017233Y-76309239D01*
X100006289Y-76299262D01*
X99826051Y-76187663D01*
X99826049Y-76187662D01*
X99628379Y-76111085D01*
X99628378Y-76111084D01*
X99628376Y-76111084D01*
X99419995Y-76072130D01*
X99208005Y-76072130D01*
X98999624Y-76111084D01*
X98999622Y-76111084D01*
X98999620Y-76111085D01*
X98801950Y-76187662D01*
X98801948Y-76187663D01*
X98621709Y-76299263D01*
X98465050Y-76442076D01*
X98337297Y-76611248D01*
X98337292Y-76611256D01*
X98242808Y-76801005D01*
X98242802Y-76801020D01*
X98184790Y-77004912D01*
X98184789Y-77004914D01*
X98165230Y-77215999D01*
X98165230Y-77216000D01*
X98184789Y-77427085D01*
X98184790Y-77427087D01*
X98242802Y-77630979D01*
X98242808Y-77630994D01*
X98337292Y-77820743D01*
X98337297Y-77820751D01*
X98465050Y-77989923D01*
X98599822Y-78112783D01*
X98621711Y-78132738D01*
X98801949Y-78244337D01*
X98801953Y-78244338D01*
X98801956Y-78244340D01*
X98819850Y-78251272D01*
X98836289Y-78257640D01*
X98891691Y-78300211D01*
X98915283Y-78365978D01*
X98899573Y-78434058D01*
X98849550Y-78482838D01*
X98843902Y-78485649D01*
X98636422Y-78582399D01*
X98636420Y-78582400D01*
X98442926Y-78717886D01*
X98442920Y-78717891D01*
X98275891Y-78884920D01*
X98275886Y-78884926D01*
X98140400Y-79078420D01*
X98140399Y-79078422D01*
X98040570Y-79292507D01*
X98040567Y-79292513D01*
X97983364Y-79505999D01*
X97983364Y-79506000D01*
X98880988Y-79506000D01*
X98848075Y-79563007D01*
X98814000Y-79690174D01*
X98814000Y-79821826D01*
X98848075Y-79948993D01*
X98880988Y-80006000D01*
X97983364Y-80006000D01*
X98040567Y-80219486D01*
X98040570Y-80219492D01*
X98140399Y-80433578D01*
X98275894Y-80627082D01*
X98442917Y-80794105D01*
X98636421Y-80929600D01*
X98843902Y-81026350D01*
X98896341Y-81072522D01*
X98915493Y-81139716D01*
X98895277Y-81206597D01*
X98842112Y-81251932D01*
X98836291Y-81254358D01*
X98801959Y-81267658D01*
X98801948Y-81267663D01*
X98621709Y-81379263D01*
X98465050Y-81522076D01*
X98337297Y-81691248D01*
X98337292Y-81691256D01*
X98311576Y-81742902D01*
X98264073Y-81794139D01*
X98200576Y-81811630D01*
X97837869Y-81811630D01*
X97770830Y-81791945D01*
X97725075Y-81739141D01*
X97713869Y-81687630D01*
X97713869Y-81654229D01*
X97713869Y-81654224D01*
X97703374Y-81566820D01*
X97648527Y-81427738D01*
X97646999Y-81425723D01*
X97558190Y-81308609D01*
X97439064Y-81218274D01*
X97439058Y-81218271D01*
X97299981Y-81163426D01*
X97289054Y-81162114D01*
X97212577Y-81152930D01*
X97212570Y-81152930D01*
X96327429Y-81152930D01*
X96240020Y-81163425D01*
X96240016Y-81163427D01*
X96100941Y-81218271D01*
X96100935Y-81218274D01*
X95981809Y-81308609D01*
X95891474Y-81427735D01*
X95891471Y-81427741D01*
X95836626Y-81566818D01*
X95835736Y-81574228D01*
X95826130Y-81654223D01*
X95826130Y-81654229D01*
X95826130Y-82055349D01*
X95806445Y-82122388D01*
X95789811Y-82143030D01*
X95406471Y-82526369D01*
X95375580Y-82579873D01*
X95365486Y-82597356D01*
X95314919Y-82645572D01*
X95246312Y-82658795D01*
X95181447Y-82632826D01*
X95150709Y-82597351D01*
X95148250Y-82593092D01*
X95148249Y-82593090D01*
X95109730Y-82526372D01*
X94650188Y-82066830D01*
X94616703Y-82005507D01*
X94613869Y-81979149D01*
X94613869Y-81654229D01*
X94613869Y-81654224D01*
X94603374Y-81566820D01*
X94548527Y-81427738D01*
X94546999Y-81425723D01*
X94458190Y-81308609D01*
X94339064Y-81218274D01*
X94339058Y-81218271D01*
X94199981Y-81163426D01*
X94189054Y-81162114D01*
X94112577Y-81152930D01*
X94112570Y-81152930D01*
X93227429Y-81152930D01*
X93140020Y-81163425D01*
X93140016Y-81163427D01*
X93000941Y-81218271D01*
X93000935Y-81218274D01*
X92881809Y-81308609D01*
X92791474Y-81427735D01*
X92791471Y-81427741D01*
X92736626Y-81566818D01*
X92735736Y-81574228D01*
X92726130Y-81654223D01*
X92726130Y-81654229D01*
X92726130Y-81713430D01*
X92706445Y-81780469D01*
X92653641Y-81826224D01*
X92602130Y-81837430D01*
X91481161Y-81837430D01*
X91414122Y-81817745D01*
X91368367Y-81764941D01*
X91358423Y-81695783D01*
X91387448Y-81632227D01*
X91446226Y-81594453D01*
X91464976Y-81590491D01*
X91518350Y-81583464D01*
X91588505Y-81574228D01*
X91726885Y-81516909D01*
X91726886Y-81516909D01*
X91726886Y-81516908D01*
X91726890Y-81516907D01*
X91845723Y-81425723D01*
X91936907Y-81306890D01*
X91994228Y-81168505D01*
X92013779Y-81020000D01*
X92010829Y-80997595D01*
X91995026Y-80877556D01*
X91994228Y-80871495D01*
X91936907Y-80733111D01*
X91925702Y-80718508D01*
X91845724Y-80614278D01*
X91845723Y-80614277D01*
X91726890Y-80523093D01*
X91726887Y-80523092D01*
X91726885Y-80523090D01*
X91588508Y-80465773D01*
X91588503Y-80465771D01*
X91440001Y-80446221D01*
X91439999Y-80446221D01*
X91291496Y-80465771D01*
X91291494Y-80465772D01*
X91153111Y-80523092D01*
X91034277Y-80614277D01*
X90943092Y-80733111D01*
X90885772Y-80871494D01*
X90885772Y-80871495D01*
X90866221Y-81019999D01*
X90866221Y-81025058D01*
X90846536Y-81092097D01*
X90829902Y-81112739D01*
X90376829Y-81565811D01*
X90315506Y-81599296D01*
X90289148Y-81602130D01*
X89860134Y-81602130D01*
X89860111Y-81602132D01*
X89835555Y-81604980D01*
X89835552Y-81604981D01*
X89735052Y-81649355D01*
X89735044Y-81649361D01*
X89657361Y-81727044D01*
X89657357Y-81727051D01*
X89612981Y-81827550D01*
X89612981Y-81827552D01*
X89610130Y-81852125D01*
X88678382Y-81852125D01*
X88695019Y-81814447D01*
X88697870Y-81789873D01*
X88697869Y-80902128D01*
X88696788Y-80892806D01*
X88695020Y-80877556D01*
X88695019Y-80877554D01*
X88695019Y-80877553D01*
X88658173Y-80794105D01*
X88650644Y-80777052D01*
X88650642Y-80777049D01*
X88650641Y-80777047D01*
X88572953Y-80699359D01*
X88520646Y-80676263D01*
X88472448Y-80654981D01*
X88447873Y-80652130D01*
X87460135Y-80652130D01*
X87460109Y-80652132D01*
X87435556Y-80654979D01*
X87435552Y-80654981D01*
X87335052Y-80699355D01*
X87335044Y-80699361D01*
X87257361Y-80777044D01*
X87257357Y-80777051D01*
X87255850Y-80780464D01*
X87251454Y-80785666D01*
X87250865Y-80786528D01*
X87250777Y-80786468D01*
X87210762Y-80833839D01*
X87143976Y-80854364D01*
X87076694Y-80835524D01*
X87030279Y-80783299D01*
X87027856Y-80777827D01*
X86996907Y-80703111D01*
X86905724Y-80584278D01*
X86887118Y-80570001D01*
X86786890Y-80493093D01*
X86786887Y-80493092D01*
X86786885Y-80493090D01*
X86648508Y-80435773D01*
X86648503Y-80435771D01*
X86500001Y-80416221D01*
X86499999Y-80416221D01*
X86351496Y-80435771D01*
X86351494Y-80435772D01*
X86213111Y-80493092D01*
X86094277Y-80584277D01*
X86003092Y-80703111D01*
X85945772Y-80841494D01*
X85945771Y-80841496D01*
X85926221Y-80989998D01*
X82153356Y-80989998D01*
X78297229Y-77133871D01*
X78297221Y-77133865D01*
X78240383Y-77101050D01*
X78240381Y-77101050D01*
X78212842Y-77085150D01*
X78118721Y-77059930D01*
X78118718Y-77059930D01*
X47901610Y-77059930D01*
X47834571Y-77040245D01*
X47813929Y-77023611D01*
X45466317Y-74675999D01*
X98165230Y-74675999D01*
X98165230Y-74676000D01*
X98184789Y-74887085D01*
X98184790Y-74887087D01*
X98242802Y-75090979D01*
X98242808Y-75090994D01*
X98337292Y-75280743D01*
X98337297Y-75280751D01*
X98465050Y-75449923D01*
X98599822Y-75572783D01*
X98621711Y-75592738D01*
X98801949Y-75704337D01*
X98999624Y-75780916D01*
X99208005Y-75819870D01*
X99208008Y-75819870D01*
X99419992Y-75819870D01*
X99419995Y-75819870D01*
X99628376Y-75780916D01*
X99826051Y-75704337D01*
X100006289Y-75592738D01*
X100162951Y-75449921D01*
X100290704Y-75280749D01*
X100385196Y-75090984D01*
X100443210Y-74887086D01*
X100462770Y-74676000D01*
X100459145Y-74636885D01*
X100443210Y-74464914D01*
X100443209Y-74464912D01*
X100438007Y-74446630D01*
X100385196Y-74261016D01*
X100385191Y-74261005D01*
X100290707Y-74071256D01*
X100290702Y-74071248D01*
X100162949Y-73902076D01*
X100006290Y-73759263D01*
X100006289Y-73759262D01*
X99826051Y-73647663D01*
X99826049Y-73647662D01*
X99628379Y-73571085D01*
X99628378Y-73571084D01*
X99628376Y-73571084D01*
X99419995Y-73532130D01*
X99208005Y-73532130D01*
X98999624Y-73571084D01*
X98999622Y-73571084D01*
X98999620Y-73571085D01*
X98801950Y-73647662D01*
X98801948Y-73647663D01*
X98621709Y-73759263D01*
X98465050Y-73902076D01*
X98337297Y-74071248D01*
X98337292Y-74071256D01*
X98242808Y-74261005D01*
X98242802Y-74261020D01*
X98184790Y-74464912D01*
X98184789Y-74464914D01*
X98165230Y-74675999D01*
X45466317Y-74675999D01*
X44004190Y-73213872D01*
X44004188Y-73213870D01*
X43950689Y-73182982D01*
X43919802Y-73165150D01*
X43825681Y-73139930D01*
X32802239Y-73139930D01*
X32802236Y-73139930D01*
X32777020Y-73146686D01*
X32777020Y-73146687D01*
X32708119Y-73165149D01*
X32708117Y-73165149D01*
X32708117Y-73165150D01*
X32623732Y-73213870D01*
X32623729Y-73213872D01*
X29314385Y-76523215D01*
X29253062Y-76556700D01*
X29242890Y-76558473D01*
X29111495Y-76575772D01*
X29111494Y-76575772D01*
X28973111Y-76633092D01*
X28854277Y-76724277D01*
X28763092Y-76843111D01*
X28705772Y-76981494D01*
X28705771Y-76981496D01*
X28686221Y-77129998D01*
X28686221Y-77130001D01*
X28705771Y-77278503D01*
X28705773Y-77278508D01*
X28763090Y-77416885D01*
X28763090Y-77416886D01*
X28763092Y-77416889D01*
X28763093Y-77416890D01*
X28854277Y-77535723D01*
X28973110Y-77626907D01*
X28973113Y-77626908D01*
X28973114Y-77626909D01*
X29042302Y-77655567D01*
X29111495Y-77684228D01*
X29185747Y-77694003D01*
X29259999Y-77703779D01*
X29260000Y-77703779D01*
X29260001Y-77703779D01*
X29309501Y-77697262D01*
X29408505Y-77684228D01*
X29546885Y-77626909D01*
X29546886Y-77626909D01*
X29546886Y-77626908D01*
X29546890Y-77626907D01*
X29665723Y-77535723D01*
X29756907Y-77416890D01*
X29814228Y-77278505D01*
X29833779Y-77130000D01*
X29832516Y-77120409D01*
X29843280Y-77051376D01*
X29867771Y-77016545D01*
X30101578Y-76782738D01*
X30162899Y-76749255D01*
X30232591Y-76754239D01*
X30287632Y-76794934D01*
X30334277Y-76855723D01*
X30453110Y-76946907D01*
X30453113Y-76946908D01*
X30453114Y-76946909D01*
X30508861Y-76970000D01*
X30591495Y-77004228D01*
X30665747Y-77014003D01*
X30739999Y-77023779D01*
X30740000Y-77023779D01*
X30740001Y-77023779D01*
X30794971Y-77016542D01*
X30888505Y-77004228D01*
X31026885Y-76946909D01*
X31026886Y-76946909D01*
X31026886Y-76946908D01*
X31026890Y-76946907D01*
X31145723Y-76855723D01*
X31236907Y-76736890D01*
X31294228Y-76598505D01*
X31313779Y-76450000D01*
X31306750Y-76396613D01*
X31294228Y-76301496D01*
X31294228Y-76301495D01*
X31236907Y-76163111D01*
X31145723Y-76044277D01*
X31084934Y-75997632D01*
X31043732Y-75941205D01*
X31039577Y-75871459D01*
X31072738Y-75811578D01*
X32967929Y-73916389D01*
X33029252Y-73882904D01*
X33055610Y-73880070D01*
X34253997Y-73880070D01*
X34321036Y-73899755D01*
X34366791Y-73952559D01*
X34376735Y-74021717D01*
X34365157Y-74055168D01*
X34366203Y-74055602D01*
X34305772Y-74201494D01*
X34305771Y-74201496D01*
X34286221Y-74349998D01*
X34286221Y-74358127D01*
X34282877Y-74358127D01*
X34274489Y-74411828D01*
X34250010Y-74446630D01*
X29893871Y-78802770D01*
X29893870Y-78802772D01*
X29866605Y-78849998D01*
X29866604Y-78849999D01*
X29866603Y-78850000D01*
X29845151Y-78887155D01*
X29845150Y-78887156D01*
X29832572Y-78934100D01*
X29819930Y-78981279D01*
X29819930Y-78981281D01*
X29819930Y-90069483D01*
X29800245Y-90136522D01*
X29747441Y-90182277D01*
X29678283Y-90192221D01*
X29648481Y-90184046D01*
X29639501Y-90180326D01*
X29628505Y-90175772D01*
X29628503Y-90175771D01*
X29480001Y-90156221D01*
X29479999Y-90156221D01*
X29331496Y-90175771D01*
X29331494Y-90175772D01*
X29193111Y-90233092D01*
X29074277Y-90324277D01*
X28983092Y-90443111D01*
X28925772Y-90581494D01*
X28925771Y-90581496D01*
X28906221Y-90729998D01*
X28906221Y-90730001D01*
X28925771Y-90878503D01*
X28925772Y-90878505D01*
X28955790Y-90950974D01*
X28963259Y-91020444D01*
X28931984Y-91082923D01*
X28871895Y-91118575D01*
X28825044Y-91121366D01*
X28710001Y-91106221D01*
X28709999Y-91106221D01*
X28561496Y-91125771D01*
X28561494Y-91125772D01*
X28423111Y-91183092D01*
X28304277Y-91274277D01*
X28213092Y-91393111D01*
X28155772Y-91531494D01*
X28155772Y-91531495D01*
X28149327Y-91580448D01*
X28121060Y-91644344D01*
X28062735Y-91682814D01*
X27992870Y-91683645D01*
X27974519Y-91675915D01*
X27974400Y-91676203D01*
X27828508Y-91615773D01*
X27828503Y-91615771D01*
X27680001Y-91596221D01*
X27679999Y-91596221D01*
X27531496Y-91615771D01*
X27531494Y-91615772D01*
X27393111Y-91673092D01*
X27274277Y-91764277D01*
X27183093Y-91883110D01*
X27173089Y-91907262D01*
X27129247Y-91961665D01*
X27062952Y-91983729D01*
X26995253Y-91966449D01*
X26970847Y-91947489D01*
X26485332Y-91461974D01*
X26451847Y-91400651D01*
X26453238Y-91342201D01*
X26454227Y-91338507D01*
X26454226Y-91338507D01*
X26454228Y-91338505D01*
X26473779Y-91190000D01*
X26472462Y-91180000D01*
X26454228Y-91041496D01*
X26454228Y-91041495D01*
X26396907Y-90903111D01*
X26305723Y-90784277D01*
X26186890Y-90693093D01*
X26186887Y-90693092D01*
X26186885Y-90693090D01*
X26048508Y-90635773D01*
X26048503Y-90635771D01*
X25900001Y-90616221D01*
X25899999Y-90616221D01*
X25751496Y-90635771D01*
X25751494Y-90635772D01*
X25613111Y-90693092D01*
X25494277Y-90784277D01*
X25403092Y-90903111D01*
X25345772Y-91041494D01*
X25345771Y-91041496D01*
X25326221Y-91189998D01*
X25326221Y-91190001D01*
X25345771Y-91338503D01*
X25345773Y-91338508D01*
X25401499Y-91473044D01*
X25408968Y-91542513D01*
X25377693Y-91604992D01*
X25317603Y-91640644D01*
X25270753Y-91643434D01*
X25218133Y-91636507D01*
X25140001Y-91626221D01*
X25139999Y-91626221D01*
X24991496Y-91645771D01*
X24991494Y-91645772D01*
X24853111Y-91703092D01*
X24734277Y-91794277D01*
X24643092Y-91913111D01*
X24585772Y-92051494D01*
X24585771Y-92051496D01*
X24566221Y-92199998D01*
X24566221Y-92200001D01*
X24585771Y-92348503D01*
X24585773Y-92348508D01*
X24643090Y-92486885D01*
X24643090Y-92486886D01*
X24643092Y-92486889D01*
X24643093Y-92486890D01*
X24734277Y-92605723D01*
X24853110Y-92696907D01*
X24853113Y-92696908D01*
X24853114Y-92696909D01*
X24876902Y-92706762D01*
X24991495Y-92754228D01*
X25065747Y-92764003D01*
X25139999Y-92773779D01*
X25140000Y-92773779D01*
X25140001Y-92773779D01*
X25189501Y-92767262D01*
X25288505Y-92754228D01*
X25354135Y-92727042D01*
X25423603Y-92719574D01*
X25486083Y-92750849D01*
X25521735Y-92810938D01*
X25519242Y-92880763D01*
X25497282Y-92916338D01*
X25499225Y-92917829D01*
X25403093Y-93043109D01*
X25355650Y-93157643D01*
X25328771Y-93197869D01*
X24546829Y-93979811D01*
X24485506Y-94013296D01*
X24459148Y-94016130D01*
X23761539Y-94016130D01*
X23747756Y-94017422D01*
X23731547Y-94018942D01*
X23731544Y-94018942D01*
X23731543Y-94018943D01*
X23731541Y-94018943D01*
X23605250Y-94063135D01*
X23605249Y-94063135D01*
X23497591Y-94142590D01*
X23497590Y-94142591D01*
X23418135Y-94250249D01*
X23418135Y-94250250D01*
X23373941Y-94376544D01*
X23373941Y-94376546D01*
X23371130Y-94406528D01*
X23371130Y-94813460D01*
X23371131Y-94813466D01*
X23373942Y-94843453D01*
X23373942Y-94843455D01*
X23373943Y-94843456D01*
X23373943Y-94843458D01*
X23418134Y-94969747D01*
X23467301Y-95036367D01*
X23491271Y-95101996D01*
X23475955Y-95170166D01*
X23467301Y-95183631D01*
X23462920Y-95189569D01*
X23418134Y-95250252D01*
X23373941Y-95376544D01*
X23373941Y-95376546D01*
X23371130Y-95406528D01*
X23371130Y-95813460D01*
X23371131Y-95813466D01*
X23373942Y-95843453D01*
X23373942Y-95843455D01*
X23373943Y-95843456D01*
X23373943Y-95843458D01*
X23418134Y-95969747D01*
X23418135Y-95969749D01*
X23467301Y-96036367D01*
X23491271Y-96101996D01*
X23475955Y-96170166D01*
X23467301Y-96183631D01*
X23462920Y-96189569D01*
X23418134Y-96250252D01*
X23373941Y-96376544D01*
X23373941Y-96376546D01*
X23371130Y-96406528D01*
X23371130Y-96813460D01*
X23371131Y-96813466D01*
X23373942Y-96843453D01*
X23373942Y-96843455D01*
X23373943Y-96843456D01*
X23373943Y-96843457D01*
X23384074Y-96872411D01*
X23387635Y-96942190D01*
X23354715Y-97001044D01*
X23297319Y-97058441D01*
X23297314Y-97058447D01*
X23213718Y-97199801D01*
X23167899Y-97357513D01*
X23167704Y-97359998D01*
X16010000Y-97359998D01*
X16010000Y-92917423D01*
X19371130Y-92917423D01*
X19371130Y-92917428D01*
X19371130Y-92917429D01*
X19371130Y-93702570D01*
X19381625Y-93789979D01*
X19381627Y-93789983D01*
X19436471Y-93929058D01*
X19436474Y-93929064D01*
X19526809Y-94048190D01*
X19588483Y-94094958D01*
X19645938Y-94138527D01*
X19785020Y-94193374D01*
X19872423Y-94203870D01*
X21257576Y-94203869D01*
X21344980Y-94193374D01*
X21484062Y-94138527D01*
X21603190Y-94048190D01*
X21693527Y-93929062D01*
X21748374Y-93789980D01*
X21758870Y-93702577D01*
X21758869Y-92917424D01*
X21748374Y-92830020D01*
X21693527Y-92690938D01*
X21693525Y-92690935D01*
X21603190Y-92571809D01*
X21484064Y-92481474D01*
X21484058Y-92481471D01*
X21344981Y-92426626D01*
X21334054Y-92425314D01*
X21257577Y-92416130D01*
X21257570Y-92416130D01*
X19872429Y-92416130D01*
X19785020Y-92426625D01*
X19785016Y-92426627D01*
X19645941Y-92481471D01*
X19645935Y-92481474D01*
X19526809Y-92571809D01*
X19436474Y-92690935D01*
X19436471Y-92690941D01*
X19381626Y-92830018D01*
X19381626Y-92830020D01*
X19371130Y-92917423D01*
X16010000Y-92917423D01*
X16010000Y-83089998D01*
X17576221Y-83089998D01*
X17576221Y-83090001D01*
X17595771Y-83238503D01*
X17595773Y-83238508D01*
X17653090Y-83376885D01*
X17653090Y-83376886D01*
X17653092Y-83376889D01*
X17653093Y-83376890D01*
X17744277Y-83495723D01*
X17863110Y-83586907D01*
X17863113Y-83586908D01*
X17863114Y-83586909D01*
X17868491Y-83589136D01*
X18001495Y-83644228D01*
X18052493Y-83650942D01*
X18149999Y-83663779D01*
X18150000Y-83663779D01*
X18150001Y-83663779D01*
X18199501Y-83657262D01*
X18298505Y-83644228D01*
X18436885Y-83586909D01*
X18436886Y-83586909D01*
X18436886Y-83586908D01*
X18436890Y-83586907D01*
X18555723Y-83495723D01*
X18646907Y-83376890D01*
X18704228Y-83238505D01*
X18723779Y-83090000D01*
X18722038Y-83076779D01*
X18704228Y-82941496D01*
X18704228Y-82941495D01*
X18646907Y-82803111D01*
X18598376Y-82739864D01*
X18555724Y-82684278D01*
X18546307Y-82677052D01*
X18436890Y-82593093D01*
X18436887Y-82593092D01*
X18436885Y-82593090D01*
X18298508Y-82535773D01*
X18298503Y-82535771D01*
X18150001Y-82516221D01*
X18149999Y-82516221D01*
X18001496Y-82535771D01*
X18001494Y-82535772D01*
X17863111Y-82593092D01*
X17744277Y-82684277D01*
X17653092Y-82803111D01*
X17595772Y-82941494D01*
X17595771Y-82941496D01*
X17576221Y-83089998D01*
X16010000Y-83089998D01*
X16010000Y-81839998D01*
X28036221Y-81839998D01*
X28036221Y-81840001D01*
X28055771Y-81988503D01*
X28055773Y-81988508D01*
X28113090Y-82126885D01*
X28113090Y-82126886D01*
X28113092Y-82126889D01*
X28113093Y-82126890D01*
X28204277Y-82245723D01*
X28323110Y-82336907D01*
X28323113Y-82336908D01*
X28323114Y-82336909D01*
X28371660Y-82357017D01*
X28461495Y-82394228D01*
X28505870Y-82400070D01*
X28609999Y-82413779D01*
X28610000Y-82413779D01*
X28610001Y-82413779D01*
X28659501Y-82407262D01*
X28758505Y-82394228D01*
X28896885Y-82336909D01*
X28896886Y-82336909D01*
X28896886Y-82336908D01*
X28896890Y-82336907D01*
X29015723Y-82245723D01*
X29106907Y-82126890D01*
X29164228Y-81988505D01*
X29179531Y-81872267D01*
X29183779Y-81840001D01*
X29183779Y-81839998D01*
X29165740Y-81702979D01*
X29164228Y-81691495D01*
X29106907Y-81553111D01*
X29093877Y-81536130D01*
X29015724Y-81434278D01*
X29007196Y-81427734D01*
X28896890Y-81343093D01*
X28896887Y-81343092D01*
X28896885Y-81343090D01*
X28758508Y-81285773D01*
X28758503Y-81285771D01*
X28610001Y-81266221D01*
X28609999Y-81266221D01*
X28461496Y-81285771D01*
X28461494Y-81285772D01*
X28323111Y-81343092D01*
X28204277Y-81434277D01*
X28113092Y-81553111D01*
X28055772Y-81691494D01*
X28055771Y-81691496D01*
X28036221Y-81839998D01*
X16010000Y-81839998D01*
X16010000Y-81064634D01*
X16029685Y-80997595D01*
X16030898Y-80995743D01*
X16034735Y-80990001D01*
X16099682Y-80892801D01*
X16167365Y-80729399D01*
X16199072Y-80569998D01*
X24886221Y-80569998D01*
X24886221Y-80570001D01*
X24905771Y-80718503D01*
X24905773Y-80718508D01*
X24963090Y-80856885D01*
X24963090Y-80856886D01*
X24963092Y-80856889D01*
X24963093Y-80856890D01*
X25054277Y-80975723D01*
X25173110Y-81066907D01*
X25173113Y-81066908D01*
X25173114Y-81066909D01*
X25233924Y-81092097D01*
X25311495Y-81124228D01*
X25385747Y-81134003D01*
X25459999Y-81143779D01*
X25460000Y-81143779D01*
X25460001Y-81143779D01*
X25509501Y-81137262D01*
X25608505Y-81124228D01*
X25746885Y-81066909D01*
X25746886Y-81066909D01*
X25746886Y-81066908D01*
X25746890Y-81066907D01*
X25865723Y-80975723D01*
X25956907Y-80856890D01*
X26014228Y-80718505D01*
X26031899Y-80584277D01*
X26033779Y-80570001D01*
X26033779Y-80569998D01*
X26014228Y-80421496D01*
X26014228Y-80421495D01*
X25956907Y-80283111D01*
X25865723Y-80164277D01*
X25746890Y-80073093D01*
X25746887Y-80073092D01*
X25746885Y-80073090D01*
X25608508Y-80015773D01*
X25608503Y-80015771D01*
X25460001Y-79996221D01*
X25459999Y-79996221D01*
X25311496Y-80015771D01*
X25311494Y-80015772D01*
X25173111Y-80073092D01*
X25054277Y-80164277D01*
X24963092Y-80283111D01*
X24905772Y-80421494D01*
X24905771Y-80421496D01*
X24886221Y-80569998D01*
X16199072Y-80569998D01*
X16201870Y-80555932D01*
X16201870Y-80379068D01*
X16201870Y-80379065D01*
X16201869Y-80379063D01*
X16175058Y-80244277D01*
X16167365Y-80205601D01*
X16142287Y-80145058D01*
X16099683Y-80042201D01*
X16075494Y-80006000D01*
X16030898Y-79939256D01*
X16010020Y-79872578D01*
X16010000Y-79870365D01*
X16010000Y-73164634D01*
X16029685Y-73097595D01*
X16030898Y-73095743D01*
X16059633Y-73052738D01*
X16099682Y-72992801D01*
X16167365Y-72829399D01*
X16201870Y-72655932D01*
X16201870Y-72479068D01*
X16201870Y-72479065D01*
X16201869Y-72479063D01*
X16175617Y-72347086D01*
X16167365Y-72305601D01*
X16154429Y-72274371D01*
X16099683Y-72142201D01*
X16090530Y-72128503D01*
X16030898Y-72039256D01*
X16012343Y-71979998D01*
X18226221Y-71979998D01*
X18226221Y-71980001D01*
X18245771Y-72128503D01*
X18245773Y-72128508D01*
X18306191Y-72274371D01*
X18315630Y-72321823D01*
X18315630Y-77386231D01*
X18315630Y-77513769D01*
X18348639Y-77636960D01*
X18348640Y-77636961D01*
X18348640Y-77636962D01*
X18412404Y-77747406D01*
X18412407Y-77747410D01*
X19615793Y-78950796D01*
X19642673Y-78991024D01*
X19702790Y-79136160D01*
X19703093Y-79136890D01*
X19794277Y-79255723D01*
X19913110Y-79346907D01*
X19913113Y-79346908D01*
X19913114Y-79346909D01*
X19934823Y-79355901D01*
X20051495Y-79404228D01*
X20125747Y-79414003D01*
X20199999Y-79423779D01*
X20200000Y-79423779D01*
X20200001Y-79423779D01*
X20249501Y-79417262D01*
X20348505Y-79404228D01*
X20486885Y-79346909D01*
X20486886Y-79346909D01*
X20486886Y-79346908D01*
X20486890Y-79346907D01*
X20605723Y-79255723D01*
X20696907Y-79136890D01*
X20754228Y-78998505D01*
X20773779Y-78850000D01*
X20768462Y-78809617D01*
X20756387Y-78717894D01*
X20754228Y-78701495D01*
X20696907Y-78563111D01*
X20621032Y-78464228D01*
X20605724Y-78444278D01*
X20592405Y-78434058D01*
X20486890Y-78353093D01*
X20486886Y-78353091D01*
X20341024Y-78292673D01*
X20300796Y-78265793D01*
X19320689Y-77285686D01*
X19287204Y-77224363D01*
X19284370Y-77198005D01*
X19284370Y-76519998D01*
X21646221Y-76519998D01*
X21646221Y-76520001D01*
X21665771Y-76668503D01*
X21665773Y-76668508D01*
X21723090Y-76806885D01*
X21723090Y-76806886D01*
X21723092Y-76806889D01*
X21723093Y-76806890D01*
X21814277Y-76925723D01*
X21933110Y-77016907D01*
X21933113Y-77016908D01*
X21933114Y-77016909D01*
X21949700Y-77023779D01*
X22071495Y-77074228D01*
X22145747Y-77084003D01*
X22219999Y-77093779D01*
X22219999Y-77093778D01*
X22220000Y-77093779D01*
X22230433Y-77092405D01*
X22299467Y-77103167D01*
X22334304Y-77127662D01*
X23029902Y-77823260D01*
X23063387Y-77884583D01*
X23065669Y-77905813D01*
X23085772Y-78058504D01*
X23085773Y-78058508D01*
X23143090Y-78196885D01*
X23143090Y-78196886D01*
X23143092Y-78196889D01*
X23143093Y-78196890D01*
X23234277Y-78315723D01*
X23353110Y-78406907D01*
X23353113Y-78406908D01*
X23353114Y-78406909D01*
X23418658Y-78434058D01*
X23491495Y-78464228D01*
X23565747Y-78474003D01*
X23639999Y-78483779D01*
X23640000Y-78483779D01*
X23640001Y-78483779D01*
X23689501Y-78477262D01*
X23788505Y-78464228D01*
X23926885Y-78406909D01*
X23926886Y-78406909D01*
X23926886Y-78406908D01*
X23926890Y-78406907D01*
X24045723Y-78315723D01*
X24136907Y-78196890D01*
X24194228Y-78058505D01*
X24213779Y-77910000D01*
X24202359Y-77823260D01*
X24194228Y-77761496D01*
X24194228Y-77761495D01*
X24136907Y-77623111D01*
X24069852Y-77535723D01*
X24045724Y-77504278D01*
X23997024Y-77466909D01*
X23926890Y-77413093D01*
X23926887Y-77413092D01*
X23926885Y-77413090D01*
X23788508Y-77355773D01*
X23788506Y-77355772D01*
X23788505Y-77355772D01*
X23714564Y-77346037D01*
X23631942Y-77335160D01*
X23632142Y-77333637D01*
X23573902Y-77316536D01*
X23553260Y-77299902D01*
X22826639Y-76573281D01*
X22793154Y-76511958D01*
X22791381Y-76501785D01*
X22784563Y-76449998D01*
X22774228Y-76371495D01*
X22716907Y-76233111D01*
X22682033Y-76187662D01*
X22625724Y-76114278D01*
X22621563Y-76111085D01*
X22506890Y-76023093D01*
X22506887Y-76023092D01*
X22506885Y-76023090D01*
X22368508Y-75965773D01*
X22368503Y-75965771D01*
X22220001Y-75946221D01*
X22219999Y-75946221D01*
X22071496Y-75965771D01*
X22071494Y-75965772D01*
X21933111Y-76023092D01*
X21814277Y-76114277D01*
X21723092Y-76233111D01*
X21665772Y-76371494D01*
X21665771Y-76371496D01*
X21646221Y-76519998D01*
X19284370Y-76519998D01*
X19284370Y-73399998D01*
X29256221Y-73399998D01*
X29256221Y-73400001D01*
X29275771Y-73548503D01*
X29275773Y-73548508D01*
X29333090Y-73686885D01*
X29333090Y-73686886D01*
X29333092Y-73686889D01*
X29333093Y-73686890D01*
X29424277Y-73805723D01*
X29543110Y-73896907D01*
X29543113Y-73896908D01*
X29543114Y-73896909D01*
X29612302Y-73925567D01*
X29681495Y-73954228D01*
X29755747Y-73964003D01*
X29829999Y-73973779D01*
X29830000Y-73973779D01*
X29830001Y-73973779D01*
X29879501Y-73967262D01*
X29978505Y-73954228D01*
X30116885Y-73896909D01*
X30116886Y-73896909D01*
X30116886Y-73896908D01*
X30116890Y-73896907D01*
X30235723Y-73805723D01*
X30326907Y-73686890D01*
X30384228Y-73548505D01*
X30403779Y-73400000D01*
X30384228Y-73251495D01*
X30326907Y-73113111D01*
X30313580Y-73095743D01*
X30235724Y-72994278D01*
X30233790Y-72992794D01*
X30116890Y-72903093D01*
X30116887Y-72903092D01*
X30116885Y-72903090D01*
X29978508Y-72845773D01*
X29978503Y-72845771D01*
X29830001Y-72826221D01*
X29829999Y-72826221D01*
X29681496Y-72845771D01*
X29681494Y-72845772D01*
X29543111Y-72903092D01*
X29424277Y-72994277D01*
X29333092Y-73113111D01*
X29275772Y-73251494D01*
X29275771Y-73251496D01*
X29256221Y-73399998D01*
X19284370Y-73399998D01*
X19284370Y-72321823D01*
X19293809Y-72274371D01*
X19347716Y-72144226D01*
X19354228Y-72128505D01*
X19373779Y-71980000D01*
X19354228Y-71831495D01*
X19296907Y-71693111D01*
X19260544Y-71645722D01*
X19205724Y-71574278D01*
X19205723Y-71574277D01*
X19086890Y-71483093D01*
X19086887Y-71483092D01*
X19086885Y-71483090D01*
X18948508Y-71425773D01*
X18948503Y-71425771D01*
X18800001Y-71406221D01*
X18799999Y-71406221D01*
X18651496Y-71425771D01*
X18651494Y-71425772D01*
X18513111Y-71483092D01*
X18394277Y-71574277D01*
X18303092Y-71693111D01*
X18245772Y-71831494D01*
X18245771Y-71831496D01*
X18226221Y-71979998D01*
X16012343Y-71979998D01*
X16010020Y-71972578D01*
X16010000Y-71970365D01*
X16010000Y-71239998D01*
X40876221Y-71239998D01*
X40876221Y-71240001D01*
X40895771Y-71388503D01*
X40895773Y-71388508D01*
X40953090Y-71526885D01*
X40953090Y-71526886D01*
X40953092Y-71526889D01*
X40953093Y-71526890D01*
X41044277Y-71645723D01*
X41163110Y-71736907D01*
X41163113Y-71736908D01*
X41163114Y-71736909D01*
X41232302Y-71765567D01*
X41301495Y-71794228D01*
X41375747Y-71804003D01*
X41449999Y-71813779D01*
X41450000Y-71813779D01*
X41450001Y-71813779D01*
X41499501Y-71807262D01*
X41598505Y-71794228D01*
X41736885Y-71736909D01*
X41736886Y-71736909D01*
X41736886Y-71736908D01*
X41736890Y-71736907D01*
X41855723Y-71645723D01*
X41898482Y-71589998D01*
X42436221Y-71589998D01*
X42436221Y-71590001D01*
X42455771Y-71738503D01*
X42455773Y-71738508D01*
X42513090Y-71876885D01*
X42513090Y-71876886D01*
X42513092Y-71876889D01*
X42513093Y-71876890D01*
X42604277Y-71995723D01*
X42723110Y-72086907D01*
X42723113Y-72086908D01*
X42723114Y-72086909D01*
X42792302Y-72115567D01*
X42861495Y-72144228D01*
X42935747Y-72154003D01*
X43009999Y-72163779D01*
X43010000Y-72163779D01*
X43010001Y-72163779D01*
X43059501Y-72157262D01*
X43158505Y-72144228D01*
X43178372Y-72135999D01*
X98165230Y-72135999D01*
X98165230Y-72136000D01*
X98184789Y-72347085D01*
X98184790Y-72347087D01*
X98242802Y-72550979D01*
X98242808Y-72550994D01*
X98337292Y-72740743D01*
X98337297Y-72740751D01*
X98465050Y-72909923D01*
X98599822Y-73032783D01*
X98621711Y-73052738D01*
X98801949Y-73164337D01*
X98999624Y-73240916D01*
X99208005Y-73279870D01*
X99208008Y-73279870D01*
X99419992Y-73279870D01*
X99419995Y-73279870D01*
X99628376Y-73240916D01*
X99826051Y-73164337D01*
X100006289Y-73052738D01*
X100162951Y-72909921D01*
X100290704Y-72740749D01*
X100385196Y-72550984D01*
X100443210Y-72347086D01*
X100462770Y-72136000D01*
X100462075Y-72128505D01*
X100443210Y-71924914D01*
X100443209Y-71924912D01*
X100429544Y-71876886D01*
X100385196Y-71721016D01*
X100385191Y-71721005D01*
X100290707Y-71531256D01*
X100290702Y-71531248D01*
X100162949Y-71362076D01*
X100006290Y-71219263D01*
X100006289Y-71219262D01*
X99826051Y-71107663D01*
X99826049Y-71107662D01*
X99628379Y-71031085D01*
X99628378Y-71031084D01*
X99628376Y-71031084D01*
X99419995Y-70992130D01*
X99208005Y-70992130D01*
X98999624Y-71031084D01*
X98999622Y-71031084D01*
X98999620Y-71031085D01*
X98801950Y-71107662D01*
X98801948Y-71107663D01*
X98621709Y-71219263D01*
X98465050Y-71362076D01*
X98337297Y-71531248D01*
X98337292Y-71531256D01*
X98242808Y-71721005D01*
X98242802Y-71721020D01*
X98184790Y-71924912D01*
X98184789Y-71924914D01*
X98165230Y-72135999D01*
X43178372Y-72135999D01*
X43296885Y-72086909D01*
X43296886Y-72086909D01*
X43296886Y-72086908D01*
X43296890Y-72086907D01*
X43415723Y-71995723D01*
X43506907Y-71876890D01*
X43564228Y-71738505D01*
X43583779Y-71590000D01*
X43575470Y-71526890D01*
X43564228Y-71441496D01*
X43564228Y-71441495D01*
X43506907Y-71303111D01*
X43415723Y-71184277D01*
X43296890Y-71093093D01*
X43296887Y-71093092D01*
X43296885Y-71093090D01*
X43158508Y-71035773D01*
X43158503Y-71035771D01*
X43010001Y-71016221D01*
X43009999Y-71016221D01*
X42861496Y-71035771D01*
X42861494Y-71035772D01*
X42723111Y-71093092D01*
X42604277Y-71184277D01*
X42513092Y-71303111D01*
X42455772Y-71441494D01*
X42455771Y-71441496D01*
X42436221Y-71589998D01*
X41898482Y-71589998D01*
X41946907Y-71526890D01*
X42004228Y-71388505D01*
X42009252Y-71350342D01*
X42037516Y-71286448D01*
X42044497Y-71278859D01*
X43123358Y-70199998D01*
X49396221Y-70199998D01*
X49396221Y-70200001D01*
X49415771Y-70348503D01*
X49415773Y-70348508D01*
X49473090Y-70486885D01*
X49473090Y-70486886D01*
X49473092Y-70486889D01*
X49473093Y-70486890D01*
X49564277Y-70605723D01*
X49683110Y-70696907D01*
X49683113Y-70696908D01*
X49683114Y-70696909D01*
X49752302Y-70725567D01*
X49821495Y-70754228D01*
X49895747Y-70764003D01*
X49969999Y-70773779D01*
X49970000Y-70773779D01*
X49970001Y-70773779D01*
X50019501Y-70767262D01*
X50118505Y-70754228D01*
X50256885Y-70696909D01*
X50256886Y-70696909D01*
X50256886Y-70696908D01*
X50256890Y-70696907D01*
X50375723Y-70605723D01*
X50466907Y-70486890D01*
X50524228Y-70348505D01*
X50543680Y-70200751D01*
X50543779Y-70200001D01*
X50543779Y-70199998D01*
X50524228Y-70051496D01*
X50524228Y-70051495D01*
X50466907Y-69913111D01*
X50453602Y-69895771D01*
X50375724Y-69794278D01*
X50375723Y-69794277D01*
X50256890Y-69703093D01*
X50256887Y-69703092D01*
X50256885Y-69703090D01*
X50118508Y-69645773D01*
X50118503Y-69645771D01*
X49970001Y-69626221D01*
X49969999Y-69626221D01*
X49821496Y-69645771D01*
X49821494Y-69645772D01*
X49683111Y-69703092D01*
X49564277Y-69794277D01*
X49473092Y-69913111D01*
X49415772Y-70051494D01*
X49415771Y-70051496D01*
X49396221Y-70199998D01*
X43123358Y-70199998D01*
X43727357Y-69595999D01*
X98165230Y-69595999D01*
X98165230Y-69596000D01*
X98184789Y-69807085D01*
X98184790Y-69807087D01*
X98242802Y-70010979D01*
X98242808Y-70010994D01*
X98337292Y-70200743D01*
X98337297Y-70200751D01*
X98465050Y-70369923D01*
X98552891Y-70450000D01*
X98621711Y-70512738D01*
X98801949Y-70624337D01*
X98999624Y-70700916D01*
X99208005Y-70739870D01*
X99208008Y-70739870D01*
X99419992Y-70739870D01*
X99419995Y-70739870D01*
X99628376Y-70700916D01*
X99826051Y-70624337D01*
X100006289Y-70512738D01*
X100162951Y-70369921D01*
X100290704Y-70200749D01*
X100385196Y-70010984D01*
X100443210Y-69807086D01*
X100462770Y-69596000D01*
X100443210Y-69384914D01*
X100385196Y-69181016D01*
X100385191Y-69181005D01*
X100290707Y-68991256D01*
X100290702Y-68991248D01*
X100162949Y-68822076D01*
X100006290Y-68679263D01*
X100006289Y-68679262D01*
X99826051Y-68567663D01*
X99826049Y-68567662D01*
X99628379Y-68491085D01*
X99628378Y-68491084D01*
X99628376Y-68491084D01*
X99419995Y-68452130D01*
X99208005Y-68452130D01*
X98999624Y-68491084D01*
X98999622Y-68491084D01*
X98999620Y-68491085D01*
X98801950Y-68567662D01*
X98801948Y-68567663D01*
X98621709Y-68679263D01*
X98465050Y-68822076D01*
X98337297Y-68991248D01*
X98337292Y-68991256D01*
X98242808Y-69181005D01*
X98242802Y-69181020D01*
X98184790Y-69384912D01*
X98184789Y-69384914D01*
X98165230Y-69595999D01*
X43727357Y-69595999D01*
X50323356Y-63000000D01*
X99870076Y-63000000D01*
X99889755Y-63350435D01*
X99889757Y-63350447D01*
X99948549Y-63696470D01*
X99948551Y-63696479D01*
X100045716Y-64033745D01*
X100180032Y-64358016D01*
X100180034Y-64358020D01*
X100349818Y-64665220D01*
X100552928Y-64951477D01*
X100619960Y-65026485D01*
X101795238Y-63851207D01*
X101874933Y-63960898D01*
X102039102Y-64125067D01*
X102148791Y-64204760D01*
X100973513Y-65380038D01*
X101048522Y-65447071D01*
X101334779Y-65650181D01*
X101641979Y-65819965D01*
X101641983Y-65819967D01*
X101966254Y-65954283D01*
X102303520Y-66051448D01*
X102303529Y-66051450D01*
X102649552Y-66110242D01*
X102649564Y-66110244D01*
X103000000Y-66129923D01*
X103350435Y-66110244D01*
X103350447Y-66110242D01*
X103696470Y-66051450D01*
X103696479Y-66051448D01*
X104033745Y-65954283D01*
X104358016Y-65819967D01*
X104358020Y-65819965D01*
X104665220Y-65650181D01*
X104951477Y-65447071D01*
X105026485Y-65380038D01*
X103851208Y-64204761D01*
X103960898Y-64125067D01*
X104125067Y-63960898D01*
X104204761Y-63851208D01*
X105380038Y-65026485D01*
X105447071Y-64951477D01*
X105650181Y-64665220D01*
X105819965Y-64358020D01*
X105819967Y-64358016D01*
X105954283Y-64033745D01*
X106051448Y-63696479D01*
X106051450Y-63696470D01*
X106110242Y-63350447D01*
X106110244Y-63350435D01*
X106129923Y-63000000D01*
X106110244Y-62649559D01*
X106110242Y-62649552D01*
X106051450Y-62303529D01*
X106051448Y-62303520D01*
X105954283Y-61966254D01*
X105819967Y-61641983D01*
X105819965Y-61641979D01*
X105650181Y-61334779D01*
X105447071Y-61048522D01*
X105380038Y-60973513D01*
X104204760Y-62148791D01*
X104125067Y-62039102D01*
X103960898Y-61874933D01*
X103851208Y-61795238D01*
X105026486Y-60619960D01*
X104951477Y-60552928D01*
X104665220Y-60349818D01*
X104358020Y-60180034D01*
X104358016Y-60180032D01*
X104033745Y-60045716D01*
X103696479Y-59948551D01*
X103696470Y-59948549D01*
X103350447Y-59889757D01*
X103350435Y-59889755D01*
X103000000Y-59870076D01*
X102649564Y-59889755D01*
X102649552Y-59889757D01*
X102303529Y-59948549D01*
X102303520Y-59948551D01*
X101966254Y-60045716D01*
X101641983Y-60180032D01*
X101641979Y-60180034D01*
X101334775Y-60349820D01*
X101334770Y-60349823D01*
X101048528Y-60552924D01*
X101048520Y-60552929D01*
X100973513Y-60619959D01*
X100973513Y-60619960D01*
X102148791Y-61795238D01*
X102039102Y-61874933D01*
X101874933Y-62039102D01*
X101795238Y-62148791D01*
X100619960Y-60973513D01*
X100619959Y-60973513D01*
X100552929Y-61048520D01*
X100552924Y-61048528D01*
X100349823Y-61334770D01*
X100349820Y-61334775D01*
X100180034Y-61641979D01*
X100180032Y-61641983D01*
X100045716Y-61966254D01*
X99948551Y-62303520D01*
X99948549Y-62303529D01*
X99889757Y-62649552D01*
X99889756Y-62649559D01*
X99870076Y-63000000D01*
X50323356Y-63000000D01*
X62535914Y-50787442D01*
X62597235Y-50753959D01*
X62666927Y-50758943D01*
X62668386Y-50759498D01*
X62785624Y-50804916D01*
X62994005Y-50843870D01*
X62994007Y-50843870D01*
X63205992Y-50843870D01*
X63205995Y-50843870D01*
X63414376Y-50804916D01*
X63612051Y-50728337D01*
X63792289Y-50616738D01*
X63948951Y-50473921D01*
X64076704Y-50304749D01*
X64171196Y-50114984D01*
X64229210Y-49911086D01*
X64246529Y-49724183D01*
X64255399Y-49701845D01*
X64253483Y-49698153D01*
X64484600Y-49698153D01*
X64491693Y-49711817D01*
X64493471Y-49724184D01*
X64510789Y-49911085D01*
X64510790Y-49911087D01*
X64568802Y-50114979D01*
X64568808Y-50114994D01*
X64663292Y-50304743D01*
X64663297Y-50304751D01*
X64791050Y-50473923D01*
X64922648Y-50593890D01*
X64947711Y-50616738D01*
X65127949Y-50728337D01*
X65325624Y-50804916D01*
X65534005Y-50843870D01*
X65534008Y-50843870D01*
X65745992Y-50843870D01*
X65745995Y-50843870D01*
X65954376Y-50804916D01*
X66152051Y-50728337D01*
X66332289Y-50616738D01*
X66488951Y-50473921D01*
X66616704Y-50304749D01*
X66711196Y-50114984D01*
X66769210Y-49911086D01*
X66786529Y-49724183D01*
X66795399Y-49701845D01*
X66793483Y-49698153D01*
X67024600Y-49698153D01*
X67031693Y-49711817D01*
X67033471Y-49724184D01*
X67050789Y-49911085D01*
X67050790Y-49911087D01*
X67108802Y-50114979D01*
X67108808Y-50114994D01*
X67203292Y-50304743D01*
X67203297Y-50304751D01*
X67331050Y-50473923D01*
X67462648Y-50593890D01*
X67487711Y-50616738D01*
X67667949Y-50728337D01*
X67865624Y-50804916D01*
X68074005Y-50843870D01*
X68074008Y-50843870D01*
X68285992Y-50843870D01*
X68285995Y-50843870D01*
X68494376Y-50804916D01*
X68692051Y-50728337D01*
X68872289Y-50616738D01*
X69028951Y-50473921D01*
X69156704Y-50304749D01*
X69251196Y-50114984D01*
X69309210Y-49911086D01*
X69326529Y-49724183D01*
X69335399Y-49701845D01*
X69333483Y-49698153D01*
X69564600Y-49698153D01*
X69571693Y-49711817D01*
X69573471Y-49724184D01*
X69590789Y-49911085D01*
X69590790Y-49911087D01*
X69648802Y-50114979D01*
X69648808Y-50114994D01*
X69743292Y-50304743D01*
X69743297Y-50304751D01*
X69871050Y-50473923D01*
X70002648Y-50593890D01*
X70027711Y-50616738D01*
X70207949Y-50728337D01*
X70405624Y-50804916D01*
X70614005Y-50843870D01*
X70614008Y-50843870D01*
X70825992Y-50843870D01*
X70825995Y-50843870D01*
X71034376Y-50804916D01*
X71232051Y-50728337D01*
X71412289Y-50616738D01*
X71568951Y-50473921D01*
X71696704Y-50304749D01*
X71791196Y-50114984D01*
X71849210Y-49911086D01*
X71866529Y-49724183D01*
X71875399Y-49701845D01*
X71873483Y-49698153D01*
X72104600Y-49698153D01*
X72111693Y-49711817D01*
X72113471Y-49724184D01*
X72130789Y-49911085D01*
X72130790Y-49911087D01*
X72188802Y-50114979D01*
X72188808Y-50114994D01*
X72283292Y-50304743D01*
X72283297Y-50304751D01*
X72411050Y-50473923D01*
X72542648Y-50593890D01*
X72567711Y-50616738D01*
X72747949Y-50728337D01*
X72945624Y-50804916D01*
X73154005Y-50843870D01*
X73154008Y-50843870D01*
X73365992Y-50843870D01*
X73365995Y-50843870D01*
X73574376Y-50804916D01*
X73772051Y-50728337D01*
X73952289Y-50616738D01*
X74108951Y-50473921D01*
X74236704Y-50304749D01*
X74331196Y-50114984D01*
X74389210Y-49911086D01*
X74408659Y-49701191D01*
X74408967Y-49700416D01*
X74408659Y-49698806D01*
X74408598Y-49698153D01*
X74408179Y-49693634D01*
X74654288Y-49693634D01*
X74656130Y-49712634D01*
X74656130Y-50593864D01*
X74656132Y-50593890D01*
X74658979Y-50618443D01*
X74658981Y-50618447D01*
X74703355Y-50718947D01*
X74703358Y-50718951D01*
X74703359Y-50718953D01*
X74781047Y-50796641D01*
X74881553Y-50841019D01*
X74906127Y-50843870D01*
X76693872Y-50843869D01*
X76693887Y-50843867D01*
X76693890Y-50843867D01*
X76718443Y-50841020D01*
X76718444Y-50841019D01*
X76718447Y-50841019D01*
X76800212Y-50804916D01*
X76818947Y-50796644D01*
X76818948Y-50796643D01*
X76818953Y-50796641D01*
X76896641Y-50718953D01*
X76898540Y-50714652D01*
X80022145Y-50714652D01*
X80041749Y-51001270D01*
X80041750Y-51001271D01*
X80100197Y-51282537D01*
X80100202Y-51282554D01*
X80196407Y-51553247D01*
X80328579Y-51808329D01*
X80328583Y-51808335D01*
X80473919Y-52014228D01*
X80473920Y-52014229D01*
X81083372Y-51404777D01*
X81173606Y-51528972D01*
X81312732Y-51668098D01*
X81436925Y-51758330D01*
X80829250Y-52366005D01*
X80913196Y-52434299D01*
X80913198Y-52434300D01*
X81158659Y-52583569D01*
X81422160Y-52698023D01*
X81698789Y-52775531D01*
X81698796Y-52775532D01*
X81983407Y-52814652D01*
X82270697Y-52814652D01*
X82555307Y-52775532D01*
X82555314Y-52775531D01*
X82831943Y-52698023D01*
X83095444Y-52583569D01*
X83340906Y-52434300D01*
X83424852Y-52366005D01*
X82817178Y-51758330D01*
X82941372Y-51668098D01*
X83080498Y-51528972D01*
X83170731Y-51404777D01*
X83780182Y-52014228D01*
X83780183Y-52014228D01*
X83925524Y-51808328D01*
X84057696Y-51553247D01*
X84153901Y-51282554D01*
X84153906Y-51282537D01*
X84212353Y-51001271D01*
X84212354Y-51001270D01*
X84227488Y-50779999D01*
X92176230Y-50779999D01*
X92176230Y-50780000D01*
X92195789Y-50991085D01*
X92195790Y-50991087D01*
X92253802Y-51194979D01*
X92253808Y-51194994D01*
X92348292Y-51384743D01*
X92348297Y-51384751D01*
X92476050Y-51553923D01*
X92610822Y-51676783D01*
X92632711Y-51696738D01*
X92812949Y-51808337D01*
X93010624Y-51884916D01*
X93219005Y-51923870D01*
X93219008Y-51923870D01*
X93430992Y-51923870D01*
X93430995Y-51923870D01*
X93639376Y-51884916D01*
X93837051Y-51808337D01*
X94017289Y-51696738D01*
X94173951Y-51553921D01*
X94292046Y-51397537D01*
X94348155Y-51355902D01*
X94417867Y-51351211D01*
X94479049Y-51384953D01*
X94512276Y-51446416D01*
X94515000Y-51472265D01*
X94515000Y-51677844D01*
X94521401Y-51737372D01*
X94521403Y-51737379D01*
X94571645Y-51872086D01*
X94571649Y-51872093D01*
X94657809Y-51987187D01*
X94657812Y-51987190D01*
X94772906Y-52073350D01*
X94772913Y-52073354D01*
X94907620Y-52123596D01*
X94907627Y-52123598D01*
X94967155Y-52129999D01*
X94967172Y-52130000D01*
X95615000Y-52130000D01*
X95615000Y-51213012D01*
X95672007Y-51245925D01*
X95799174Y-51280000D01*
X95930826Y-51280000D01*
X96057993Y-51245925D01*
X96115000Y-51213012D01*
X96115000Y-52130000D01*
X96762828Y-52130000D01*
X96762844Y-52129999D01*
X96822372Y-52123598D01*
X96822379Y-52123596D01*
X96957086Y-52073354D01*
X96957093Y-52073350D01*
X97072187Y-51987190D01*
X97072190Y-51987187D01*
X97158350Y-51872093D01*
X97158354Y-51872086D01*
X97208596Y-51737379D01*
X97208598Y-51737372D01*
X97214999Y-51677844D01*
X97215000Y-51677827D01*
X97215000Y-51030000D01*
X96298012Y-51030000D01*
X96330925Y-50972993D01*
X96365000Y-50845826D01*
X96365000Y-50714174D01*
X96330925Y-50587007D01*
X96298012Y-50530000D01*
X97215000Y-50530000D01*
X97215000Y-49882172D01*
X97214999Y-49882155D01*
X97208598Y-49822627D01*
X97208596Y-49822620D01*
X97158354Y-49687913D01*
X97158350Y-49687906D01*
X97072190Y-49572812D01*
X97072187Y-49572809D01*
X96957093Y-49486649D01*
X96957086Y-49486645D01*
X96822379Y-49436403D01*
X96822372Y-49436401D01*
X96762844Y-49430000D01*
X96115000Y-49430000D01*
X96115000Y-50346988D01*
X96057993Y-50314075D01*
X95930826Y-50280000D01*
X95799174Y-50280000D01*
X95672007Y-50314075D01*
X95615000Y-50346988D01*
X95615000Y-49430000D01*
X94967155Y-49430000D01*
X94907627Y-49436401D01*
X94907620Y-49436403D01*
X94772913Y-49486645D01*
X94772906Y-49486649D01*
X94657812Y-49572809D01*
X94657809Y-49572812D01*
X94571649Y-49687906D01*
X94571645Y-49687913D01*
X94521403Y-49822620D01*
X94521401Y-49822627D01*
X94515000Y-49882155D01*
X94515000Y-50087734D01*
X94495315Y-50154773D01*
X94442511Y-50200528D01*
X94373353Y-50210472D01*
X94309797Y-50181447D01*
X94292046Y-50162461D01*
X94173949Y-50006076D01*
X94017290Y-49863263D01*
X94017289Y-49863262D01*
X93837051Y-49751663D01*
X93837049Y-49751662D01*
X93639379Y-49675085D01*
X93639378Y-49675084D01*
X93639376Y-49675084D01*
X93430995Y-49636130D01*
X93219005Y-49636130D01*
X93010624Y-49675084D01*
X93010622Y-49675084D01*
X93010620Y-49675085D01*
X92812950Y-49751662D01*
X92812948Y-49751663D01*
X92632709Y-49863263D01*
X92476050Y-50006076D01*
X92348297Y-50175248D01*
X92348292Y-50175256D01*
X92253808Y-50365005D01*
X92253802Y-50365020D01*
X92195790Y-50568912D01*
X92195789Y-50568914D01*
X92176230Y-50779999D01*
X84227488Y-50779999D01*
X84231958Y-50714652D01*
X84212354Y-50428033D01*
X84212353Y-50428032D01*
X84153906Y-50146766D01*
X84153901Y-50146749D01*
X84057696Y-49876056D01*
X83925524Y-49620975D01*
X83780182Y-49415074D01*
X83170730Y-50024525D01*
X83080498Y-49900332D01*
X82941372Y-49761206D01*
X82817177Y-49670972D01*
X83424852Y-49063297D01*
X83340914Y-48995009D01*
X83340905Y-48995003D01*
X83095444Y-48845734D01*
X82831943Y-48731280D01*
X82555314Y-48653772D01*
X82555307Y-48653771D01*
X82270697Y-48614652D01*
X81983407Y-48614652D01*
X81698796Y-48653771D01*
X81698789Y-48653772D01*
X81422160Y-48731280D01*
X81158662Y-48845733D01*
X80913192Y-48995007D01*
X80913189Y-48995009D01*
X80829251Y-49063297D01*
X81436926Y-49670972D01*
X81312732Y-49761206D01*
X81173606Y-49900332D01*
X81083372Y-50024525D01*
X80473920Y-49415073D01*
X80473919Y-49415073D01*
X80328583Y-49620968D01*
X80328579Y-49620974D01*
X80196407Y-49876056D01*
X80100202Y-50146749D01*
X80100197Y-50146766D01*
X80041750Y-50428032D01*
X80041749Y-50428033D01*
X80022145Y-50714652D01*
X76898540Y-50714652D01*
X76941019Y-50618447D01*
X76943870Y-50593873D01*
X76943869Y-48806128D01*
X76943867Y-48806109D01*
X76941020Y-48781556D01*
X76941019Y-48781554D01*
X76941019Y-48781553D01*
X76918821Y-48731280D01*
X76896644Y-48681052D01*
X76896642Y-48681049D01*
X76896641Y-48681047D01*
X76818953Y-48603359D01*
X76786794Y-48589159D01*
X76718448Y-48558981D01*
X76693873Y-48556130D01*
X74906135Y-48556130D01*
X74906109Y-48556132D01*
X74881556Y-48558979D01*
X74881552Y-48558981D01*
X74781052Y-48603355D01*
X74781044Y-48603361D01*
X74703361Y-48681044D01*
X74703357Y-48681051D01*
X74658981Y-48781550D01*
X74658981Y-48781552D01*
X74656130Y-48806125D01*
X74656130Y-49687365D01*
X74654288Y-49693634D01*
X74408179Y-49693634D01*
X74389210Y-49488914D01*
X74331196Y-49285016D01*
X74331191Y-49285005D01*
X74236707Y-49095256D01*
X74236702Y-49095248D01*
X74108949Y-48926076D01*
X73952290Y-48783263D01*
X73952289Y-48783262D01*
X73772051Y-48671663D01*
X73772049Y-48671662D01*
X73574379Y-48595085D01*
X73574378Y-48595084D01*
X73574376Y-48595084D01*
X73365995Y-48556130D01*
X73154005Y-48556130D01*
X72945624Y-48595084D01*
X72945622Y-48595084D01*
X72945620Y-48595085D01*
X72747950Y-48671662D01*
X72747948Y-48671663D01*
X72567709Y-48783263D01*
X72411050Y-48926076D01*
X72283297Y-49095248D01*
X72283292Y-49095256D01*
X72188808Y-49285005D01*
X72188802Y-49285020D01*
X72130790Y-49488912D01*
X72130789Y-49488914D01*
X72113471Y-49675815D01*
X72104600Y-49698153D01*
X71873483Y-49698153D01*
X71868307Y-49688182D01*
X71866529Y-49675815D01*
X71849210Y-49488914D01*
X71849209Y-49488912D01*
X71848565Y-49486649D01*
X71791196Y-49285016D01*
X71791191Y-49285005D01*
X71696707Y-49095256D01*
X71696702Y-49095248D01*
X71568949Y-48926076D01*
X71412290Y-48783263D01*
X71412289Y-48783262D01*
X71232051Y-48671663D01*
X71232049Y-48671662D01*
X71034379Y-48595085D01*
X71034378Y-48595084D01*
X71034376Y-48595084D01*
X70825995Y-48556130D01*
X70614005Y-48556130D01*
X70405624Y-48595084D01*
X70405622Y-48595084D01*
X70405620Y-48595085D01*
X70207950Y-48671662D01*
X70207948Y-48671663D01*
X70027709Y-48783263D01*
X69871050Y-48926076D01*
X69743297Y-49095248D01*
X69743292Y-49095256D01*
X69648808Y-49285005D01*
X69648802Y-49285020D01*
X69590790Y-49488912D01*
X69590789Y-49488914D01*
X69573471Y-49675815D01*
X69564600Y-49698153D01*
X69333483Y-49698153D01*
X69328307Y-49688182D01*
X69326529Y-49675815D01*
X69309210Y-49488914D01*
X69309209Y-49488912D01*
X69308565Y-49486649D01*
X69251196Y-49285016D01*
X69251191Y-49285005D01*
X69156707Y-49095256D01*
X69156702Y-49095248D01*
X69028949Y-48926076D01*
X68872290Y-48783263D01*
X68872289Y-48783262D01*
X68692051Y-48671663D01*
X68692049Y-48671662D01*
X68494379Y-48595085D01*
X68494378Y-48595084D01*
X68494376Y-48595084D01*
X68285995Y-48556130D01*
X68074005Y-48556130D01*
X67865624Y-48595084D01*
X67865622Y-48595084D01*
X67865620Y-48595085D01*
X67667950Y-48671662D01*
X67667948Y-48671663D01*
X67487709Y-48783263D01*
X67331050Y-48926076D01*
X67203297Y-49095248D01*
X67203292Y-49095256D01*
X67108808Y-49285005D01*
X67108802Y-49285020D01*
X67050790Y-49488912D01*
X67050789Y-49488914D01*
X67033471Y-49675815D01*
X67024600Y-49698153D01*
X66793483Y-49698153D01*
X66788307Y-49688182D01*
X66786529Y-49675815D01*
X66769210Y-49488914D01*
X66769209Y-49488912D01*
X66768565Y-49486649D01*
X66711196Y-49285016D01*
X66711191Y-49285005D01*
X66616707Y-49095256D01*
X66616702Y-49095248D01*
X66488949Y-48926076D01*
X66332290Y-48783263D01*
X66332289Y-48783262D01*
X66152051Y-48671663D01*
X66152049Y-48671662D01*
X65954379Y-48595085D01*
X65954378Y-48595084D01*
X65954376Y-48595084D01*
X65745995Y-48556130D01*
X65534005Y-48556130D01*
X65325624Y-48595084D01*
X65325622Y-48595084D01*
X65325620Y-48595085D01*
X65127950Y-48671662D01*
X65127948Y-48671663D01*
X64947709Y-48783263D01*
X64791050Y-48926076D01*
X64663297Y-49095248D01*
X64663292Y-49095256D01*
X64568808Y-49285005D01*
X64568802Y-49285020D01*
X64510790Y-49488912D01*
X64510789Y-49488914D01*
X64493471Y-49675815D01*
X64484600Y-49698153D01*
X64253483Y-49698153D01*
X64248307Y-49688182D01*
X64246529Y-49675815D01*
X64229210Y-49488914D01*
X64229209Y-49488912D01*
X64228565Y-49486649D01*
X64171196Y-49285016D01*
X64171191Y-49285005D01*
X64076707Y-49095256D01*
X64076702Y-49095248D01*
X63948949Y-48926076D01*
X63792290Y-48783263D01*
X63792289Y-48783262D01*
X63612051Y-48671663D01*
X63612049Y-48671662D01*
X63414379Y-48595085D01*
X63414378Y-48595084D01*
X63414376Y-48595084D01*
X63205995Y-48556130D01*
X62994005Y-48556130D01*
X62785624Y-48595084D01*
X62785622Y-48595084D01*
X62785620Y-48595085D01*
X62587950Y-48671662D01*
X62587948Y-48671663D01*
X62407709Y-48783263D01*
X62251050Y-48926076D01*
X62123297Y-49095248D01*
X62123292Y-49095256D01*
X62028808Y-49285005D01*
X62028802Y-49285020D01*
X61970790Y-49488912D01*
X61970789Y-49488914D01*
X61953471Y-49675815D01*
X61944600Y-49698153D01*
X61951693Y-49711817D01*
X61953471Y-49724184D01*
X61970789Y-49911085D01*
X61970790Y-49911088D01*
X62028799Y-50114972D01*
X62028807Y-50114991D01*
X62033197Y-50123807D01*
X62045460Y-50192592D01*
X62018587Y-50257087D01*
X62009879Y-50266761D01*
X41634997Y-70641643D01*
X41573674Y-70675128D01*
X41531132Y-70676901D01*
X41450003Y-70666221D01*
X41449999Y-70666221D01*
X41301495Y-70685772D01*
X41301494Y-70685772D01*
X41163111Y-70743092D01*
X41044277Y-70834277D01*
X40953092Y-70953111D01*
X40895772Y-71091494D01*
X40895771Y-71091496D01*
X40876221Y-71239998D01*
X16010000Y-71239998D01*
X16010000Y-70449998D01*
X32076221Y-70449998D01*
X32076221Y-70450001D01*
X32095771Y-70598503D01*
X32095773Y-70598508D01*
X32153090Y-70736885D01*
X32153090Y-70736886D01*
X32153092Y-70736889D01*
X32153093Y-70736890D01*
X32244277Y-70855723D01*
X32363110Y-70946907D01*
X32363113Y-70946908D01*
X32363114Y-70946909D01*
X32432302Y-70975567D01*
X32501495Y-71004228D01*
X32575747Y-71014003D01*
X32649999Y-71023779D01*
X32650000Y-71023779D01*
X32650001Y-71023779D01*
X32707409Y-71016221D01*
X32798505Y-71004228D01*
X32936885Y-70946909D01*
X32936886Y-70946909D01*
X32936886Y-70946908D01*
X32936890Y-70946907D01*
X33055723Y-70855723D01*
X33146907Y-70736890D01*
X33204228Y-70598505D01*
X33223779Y-70450000D01*
X33204228Y-70301495D01*
X33146907Y-70163111D01*
X33055724Y-70044278D01*
X33055723Y-70044277D01*
X32936890Y-69953093D01*
X32936887Y-69953092D01*
X32936885Y-69953090D01*
X32798508Y-69895773D01*
X32798503Y-69895771D01*
X32650001Y-69876221D01*
X32649999Y-69876221D01*
X32501496Y-69895771D01*
X32501494Y-69895772D01*
X32363111Y-69953092D01*
X32244277Y-70044277D01*
X32153092Y-70163111D01*
X32095772Y-70301494D01*
X32095771Y-70301496D01*
X32076221Y-70449998D01*
X16010000Y-70449998D01*
X16010000Y-63000000D01*
X19870076Y-63000000D01*
X19889755Y-63350435D01*
X19889757Y-63350447D01*
X19948549Y-63696470D01*
X19948551Y-63696479D01*
X20045716Y-64033745D01*
X20180032Y-64358016D01*
X20180034Y-64358020D01*
X20349818Y-64665220D01*
X20552928Y-64951477D01*
X20619960Y-65026485D01*
X21795238Y-63851207D01*
X21874933Y-63960898D01*
X22039102Y-64125067D01*
X22148791Y-64204760D01*
X20973513Y-65380038D01*
X21048522Y-65447071D01*
X21334779Y-65650181D01*
X21641979Y-65819965D01*
X21641983Y-65819967D01*
X21966254Y-65954283D01*
X22303520Y-66051448D01*
X22303529Y-66051450D01*
X22649552Y-66110242D01*
X22649564Y-66110244D01*
X23000000Y-66129923D01*
X23350435Y-66110244D01*
X23350447Y-66110242D01*
X23696470Y-66051450D01*
X23696479Y-66051448D01*
X24033745Y-65954283D01*
X24358016Y-65819967D01*
X24358020Y-65819965D01*
X24665220Y-65650181D01*
X24951477Y-65447071D01*
X25026485Y-65380038D01*
X23851208Y-64204761D01*
X23960898Y-64125067D01*
X24125067Y-63960898D01*
X24204761Y-63851208D01*
X25380038Y-65026485D01*
X25447071Y-64951477D01*
X25650181Y-64665220D01*
X25819965Y-64358020D01*
X25819967Y-64358016D01*
X25954283Y-64033745D01*
X26051448Y-63696479D01*
X26051450Y-63696470D01*
X26110242Y-63350447D01*
X26110244Y-63350435D01*
X26129923Y-63000000D01*
X26125992Y-62929998D01*
X30176221Y-62929998D01*
X30176221Y-62930001D01*
X30195771Y-63078503D01*
X30195773Y-63078508D01*
X30253090Y-63216885D01*
X30253090Y-63216886D01*
X30253092Y-63216889D01*
X30253093Y-63216890D01*
X30344277Y-63335723D01*
X30463110Y-63426907D01*
X30463113Y-63426908D01*
X30463114Y-63426909D01*
X30532302Y-63455567D01*
X30601495Y-63484228D01*
X30675747Y-63494003D01*
X30749999Y-63503779D01*
X30750000Y-63503779D01*
X30750001Y-63503779D01*
X30799501Y-63497262D01*
X30898505Y-63484228D01*
X31036885Y-63426909D01*
X31036886Y-63426909D01*
X31036886Y-63426908D01*
X31036890Y-63426907D01*
X31155723Y-63335723D01*
X31246907Y-63216890D01*
X31304228Y-63078505D01*
X31323779Y-62930000D01*
X31304228Y-62781495D01*
X31246907Y-62643111D01*
X31155723Y-62524277D01*
X31036890Y-62433093D01*
X31036887Y-62433092D01*
X31036885Y-62433090D01*
X30898508Y-62375773D01*
X30898503Y-62375771D01*
X30750001Y-62356221D01*
X30749999Y-62356221D01*
X30601496Y-62375771D01*
X30601494Y-62375772D01*
X30463111Y-62433092D01*
X30344277Y-62524277D01*
X30253092Y-62643111D01*
X30195772Y-62781494D01*
X30195771Y-62781496D01*
X30176221Y-62929998D01*
X26125992Y-62929998D01*
X26110244Y-62649559D01*
X26110242Y-62649552D01*
X26051450Y-62303529D01*
X26051448Y-62303520D01*
X25954283Y-61966254D01*
X25819967Y-61641983D01*
X25819965Y-61641979D01*
X25650181Y-61334779D01*
X25447071Y-61048522D01*
X25380038Y-60973513D01*
X24204760Y-62148791D01*
X24125067Y-62039102D01*
X23960898Y-61874933D01*
X23851208Y-61795238D01*
X25026486Y-60619960D01*
X24951477Y-60552928D01*
X24665220Y-60349818D01*
X24358020Y-60180034D01*
X24358016Y-60180032D01*
X24033745Y-60045716D01*
X23696479Y-59948551D01*
X23696470Y-59948549D01*
X23350447Y-59889757D01*
X23350435Y-59889755D01*
X23000000Y-59870076D01*
X22649564Y-59889755D01*
X22649552Y-59889757D01*
X22303529Y-59948549D01*
X22303520Y-59948551D01*
X21966254Y-60045716D01*
X21641983Y-60180032D01*
X21641979Y-60180034D01*
X21334775Y-60349820D01*
X21334770Y-60349823D01*
X21048528Y-60552924D01*
X21048520Y-60552929D01*
X20973513Y-60619959D01*
X20973513Y-60619960D01*
X22148791Y-61795238D01*
X22039102Y-61874933D01*
X21874933Y-62039102D01*
X21795238Y-62148791D01*
X20619960Y-60973513D01*
X20619959Y-60973513D01*
X20552929Y-61048520D01*
X20552924Y-61048528D01*
X20349823Y-61334770D01*
X20349820Y-61334775D01*
X20180034Y-61641979D01*
X20180032Y-61641983D01*
X20045716Y-61966254D01*
X19948551Y-62303520D01*
X19948549Y-62303529D01*
X19889757Y-62649552D01*
X19889756Y-62649559D01*
X19870076Y-63000000D01*
X16010000Y-63000000D01*
X16010000Y-49354225D01*
X31007330Y-49354225D01*
X31007330Y-51241964D01*
X31007332Y-51241990D01*
X31010179Y-51266543D01*
X31010181Y-51266547D01*
X31054555Y-51367047D01*
X31054558Y-51367051D01*
X31054559Y-51367053D01*
X31132247Y-51444741D01*
X31232753Y-51489119D01*
X31257327Y-51491970D01*
X32595072Y-51491969D01*
X32595087Y-51491967D01*
X32595090Y-51491967D01*
X32619643Y-51489120D01*
X32619644Y-51489119D01*
X32619647Y-51489119D01*
X32716360Y-51446416D01*
X32720147Y-51444744D01*
X32720148Y-51444743D01*
X32720153Y-51444741D01*
X32797841Y-51367053D01*
X32842219Y-51266547D01*
X32845070Y-51241973D01*
X32845069Y-49354228D01*
X32845067Y-49354209D01*
X32842220Y-49329656D01*
X32842219Y-49329654D01*
X32842219Y-49329653D01*
X32822561Y-49285133D01*
X32797844Y-49229152D01*
X32797842Y-49229149D01*
X32797841Y-49229147D01*
X32720153Y-49151459D01*
X32687994Y-49137259D01*
X32619648Y-49107081D01*
X32595073Y-49104230D01*
X31257335Y-49104230D01*
X31257309Y-49104232D01*
X31232756Y-49107079D01*
X31232752Y-49107081D01*
X31132252Y-49151455D01*
X31132244Y-49151461D01*
X31054561Y-49229144D01*
X31054557Y-49229151D01*
X31010181Y-49329650D01*
X31010181Y-49329652D01*
X31007330Y-49354225D01*
X16010000Y-49354225D01*
X16010000Y-44688799D01*
X31960030Y-44688799D01*
X31960030Y-44688800D01*
X31979589Y-44899885D01*
X31979590Y-44899887D01*
X32037602Y-45103779D01*
X32037608Y-45103794D01*
X32132092Y-45293543D01*
X32132097Y-45293551D01*
X32259850Y-45462723D01*
X32394622Y-45585583D01*
X32416511Y-45605538D01*
X32596749Y-45717137D01*
X32794424Y-45793716D01*
X33002805Y-45832670D01*
X33002808Y-45832670D01*
X33214792Y-45832670D01*
X33214795Y-45832670D01*
X33296526Y-45817391D01*
X33366039Y-45824422D01*
X33406991Y-45851599D01*
X33883511Y-46328118D01*
X33916996Y-46389441D01*
X33919830Y-46415799D01*
X33919830Y-55548316D01*
X33934947Y-55624313D01*
X33937330Y-55648505D01*
X33937330Y-56031965D01*
X33937332Y-56031988D01*
X33940180Y-56056544D01*
X33940181Y-56056547D01*
X33984555Y-56157047D01*
X33984558Y-56157051D01*
X33984559Y-56157053D01*
X34062247Y-56234741D01*
X34162753Y-56279119D01*
X34187327Y-56281970D01*
X34875072Y-56281969D01*
X34875087Y-56281967D01*
X34875090Y-56281967D01*
X34899643Y-56279120D01*
X34899644Y-56279119D01*
X34899647Y-56279119D01*
X34974051Y-56246266D01*
X35000147Y-56234744D01*
X35000148Y-56234743D01*
X35000153Y-56234741D01*
X35077841Y-56157053D01*
X35122219Y-56056547D01*
X35125070Y-56031973D01*
X35125069Y-55648505D01*
X35127452Y-55624313D01*
X35142570Y-55548316D01*
X35142570Y-46786182D01*
X35419830Y-46786182D01*
X35419830Y-55548316D01*
X35434947Y-55624313D01*
X35437330Y-55648505D01*
X35437330Y-56031965D01*
X35437332Y-56031988D01*
X35440180Y-56056544D01*
X35440181Y-56056547D01*
X35484555Y-56157047D01*
X35484558Y-56157051D01*
X35484559Y-56157053D01*
X35562247Y-56234741D01*
X35662753Y-56279119D01*
X35687327Y-56281970D01*
X36375072Y-56281969D01*
X36375087Y-56281967D01*
X36375090Y-56281967D01*
X36399643Y-56279120D01*
X36399644Y-56279119D01*
X36399647Y-56279119D01*
X36474051Y-56246266D01*
X36500147Y-56234744D01*
X36500148Y-56234743D01*
X36500153Y-56234741D01*
X36577841Y-56157053D01*
X36622219Y-56056547D01*
X36625070Y-56031973D01*
X36625069Y-55648505D01*
X36627452Y-55624313D01*
X36642570Y-55548316D01*
X36642570Y-53229998D01*
X37126221Y-53229998D01*
X37126221Y-53230001D01*
X37145771Y-53378503D01*
X37145773Y-53378508D01*
X37203090Y-53516885D01*
X37203090Y-53516886D01*
X37203092Y-53516889D01*
X37203093Y-53516890D01*
X37294277Y-53635723D01*
X37413110Y-53726907D01*
X37413113Y-53726908D01*
X37413114Y-53726909D01*
X37482302Y-53755567D01*
X37551495Y-53784228D01*
X37625747Y-53794003D01*
X37699999Y-53803779D01*
X37700000Y-53803779D01*
X37700001Y-53803779D01*
X37749501Y-53797262D01*
X37848505Y-53784228D01*
X37986885Y-53726909D01*
X37986886Y-53726909D01*
X37986886Y-53726908D01*
X37986890Y-53726907D01*
X38105723Y-53635723D01*
X38196907Y-53516890D01*
X38254228Y-53378505D01*
X38273779Y-53230000D01*
X38254228Y-53081495D01*
X38196907Y-52943111D01*
X38105723Y-52824277D01*
X37986890Y-52733093D01*
X37986887Y-52733092D01*
X37986885Y-52733090D01*
X37848508Y-52675773D01*
X37848503Y-52675771D01*
X37700001Y-52656221D01*
X37699999Y-52656221D01*
X37551496Y-52675771D01*
X37551494Y-52675772D01*
X37413111Y-52733092D01*
X37294277Y-52824277D01*
X37203092Y-52943111D01*
X37145772Y-53081494D01*
X37145771Y-53081496D01*
X37126221Y-53229998D01*
X36642570Y-53229998D01*
X36642570Y-49354225D01*
X37717330Y-49354225D01*
X37717330Y-51241964D01*
X37717332Y-51241990D01*
X37720179Y-51266543D01*
X37720181Y-51266547D01*
X37764555Y-51367047D01*
X37764558Y-51367051D01*
X37764559Y-51367053D01*
X37842247Y-51444741D01*
X37942753Y-51489119D01*
X37967327Y-51491970D01*
X39305072Y-51491969D01*
X39305087Y-51491967D01*
X39305090Y-51491967D01*
X39329643Y-51489120D01*
X39329644Y-51489119D01*
X39329647Y-51489119D01*
X39426360Y-51446416D01*
X39430147Y-51444744D01*
X39430148Y-51444743D01*
X39430153Y-51444741D01*
X39507841Y-51367053D01*
X39552219Y-51266547D01*
X39555070Y-51241973D01*
X39555070Y-50714652D01*
X41922145Y-50714652D01*
X41941749Y-51001270D01*
X41941750Y-51001271D01*
X42000197Y-51282537D01*
X42000202Y-51282554D01*
X42096407Y-51553247D01*
X42228579Y-51808329D01*
X42228583Y-51808335D01*
X42373919Y-52014228D01*
X42373920Y-52014229D01*
X42983372Y-51404777D01*
X43073606Y-51528972D01*
X43212732Y-51668098D01*
X43336925Y-51758330D01*
X42729250Y-52366005D01*
X42813196Y-52434299D01*
X42813198Y-52434300D01*
X43058659Y-52583569D01*
X43322160Y-52698023D01*
X43598789Y-52775531D01*
X43598796Y-52775532D01*
X43883407Y-52814652D01*
X44170697Y-52814652D01*
X44455307Y-52775532D01*
X44455314Y-52775531D01*
X44731943Y-52698023D01*
X44995444Y-52583569D01*
X45240906Y-52434300D01*
X45324852Y-52366005D01*
X44717178Y-51758330D01*
X44841372Y-51668098D01*
X44980498Y-51528972D01*
X45070731Y-51404777D01*
X45680182Y-52014228D01*
X45680183Y-52014228D01*
X45825524Y-51808328D01*
X45957696Y-51553247D01*
X46053901Y-51282554D01*
X46053906Y-51282537D01*
X46112353Y-51001271D01*
X46112354Y-51001270D01*
X46131958Y-50714652D01*
X46112354Y-50428033D01*
X46112353Y-50428032D01*
X46053906Y-50146766D01*
X46053901Y-50146749D01*
X45957696Y-49876056D01*
X45825524Y-49620975D01*
X45704835Y-49449999D01*
X49069364Y-49449999D01*
X49069364Y-49450000D01*
X49966988Y-49450000D01*
X49934075Y-49507007D01*
X49900000Y-49634174D01*
X49900000Y-49765826D01*
X49934075Y-49892993D01*
X49966988Y-49950000D01*
X49069364Y-49950000D01*
X49126567Y-50163486D01*
X49126570Y-50163492D01*
X49226399Y-50377578D01*
X49361894Y-50571082D01*
X49528917Y-50738105D01*
X49722421Y-50873600D01*
X49936507Y-50973429D01*
X49936516Y-50973433D01*
X50150000Y-51030634D01*
X50150000Y-50133012D01*
X50207007Y-50165925D01*
X50334174Y-50200000D01*
X50465826Y-50200000D01*
X50592993Y-50165925D01*
X50650000Y-50133012D01*
X50650000Y-51030633D01*
X50863483Y-50973433D01*
X50863492Y-50973429D01*
X51077578Y-50873600D01*
X51271082Y-50738105D01*
X51438105Y-50571082D01*
X51573600Y-50377577D01*
X51573601Y-50377575D01*
X51670875Y-50168971D01*
X51717047Y-50116531D01*
X51784240Y-50097379D01*
X51851122Y-50117595D01*
X51894257Y-50166103D01*
X51963292Y-50304743D01*
X51963297Y-50304751D01*
X52091050Y-50473923D01*
X52222648Y-50593890D01*
X52247711Y-50616738D01*
X52427949Y-50728337D01*
X52625624Y-50804916D01*
X52834005Y-50843870D01*
X52834008Y-50843870D01*
X53045992Y-50843870D01*
X53045995Y-50843870D01*
X53254376Y-50804916D01*
X53452051Y-50728337D01*
X53632289Y-50616738D01*
X53788951Y-50473921D01*
X53916704Y-50304749D01*
X54011196Y-50114984D01*
X54069210Y-49911086D01*
X54086529Y-49724183D01*
X54095399Y-49701845D01*
X54093483Y-49698153D01*
X54324600Y-49698153D01*
X54331693Y-49711817D01*
X54333471Y-49724184D01*
X54350789Y-49911085D01*
X54350790Y-49911087D01*
X54408802Y-50114979D01*
X54408808Y-50114994D01*
X54503292Y-50304743D01*
X54503297Y-50304751D01*
X54631050Y-50473923D01*
X54762648Y-50593890D01*
X54787711Y-50616738D01*
X54967949Y-50728337D01*
X55165624Y-50804916D01*
X55374005Y-50843870D01*
X55374008Y-50843870D01*
X55585992Y-50843870D01*
X55585995Y-50843870D01*
X55794376Y-50804916D01*
X55992051Y-50728337D01*
X56172289Y-50616738D01*
X56328951Y-50473921D01*
X56456704Y-50304749D01*
X56551196Y-50114984D01*
X56609210Y-49911086D01*
X56626529Y-49724183D01*
X56635399Y-49701845D01*
X56633483Y-49698153D01*
X56864600Y-49698153D01*
X56871693Y-49711817D01*
X56873471Y-49724184D01*
X56890789Y-49911085D01*
X56890790Y-49911087D01*
X56948802Y-50114979D01*
X56948808Y-50114994D01*
X57043292Y-50304743D01*
X57043297Y-50304751D01*
X57171050Y-50473923D01*
X57302648Y-50593890D01*
X57327711Y-50616738D01*
X57507949Y-50728337D01*
X57705624Y-50804916D01*
X57914005Y-50843870D01*
X57914008Y-50843870D01*
X58125992Y-50843870D01*
X58125995Y-50843870D01*
X58334376Y-50804916D01*
X58532051Y-50728337D01*
X58712289Y-50616738D01*
X58868951Y-50473921D01*
X58996704Y-50304749D01*
X59091196Y-50114984D01*
X59149210Y-49911086D01*
X59166529Y-49724183D01*
X59175399Y-49701845D01*
X59173483Y-49698153D01*
X59404600Y-49698153D01*
X59411693Y-49711817D01*
X59413471Y-49724184D01*
X59430789Y-49911085D01*
X59430790Y-49911087D01*
X59488802Y-50114979D01*
X59488808Y-50114994D01*
X59583292Y-50304743D01*
X59583297Y-50304751D01*
X59711050Y-50473923D01*
X59842648Y-50593890D01*
X59867711Y-50616738D01*
X60047949Y-50728337D01*
X60245624Y-50804916D01*
X60454005Y-50843870D01*
X60454008Y-50843870D01*
X60665992Y-50843870D01*
X60665995Y-50843870D01*
X60874376Y-50804916D01*
X61072051Y-50728337D01*
X61252289Y-50616738D01*
X61408951Y-50473921D01*
X61536704Y-50304749D01*
X61631196Y-50114984D01*
X61689210Y-49911086D01*
X61706529Y-49724183D01*
X61715399Y-49701845D01*
X61708307Y-49688182D01*
X61706529Y-49675815D01*
X61689210Y-49488914D01*
X61689209Y-49488912D01*
X61688565Y-49486649D01*
X61631196Y-49285016D01*
X61631191Y-49285005D01*
X61536707Y-49095256D01*
X61536702Y-49095248D01*
X61408949Y-48926076D01*
X61252290Y-48783263D01*
X61252289Y-48783262D01*
X61072051Y-48671663D01*
X61072049Y-48671662D01*
X60874379Y-48595085D01*
X60874378Y-48595084D01*
X60874376Y-48595084D01*
X60665995Y-48556130D01*
X60454005Y-48556130D01*
X60245624Y-48595084D01*
X60245622Y-48595084D01*
X60245620Y-48595085D01*
X60047950Y-48671662D01*
X60047948Y-48671663D01*
X59867709Y-48783263D01*
X59711050Y-48926076D01*
X59583297Y-49095248D01*
X59583292Y-49095256D01*
X59488808Y-49285005D01*
X59488802Y-49285020D01*
X59430790Y-49488912D01*
X59430789Y-49488914D01*
X59413471Y-49675815D01*
X59404600Y-49698153D01*
X59173483Y-49698153D01*
X59168307Y-49688182D01*
X59166529Y-49675815D01*
X59149210Y-49488914D01*
X59149209Y-49488912D01*
X59148565Y-49486649D01*
X59091196Y-49285016D01*
X59091191Y-49285005D01*
X58996707Y-49095256D01*
X58996702Y-49095248D01*
X58868949Y-48926076D01*
X58712290Y-48783263D01*
X58712289Y-48783262D01*
X58532051Y-48671663D01*
X58532049Y-48671662D01*
X58334379Y-48595085D01*
X58334378Y-48595084D01*
X58334376Y-48595084D01*
X58125995Y-48556130D01*
X57914005Y-48556130D01*
X57705624Y-48595084D01*
X57705622Y-48595084D01*
X57705620Y-48595085D01*
X57507950Y-48671662D01*
X57507948Y-48671663D01*
X57327709Y-48783263D01*
X57171050Y-48926076D01*
X57043297Y-49095248D01*
X57043292Y-49095256D01*
X56948808Y-49285005D01*
X56948802Y-49285020D01*
X56890790Y-49488912D01*
X56890789Y-49488914D01*
X56873471Y-49675815D01*
X56864600Y-49698153D01*
X56633483Y-49698153D01*
X56628307Y-49688182D01*
X56626529Y-49675815D01*
X56609210Y-49488914D01*
X56609209Y-49488912D01*
X56608565Y-49486649D01*
X56551196Y-49285016D01*
X56551191Y-49285005D01*
X56456707Y-49095256D01*
X56456702Y-49095248D01*
X56328949Y-48926076D01*
X56172290Y-48783263D01*
X56172289Y-48783262D01*
X55992051Y-48671663D01*
X55992049Y-48671662D01*
X55794379Y-48595085D01*
X55794378Y-48595084D01*
X55794376Y-48595084D01*
X55585995Y-48556130D01*
X55374005Y-48556130D01*
X55165624Y-48595084D01*
X55165622Y-48595084D01*
X55165620Y-48595085D01*
X54967950Y-48671662D01*
X54967948Y-48671663D01*
X54787709Y-48783263D01*
X54631050Y-48926076D01*
X54503297Y-49095248D01*
X54503292Y-49095256D01*
X54408808Y-49285005D01*
X54408802Y-49285020D01*
X54350790Y-49488912D01*
X54350789Y-49488914D01*
X54333471Y-49675815D01*
X54324600Y-49698153D01*
X54093483Y-49698153D01*
X54088307Y-49688182D01*
X54086529Y-49675815D01*
X54069210Y-49488914D01*
X54069209Y-49488912D01*
X54068565Y-49486649D01*
X54011196Y-49285016D01*
X54011191Y-49285005D01*
X53916707Y-49095256D01*
X53916702Y-49095248D01*
X53788949Y-48926076D01*
X53632290Y-48783263D01*
X53632289Y-48783262D01*
X53452051Y-48671663D01*
X53452049Y-48671662D01*
X53254379Y-48595085D01*
X53254378Y-48595084D01*
X53254376Y-48595084D01*
X53045995Y-48556130D01*
X52834005Y-48556130D01*
X52625624Y-48595084D01*
X52625622Y-48595084D01*
X52625620Y-48595085D01*
X52427950Y-48671662D01*
X52427948Y-48671663D01*
X52247709Y-48783263D01*
X52091050Y-48926076D01*
X51963297Y-49095248D01*
X51963295Y-49095252D01*
X51894257Y-49233897D01*
X51846753Y-49285133D01*
X51779090Y-49302554D01*
X51712750Y-49280628D01*
X51670875Y-49231029D01*
X51573600Y-49022422D01*
X51573599Y-49022420D01*
X51438113Y-48828926D01*
X51438108Y-48828920D01*
X51271082Y-48661894D01*
X51077578Y-48526399D01*
X50863492Y-48426570D01*
X50863486Y-48426567D01*
X50650000Y-48369364D01*
X50650000Y-49266988D01*
X50592993Y-49234075D01*
X50465826Y-49200000D01*
X50334174Y-49200000D01*
X50207007Y-49234075D01*
X50150000Y-49266988D01*
X50150000Y-48369364D01*
X50149999Y-48369364D01*
X49936513Y-48426567D01*
X49936507Y-48426570D01*
X49722422Y-48526399D01*
X49722420Y-48526400D01*
X49528926Y-48661886D01*
X49528920Y-48661891D01*
X49361891Y-48828920D01*
X49361886Y-48828926D01*
X49226400Y-49022420D01*
X49226399Y-49022422D01*
X49126570Y-49236507D01*
X49126567Y-49236513D01*
X49069364Y-49449999D01*
X45704835Y-49449999D01*
X45680182Y-49415074D01*
X45070730Y-50024525D01*
X44980498Y-49900332D01*
X44841372Y-49761206D01*
X44717177Y-49670972D01*
X45324852Y-49063297D01*
X45240914Y-48995009D01*
X45240905Y-48995003D01*
X44995444Y-48845734D01*
X44731943Y-48731280D01*
X44455314Y-48653772D01*
X44455307Y-48653771D01*
X44170697Y-48614652D01*
X43883407Y-48614652D01*
X43598796Y-48653771D01*
X43598789Y-48653772D01*
X43322160Y-48731280D01*
X43058662Y-48845733D01*
X42813192Y-48995007D01*
X42813189Y-48995009D01*
X42729251Y-49063297D01*
X43336926Y-49670972D01*
X43212732Y-49761206D01*
X43073606Y-49900332D01*
X42983372Y-50024525D01*
X42373920Y-49415073D01*
X42373919Y-49415073D01*
X42228583Y-49620968D01*
X42228579Y-49620974D01*
X42096407Y-49876056D01*
X42000202Y-50146749D01*
X42000197Y-50146766D01*
X41941750Y-50428032D01*
X41941749Y-50428033D01*
X41922145Y-50714652D01*
X39555070Y-50714652D01*
X39555069Y-49354228D01*
X39555067Y-49354209D01*
X39552220Y-49329656D01*
X39552219Y-49329654D01*
X39552219Y-49329653D01*
X39532561Y-49285133D01*
X39507844Y-49229152D01*
X39507842Y-49229149D01*
X39507841Y-49229147D01*
X39430153Y-49151459D01*
X39397994Y-49137259D01*
X39329648Y-49107081D01*
X39305073Y-49104230D01*
X37967335Y-49104230D01*
X37967309Y-49104232D01*
X37942756Y-49107079D01*
X37942752Y-49107081D01*
X37842252Y-49151455D01*
X37842244Y-49151461D01*
X37764561Y-49229144D01*
X37764557Y-49229151D01*
X37720181Y-49329650D01*
X37720181Y-49329652D01*
X37717330Y-49354225D01*
X36642570Y-49354225D01*
X36642570Y-47150999D01*
X36662255Y-47083960D01*
X36678889Y-47063318D01*
X36962209Y-46779998D01*
X58766221Y-46779998D01*
X58766221Y-46780001D01*
X58785771Y-46928503D01*
X58785773Y-46928508D01*
X58843090Y-47066885D01*
X58843090Y-47066886D01*
X58843092Y-47066889D01*
X58843093Y-47066890D01*
X58934277Y-47185723D01*
X59053110Y-47276907D01*
X59053113Y-47276908D01*
X59053114Y-47276909D01*
X59122302Y-47305567D01*
X59191495Y-47334228D01*
X59265747Y-47344003D01*
X59339999Y-47353779D01*
X59340000Y-47353779D01*
X59340001Y-47353779D01*
X59389501Y-47347262D01*
X59488505Y-47334228D01*
X59626885Y-47276909D01*
X59626886Y-47276909D01*
X59626886Y-47276908D01*
X59626890Y-47276907D01*
X59745723Y-47185723D01*
X59836907Y-47066890D01*
X59894228Y-46928505D01*
X59913779Y-46780000D01*
X59894228Y-46631495D01*
X59836907Y-46493111D01*
X59745723Y-46374277D01*
X59626890Y-46283093D01*
X59626887Y-46283092D01*
X59626885Y-46283090D01*
X59488508Y-46225773D01*
X59488503Y-46225771D01*
X59340001Y-46206221D01*
X59339999Y-46206221D01*
X59191496Y-46225771D01*
X59191494Y-46225772D01*
X59053111Y-46283092D01*
X58934277Y-46374277D01*
X58843092Y-46493111D01*
X58785772Y-46631494D01*
X58785771Y-46631496D01*
X58766221Y-46779998D01*
X36962209Y-46779998D01*
X37873219Y-45868988D01*
X37934542Y-45835503D01*
X37960900Y-45832669D01*
X39082664Y-45832669D01*
X39082672Y-45832669D01*
X39082687Y-45832667D01*
X39082690Y-45832667D01*
X39107243Y-45829820D01*
X39107244Y-45829819D01*
X39107247Y-45829819D01*
X39189017Y-45793714D01*
X39207747Y-45785444D01*
X39207748Y-45785443D01*
X39207753Y-45785441D01*
X39285441Y-45707753D01*
X39329819Y-45607247D01*
X39332670Y-45582673D01*
X39332669Y-43794928D01*
X39332271Y-43791494D01*
X39329820Y-43770356D01*
X39329819Y-43770354D01*
X39329819Y-43770353D01*
X39311471Y-43728800D01*
X39285444Y-43669852D01*
X39285442Y-43669849D01*
X39285441Y-43669847D01*
X39207753Y-43592159D01*
X39175594Y-43577959D01*
X39107248Y-43547781D01*
X39082673Y-43544930D01*
X37294935Y-43544930D01*
X37294909Y-43544932D01*
X37270356Y-43547779D01*
X37270352Y-43547781D01*
X37169852Y-43592155D01*
X37169844Y-43592161D01*
X37092161Y-43669844D01*
X37092157Y-43669851D01*
X37047781Y-43770350D01*
X37047781Y-43770352D01*
X37044930Y-43794924D01*
X37044930Y-44916699D01*
X37025245Y-44983738D01*
X37008610Y-45004380D01*
X35641476Y-46371516D01*
X35641474Y-46371518D01*
X35597193Y-46415799D01*
X35556318Y-46456674D01*
X35489408Y-46556811D01*
X35443326Y-46668065D01*
X35443323Y-46668075D01*
X35419830Y-46786182D01*
X35142570Y-46786182D01*
X35142570Y-46050982D01*
X35119076Y-45932875D01*
X35119075Y-45932874D01*
X35119075Y-45932870D01*
X35119073Y-45932865D01*
X35072991Y-45821611D01*
X35070171Y-45817391D01*
X35006082Y-45721474D01*
X34920926Y-45636318D01*
X34920925Y-45636317D01*
X34274631Y-44990024D01*
X34241147Y-44928702D01*
X34238842Y-44890902D01*
X34257570Y-44688799D01*
X34238010Y-44477714D01*
X34238009Y-44477712D01*
X34226640Y-44437755D01*
X34179996Y-44273816D01*
X34156628Y-44226886D01*
X34085507Y-44084056D01*
X34085502Y-44084048D01*
X33957749Y-43914876D01*
X33801090Y-43772063D01*
X33801089Y-43772062D01*
X33620851Y-43660463D01*
X33620849Y-43660462D01*
X33423179Y-43583885D01*
X33423178Y-43583884D01*
X33423176Y-43583884D01*
X33214795Y-43544930D01*
X33002805Y-43544930D01*
X32794424Y-43583884D01*
X32794422Y-43583884D01*
X32794420Y-43583885D01*
X32596750Y-43660462D01*
X32596748Y-43660463D01*
X32416509Y-43772063D01*
X32259850Y-43914876D01*
X32132097Y-44084048D01*
X32132092Y-44084056D01*
X32037608Y-44273805D01*
X32037602Y-44273820D01*
X31979590Y-44477712D01*
X31979589Y-44477714D01*
X31960030Y-44688799D01*
X16010000Y-44688799D01*
X16010000Y-42524925D01*
X29424930Y-42524925D01*
X29424930Y-44312664D01*
X29424932Y-44312690D01*
X29427779Y-44337243D01*
X29427781Y-44337247D01*
X29472155Y-44437747D01*
X29472158Y-44437751D01*
X29472159Y-44437753D01*
X29549847Y-44515441D01*
X29650353Y-44559819D01*
X29674927Y-44562670D01*
X31462672Y-44562669D01*
X31462687Y-44562667D01*
X31462690Y-44562667D01*
X31487243Y-44559820D01*
X31487244Y-44559819D01*
X31487247Y-44559819D01*
X31561651Y-44526966D01*
X31587747Y-44515444D01*
X31587748Y-44515443D01*
X31587753Y-44515441D01*
X31665441Y-44437753D01*
X31709819Y-44337247D01*
X31712670Y-44312673D01*
X31712669Y-42524928D01*
X31712669Y-42524925D01*
X39584930Y-42524925D01*
X39584930Y-44312664D01*
X39584932Y-44312690D01*
X39587779Y-44337243D01*
X39587781Y-44337247D01*
X39632155Y-44437747D01*
X39632158Y-44437751D01*
X39632159Y-44437753D01*
X39709847Y-44515441D01*
X39810353Y-44559819D01*
X39834927Y-44562670D01*
X41622672Y-44562669D01*
X41622687Y-44562667D01*
X41622690Y-44562667D01*
X41647243Y-44559820D01*
X41647244Y-44559819D01*
X41647247Y-44559819D01*
X41721651Y-44526966D01*
X41747747Y-44515444D01*
X41747748Y-44515443D01*
X41747753Y-44515441D01*
X41825441Y-44437753D01*
X41869819Y-44337247D01*
X41872670Y-44312673D01*
X41872670Y-43939998D01*
X57836221Y-43939998D01*
X57836221Y-43940001D01*
X57855771Y-44088503D01*
X57855773Y-44088508D01*
X57913090Y-44226885D01*
X57913090Y-44226886D01*
X57913092Y-44226889D01*
X57913093Y-44226890D01*
X58004277Y-44345723D01*
X58123110Y-44436907D01*
X58123113Y-44436908D01*
X58123114Y-44436909D01*
X58192302Y-44465567D01*
X58261495Y-44494228D01*
X58335747Y-44504003D01*
X58409999Y-44513779D01*
X58410000Y-44513779D01*
X58410001Y-44513779D01*
X58459501Y-44507262D01*
X58558505Y-44494228D01*
X58696885Y-44436909D01*
X58696886Y-44436909D01*
X58696886Y-44436908D01*
X58696890Y-44436907D01*
X58815723Y-44345723D01*
X58906907Y-44226890D01*
X58964228Y-44088505D01*
X58983779Y-43940000D01*
X58980471Y-43914876D01*
X58964228Y-43791496D01*
X58964228Y-43791495D01*
X58906907Y-43653111D01*
X58826085Y-43547781D01*
X58815724Y-43534278D01*
X58815723Y-43534277D01*
X58696890Y-43443093D01*
X58696887Y-43443092D01*
X58696885Y-43443090D01*
X58558508Y-43385773D01*
X58558503Y-43385771D01*
X58410001Y-43366221D01*
X58409999Y-43366221D01*
X58261496Y-43385771D01*
X58261494Y-43385772D01*
X58123111Y-43443092D01*
X58004277Y-43534277D01*
X57913092Y-43653111D01*
X57855772Y-43791494D01*
X57855771Y-43791496D01*
X57836221Y-43939998D01*
X41872670Y-43939998D01*
X41872669Y-42524928D01*
X41872667Y-42524909D01*
X41869820Y-42500356D01*
X41869819Y-42500354D01*
X41869819Y-42500353D01*
X41851471Y-42458800D01*
X41825444Y-42399852D01*
X41825442Y-42399849D01*
X41825441Y-42399847D01*
X41747753Y-42322159D01*
X41715594Y-42307959D01*
X41647248Y-42277781D01*
X41622673Y-42274930D01*
X39834935Y-42274930D01*
X39834909Y-42274932D01*
X39810356Y-42277779D01*
X39810352Y-42277781D01*
X39709852Y-42322155D01*
X39709844Y-42322161D01*
X39632161Y-42399844D01*
X39632157Y-42399851D01*
X39587781Y-42500350D01*
X39587781Y-42500352D01*
X39584930Y-42524925D01*
X31712669Y-42524925D01*
X31712667Y-42524909D01*
X31709820Y-42500356D01*
X31709819Y-42500354D01*
X31709819Y-42500353D01*
X31691471Y-42458800D01*
X31665444Y-42399852D01*
X31665442Y-42399849D01*
X31665441Y-42399847D01*
X31587753Y-42322159D01*
X31555594Y-42307959D01*
X31487248Y-42277781D01*
X31462673Y-42274930D01*
X29674935Y-42274930D01*
X29674909Y-42274932D01*
X29650356Y-42277779D01*
X29650352Y-42277781D01*
X29549852Y-42322155D01*
X29549844Y-42322161D01*
X29472161Y-42399844D01*
X29472157Y-42399851D01*
X29427781Y-42500350D01*
X29427781Y-42500352D01*
X29424930Y-42524925D01*
X16010000Y-42524925D01*
X16010000Y-42089998D01*
X53396221Y-42089998D01*
X53396221Y-42090001D01*
X53415771Y-42238503D01*
X53415773Y-42238508D01*
X53473090Y-42376885D01*
X53473090Y-42376886D01*
X53473092Y-42376889D01*
X53473093Y-42376890D01*
X53564277Y-42495723D01*
X53683110Y-42586907D01*
X53683113Y-42586908D01*
X53683114Y-42586909D01*
X53752302Y-42615567D01*
X53821495Y-42644228D01*
X53895747Y-42654003D01*
X53969999Y-42663779D01*
X53970000Y-42663779D01*
X53970001Y-42663779D01*
X54019501Y-42657262D01*
X54118505Y-42644228D01*
X54256885Y-42586909D01*
X54256886Y-42586909D01*
X54256886Y-42586908D01*
X54256890Y-42586907D01*
X54375723Y-42495723D01*
X54466907Y-42376890D01*
X54524228Y-42238505D01*
X54543779Y-42090000D01*
X54534914Y-42022667D01*
X54524228Y-41941496D01*
X54524228Y-41941495D01*
X54466907Y-41803111D01*
X54443551Y-41772673D01*
X54375724Y-41684278D01*
X54375723Y-41684277D01*
X54256890Y-41593093D01*
X54256887Y-41593092D01*
X54256885Y-41593090D01*
X54118508Y-41535773D01*
X54118503Y-41535771D01*
X53970001Y-41516221D01*
X53969999Y-41516221D01*
X53821496Y-41535771D01*
X53821494Y-41535772D01*
X53683111Y-41593092D01*
X53564277Y-41684277D01*
X53473092Y-41803111D01*
X53415772Y-41941494D01*
X53415771Y-41941496D01*
X53396221Y-42089998D01*
X16010000Y-42089998D01*
X16010000Y-39984925D01*
X29424930Y-39984925D01*
X29424930Y-41772664D01*
X29424932Y-41772690D01*
X29427779Y-41797243D01*
X29427781Y-41797247D01*
X29472155Y-41897747D01*
X29472158Y-41897751D01*
X29472159Y-41897753D01*
X29549847Y-41975441D01*
X29650353Y-42019819D01*
X29674927Y-42022670D01*
X31462672Y-42022669D01*
X31462687Y-42022667D01*
X31462690Y-42022667D01*
X31487243Y-42019820D01*
X31487244Y-42019819D01*
X31487247Y-42019819D01*
X31561651Y-41986966D01*
X31587747Y-41975444D01*
X31587748Y-41975443D01*
X31587753Y-41975441D01*
X31665441Y-41897753D01*
X31709819Y-41797247D01*
X31712670Y-41772673D01*
X31712669Y-39984928D01*
X31712667Y-39984909D01*
X31709820Y-39960356D01*
X31709819Y-39960354D01*
X31709819Y-39960353D01*
X31691471Y-39918800D01*
X31665444Y-39859852D01*
X31665442Y-39859849D01*
X31665441Y-39859847D01*
X31587753Y-39782159D01*
X31555594Y-39767959D01*
X31487248Y-39737781D01*
X31462673Y-39734930D01*
X29674935Y-39734930D01*
X29674909Y-39734932D01*
X29650356Y-39737779D01*
X29650352Y-39737781D01*
X29549852Y-39782155D01*
X29549844Y-39782161D01*
X29472161Y-39859844D01*
X29472157Y-39859851D01*
X29427781Y-39960350D01*
X29427781Y-39960352D01*
X29424930Y-39984925D01*
X16010000Y-39984925D01*
X16010000Y-39318799D01*
X31960030Y-39318799D01*
X31960030Y-39318800D01*
X31979589Y-39529885D01*
X31979590Y-39529887D01*
X32037602Y-39733779D01*
X32037608Y-39733794D01*
X32132092Y-39923543D01*
X32132097Y-39923551D01*
X32259850Y-40092723D01*
X32391448Y-40212690D01*
X32416511Y-40235538D01*
X32596749Y-40347137D01*
X32794424Y-40423716D01*
X33002805Y-40462670D01*
X33002808Y-40462670D01*
X33214792Y-40462670D01*
X33214795Y-40462670D01*
X33423176Y-40423716D01*
X33620851Y-40347137D01*
X33801089Y-40235538D01*
X33957751Y-40092721D01*
X34085504Y-39923549D01*
X34179996Y-39733784D01*
X34238010Y-39529886D01*
X34257570Y-39318800D01*
X34238010Y-39107714D01*
X34179996Y-38903816D01*
X34179991Y-38903805D01*
X34085507Y-38714056D01*
X34085502Y-38714048D01*
X33957749Y-38544876D01*
X33826169Y-38424925D01*
X37044930Y-38424925D01*
X37044930Y-40212664D01*
X37044932Y-40212690D01*
X37047779Y-40237243D01*
X37047781Y-40237247D01*
X37092155Y-40337747D01*
X37092158Y-40337751D01*
X37092159Y-40337753D01*
X37169847Y-40415441D01*
X37270353Y-40459819D01*
X37294927Y-40462670D01*
X39082672Y-40462669D01*
X39082687Y-40462667D01*
X39082690Y-40462667D01*
X39107243Y-40459820D01*
X39107244Y-40459819D01*
X39107247Y-40459819D01*
X39189017Y-40423714D01*
X39207747Y-40415444D01*
X39207748Y-40415443D01*
X39207753Y-40415441D01*
X39285441Y-40337753D01*
X39329819Y-40237247D01*
X39332670Y-40212673D01*
X39332670Y-39984925D01*
X39584930Y-39984925D01*
X39584930Y-41772664D01*
X39584932Y-41772690D01*
X39587779Y-41797243D01*
X39587781Y-41797247D01*
X39632155Y-41897747D01*
X39632158Y-41897751D01*
X39632159Y-41897753D01*
X39709847Y-41975441D01*
X39810353Y-42019819D01*
X39834927Y-42022670D01*
X41622672Y-42022669D01*
X41622687Y-42022667D01*
X41622690Y-42022667D01*
X41647243Y-42019820D01*
X41647244Y-42019819D01*
X41647247Y-42019819D01*
X41721651Y-41986966D01*
X41747747Y-41975444D01*
X41747748Y-41975443D01*
X41747753Y-41975441D01*
X41825441Y-41897753D01*
X41869819Y-41797247D01*
X41872670Y-41772673D01*
X41872669Y-39984928D01*
X41872667Y-39984909D01*
X41869820Y-39960356D01*
X41869819Y-39960354D01*
X41869819Y-39960353D01*
X41851471Y-39918800D01*
X41825444Y-39859852D01*
X41825442Y-39859849D01*
X41825441Y-39859847D01*
X41747753Y-39782159D01*
X41715594Y-39767959D01*
X41647248Y-39737781D01*
X41622673Y-39734930D01*
X39834935Y-39734930D01*
X39834909Y-39734932D01*
X39810356Y-39737779D01*
X39810352Y-39737781D01*
X39709852Y-39782155D01*
X39709844Y-39782161D01*
X39632161Y-39859844D01*
X39632157Y-39859851D01*
X39587781Y-39960350D01*
X39587781Y-39960352D01*
X39584930Y-39984925D01*
X39332670Y-39984925D01*
X39332669Y-38424928D01*
X39332667Y-38424909D01*
X39329820Y-38400356D01*
X39329819Y-38400354D01*
X39329819Y-38400353D01*
X39305495Y-38345265D01*
X39285444Y-38299852D01*
X39285442Y-38299849D01*
X39285441Y-38299847D01*
X39207753Y-38222159D01*
X39175594Y-38207959D01*
X39107248Y-38177781D01*
X39082673Y-38174930D01*
X37294935Y-38174930D01*
X37294909Y-38174932D01*
X37270356Y-38177779D01*
X37270352Y-38177781D01*
X37169852Y-38222155D01*
X37169844Y-38222161D01*
X37092161Y-38299844D01*
X37092157Y-38299851D01*
X37047781Y-38400350D01*
X37047781Y-38400352D01*
X37044930Y-38424925D01*
X33826169Y-38424925D01*
X33801090Y-38402063D01*
X33801089Y-38402062D01*
X33620851Y-38290463D01*
X33620849Y-38290462D01*
X33423179Y-38213885D01*
X33423178Y-38213884D01*
X33423176Y-38213884D01*
X33214795Y-38174930D01*
X33002805Y-38174930D01*
X32794424Y-38213884D01*
X32794422Y-38213884D01*
X32794420Y-38213885D01*
X32596750Y-38290462D01*
X32596748Y-38290463D01*
X32416509Y-38402063D01*
X32259850Y-38544876D01*
X32132097Y-38714048D01*
X32132092Y-38714056D01*
X32037608Y-38903805D01*
X32037602Y-38903820D01*
X31979590Y-39107712D01*
X31979589Y-39107714D01*
X31960030Y-39318799D01*
X16010000Y-39318799D01*
X16010000Y-35729699D01*
X56294579Y-35729699D01*
X56294579Y-35729700D01*
X56314253Y-36242984D01*
X56314254Y-36242995D01*
X56373163Y-36753271D01*
X56373166Y-36753291D01*
X56470961Y-37257553D01*
X56607070Y-37752844D01*
X56607077Y-37752867D01*
X56780703Y-38236295D01*
X56780712Y-38236317D01*
X56990819Y-38704999D01*
X56990828Y-38705018D01*
X56990830Y-38705023D01*
X56990833Y-38705028D01*
X57209807Y-39107714D01*
X57236228Y-39156302D01*
X57515427Y-39587437D01*
X57515448Y-39587466D01*
X57826836Y-39995968D01*
X57826843Y-39995977D01*
X58168590Y-40379447D01*
X58168599Y-40379457D01*
X58538711Y-40735654D01*
X58648387Y-40826103D01*
X58935013Y-41062482D01*
X58935025Y-41062491D01*
X59355132Y-41357986D01*
X59355138Y-41357990D01*
X59355151Y-41357999D01*
X59796687Y-41620494D01*
X59796696Y-41620498D01*
X59796697Y-41620499D01*
X60257001Y-41848411D01*
X60257032Y-41848425D01*
X60487958Y-41941496D01*
X60733455Y-42040440D01*
X61223187Y-42195426D01*
X61723333Y-42312465D01*
X61723336Y-42312465D01*
X61723347Y-42312468D01*
X62230999Y-42390879D01*
X62743164Y-42430200D01*
X62743165Y-42430200D01*
X63256835Y-42430200D01*
X63256836Y-42430200D01*
X63769001Y-42390879D01*
X64276653Y-42312468D01*
X64776813Y-42195426D01*
X65266545Y-42040440D01*
X65742977Y-41848421D01*
X65742988Y-41848415D01*
X65742998Y-41848411D01*
X66000565Y-41720881D01*
X66203313Y-41620494D01*
X66644849Y-41357999D01*
X66767540Y-41271699D01*
X67064974Y-41062491D01*
X67064986Y-41062482D01*
X67064988Y-41062480D01*
X67064997Y-41062474D01*
X67461289Y-40735654D01*
X67831401Y-40379457D01*
X68173160Y-39995973D01*
X68484561Y-39587454D01*
X68763776Y-39156295D01*
X69009167Y-38705028D01*
X69219294Y-38236301D01*
X69392924Y-37752864D01*
X69529038Y-37257554D01*
X69626836Y-36753278D01*
X69685746Y-36242995D01*
X69695060Y-35999996D01*
X87076183Y-35999996D01*
X87076183Y-36000003D01*
X87095953Y-36339434D01*
X87095954Y-36339445D01*
X87154991Y-36674261D01*
X87154993Y-36674270D01*
X87154995Y-36674279D01*
X87167234Y-36715159D01*
X87252511Y-37000005D01*
X87387178Y-37312198D01*
X87387184Y-37312211D01*
X87557187Y-37606665D01*
X87760222Y-37879389D01*
X87760227Y-37879395D01*
X87880731Y-38007121D01*
X87993555Y-38126707D01*
X88165215Y-38270747D01*
X88254015Y-38345259D01*
X88254023Y-38345265D01*
X88538087Y-38532098D01*
X88538091Y-38532100D01*
X88841935Y-38684696D01*
X89161440Y-38800986D01*
X89161446Y-38800987D01*
X89161448Y-38800988D01*
X89492269Y-38879395D01*
X89492276Y-38879396D01*
X89492285Y-38879398D01*
X89829995Y-38918870D01*
X89830002Y-38918870D01*
X90169998Y-38918870D01*
X90170005Y-38918870D01*
X90507715Y-38879398D01*
X90507724Y-38879395D01*
X90507730Y-38879395D01*
X90774587Y-38816147D01*
X90838560Y-38800986D01*
X91158065Y-38684696D01*
X91461909Y-38532100D01*
X91745982Y-38345261D01*
X92006445Y-38126707D01*
X92239774Y-37879393D01*
X92442813Y-37606664D01*
X92612818Y-37312207D01*
X92747489Y-37000004D01*
X92845005Y-36674279D01*
X92904047Y-36339434D01*
X92923817Y-36000000D01*
X92904047Y-35660566D01*
X92845005Y-35325721D01*
X92747489Y-34999996D01*
X92612818Y-34687793D01*
X92442813Y-34393336D01*
X92442812Y-34393334D01*
X92239777Y-34120610D01*
X92239772Y-34120604D01*
X92126950Y-34001021D01*
X92006445Y-33873293D01*
X91807734Y-33706555D01*
X91745984Y-33654740D01*
X91745976Y-33654734D01*
X91461912Y-33467901D01*
X91158072Y-33315307D01*
X91158066Y-33315304D01*
X90838572Y-33199018D01*
X90838551Y-33199011D01*
X90507730Y-33120604D01*
X90507715Y-33120602D01*
X90170005Y-33081130D01*
X89829995Y-33081130D01*
X89534498Y-33115668D01*
X89492284Y-33120602D01*
X89492269Y-33120604D01*
X89161448Y-33199011D01*
X89161427Y-33199018D01*
X88841933Y-33315304D01*
X88841927Y-33315307D01*
X88538087Y-33467901D01*
X88254023Y-33654734D01*
X88254015Y-33654740D01*
X87993555Y-33873293D01*
X87993553Y-33873295D01*
X87760227Y-34120604D01*
X87760222Y-34120610D01*
X87557187Y-34393334D01*
X87387184Y-34687788D01*
X87387178Y-34687801D01*
X87252511Y-34999994D01*
X87193757Y-35196246D01*
X87187723Y-35216404D01*
X87154993Y-35325729D01*
X87154991Y-35325738D01*
X87095954Y-35660554D01*
X87095953Y-35660565D01*
X87076183Y-35999996D01*
X69695060Y-35999996D01*
X69705421Y-35729700D01*
X69685746Y-35216405D01*
X69626836Y-34706122D01*
X69529038Y-34201846D01*
X69392924Y-33706536D01*
X69219294Y-33223099D01*
X69219293Y-33223097D01*
X69219287Y-33223082D01*
X69009180Y-32754400D01*
X69009171Y-32754381D01*
X69009167Y-32754372D01*
X68763776Y-32303105D01*
X68763771Y-32303097D01*
X68484572Y-31871962D01*
X68484565Y-31871953D01*
X68484561Y-31871946D01*
X68173160Y-31463427D01*
X68052884Y-31328467D01*
X67831409Y-31079952D01*
X67831401Y-31079943D01*
X67461289Y-30723746D01*
X67064997Y-30396926D01*
X67064996Y-30396925D01*
X67064986Y-30396917D01*
X67064974Y-30396908D01*
X66644867Y-30101413D01*
X66644855Y-30101405D01*
X66644849Y-30101401D01*
X66203313Y-29838906D01*
X66203311Y-29838905D01*
X66203302Y-29838900D01*
X65742998Y-29610988D01*
X65742967Y-29610974D01*
X65266568Y-29418969D01*
X65266561Y-29418966D01*
X65266545Y-29418960D01*
X65171440Y-29388862D01*
X64776812Y-29263973D01*
X64276666Y-29146934D01*
X64259527Y-29144286D01*
X63769001Y-29068521D01*
X63768996Y-29068520D01*
X63768985Y-29068519D01*
X63256840Y-29029200D01*
X63256836Y-29029200D01*
X62743164Y-29029200D01*
X62743159Y-29029200D01*
X62231014Y-29068519D01*
X62231001Y-29068520D01*
X62230999Y-29068521D01*
X62230993Y-29068522D01*
X61723333Y-29146934D01*
X61223187Y-29263973D01*
X60733464Y-29418957D01*
X60733455Y-29418960D01*
X60733448Y-29418962D01*
X60733431Y-29418969D01*
X60257032Y-29610974D01*
X60257001Y-29610988D01*
X59796697Y-29838900D01*
X59796679Y-29838910D01*
X59355163Y-30101393D01*
X59355132Y-30101413D01*
X58935025Y-30396908D01*
X58935013Y-30396917D01*
X58538713Y-30723744D01*
X58168590Y-31079952D01*
X57826843Y-31463422D01*
X57826836Y-31463431D01*
X57515448Y-31871933D01*
X57515427Y-31871962D01*
X57236228Y-32303097D01*
X56990828Y-32754381D01*
X56990819Y-32754400D01*
X56780712Y-33223082D01*
X56780703Y-33223104D01*
X56607077Y-33706532D01*
X56607070Y-33706555D01*
X56470961Y-34201846D01*
X56373166Y-34706108D01*
X56373163Y-34706128D01*
X56314254Y-35216404D01*
X56314253Y-35216415D01*
X56294579Y-35729699D01*
X16010000Y-35729699D01*
X16010000Y-34284000D01*
X16029685Y-34216961D01*
X16082489Y-34171206D01*
X16134000Y-34160000D01*
X49570000Y-34160000D01*
X49570000Y-23000000D01*
X59870076Y-23000000D01*
X59889755Y-23350435D01*
X59889757Y-23350447D01*
X59948549Y-23696470D01*
X59948551Y-23696479D01*
X60045716Y-24033745D01*
X60180032Y-24358016D01*
X60180034Y-24358020D01*
X60349818Y-24665220D01*
X60552928Y-24951477D01*
X60619960Y-25026485D01*
X61795238Y-23851207D01*
X61874933Y-23960898D01*
X62039102Y-24125067D01*
X62148791Y-24204760D01*
X60973513Y-25380038D01*
X61048522Y-25447071D01*
X61334779Y-25650181D01*
X61641979Y-25819965D01*
X61641983Y-25819967D01*
X61966254Y-25954283D01*
X62303520Y-26051448D01*
X62303529Y-26051450D01*
X62649552Y-26110242D01*
X62649564Y-26110244D01*
X63000000Y-26129923D01*
X63350435Y-26110244D01*
X63350447Y-26110242D01*
X63696470Y-26051450D01*
X63696479Y-26051448D01*
X64033745Y-25954283D01*
X64358016Y-25819967D01*
X64358020Y-25819965D01*
X64665220Y-25650181D01*
X64951477Y-25447071D01*
X65026485Y-25380038D01*
X63851208Y-24204761D01*
X63960898Y-24125067D01*
X64125067Y-23960898D01*
X64204761Y-23851208D01*
X65380038Y-25026485D01*
X65447071Y-24951477D01*
X65650181Y-24665220D01*
X65819965Y-24358020D01*
X65819967Y-24358016D01*
X65954283Y-24033745D01*
X66051448Y-23696479D01*
X66051450Y-23696470D01*
X66110242Y-23350447D01*
X66110244Y-23350435D01*
X66129923Y-23000000D01*
X66110244Y-22649564D01*
X66110242Y-22649552D01*
X66051450Y-22303529D01*
X66051448Y-22303520D01*
X65954283Y-21966254D01*
X65819967Y-21641983D01*
X65819965Y-21641979D01*
X65650181Y-21334779D01*
X65447071Y-21048522D01*
X65380038Y-20973513D01*
X64204760Y-22148791D01*
X64125067Y-22039102D01*
X63960898Y-21874933D01*
X63851208Y-21795238D01*
X65026486Y-20619960D01*
X64951477Y-20552928D01*
X64665220Y-20349818D01*
X64358020Y-20180034D01*
X64358016Y-20180032D01*
X64033745Y-20045716D01*
X63696479Y-19948551D01*
X63696470Y-19948549D01*
X63350447Y-19889757D01*
X63350435Y-19889755D01*
X63000000Y-19870076D01*
X62649564Y-19889755D01*
X62649552Y-19889757D01*
X62303529Y-19948549D01*
X62303520Y-19948551D01*
X61966254Y-20045716D01*
X61641983Y-20180032D01*
X61641979Y-20180034D01*
X61334775Y-20349820D01*
X61334770Y-20349823D01*
X61048528Y-20552924D01*
X61048520Y-20552929D01*
X60973513Y-20619959D01*
X60973513Y-20619960D01*
X62148791Y-21795238D01*
X62039102Y-21874933D01*
X61874933Y-22039102D01*
X61795238Y-22148791D01*
X60619960Y-20973513D01*
X60619959Y-20973513D01*
X60552929Y-21048520D01*
X60552924Y-21048528D01*
X60349823Y-21334770D01*
X60349820Y-21334775D01*
X60180034Y-21641979D01*
X60180032Y-21641983D01*
X60045716Y-21966254D01*
X59948551Y-22303520D01*
X59948549Y-22303529D01*
X59889757Y-22649552D01*
X59889755Y-22649564D01*
X59870076Y-23000000D01*
X49570000Y-23000000D01*
X49570000Y-15651711D01*
X49589685Y-15584672D01*
X49642489Y-15538917D01*
X49693633Y-15527712D01*
X99685643Y-15381422D01*
X99752734Y-15400909D01*
G37*
%TD.AperFunction*%
%TD*%
M02*
